<?xml version="1.0"?>
<svg height="600" width="720" >
 <g style="fill-opacity:1.0; stroke:black;
  stroke-width:1;">
  <rect x="10" y="10" height="500"
        width="700" style="fill:none;" />
  <line x1="410" y1="310" x2="530" y2="310" />
  <line x1="410" y1="310" x2="527" y2="333" />
  <line x1="410" y1="310" x2="520" y2="355" />
  <line x1="410" y1="310" x2="509" y2="376" />
  <line x1="410" y1="310" x2="494" y2="394" />
  <line x1="410" y1="310" x2="476" y2="409" />
  <line x1="410" y1="310" x2="455" y2="420" />
  <line x1="410" y1="310" x2="433" y2="427" />
  <line x1="410" y1="310" x2="410" y2="430" />
  <line x1="410" y1="310" x2="386" y2="427" />
  <line x1="410" y1="310" x2="364" y2="420" />
  <line x1="410" y1="310" x2="343" y2="409" />
  <line x1="410" y1="310" x2="325" y2="394" />
  <line x1="410" y1="310" x2="310" y2="376" />
  <line x1="410" y1="310" x2="299" y2="355" />
  <line x1="410" y1="310" x2="292" y2="333" />
  <line x1="410" y1="310" x2="290" y2="310" />
  <line x1="410" y1="310" x2="292" y2="286" />
  <line x1="410" y1="310" x2="299" y2="264" />
  <line x1="410" y1="310" x2="310" y2="243" />
  <line x1="410" y1="310" x2="325" y2="225" />
  <line x1="410" y1="310" x2="343" y2="210" />
  <line x1="410" y1="310" x2="364" y2="199" />
  <line x1="410" y1="310" x2="386" y2="192" />
  <line x1="410" y1="310" x2="410" y2="190" />
  <line x1="410" y1="310" x2="433" y2="192" />
  <line x1="410" y1="310" x2="455" y2="199" />
  <line x1="410" y1="310" x2="476" y2="210" />
  <line x1="410" y1="310" x2="494" y2="225" />
  <line x1="410" y1="310" x2="509" y2="243" />
  <line x1="410" y1="310" x2="520" y2="264" />
  <line x1="410" y1="310" x2="527" y2="286" />
  <circle cx="271" cy="256" r="10"
          style="fill:red;" />
  <circle cx="21" cy="256" r="10"
          style="fill:red;" />
  <circle cx="112" cy="208" r="10"
          style="fill:red;" />
  <circle cx="107" cy="44" r="10"
          style="fill:red;" />
  <circle cx="154" cy="70" r="10"
          style="fill:red;" />
  <circle cx="393" cy="453" r="10"
          style="fill:red;" />
  <circle cx="479" cy="192" r="10"
          style="fill:red;" />
  <circle cx="669" cy="457" r="10"
          style="fill:red;" />
  <circle cx="583" cy="74" r="10"
          style="fill:red;" />
  <circle cx="211" cy="36" r="10"
          style="fill:red;" />
  <circle cx="530" cy="140" r="10"
          style="fill:red;" />
  <circle cx="546" cy="32" r="10"
          style="fill:red;" />
  <circle cx="589" cy="460" r="10"
          style="fill:red;" />
  <circle cx="599" cy="68" r="10"
          style="fill:red;" />
  <circle cx="466" cy="277" r="10"
          style="fill:red;" />
  <circle cx="274" cy="378" r="10"
          style="fill:red;" />
  <circle cx="463" cy="235" r="10"
          style="fill:red;" />
  <circle cx="537" cy="471" r="10"
          style="fill:red;" />
  <circle cx="199" cy="459" r="10"
          style="fill:red;" />
  <circle cx="662" cy="202" r="10"
          style="fill:red;" />
  <circle cx="188" cy="79" r="10"
          style="fill:red;" />
  <circle cx="487" cy="145" r="10"
          style="fill:red;" />
  <circle cx="382" cy="42" r="10"
          style="fill:red;" />
  <circle cx="330" cy="361" r="10"
          style="fill:red;" />
  <circle cx="400" cy="492" r="10"
          style="fill:red;" />
  <circle cx="301" cy="411" r="10"
          style="fill:green;" />
  <circle cx="482" cy="132" r="10"
          style="fill:green;" />
  <circle cx="537" cy="132" r="10"
          style="fill:green;" />
  <circle cx="452" cy="263" r="10"
          style="fill:green;" />
  <circle cx="582" cy="440" r="10"
          style="fill:green;" />
  <circle cx="465" cy="329" r="10"
          style="fill:green;" />
  <circle cx="403" cy="376" r="10"
          style="fill:green;" />
  <circle cx="683" cy="470" r="10"
          style="fill:green;" />
  <circle cx="374" cy="485" r="10"
          style="fill:green;" />
  <circle cx="164" cy="343" r="10"
          style="fill:green;" />
  <circle cx="622" cy="308" r="10"
          style="fill:green;" />
  <circle cx="535" cy="477" r="10"
          style="fill:green;" />
  <circle cx="486" cy="441" r="10"
          style="fill:green;" />
  <circle cx="135" cy="92" r="10"
          style="fill:green;" />
  <circle cx="111" cy="152" r="10"
          style="fill:green;" />
  <circle cx="89" cy="386" r="10"
          style="fill:green;" />
  <circle cx="317" cy="422" r="10"
          style="fill:green;" />
  <circle cx="533" cy="474" r="10"
          style="fill:green;" />
  <circle cx="662" cy="43" r="10"
          style="fill:green;" />
  <circle cx="45" cy="384" r="10"
          style="fill:green;" />
  <circle cx="497" cy="361" r="10"
          style="fill:green;" />
  <circle cx="623" cy="311" r="10"
          style="fill:green;" />
  <circle cx="370" cy="346" r="10"
          style="fill:green;" />
  <circle cx="197" cy="170" r="10"
          style="fill:green;" />
  <circle cx="286" cy="235" r="10"
          style="fill:green;" />
  <circle cx="682" cy="54" r="10"
          style="fill:orange;" />
  <circle cx="528" cy="484" r="10"
          style="fill:orange;" />
  <circle cx="443" cy="472" r="10"
          style="fill:orange;" />
  <circle cx="193" cy="266" r="10"
          style="fill:orange;" />
  <circle cx="497" cy="273" r="10"
          style="fill:orange;" />
  <circle cx="410" cy="310" r="10"
          style="fill:yellow;" />
  <text x="10" y="535" font-size="15">
   DTW        = 190.0
  </text>
  <text x="10" y="555" font-size="15">
   experience = 0
  </text>
  <text x="10" y="575" font-size="15">
   reward = 0.0
  </text>
  <text x="10" y="595" font-size="15">
   objects eaten => 
  </text>
 </g>
</svg>
