<?xml version="1.0"?>
<svg height="600" width="720" >
 <g style="fill-opacity:1.0; stroke:black;
  stroke-width:1;">
  <rect x="10" y="10" height="500"
        width="700" style="fill:none;" />
  <line x1="307" y1="219" x2="427" y2="219" />
  <line x1="307" y1="219" x2="425" y2="243" />
  <line x1="307" y1="219" x2="418" y2="265" />
  <line x1="307" y1="219" x2="407" y2="286" />
  <line x1="307" y1="219" x2="392" y2="304" />
  <line x1="307" y1="219" x2="374" y2="319" />
  <line x1="307" y1="219" x2="353" y2="330" />
  <line x1="307" y1="219" x2="331" y2="337" />
  <line x1="307" y1="219" x2="307" y2="339" />
  <line x1="307" y1="219" x2="284" y2="337" />
  <line x1="307" y1="219" x2="261" y2="330" />
  <line x1="307" y1="219" x2="241" y2="319" />
  <line x1="307" y1="219" x2="223" y2="304" />
  <line x1="307" y1="219" x2="208" y2="286" />
  <line x1="307" y1="219" x2="197" y2="265" />
  <line x1="307" y1="219" x2="190" y2="243" />
  <line x1="307" y1="219" x2="187" y2="219" />
  <line x1="307" y1="219" x2="190" y2="196" />
  <line x1="307" y1="219" x2="197" y2="173" />
  <line x1="307" y1="219" x2="208" y2="153" />
  <line x1="307" y1="219" x2="223" y2="134" />
  <line x1="307" y1="219" x2="241" y2="120" />
  <line x1="307" y1="219" x2="261" y2="108" />
  <line x1="307" y1="219" x2="284" y2="102" />
  <line x1="307" y1="219" x2="307" y2="99" />
  <line x1="307" y1="219" x2="331" y2="102" />
  <line x1="307" y1="219" x2="353" y2="108" />
  <line x1="307" y1="219" x2="374" y2="120" />
  <line x1="307" y1="219" x2="392" y2="134" />
  <line x1="307" y1="219" x2="407" y2="153" />
  <line x1="307" y1="219" x2="418" y2="173" />
  <line x1="307" y1="219" x2="425" y2="196" />
  <circle cx="264" cy="418" r="10"
          style="fill:red;" />
  <circle cx="48" cy="412" r="10"
          style="fill:red;" />
  <circle cx="170" cy="22" r="10"
          style="fill:red;" />
  <circle cx="28" cy="104" r="10"
          style="fill:red;" />
  <circle cx="318" cy="45" r="10"
          style="fill:red;" />
  <circle cx="310" cy="398" r="10"
          style="fill:red;" />
  <circle cx="371" cy="258" r="10"
          style="fill:red;" />
  <circle cx="582" cy="308" r="10"
          style="fill:red;" />
  <circle cx="653" cy="32" r="10"
          style="fill:red;" />
  <circle cx="42" cy="168" r="10"
          style="fill:red;" />
  <circle cx="555" cy="327" r="10"
          style="fill:red;" />
  <circle cx="626" cy="75" r="10"
          style="fill:red;" />
  <circle cx="470" cy="413" r="10"
          style="fill:red;" />
  <circle cx="629" cy="69" r="10"
          style="fill:red;" />
  <circle cx="450" cy="266" r="10"
          style="fill:red;" />
  <circle cx="194" cy="255" r="10"
          style="fill:red;" />
  <circle cx="401" cy="405" r="10"
          style="fill:red;" />
  <circle cx="605" cy="376" r="10"
          style="fill:red;" />
  <circle cx="393" cy="324" r="10"
          style="fill:red;" />
  <circle cx="630" cy="54" r="10"
          style="fill:red;" />
  <circle cx="179" cy="146" r="10"
          style="fill:red;" />
  <circle cx="346" cy="235" r="10"
          style="fill:red;" />
  <circle cx="225" cy="143" r="10"
          style="fill:red;" />
  <circle cx="176" cy="490" r="10"
          style="fill:red;" />
  <circle cx="454" cy="302" r="10"
          style="fill:red;" />
  <circle cx="397" cy="292" r="10"
          style="fill:green;" />
  <circle cx="426" cy="157" r="10"
          style="fill:green;" />
  <circle cx="675" cy="89" r="10"
          style="fill:green;" />
  <circle cx="469" cy="451" r="10"
          style="fill:green;" />
  <circle cx="420" cy="264" r="10"
          style="fill:green;" />
  <circle cx="286" cy="485" r="10"
          style="fill:green;" />
  <circle cx="497" cy="324" r="10"
          style="fill:green;" />
  <circle cx="521" cy="343" r="10"
          style="fill:green;" />
  <circle cx="87" cy="265" r="10"
          style="fill:green;" />
  <circle cx="605" cy="173" r="10"
          style="fill:green;" />
  <circle cx="510" cy="427" r="10"
          style="fill:green;" />
  <circle cx="672" cy="277" r="10"
          style="fill:green;" />
  <circle cx="158" cy="255" r="10"
          style="fill:green;" />
  <circle cx="298" cy="118" r="10"
          style="fill:green;" />
  <circle cx="177" cy="348" r="10"
          style="fill:green;" />
  <circle cx="449" cy="295" r="10"
          style="fill:green;" />
  <circle cx="373" cy="467" r="10"
          style="fill:green;" />
  <circle cx="555" cy="74" r="10"
          style="fill:green;" />
  <circle cx="122" cy="307" r="10"
          style="fill:green;" />
  <circle cx="614" cy="414" r="10"
          style="fill:green;" />
  <circle cx="501" cy="491" r="10"
          style="fill:green;" />
  <circle cx="527" cy="335" r="10"
          style="fill:green;" />
  <circle cx="34" cy="191" r="10"
          style="fill:green;" />
  <circle cx="181" cy="259" r="10"
          style="fill:green;" />
  <circle cx="630" cy="115" r="10"
          style="fill:orange;" />
  <circle cx="485" cy="303" r="10"
          style="fill:orange;" />
  <circle cx="594" cy="399" r="10"
          style="fill:orange;" />
  <circle cx="189" cy="216" r="10"
          style="fill:orange;" />
  <circle cx="686" cy="84" r="10"
          style="fill:orange;" />
  <circle cx="521" cy="263" r="10"
          style="fill:green;" />
  <circle cx="307" cy="219" r="10"
          style="fill:yellow;" />
  <text x="10" y="535" font-size="15">
   DTW        = 199.8
  </text>
  <text x="10" y="555" font-size="15">
   experience = 8
  </text>
  <text x="10" y="575" font-size="15">
   reward = 0.0
  </text>
  <text x="10" y="595" font-size="15">
   objects eaten => friend: 1
  </text>
 </g>
</svg>
