<?xml version="1.0"?>
<svg height="600" width="720" >
 <g style="fill-opacity:1.0; stroke:black;
  stroke-width:1;">
  <rect x="10" y="10" height="500"
        width="700" style="fill:none;" />
  <line x1="306" y1="210" x2="426" y2="210" />
  <line x1="306" y1="210" x2="424" y2="234" />
  <line x1="306" y1="210" x2="417" y2="256" />
  <line x1="306" y1="210" x2="406" y2="277" />
  <line x1="306" y1="210" x2="391" y2="295" />
  <line x1="306" y1="210" x2="373" y2="310" />
  <line x1="306" y1="210" x2="352" y2="321" />
  <line x1="306" y1="210" x2="330" y2="328" />
  <line x1="306" y1="210" x2="306" y2="330" />
  <line x1="306" y1="210" x2="283" y2="328" />
  <line x1="306" y1="210" x2="260" y2="321" />
  <line x1="306" y1="210" x2="240" y2="310" />
  <line x1="306" y1="210" x2="221" y2="295" />
  <line x1="306" y1="210" x2="206" y2="277" />
  <line x1="306" y1="210" x2="195" y2="256" />
  <line x1="306" y1="210" x2="189" y2="234" />
  <line x1="306" y1="210" x2="186" y2="210" />
  <line x1="306" y1="210" x2="189" y2="187" />
  <line x1="306" y1="210" x2="195" y2="164" />
  <line x1="306" y1="210" x2="206" y2="144" />
  <line x1="306" y1="210" x2="221" y2="125" />
  <line x1="306" y1="210" x2="240" y2="110" />
  <line x1="306" y1="210" x2="260" y2="99" />
  <line x1="306" y1="210" x2="283" y2="92" />
  <line x1="306" y1="210" x2="306" y2="90" />
  <line x1="306" y1="210" x2="330" y2="92" />
  <line x1="306" y1="210" x2="352" y2="99" />
  <line x1="306" y1="210" x2="373" y2="110" />
  <line x1="306" y1="210" x2="391" y2="125" />
  <line x1="306" y1="210" x2="406" y2="144" />
  <line x1="306" y1="210" x2="417" y2="164" />
  <line x1="306" y1="210" x2="424" y2="187" />
  <circle cx="264" cy="421" r="10"
          style="fill:red;" />
  <circle cx="48" cy="415" r="10"
          style="fill:red;" />
  <circle cx="171" cy="26" r="10"
          style="fill:red;" />
  <circle cx="26" cy="105" r="10"
          style="fill:red;" />
  <circle cx="321" cy="46" r="10"
          style="fill:red;" />
  <circle cx="309" cy="397" r="10"
          style="fill:red;" />
  <circle cx="368" cy="259" r="10"
          style="fill:red;" />
  <circle cx="580" cy="304" r="10"
          style="fill:red;" />
  <circle cx="654" cy="34" r="10"
          style="fill:red;" />
  <circle cx="38" cy="172" r="10"
          style="fill:red;" />
  <circle cx="555" cy="331" r="10"
          style="fill:red;" />
  <circle cx="628" cy="76" r="10"
          style="fill:red;" />
  <circle cx="467" cy="412" r="10"
          style="fill:red;" />
  <circle cx="625" cy="71" r="10"
          style="fill:red;" />
  <circle cx="449" cy="266" r="10"
          style="fill:red;" />
  <circle cx="192" cy="252" r="10"
          style="fill:red;" />
  <circle cx="399" cy="409" r="10"
          style="fill:red;" />
  <circle cx="607" cy="372" r="10"
          style="fill:red;" />
  <circle cx="397" cy="321" r="10"
          style="fill:red;" />
  <circle cx="628" cy="51" r="10"
          style="fill:red;" />
  <circle cx="178" cy="151" r="10"
          style="fill:red;" />
  <circle cx="343" cy="237" r="10"
          style="fill:red;" />
  <circle cx="221" cy="146" r="10"
          style="fill:red;" />
  <circle cx="173" cy="486" r="10"
          style="fill:red;" />
  <circle cx="455" cy="297" r="10"
          style="fill:red;" />
  <circle cx="399" cy="290" r="10"
          style="fill:green;" />
  <circle cx="424" cy="158" r="10"
          style="fill:green;" />
  <circle cx="678" cy="93" r="10"
          style="fill:green;" />
  <circle cx="469" cy="455" r="10"
          style="fill:green;" />
  <circle cx="417" cy="260" r="10"
          style="fill:green;" />
  <circle cx="284" cy="487" r="10"
          style="fill:green;" />
  <circle cx="493" cy="321" r="10"
          style="fill:green;" />
  <circle cx="524" cy="340" r="10"
          style="fill:green;" />
  <circle cx="85" cy="263" r="10"
          style="fill:green;" />
  <circle cx="601" cy="170" r="10"
          style="fill:green;" />
  <circle cx="510" cy="425" r="10"
          style="fill:green;" />
  <circle cx="676" cy="274" r="10"
          style="fill:green;" />
  <circle cx="158" cy="259" r="10"
          style="fill:green;" />
  <circle cx="302" cy="117" r="10"
          style="fill:green;" />
  <circle cx="179" cy="347" r="10"
          style="fill:green;" />
  <circle cx="452" cy="292" r="10"
          style="fill:green;" />
  <circle cx="369" cy="467" r="10"
          style="fill:green;" />
  <circle cx="550" cy="76" r="10"
          style="fill:green;" />
  <circle cx="124" cy="305" r="10"
          style="fill:green;" />
  <circle cx="617" cy="416" r="10"
          style="fill:green;" />
  <circle cx="498" cy="487" r="10"
          style="fill:green;" />
  <circle cx="530" cy="334" r="10"
          style="fill:green;" />
  <circle cx="31" cy="191" r="10"
          style="fill:green;" />
  <circle cx="179" cy="260" r="10"
          style="fill:green;" />
  <circle cx="629" cy="117" r="10"
          style="fill:orange;" />
  <circle cx="484" cy="299" r="10"
          style="fill:orange;" />
  <circle cx="597" cy="396" r="10"
          style="fill:orange;" />
  <circle cx="188" cy="215" r="10"
          style="fill:orange;" />
  <circle cx="690" cy="80" r="10"
          style="fill:orange;" />
  <circle cx="523" cy="260" r="10"
          style="fill:green;" />
  <circle cx="306" cy="210" r="10"
          style="fill:yellow;" />
  <text x="10" y="535" font-size="15">
   DTW        = 190.7
  </text>
  <text x="10" y="555" font-size="15">
   experience = 8
  </text>
  <text x="10" y="575" font-size="15">
   reward = 0.0
  </text>
  <text x="10" y="595" font-size="15">
   objects eaten => friend: 1
  </text>
 </g>
</svg>
