<?xml version="1.0"?>
<svg height="600" width="720" >
 <g style="fill-opacity:1.0; stroke:black;
  stroke-width:1;">
  <rect x="10" y="10" height="500"
        width="700" style="fill:none;" />
  <line x1="305" y1="207" x2="425" y2="207" />
  <line x1="305" y1="207" x2="423" y2="231" />
  <line x1="305" y1="207" x2="416" y2="253" />
  <line x1="305" y1="207" x2="405" y2="274" />
  <line x1="305" y1="207" x2="390" y2="292" />
  <line x1="305" y1="207" x2="372" y2="307" />
  <line x1="305" y1="207" x2="351" y2="318" />
  <line x1="305" y1="207" x2="329" y2="325" />
  <line x1="305" y1="207" x2="305" y2="327" />
  <line x1="305" y1="207" x2="282" y2="325" />
  <line x1="305" y1="207" x2="259" y2="318" />
  <line x1="305" y1="207" x2="239" y2="307" />
  <line x1="305" y1="207" x2="220" y2="292" />
  <line x1="305" y1="207" x2="206" y2="274" />
  <line x1="305" y1="207" x2="194" y2="253" />
  <line x1="305" y1="207" x2="188" y2="231" />
  <line x1="305" y1="207" x2="185" y2="207" />
  <line x1="305" y1="207" x2="188" y2="184" />
  <line x1="305" y1="207" x2="194" y2="161" />
  <line x1="305" y1="207" x2="206" y2="141" />
  <line x1="305" y1="207" x2="220" y2="123" />
  <line x1="305" y1="207" x2="239" y2="108" />
  <line x1="305" y1="207" x2="259" y2="97" />
  <line x1="305" y1="207" x2="282" y2="90" />
  <line x1="305" y1="207" x2="305" y2="87" />
  <line x1="305" y1="207" x2="329" y2="90" />
  <line x1="305" y1="207" x2="351" y2="97" />
  <line x1="305" y1="207" x2="372" y2="108" />
  <line x1="305" y1="207" x2="390" y2="123" />
  <line x1="305" y1="207" x2="405" y2="141" />
  <line x1="305" y1="207" x2="416" y2="161" />
  <line x1="305" y1="207" x2="423" y2="184" />
  <circle cx="264" cy="423" r="10"
          style="fill:red;" />
  <circle cx="48" cy="416" r="10"
          style="fill:red;" />
  <circle cx="171" cy="27" r="10"
          style="fill:red;" />
  <circle cx="26" cy="106" r="10"
          style="fill:red;" />
  <circle cx="323" cy="47" r="10"
          style="fill:red;" />
  <circle cx="308" cy="396" r="10"
          style="fill:red;" />
  <circle cx="367" cy="260" r="10"
          style="fill:red;" />
  <circle cx="579" cy="303" r="10"
          style="fill:red;" />
  <circle cx="655" cy="34" r="10"
          style="fill:red;" />
  <circle cx="37" cy="173" r="10"
          style="fill:red;" />
  <circle cx="555" cy="333" r="10"
          style="fill:red;" />
  <circle cx="628" cy="76" r="10"
          style="fill:red;" />
  <circle cx="466" cy="412" r="10"
          style="fill:red;" />
  <circle cx="624" cy="72" r="10"
          style="fill:red;" />
  <circle cx="449" cy="266" r="10"
          style="fill:red;" />
  <circle cx="191" cy="251" r="10"
          style="fill:red;" />
  <circle cx="399" cy="410" r="10"
          style="fill:red;" />
  <circle cx="607" cy="371" r="10"
          style="fill:red;" />
  <circle cx="398" cy="320" r="10"
          style="fill:red;" />
  <circle cx="627" cy="49" r="10"
          style="fill:red;" />
  <circle cx="178" cy="152" r="10"
          style="fill:red;" />
  <circle cx="342" cy="237" r="10"
          style="fill:red;" />
  <circle cx="220" cy="147" r="10"
          style="fill:red;" />
  <circle cx="171" cy="485" r="10"
          style="fill:red;" />
  <circle cx="455" cy="296" r="10"
          style="fill:red;" />
  <circle cx="399" cy="289" r="10"
          style="fill:green;" />
  <circle cx="424" cy="158" r="10"
          style="fill:green;" />
  <circle cx="679" cy="94" r="10"
          style="fill:green;" />
  <circle cx="470" cy="457" r="10"
          style="fill:green;" />
  <circle cx="416" cy="259" r="10"
          style="fill:green;" />
  <circle cx="283" cy="488" r="10"
          style="fill:green;" />
  <circle cx="491" cy="320" r="10"
          style="fill:green;" />
  <circle cx="526" cy="338" r="10"
          style="fill:green;" />
  <circle cx="85" cy="263" r="10"
          style="fill:green;" />
  <circle cx="600" cy="169" r="10"
          style="fill:green;" />
  <circle cx="510" cy="424" r="10"
          style="fill:green;" />
  <circle cx="677" cy="272" r="10"
          style="fill:green;" />
  <circle cx="158" cy="260" r="10"
          style="fill:green;" />
  <circle cx="304" cy="117" r="10"
          style="fill:green;" />
  <circle cx="180" cy="346" r="10"
          style="fill:green;" />
  <circle cx="453" cy="291" r="10"
          style="fill:green;" />
  <circle cx="368" cy="467" r="10"
          style="fill:green;" />
  <circle cx="549" cy="76" r="10"
          style="fill:green;" />
  <circle cx="124" cy="304" r="10"
          style="fill:green;" />
  <circle cx="618" cy="416" r="10"
          style="fill:green;" />
  <circle cx="497" cy="485" r="10"
          style="fill:green;" />
  <circle cx="531" cy="334" r="10"
          style="fill:green;" />
  <circle cx="29" cy="192" r="10"
          style="fill:green;" />
  <circle cx="178" cy="260" r="10"
          style="fill:green;" />
  <circle cx="629" cy="117" r="10"
          style="fill:orange;" />
  <circle cx="484" cy="298" r="10"
          style="fill:orange;" />
  <circle cx="598" cy="396" r="10"
          style="fill:orange;" />
  <circle cx="188" cy="215" r="10"
          style="fill:orange;" />
  <circle cx="691" cy="78" r="10"
          style="fill:orange;" />
  <circle cx="523" cy="260" r="10"
          style="fill:green;" />
  <circle cx="305" cy="207" r="10"
          style="fill:yellow;" />
  <text x="10" y="535" font-size="15">
   DTW        = 187.9
  </text>
  <text x="10" y="555" font-size="15">
   experience = 8
  </text>
  <text x="10" y="575" font-size="15">
   reward = 0.0
  </text>
  <text x="10" y="595" font-size="15">
   objects eaten => friend: 1
  </text>
 </g>
</svg>
