<?xml version="1.0"?>
<svg height="600" width="720" >
 <g style="fill-opacity:1.0; stroke:black;
  stroke-width:1;">
  <rect x="10" y="10" height="500"
        width="700" style="fill:none;" />
  <line x1="304" y1="205" x2="424" y2="205" />
  <line x1="304" y1="205" x2="422" y2="228" />
  <line x1="304" y1="205" x2="415" y2="250" />
  <line x1="304" y1="205" x2="404" y2="271" />
  <line x1="304" y1="205" x2="389" y2="289" />
  <line x1="304" y1="205" x2="371" y2="304" />
  <line x1="304" y1="205" x2="350" y2="315" />
  <line x1="304" y1="205" x2="328" y2="322" />
  <line x1="304" y1="205" x2="304" y2="325" />
  <line x1="304" y1="205" x2="281" y2="322" />
  <line x1="304" y1="205" x2="258" y2="315" />
  <line x1="304" y1="205" x2="238" y2="304" />
  <line x1="304" y1="205" x2="220" y2="289" />
  <line x1="304" y1="205" x2="205" y2="271" />
  <line x1="304" y1="205" x2="194" y2="250" />
  <line x1="304" y1="205" x2="187" y2="228" />
  <line x1="304" y1="205" x2="184" y2="205" />
  <line x1="304" y1="205" x2="187" y2="181" />
  <line x1="304" y1="205" x2="194" y2="159" />
  <line x1="304" y1="205" x2="205" y2="138" />
  <line x1="304" y1="205" x2="220" y2="120" />
  <line x1="304" y1="205" x2="238" y2="105" />
  <line x1="304" y1="205" x2="258" y2="94" />
  <line x1="304" y1="205" x2="281" y2="87" />
  <line x1="304" y1="205" x2="304" y2="85" />
  <line x1="304" y1="205" x2="328" y2="87" />
  <line x1="304" y1="205" x2="350" y2="94" />
  <line x1="304" y1="205" x2="371" y2="105" />
  <line x1="304" y1="205" x2="389" y2="120" />
  <line x1="304" y1="205" x2="404" y2="138" />
  <line x1="304" y1="205" x2="415" y2="159" />
  <line x1="304" y1="205" x2="422" y2="181" />
  <circle cx="263" cy="424" r="10"
          style="fill:red;" />
  <circle cx="49" cy="418" r="10"
          style="fill:red;" />
  <circle cx="172" cy="29" r="10"
          style="fill:red;" />
  <circle cx="25" cy="106" r="10"
          style="fill:red;" />
  <circle cx="324" cy="48" r="10"
          style="fill:red;" />
  <circle cx="307" cy="396" r="10"
          style="fill:red;" />
  <circle cx="366" cy="260" r="10"
          style="fill:red;" />
  <circle cx="579" cy="302" r="10"
          style="fill:red;" />
  <circle cx="655" cy="35" r="10"
          style="fill:red;" />
  <circle cx="35" cy="174" r="10"
          style="fill:red;" />
  <circle cx="556" cy="334" r="10"
          style="fill:red;" />
  <circle cx="629" cy="77" r="10"
          style="fill:red;" />
  <circle cx="465" cy="412" r="10"
          style="fill:red;" />
  <circle cx="623" cy="72" r="10"
          style="fill:red;" />
  <circle cx="449" cy="265" r="10"
          style="fill:red;" />
  <circle cx="191" cy="251" r="10"
          style="fill:red;" />
  <circle cx="398" cy="411" r="10"
          style="fill:red;" />
  <circle cx="608" cy="370" r="10"
          style="fill:red;" />
  <circle cx="400" cy="319" r="10"
          style="fill:red;" />
  <circle cx="626" cy="48" r="10"
          style="fill:red;" />
  <circle cx="178" cy="153" r="10"
          style="fill:red;" />
  <circle cx="341" cy="238" r="10"
          style="fill:red;" />
  <circle cx="219" cy="148" r="10"
          style="fill:red;" />
  <circle cx="170" cy="484" r="10"
          style="fill:red;" />
  <circle cx="456" cy="294" r="10"
          style="fill:red;" />
  <circle cx="400" cy="288" r="10"
          style="fill:green;" />
  <circle cx="424" cy="158" r="10"
          style="fill:green;" />
  <circle cx="680" cy="96" r="10"
          style="fill:green;" />
  <circle cx="470" cy="458" r="10"
          style="fill:green;" />
  <circle cx="414" cy="257" r="10"
          style="fill:green;" />
  <circle cx="282" cy="489" r="10"
          style="fill:green;" />
  <circle cx="490" cy="318" r="10"
          style="fill:green;" />
  <circle cx="527" cy="337" r="10"
          style="fill:green;" />
  <circle cx="84" cy="262" r="10"
          style="fill:green;" />
  <circle cx="599" cy="168" r="10"
          style="fill:green;" />
  <circle cx="509" cy="423" r="10"
          style="fill:green;" />
  <circle cx="679" cy="271" r="10"
          style="fill:green;" />
  <circle cx="158" cy="262" r="10"
          style="fill:green;" />
  <circle cx="305" cy="116" r="10"
          style="fill:green;" />
  <circle cx="180" cy="346" r="10"
          style="fill:green;" />
  <circle cx="454" cy="290" r="10"
          style="fill:green;" />
  <circle cx="367" cy="467" r="10"
          style="fill:green;" />
  <circle cx="548" cy="77" r="10"
          style="fill:green;" />
  <circle cx="125" cy="304" r="10"
          style="fill:green;" />
  <circle cx="619" cy="416" r="10"
          style="fill:green;" />
  <circle cx="496" cy="484" r="10"
          style="fill:green;" />
  <circle cx="533" cy="334" r="10"
          style="fill:green;" />
  <circle cx="28" cy="192" r="10"
          style="fill:green;" />
  <circle cx="177" cy="260" r="10"
          style="fill:green;" />
  <circle cx="628" cy="118" r="10"
          style="fill:orange;" />
  <circle cx="483" cy="296" r="10"
          style="fill:orange;" />
  <circle cx="600" cy="395" r="10"
          style="fill:orange;" />
  <circle cx="188" cy="214" r="10"
          style="fill:orange;" />
  <circle cx="693" cy="77" r="10"
          style="fill:orange;" />
  <circle cx="524" cy="259" r="10"
          style="fill:green;" />
  <circle cx="304" cy="205" r="10"
          style="fill:yellow;" />
  <text x="10" y="535" font-size="15">
   DTW        = 185.1
  </text>
  <text x="10" y="555" font-size="15">
   experience = 8
  </text>
  <text x="10" y="575" font-size="15">
   reward = 0.0
  </text>
  <text x="10" y="595" font-size="15">
   objects eaten => friend: 1
  </text>
 </g>
</svg>
