<?xml version="1.0"?>
<svg height="600" width="720" >
 <g style="fill-opacity:1.0; stroke:black;
  stroke-width:1;">
  <rect x="10" y="10" height="500"
        width="700" style="fill:none;" />
  <line x1="302" y1="202" x2="422" y2="202" />
  <line x1="302" y1="202" x2="420" y2="226" />
  <line x1="302" y1="202" x2="413" y2="248" />
  <line x1="302" y1="202" x2="402" y2="269" />
  <line x1="302" y1="202" x2="387" y2="287" />
  <line x1="302" y1="202" x2="369" y2="302" />
  <line x1="302" y1="202" x2="348" y2="313" />
  <line x1="302" y1="202" x2="326" y2="320" />
  <line x1="302" y1="202" x2="302" y2="322" />
  <line x1="302" y1="202" x2="279" y2="320" />
  <line x1="302" y1="202" x2="256" y2="313" />
  <line x1="302" y1="202" x2="235" y2="302" />
  <line x1="302" y1="202" x2="217" y2="287" />
  <line x1="302" y1="202" x2="202" y2="269" />
  <line x1="302" y1="202" x2="191" y2="248" />
  <line x1="302" y1="202" x2="184" y2="226" />
  <line x1="302" y1="202" x2="182" y2="202" />
  <line x1="302" y1="202" x2="184" y2="179" />
  <line x1="302" y1="202" x2="191" y2="156" />
  <line x1="302" y1="202" x2="202" y2="136" />
  <line x1="302" y1="202" x2="217" y2="117" />
  <line x1="302" y1="202" x2="235" y2="103" />
  <line x1="302" y1="202" x2="256" y2="91" />
  <line x1="302" y1="202" x2="279" y2="85" />
  <line x1="302" y1="202" x2="302" y2="82" />
  <line x1="302" y1="202" x2="326" y2="85" />
  <line x1="302" y1="202" x2="348" y2="91" />
  <line x1="302" y1="202" x2="369" y2="103" />
  <line x1="302" y1="202" x2="387" y2="117" />
  <line x1="302" y1="202" x2="402" y2="136" />
  <line x1="302" y1="202" x2="413" y2="156" />
  <line x1="302" y1="202" x2="420" y2="179" />
  <circle cx="263" cy="425" r="10"
          style="fill:red;" />
  <circle cx="49" cy="419" r="10"
          style="fill:red;" />
  <circle cx="172" cy="30" r="10"
          style="fill:red;" />
  <circle cx="24" cy="107" r="10"
          style="fill:red;" />
  <circle cx="325" cy="48" r="10"
          style="fill:red;" />
  <circle cx="307" cy="395" r="10"
          style="fill:red;" />
  <circle cx="366" cy="261" r="10"
          style="fill:red;" />
  <circle cx="578" cy="301" r="10"
          style="fill:red;" />
  <circle cx="656" cy="35" r="10"
          style="fill:red;" />
  <circle cx="34" cy="176" r="10"
          style="fill:red;" />
  <circle cx="556" cy="336" r="10"
          style="fill:red;" />
  <circle cx="630" cy="77" r="10"
          style="fill:red;" />
  <circle cx="464" cy="411" r="10"
          style="fill:red;" />
  <circle cx="621" cy="73" r="10"
          style="fill:red;" />
  <circle cx="449" cy="265" r="10"
          style="fill:red;" />
  <circle cx="190" cy="250" r="10"
          style="fill:red;" />
  <circle cx="398" cy="412" r="10"
          style="fill:red;" />
  <circle cx="608" cy="369" r="10"
          style="fill:red;" />
  <circle cx="401" cy="318" r="10"
          style="fill:red;" />
  <circle cx="625" cy="47" r="10"
          style="fill:red;" />
  <circle cx="178" cy="155" r="10"
          style="fill:red;" />
  <circle cx="339" cy="239" r="10"
          style="fill:red;" />
  <circle cx="217" cy="149" r="10"
          style="fill:red;" />
  <circle cx="169" cy="483" r="10"
          style="fill:red;" />
  <circle cx="456" cy="293" r="10"
          style="fill:red;" />
  <circle cx="401" cy="287" r="10"
          style="fill:green;" />
  <circle cx="423" cy="158" r="10"
          style="fill:green;" />
  <circle cx="681" cy="97" r="10"
          style="fill:green;" />
  <circle cx="470" cy="460" r="10"
          style="fill:green;" />
  <circle cx="413" cy="256" r="10"
          style="fill:green;" />
  <circle cx="281" cy="490" r="10"
          style="fill:green;" />
  <circle cx="488" cy="317" r="10"
          style="fill:green;" />
  <circle cx="528" cy="336" r="10"
          style="fill:green;" />
  <circle cx="83" cy="262" r="10"
          style="fill:green;" />
  <circle cx="597" cy="166" r="10"
          style="fill:green;" />
  <circle cx="509" cy="423" r="10"
          style="fill:green;" />
  <circle cx="680" cy="270" r="10"
          style="fill:green;" />
  <circle cx="159" cy="263" r="10"
          style="fill:green;" />
  <circle cx="306" cy="116" r="10"
          style="fill:green;" />
  <circle cx="181" cy="346" r="10"
          style="fill:green;" />
  <circle cx="455" cy="289" r="10"
          style="fill:green;" />
  <circle cx="366" cy="467" r="10"
          style="fill:green;" />
  <circle cx="546" cy="78" r="10"
          style="fill:green;" />
  <circle cx="125" cy="303" r="10"
          style="fill:green;" />
  <circle cx="619" cy="417" r="10"
          style="fill:green;" />
  <circle cx="495" cy="482" r="10"
          style="fill:green;" />
  <circle cx="534" cy="334" r="10"
          style="fill:green;" />
  <circle cx="27" cy="192" r="10"
          style="fill:green;" />
  <circle cx="176" cy="260" r="10"
          style="fill:green;" />
  <circle cx="628" cy="118" r="10"
          style="fill:orange;" />
  <circle cx="483" cy="295" r="10"
          style="fill:orange;" />
  <circle cx="601" cy="394" r="10"
          style="fill:orange;" />
  <circle cx="188" cy="214" r="10"
          style="fill:orange;" />
  <circle cx="694" cy="75" r="10"
          style="fill:orange;" />
  <circle cx="525" cy="258" r="10"
          style="fill:green;" />
  <circle cx="302" cy="202" r="10"
          style="fill:yellow;" />
  <text x="10" y="535" font-size="15">
   DTW        = 182.8
  </text>
  <text x="10" y="555" font-size="15">
   experience = 8
  </text>
  <text x="10" y="575" font-size="15">
   reward = 0.0
  </text>
  <text x="10" y="595" font-size="15">
   objects eaten => friend: 1
  </text>
 </g>
</svg>
