<?xml version="1.0"?>
<svg height="600" width="720" >
 <g style="fill-opacity:1.0; stroke:black;
  stroke-width:1;">
  <rect x="10" y="10" height="500"
        width="700" style="fill:none;" />
  <line x1="290" y1="186" x2="410" y2="186" />
  <line x1="290" y1="186" x2="408" y2="209" />
  <line x1="290" y1="186" x2="401" y2="232" />
  <line x1="290" y1="186" x2="390" y2="252" />
  <line x1="290" y1="186" x2="375" y2="270" />
  <line x1="290" y1="186" x2="357" y2="285" />
  <line x1="290" y1="186" x2="336" y2="297" />
  <line x1="290" y1="186" x2="313" y2="303" />
  <line x1="290" y1="186" x2="290" y2="306" />
  <line x1="290" y1="186" x2="267" y2="303" />
  <line x1="290" y1="186" x2="244" y2="297" />
  <line x1="290" y1="186" x2="223" y2="285" />
  <line x1="290" y1="186" x2="205" y2="270" />
  <line x1="290" y1="186" x2="190" y2="252" />
  <line x1="290" y1="186" x2="179" y2="232" />
  <line x1="290" y1="186" x2="172" y2="209" />
  <line x1="290" y1="186" x2="170" y2="186" />
  <line x1="290" y1="186" x2="172" y2="162" />
  <line x1="290" y1="186" x2="179" y2="140" />
  <line x1="290" y1="186" x2="190" y2="119" />
  <line x1="290" y1="186" x2="205" y2="101" />
  <line x1="290" y1="186" x2="223" y2="86" />
  <line x1="290" y1="186" x2="244" y2="75" />
  <line x1="290" y1="186" x2="267" y2="68" />
  <line x1="290" y1="186" x2="290" y2="66" />
  <line x1="290" y1="186" x2="313" y2="68" />
  <line x1="290" y1="186" x2="336" y2="75" />
  <line x1="290" y1="186" x2="357" y2="86" />
  <line x1="290" y1="186" x2="375" y2="101" />
  <line x1="290" y1="186" x2="390" y2="119" />
  <line x1="290" y1="186" x2="401" y2="140" />
  <line x1="290" y1="186" x2="408" y2="162" />
  <circle cx="263" cy="432" r="10"
          style="fill:red;" />
  <circle cx="50" cy="426" r="10"
          style="fill:red;" />
  <circle cx="175" cy="39" r="10"
          style="fill:red;" />
  <circle cx="21" cy="109" r="10"
          style="fill:red;" />
  <circle cx="332" cy="52" r="10"
          style="fill:red;" />
  <circle cx="303" cy="393" r="10"
          style="fill:red;" />
  <circle cx="361" cy="264" r="10"
          style="fill:red;" />
  <circle cx="574" cy="294" r="10"
          style="fill:red;" />
  <circle cx="659" cy="39" r="10"
          style="fill:red;" />
  <circle cx="26" cy="183" r="10"
          style="fill:red;" />
  <circle cx="557" cy="344" r="10"
          style="fill:red;" />
  <circle cx="633" cy="79" r="10"
          style="fill:red;" />
  <circle cx="459" cy="409" r="10"
          style="fill:red;" />
  <circle cx="614" cy="78" r="10"
          style="fill:red;" />
  <circle cx="448" cy="265" r="10"
          style="fill:red;" />
  <circle cx="187" cy="244" r="10"
          style="fill:red;" />
  <circle cx="395" cy="420" r="10"
          style="fill:red;" />
  <circle cx="611" cy="362" r="10"
          style="fill:red;" />
  <circle cx="410" cy="311" r="10"
          style="fill:red;" />
  <circle cx="620" cy="40" r="10"
          style="fill:red;" />
  <circle cx="178" cy="163" r="10"
          style="fill:red;" />
  <circle cx="333" cy="243" r="10"
          style="fill:red;" />
  <circle cx="210" cy="156" r="10"
          style="fill:red;" />
  <circle cx="162" cy="476" r="10"
          style="fill:red;" />
  <circle cx="458" cy="284" r="10"
          style="fill:red;" />
  <circle cx="405" cy="281" r="10"
          style="fill:green;" />
  <circle cx="421" cy="159" r="10"
          style="fill:green;" />
  <circle cx="687" cy="105" r="10"
          style="fill:green;" />
  <circle cx="471" cy="468" r="10"
          style="fill:green;" />
  <circle cx="406" cy="248" r="10"
          style="fill:green;" />
  <circle cx="276" cy="495" r="10"
          style="fill:green;" />
  <circle cx="480" cy="311" r="10"
          style="fill:green;" />
  <circle cx="535" cy="328" r="10"
          style="fill:green;" />
  <circle cx="80" cy="258" r="10"
          style="fill:green;" />
  <circle cx="590" cy="160" r="10"
          style="fill:green;" />
  <circle cx="508" cy="418" r="10"
          style="fill:green;" />
  <circle cx="689" cy="263" r="10"
          style="fill:green;" />
  <circle cx="160" cy="270" r="10"
          style="fill:green;" />
  <circle cx="315" cy="114" r="10"
          style="fill:green;" />
  <circle cx="185" cy="344" r="10"
          style="fill:green;" />
  <circle cx="461" cy="283" r="10"
          style="fill:green;" />
  <circle cx="358" cy="467" r="10"
          style="fill:green;" />
  <circle cx="538" cy="81" r="10"
          style="fill:green;" />
  <circle cx="129" cy="300" r="10"
          style="fill:green;" />
  <circle cx="625" cy="419" r="10"
          style="fill:green;" />
  <circle cx="490" cy="473" r="10"
          style="fill:green;" />
  <circle cx="541" cy="334" r="10"
          style="fill:green;" />
  <circle cx="19" cy="193" r="10"
          style="fill:green;" />
  <circle cx="172" cy="261" r="10"
          style="fill:green;" />
  <circle cx="625" cy="121" r="10"
          style="fill:orange;" />
  <circle cx="481" cy="287" r="10"
          style="fill:orange;" />
  <circle cx="608" cy="388" r="10"
          style="fill:orange;" />
  <circle cx="188" cy="211" r="10"
          style="fill:orange;" />
  <circle cx="694" cy="67" r="10"
          style="fill:orange;" />
  <circle cx="529" cy="252" r="10"
          style="fill:green;" />
  <circle cx="290" cy="186" r="10"
          style="fill:yellow;" />
  <text x="10" y="535" font-size="15">
   DTW        = 166.1
  </text>
  <text x="10" y="555" font-size="15">
   experience = 8
  </text>
  <text x="10" y="575" font-size="15">
   reward = 0.0
  </text>
  <text x="10" y="595" font-size="15">
   objects eaten => friend: 1
  </text>
 </g>
</svg>
