<?xml version="1.0"?>
<svg height="600" width="720" >
 <g style="fill-opacity:1.0; stroke:black;
  stroke-width:1;">
  <rect x="10" y="10" height="500"
        width="700" style="fill:none;" />
  <line x1="414" y1="293" x2="534" y2="293" />
  <line x1="414" y1="293" x2="532" y2="316" />
  <line x1="414" y1="293" x2="525" y2="339" />
  <line x1="414" y1="293" x2="514" y2="359" />
  <line x1="414" y1="293" x2="499" y2="377" />
  <line x1="414" y1="293" x2="481" y2="392" />
  <line x1="414" y1="293" x2="460" y2="403" />
  <line x1="414" y1="293" x2="437" y2="410" />
  <line x1="414" y1="293" x2="414" y2="413" />
  <line x1="414" y1="293" x2="391" y2="410" />
  <line x1="414" y1="293" x2="368" y2="403" />
  <line x1="414" y1="293" x2="347" y2="392" />
  <line x1="414" y1="293" x2="329" y2="377" />
  <line x1="414" y1="293" x2="314" y2="359" />
  <line x1="414" y1="293" x2="303" y2="339" />
  <line x1="414" y1="293" x2="296" y2="316" />
  <line x1="414" y1="293" x2="294" y2="293" />
  <line x1="414" y1="293" x2="296" y2="269" />
  <line x1="414" y1="293" x2="303" y2="247" />
  <line x1="414" y1="293" x2="314" y2="226" />
  <line x1="414" y1="293" x2="329" y2="208" />
  <line x1="414" y1="293" x2="347" y2="193" />
  <line x1="414" y1="293" x2="368" y2="182" />
  <line x1="414" y1="293" x2="391" y2="175" />
  <line x1="414" y1="293" x2="414" y2="173" />
  <line x1="414" y1="293" x2="437" y2="175" />
  <line x1="414" y1="293" x2="460" y2="182" />
  <line x1="414" y1="293" x2="481" y2="193" />
  <line x1="414" y1="293" x2="499" y2="208" />
  <line x1="414" y1="293" x2="514" y2="226" />
  <line x1="414" y1="293" x2="525" y2="247" />
  <line x1="414" y1="293" x2="532" y2="269" />
  <circle cx="270" cy="277" r="10"
          style="fill:red;" />
  <circle cx="22" cy="276" r="10"
          style="fill:red;" />
  <circle cx="120" cy="183" r="10"
          style="fill:red;" />
  <circle cx="97" cy="52" r="10"
          style="fill:red;" />
  <circle cx="175" cy="60" r="10"
          style="fill:red;" />
  <circle cx="383" cy="446" r="10"
          style="fill:red;" />
  <circle cx="465" cy="201" r="10"
          style="fill:red;" />
  <circle cx="657" cy="437" r="10"
          style="fill:red;" />
  <circle cx="592" cy="66" r="10"
          style="fill:red;" />
  <circle cx="189" cy="24" r="10"
          style="fill:red;" />
  <circle cx="533" cy="164" r="10"
          style="fill:red;" />
  <circle cx="556" cy="37" r="10"
          style="fill:red;" />
  <circle cx="573" cy="454" r="10"
          style="fill:red;" />
  <circle cx="621" cy="55" r="10"
          style="fill:red;" />
  <circle cx="464" cy="276" r="10"
          style="fill:red;" />
  <circle cx="264" cy="362" r="10"
          style="fill:red;" />
  <circle cx="455" cy="257" r="10"
          style="fill:red;" />
  <circle cx="546" cy="491" r="10"
          style="fill:red;" />
  <circle cx="224" cy="441" r="10"
          style="fill:red;" />
  <circle cx="675" cy="183" r="10"
          style="fill:red;" />
  <circle cx="187" cy="55" r="10"
          style="fill:red;" />
  <circle cx="469" cy="157" r="10"
          style="fill:red;" />
  <circle cx="362" cy="23" r="10"
          style="fill:red;" />
  <circle cx="310" cy="380" r="10"
          style="fill:red;" />
  <circle cx="407" cy="467" r="10"
          style="fill:red;" />
  <circle cx="313" cy="396" r="10"
          style="fill:green;" />
  <circle cx="474" cy="135" r="10"
          style="fill:green;" />
  <circle cx="555" cy="108" r="10"
          style="fill:green;" />
  <circle cx="454" cy="287" r="10"
          style="fill:green;" />
  <circle cx="561" cy="417" r="10"
          style="fill:green;" />
  <circle cx="443" cy="312" r="10"
          style="fill:green;" />
  <circle cx="388" cy="390" r="10"
          style="fill:green;" />
  <circle cx="658" cy="451" r="10"
          style="fill:green;" />
  <circle cx="393" cy="491" r="10"
          style="fill:green;" />
  <circle cx="154" cy="333" r="10"
          style="fill:green;" />
  <circle cx="645" cy="291" r="10"
          style="fill:green;" />
  <circle cx="532" cy="489" r="10"
          style="fill:green;" />
  <circle cx="510" cy="419" r="10"
          style="fill:green;" />
  <circle cx="138" cy="113" r="10"
          style="fill:green;" />
  <circle cx="135" cy="147" r="10"
          style="fill:green;" />
  <circle cx="101" cy="381" r="10"
          style="fill:green;" />
  <circle cx="334" cy="406" r="10"
          style="fill:green;" />
  <circle cx="512" cy="473" r="10"
          style="fill:green;" />
  <circle cx="685" cy="33" r="10"
          style="fill:green;" />
  <circle cx="55" cy="374" r="10"
          style="fill:green;" />
  <circle cx="512" cy="368" r="10"
          style="fill:green;" />
  <circle cx="607" cy="336" r="10"
          style="fill:green;" />
  <circle cx="391" cy="345" r="10"
          style="fill:green;" />
  <circle cx="176" cy="173" r="10"
          style="fill:green;" />
  <circle cx="273" cy="238" r="10"
          style="fill:green;" />
  <circle cx="675" cy="62" r="10"
          style="fill:orange;" />
  <circle cx="522" cy="461" r="10"
          style="fill:orange;" />
  <circle cx="462" cy="488" r="10"
          style="fill:orange;" />
  <circle cx="193" cy="260" r="10"
          style="fill:orange;" />
  <circle cx="521" cy="249" r="10"
          style="fill:orange;" />
  <circle cx="414" cy="293" r="10"
          style="fill:yellow;" />
  <text x="10" y="535" font-size="15">
   DTW        = 206.9
  </text>
  <text x="10" y="555" font-size="15">
   experience = 1
  </text>
  <text x="10" y="575" font-size="15">
   reward = 0.0
  </text>
  <text x="10" y="595" font-size="15">
   objects eaten => 
  </text>
 </g>
</svg>
