<?xml version="1.0"?>
<svg height="600" width="720" >
 <g style="fill-opacity:1.0; stroke:black;
  stroke-width:1;">
  <rect x="10" y="10" height="500"
        width="700" style="fill:none;" />
  <line x1="288" y1="182" x2="408" y2="182" />
  <line x1="288" y1="182" x2="406" y2="206" />
  <line x1="288" y1="182" x2="399" y2="228" />
  <line x1="288" y1="182" x2="388" y2="249" />
  <line x1="288" y1="182" x2="373" y2="267" />
  <line x1="288" y1="182" x2="355" y2="282" />
  <line x1="288" y1="182" x2="334" y2="293" />
  <line x1="288" y1="182" x2="312" y2="300" />
  <line x1="288" y1="182" x2="288" y2="302" />
  <line x1="288" y1="182" x2="265" y2="300" />
  <line x1="288" y1="182" x2="242" y2="293" />
  <line x1="288" y1="182" x2="222" y2="282" />
  <line x1="288" y1="182" x2="203" y2="267" />
  <line x1="288" y1="182" x2="188" y2="249" />
  <line x1="288" y1="182" x2="177" y2="228" />
  <line x1="288" y1="182" x2="171" y2="206" />
  <line x1="288" y1="182" x2="168" y2="182" />
  <line x1="288" y1="182" x2="171" y2="159" />
  <line x1="288" y1="182" x2="177" y2="136" />
  <line x1="288" y1="182" x2="188" y2="116" />
  <line x1="288" y1="182" x2="203" y2="97" />
  <line x1="288" y1="182" x2="222" y2="83" />
  <line x1="288" y1="182" x2="242" y2="71" />
  <line x1="288" y1="182" x2="265" y2="65" />
  <line x1="288" y1="182" x2="288" y2="62" />
  <line x1="288" y1="182" x2="312" y2="65" />
  <line x1="288" y1="182" x2="334" y2="71" />
  <line x1="288" y1="182" x2="355" y2="83" />
  <line x1="288" y1="182" x2="373" y2="97" />
  <line x1="288" y1="182" x2="388" y2="116" />
  <line x1="288" y1="182" x2="399" y2="136" />
  <line x1="288" y1="182" x2="406" y2="159" />
  <circle cx="263" cy="434" r="10"
          style="fill:red;" />
  <circle cx="50" cy="427" r="10"
          style="fill:red;" />
  <circle cx="175" cy="41" r="10"
          style="fill:red;" />
  <circle cx="20" cy="110" r="10"
          style="fill:red;" />
  <circle cx="334" cy="52" r="10"
          style="fill:red;" />
  <circle cx="302" cy="392" r="10"
          style="fill:red;" />
  <circle cx="360" cy="264" r="10"
          style="fill:red;" />
  <circle cx="573" cy="293" r="10"
          style="fill:red;" />
  <circle cx="660" cy="39" r="10"
          style="fill:red;" />
  <circle cx="25" cy="184" r="10"
          style="fill:red;" />
  <circle cx="557" cy="346" r="10"
          style="fill:red;" />
  <circle cx="634" cy="79" r="10"
          style="fill:red;" />
  <circle cx="458" cy="409" r="10"
          style="fill:red;" />
  <circle cx="612" cy="78" r="10"
          style="fill:red;" />
  <circle cx="448" cy="265" r="10"
          style="fill:red;" />
  <circle cx="186" cy="243" r="10"
          style="fill:red;" />
  <circle cx="395" cy="422" r="10"
          style="fill:red;" />
  <circle cx="612" cy="361" r="10"
          style="fill:red;" />
  <circle cx="412" cy="310" r="10"
          style="fill:red;" />
  <circle cx="619" cy="39" r="10"
          style="fill:red;" />
  <circle cx="178" cy="165" r="10"
          style="fill:red;" />
  <circle cx="332" cy="244" r="10"
          style="fill:red;" />
  <circle cx="209" cy="157" r="10"
          style="fill:red;" />
  <circle cx="161" cy="475" r="10"
          style="fill:red;" />
  <circle cx="459" cy="283" r="10"
          style="fill:red;" />
  <circle cx="406" cy="280" r="10"
          style="fill:green;" />
  <circle cx="420" cy="159" r="10"
          style="fill:green;" />
  <circle cx="688" cy="107" r="10"
          style="fill:green;" />
  <circle cx="471" cy="470" r="10"
          style="fill:green;" />
  <circle cx="404" cy="246" r="10"
          style="fill:green;" />
  <circle cx="275" cy="496" r="10"
          style="fill:green;" />
  <circle cx="478" cy="309" r="10"
          style="fill:green;" />
  <circle cx="536" cy="327" r="10"
          style="fill:green;" />
  <circle cx="79" cy="257" r="10"
          style="fill:green;" />
  <circle cx="588" cy="159" r="10"
          style="fill:green;" />
  <circle cx="508" cy="418" r="10"
          style="fill:green;" />
  <circle cx="690" cy="261" r="10"
          style="fill:green;" />
  <circle cx="160" cy="272" r="10"
          style="fill:green;" />
  <circle cx="316" cy="114" r="10"
          style="fill:green;" />
  <circle cx="186" cy="344" r="10"
          style="fill:green;" />
  <circle cx="462" cy="282" r="10"
          style="fill:green;" />
  <circle cx="357" cy="467" r="10"
          style="fill:green;" />
  <circle cx="536" cy="82" r="10"
          style="fill:green;" />
  <circle cx="129" cy="299" r="10"
          style="fill:green;" />
  <circle cx="626" cy="420" r="10"
          style="fill:green;" />
  <circle cx="489" cy="472" r="10"
          style="fill:green;" />
  <circle cx="542" cy="334" r="10"
          style="fill:green;" />
  <circle cx="21" cy="193" r="10"
          style="fill:green;" />
  <circle cx="171" cy="261" r="10"
          style="fill:green;" />
  <circle cx="625" cy="121" r="10"
          style="fill:orange;" />
  <circle cx="481" cy="285" r="10"
          style="fill:orange;" />
  <circle cx="609" cy="387" r="10"
          style="fill:orange;" />
  <circle cx="188" cy="211" r="10"
          style="fill:orange;" />
  <circle cx="693" cy="65" r="10"
          style="fill:orange;" />
  <circle cx="529" cy="251" r="10"
          style="fill:green;" />
  <circle cx="288" cy="182" r="10"
          style="fill:yellow;" />
  <text x="10" y="535" font-size="15">
   DTW        = 162.8
  </text>
  <text x="10" y="555" font-size="15">
   experience = 9
  </text>
  <text x="10" y="575" font-size="15">
   reward = 0.0
  </text>
  <text x="10" y="595" font-size="15">
   objects eaten => friend: 1
  </text>
 </g>
</svg>
