<?xml version="1.0"?>
<svg height="600" width="720" >
 <g style="fill-opacity:1.0; stroke:black;
  stroke-width:1;">
  <rect x="10" y="10" height="500"
        width="700" style="fill:none;" />
  <line x1="285" y1="180" x2="405" y2="180" />
  <line x1="285" y1="180" x2="403" y2="203" />
  <line x1="285" y1="180" x2="396" y2="226" />
  <line x1="285" y1="180" x2="385" y2="246" />
  <line x1="285" y1="180" x2="370" y2="265" />
  <line x1="285" y1="180" x2="352" y2="279" />
  <line x1="285" y1="180" x2="331" y2="291" />
  <line x1="285" y1="180" x2="309" y2="297" />
  <line x1="285" y1="180" x2="285" y2="300" />
  <line x1="285" y1="180" x2="262" y2="297" />
  <line x1="285" y1="180" x2="239" y2="291" />
  <line x1="285" y1="180" x2="219" y2="279" />
  <line x1="285" y1="180" x2="200" y2="265" />
  <line x1="285" y1="180" x2="186" y2="246" />
  <line x1="285" y1="180" x2="174" y2="226" />
  <line x1="285" y1="180" x2="168" y2="203" />
  <line x1="285" y1="180" x2="165" y2="180" />
  <line x1="285" y1="180" x2="168" y2="156" />
  <line x1="285" y1="180" x2="174" y2="134" />
  <line x1="285" y1="180" x2="186" y2="113" />
  <line x1="285" y1="180" x2="200" y2="95" />
  <line x1="285" y1="180" x2="219" y2="80" />
  <line x1="285" y1="180" x2="239" y2="69" />
  <line x1="285" y1="180" x2="262" y2="62" />
  <line x1="285" y1="180" x2="285" y2="60" />
  <line x1="285" y1="180" x2="309" y2="62" />
  <line x1="285" y1="180" x2="331" y2="69" />
  <line x1="285" y1="180" x2="352" y2="80" />
  <line x1="285" y1="180" x2="370" y2="95" />
  <line x1="285" y1="180" x2="385" y2="113" />
  <line x1="285" y1="180" x2="396" y2="134" />
  <line x1="285" y1="180" x2="403" y2="156" />
  <circle cx="263" cy="435" r="10"
          style="fill:red;" />
  <circle cx="51" cy="428" r="10"
          style="fill:red;" />
  <circle cx="176" cy="42" r="10"
          style="fill:red;" />
  <circle cx="20" cy="110" r="10"
          style="fill:red;" />
  <circle cx="335" cy="53" r="10"
          style="fill:red;" />
  <circle cx="302" cy="392" r="10"
          style="fill:red;" />
  <circle cx="359" cy="265" r="10"
          style="fill:red;" />
  <circle cx="573" cy="292" r="10"
          style="fill:red;" />
  <circle cx="660" cy="40" r="10"
          style="fill:red;" />
  <circle cx="24" cy="186" r="10"
          style="fill:red;" />
  <circle cx="557" cy="347" r="10"
          style="fill:red;" />
  <circle cx="634" cy="80" r="10"
          style="fill:red;" />
  <circle cx="457" cy="408" r="10"
          style="fill:red;" />
  <circle cx="611" cy="79" r="10"
          style="fill:red;" />
  <circle cx="448" cy="265" r="10"
          style="fill:red;" />
  <circle cx="185" cy="242" r="10"
          style="fill:red;" />
  <circle cx="394" cy="423" r="10"
          style="fill:red;" />
  <circle cx="612" cy="359" r="10"
          style="fill:red;" />
  <circle cx="413" cy="309" r="10"
          style="fill:red;" />
  <circle cx="619" cy="38" r="10"
          style="fill:red;" />
  <circle cx="178" cy="166" r="10"
          style="fill:red;" />
  <circle cx="331" cy="244" r="10"
          style="fill:red;" />
  <circle cx="208" cy="158" r="10"
          style="fill:red;" />
  <circle cx="160" cy="474" r="10"
          style="fill:red;" />
  <circle cx="459" cy="281" r="10"
          style="fill:red;" />
  <circle cx="407" cy="280" r="10"
          style="fill:green;" />
  <circle cx="420" cy="160" r="10"
          style="fill:green;" />
  <circle cx="689" cy="108" r="10"
          style="fill:green;" />
  <circle cx="471" cy="471" r="10"
          style="fill:green;" />
  <circle cx="403" cy="245" r="10"
          style="fill:green;" />
  <circle cx="274" cy="497" r="10"
          style="fill:green;" />
  <circle cx="477" cy="308" r="10"
          style="fill:green;" />
  <circle cx="537" cy="325" r="10"
          style="fill:green;" />
  <circle cx="79" cy="257" r="10"
          style="fill:green;" />
  <circle cx="587" cy="158" r="10"
          style="fill:green;" />
  <circle cx="508" cy="417" r="10"
          style="fill:green;" />
  <circle cx="691" cy="260" r="10"
          style="fill:green;" />
  <circle cx="160" cy="273" r="10"
          style="fill:green;" />
  <circle cx="318" cy="114" r="10"
          style="fill:green;" />
  <circle cx="186" cy="344" r="10"
          style="fill:green;" />
  <circle cx="463" cy="281" r="10"
          style="fill:green;" />
  <circle cx="356" cy="467" r="10"
          style="fill:green;" />
  <circle cx="535" cy="82" r="10"
          style="fill:green;" />
  <circle cx="130" cy="298" r="10"
          style="fill:green;" />
  <circle cx="627" cy="420" r="10"
          style="fill:green;" />
  <circle cx="488" cy="470" r="10"
          style="fill:green;" />
  <circle cx="543" cy="334" r="10"
          style="fill:green;" />
  <circle cx="22" cy="193" r="10"
          style="fill:green;" />
  <circle cx="170" cy="261" r="10"
          style="fill:green;" />
  <circle cx="625" cy="122" r="10"
          style="fill:orange;" />
  <circle cx="480" cy="284" r="10"
          style="fill:orange;" />
  <circle cx="610" cy="386" r="10"
          style="fill:orange;" />
  <circle cx="188" cy="211" r="10"
          style="fill:orange;" />
  <circle cx="691" cy="64" r="10"
          style="fill:orange;" />
  <circle cx="530" cy="250" r="10"
          style="fill:green;" />
  <circle cx="285" cy="180" r="10"
          style="fill:yellow;" />
  <text x="10" y="535" font-size="15">
   DTW        = 160.2
  </text>
  <text x="10" y="555" font-size="15">
   experience = 9
  </text>
  <text x="10" y="575" font-size="15">
   reward = 0.0
  </text>
  <text x="10" y="595" font-size="15">
   objects eaten => friend: 1
  </text>
 </g>
</svg>
