<?xml version="1.0"?>
<svg height="600" width="720" >
 <g style="fill-opacity:1.0; stroke:black;
  stroke-width:1;">
  <rect x="10" y="10" height="500"
        width="700" style="fill:none;" />
  <line x1="282" y1="177" x2="402" y2="177" />
  <line x1="282" y1="177" x2="400" y2="200" />
  <line x1="282" y1="177" x2="393" y2="223" />
  <line x1="282" y1="177" x2="382" y2="244" />
  <line x1="282" y1="177" x2="367" y2="262" />
  <line x1="282" y1="177" x2="349" y2="277" />
  <line x1="282" y1="177" x2="328" y2="288" />
  <line x1="282" y1="177" x2="306" y2="295" />
  <line x1="282" y1="177" x2="282" y2="297" />
  <line x1="282" y1="177" x2="259" y2="295" />
  <line x1="282" y1="177" x2="236" y2="288" />
  <line x1="282" y1="177" x2="216" y2="277" />
  <line x1="282" y1="177" x2="197" y2="262" />
  <line x1="282" y1="177" x2="183" y2="244" />
  <line x1="282" y1="177" x2="171" y2="223" />
  <line x1="282" y1="177" x2="165" y2="200" />
  <line x1="282" y1="177" x2="162" y2="177" />
  <line x1="282" y1="177" x2="165" y2="154" />
  <line x1="282" y1="177" x2="171" y2="131" />
  <line x1="282" y1="177" x2="183" y2="110" />
  <line x1="282" y1="177" x2="197" y2="92" />
  <line x1="282" y1="177" x2="216" y2="77" />
  <line x1="282" y1="177" x2="236" y2="66" />
  <line x1="282" y1="177" x2="259" y2="59" />
  <line x1="282" y1="177" x2="282" y2="57" />
  <line x1="282" y1="177" x2="306" y2="59" />
  <line x1="282" y1="177" x2="328" y2="66" />
  <line x1="282" y1="177" x2="349" y2="77" />
  <line x1="282" y1="177" x2="367" y2="92" />
  <line x1="282" y1="177" x2="382" y2="110" />
  <line x1="282" y1="177" x2="393" y2="131" />
  <line x1="282" y1="177" x2="400" y2="154" />
  <circle cx="263" cy="436" r="10"
          style="fill:red;" />
  <circle cx="51" cy="430" r="10"
          style="fill:red;" />
  <circle cx="176" cy="44" r="10"
          style="fill:red;" />
  <circle cx="19" cy="111" r="10"
          style="fill:red;" />
  <circle cx="336" cy="53" r="10"
          style="fill:red;" />
  <circle cx="301" cy="392" r="10"
          style="fill:red;" />
  <circle cx="358" cy="265" r="10"
          style="fill:red;" />
  <circle cx="572" cy="290" r="10"
          style="fill:red;" />
  <circle cx="661" cy="40" r="10"
          style="fill:red;" />
  <circle cx="22" cy="187" r="10"
          style="fill:red;" />
  <circle cx="558" cy="348" r="10"
          style="fill:red;" />
  <circle cx="635" cy="80" r="10"
          style="fill:red;" />
  <circle cx="456" cy="408" r="10"
          style="fill:red;" />
  <circle cx="610" cy="80" r="10"
          style="fill:red;" />
  <circle cx="448" cy="265" r="10"
          style="fill:red;" />
  <circle cx="185" cy="241" r="10"
          style="fill:red;" />
  <circle cx="394" cy="424" r="10"
          style="fill:red;" />
  <circle cx="613" cy="358" r="10"
          style="fill:red;" />
  <circle cx="415" cy="308" r="10"
          style="fill:red;" />
  <circle cx="618" cy="37" r="10"
          style="fill:red;" />
  <circle cx="177" cy="168" r="10"
          style="fill:red;" />
  <circle cx="330" cy="245" r="10"
          style="fill:red;" />
  <circle cx="207" cy="160" r="10"
          style="fill:red;" />
  <circle cx="158" cy="473" r="10"
          style="fill:red;" />
  <circle cx="460" cy="280" r="10"
          style="fill:red;" />
  <circle cx="408" cy="279" r="10"
          style="fill:green;" />
  <circle cx="419" cy="160" r="10"
          style="fill:green;" />
  <circle cx="691" cy="110" r="10"
          style="fill:green;" />
  <circle cx="471" cy="473" r="10"
          style="fill:green;" />
  <circle cx="402" cy="244" r="10"
          style="fill:green;" />
  <circle cx="273" cy="497" r="10"
          style="fill:green;" />
  <circle cx="475" cy="307" r="10"
          style="fill:green;" />
  <circle cx="538" cy="324" r="10"
          style="fill:green;" />
  <circle cx="78" cy="256" r="10"
          style="fill:green;" />
  <circle cx="586" cy="157" r="10"
          style="fill:green;" />
  <circle cx="508" cy="416" r="10"
          style="fill:green;" />
  <circle cx="693" cy="259" r="10"
          style="fill:green;" />
  <circle cx="160" cy="274" r="10"
          style="fill:green;" />
  <circle cx="319" cy="114" r="10"
          style="fill:green;" />
  <circle cx="187" cy="343" r="10"
          style="fill:green;" />
  <circle cx="464" cy="281" r="10"
          style="fill:green;" />
  <circle cx="355" cy="467" r="10"
          style="fill:green;" />
  <circle cx="534" cy="83" r="10"
          style="fill:green;" />
  <circle cx="131" cy="298" r="10"
          style="fill:green;" />
  <circle cx="628" cy="420" r="10"
          style="fill:green;" />
  <circle cx="487" cy="469" r="10"
          style="fill:green;" />
  <circle cx="544" cy="333" r="10"
          style="fill:green;" />
  <circle cx="23" cy="193" r="10"
          style="fill:green;" />
  <circle cx="169" cy="262" r="10"
          style="fill:green;" />
  <circle cx="624" cy="122" r="10"
          style="fill:orange;" />
  <circle cx="480" cy="282" r="10"
          style="fill:orange;" />
  <circle cx="611" cy="385" r="10"
          style="fill:orange;" />
  <circle cx="188" cy="210" r="10"
          style="fill:orange;" />
  <circle cx="690" cy="62" r="10"
          style="fill:orange;" />
  <circle cx="531" cy="249" r="10"
          style="fill:green;" />
  <circle cx="282" cy="177" r="10"
          style="fill:yellow;" />
  <text x="10" y="535" font-size="15">
   DTW        = 157.6
  </text>
  <text x="10" y="555" font-size="15">
   experience = 9
  </text>
  <text x="10" y="575" font-size="15">
   reward = 0.0
  </text>
  <text x="10" y="595" font-size="15">
   objects eaten => friend: 1
  </text>
 </g>
</svg>
