<?xml version="1.0"?>
<svg height="600" width="720" >
 <g style="fill-opacity:1.0; stroke:black;
  stroke-width:1;">
  <rect x="10" y="10" height="500"
        width="700" style="fill:none;" />
  <line x1="276" y1="172" x2="396" y2="172" />
  <line x1="276" y1="172" x2="394" y2="195" />
  <line x1="276" y1="172" x2="387" y2="218" />
  <line x1="276" y1="172" x2="376" y2="238" />
  <line x1="276" y1="172" x2="361" y2="257" />
  <line x1="276" y1="172" x2="343" y2="272" />
  <line x1="276" y1="172" x2="322" y2="283" />
  <line x1="276" y1="172" x2="300" y2="289" />
  <line x1="276" y1="172" x2="276" y2="292" />
  <line x1="276" y1="172" x2="253" y2="289" />
  <line x1="276" y1="172" x2="231" y2="283" />
  <line x1="276" y1="172" x2="210" y2="272" />
  <line x1="276" y1="172" x2="192" y2="257" />
  <line x1="276" y1="172" x2="177" y2="238" />
  <line x1="276" y1="172" x2="166" y2="218" />
  <line x1="276" y1="172" x2="159" y2="195" />
  <line x1="276" y1="172" x2="156" y2="172" />
  <line x1="276" y1="172" x2="159" y2="148" />
  <line x1="276" y1="172" x2="166" y2="126" />
  <line x1="276" y1="172" x2="177" y2="105" />
  <line x1="276" y1="172" x2="192" y2="87" />
  <line x1="276" y1="172" x2="210" y2="72" />
  <line x1="276" y1="172" x2="231" y2="61" />
  <line x1="276" y1="172" x2="253" y2="54" />
  <line x1="276" y1="172" x2="276" y2="52" />
  <line x1="276" y1="172" x2="300" y2="54" />
  <line x1="276" y1="172" x2="322" y2="61" />
  <line x1="276" y1="172" x2="343" y2="72" />
  <line x1="276" y1="172" x2="361" y2="87" />
  <line x1="276" y1="172" x2="376" y2="105" />
  <line x1="276" y1="172" x2="387" y2="126" />
  <line x1="276" y1="172" x2="394" y2="148" />
  <circle cx="263" cy="439" r="10"
          style="fill:red;" />
  <circle cx="51" cy="432" r="10"
          style="fill:red;" />
  <circle cx="177" cy="47" r="10"
          style="fill:red;" />
  <circle cx="20" cy="112" r="10"
          style="fill:red;" />
  <circle cx="339" cy="54" r="10"
          style="fill:red;" />
  <circle cx="300" cy="391" r="10"
          style="fill:red;" />
  <circle cx="357" cy="266" r="10"
          style="fill:red;" />
  <circle cx="571" cy="288" r="10"
          style="fill:red;" />
  <circle cx="662" cy="41" r="10"
          style="fill:red;" />
  <circle cx="20" cy="189" r="10"
          style="fill:red;" />
  <circle cx="558" cy="351" r="10"
          style="fill:red;" />
  <circle cx="636" cy="81" r="10"
          style="fill:red;" />
  <circle cx="454" cy="407" r="10"
          style="fill:red;" />
  <circle cx="607" cy="81" r="10"
          style="fill:red;" />
  <circle cx="447" cy="264" r="10"
          style="fill:red;" />
  <circle cx="184" cy="239" r="10"
          style="fill:red;" />
  <circle cx="393" cy="427" r="10"
          style="fill:red;" />
  <circle cx="614" cy="356" r="10"
          style="fill:red;" />
  <circle cx="418" cy="306" r="10"
          style="fill:red;" />
  <circle cx="616" cy="35" r="10"
          style="fill:red;" />
  <circle cx="177" cy="171" r="10"
          style="fill:red;" />
  <circle cx="328" cy="246" r="10"
          style="fill:red;" />
  <circle cx="204" cy="162" r="10"
          style="fill:red;" />
  <circle cx="156" cy="471" r="10"
          style="fill:red;" />
  <circle cx="460" cy="277" r="10"
          style="fill:red;" />
  <circle cx="409" cy="277" r="10"
          style="fill:green;" />
  <circle cx="418" cy="160" r="10"
          style="fill:green;" />
  <circle cx="693" cy="112" r="10"
          style="fill:green;" />
  <circle cx="471" cy="475" r="10"
          style="fill:green;" />
  <circle cx="400" cy="241" r="10"
          style="fill:green;" />
  <circle cx="271" cy="499" r="10"
          style="fill:green;" />
  <circle cx="473" cy="305" r="10"
          style="fill:green;" />
  <circle cx="540" cy="321" r="10"
          style="fill:green;" />
  <circle cx="77" cy="255" r="10"
          style="fill:green;" />
  <circle cx="583" cy="155" r="10"
          style="fill:green;" />
  <circle cx="507" cy="415" r="10"
          style="fill:green;" />
  <circle cx="696" cy="256" r="10"
          style="fill:green;" />
  <circle cx="161" cy="277" r="10"
          style="fill:green;" />
  <circle cx="322" cy="113" r="10"
          style="fill:green;" />
  <circle cx="188" cy="343" r="10"
          style="fill:green;" />
  <circle cx="466" cy="279" r="10"
          style="fill:green;" />
  <circle cx="352" cy="466" r="10"
          style="fill:green;" />
  <circle cx="531" cy="84" r="10"
          style="fill:green;" />
  <circle cx="132" cy="297" r="10"
          style="fill:green;" />
  <circle cx="629" cy="421" r="10"
          style="fill:green;" />
  <circle cx="485" cy="466" r="10"
          style="fill:green;" />
  <circle cx="547" cy="333" r="10"
          style="fill:green;" />
  <circle cx="26" cy="194" r="10"
          style="fill:green;" />
  <circle cx="168" cy="262" r="10"
          style="fill:green;" />
  <circle cx="623" cy="123" r="10"
          style="fill:orange;" />
  <circle cx="479" cy="280" r="10"
          style="fill:orange;" />
  <circle cx="613" cy="383" r="10"
          style="fill:orange;" />
  <circle cx="188" cy="210" r="10"
          style="fill:orange;" />
  <circle cx="687" cy="60" r="10"
          style="fill:orange;" />
  <circle cx="532" cy="248" r="10"
          style="fill:green;" />
  <circle cx="276" cy="172" r="10"
          style="fill:yellow;" />
  <text x="10" y="535" font-size="15">
   DTW        = 152.3
  </text>
  <text x="10" y="555" font-size="15">
   experience = 9
  </text>
  <text x="10" y="575" font-size="15">
   reward = 0.0
  </text>
  <text x="10" y="595" font-size="15">
   objects eaten => friend: 1
  </text>
 </g>
</svg>
