<?xml version="1.0"?>
<svg height="600" width="720" >
 <g style="fill-opacity:1.0; stroke:black;
  stroke-width:1;">
  <rect x="10" y="10" height="500"
        width="700" style="fill:none;" />
  <line x1="274" y1="171" x2="394" y2="171" />
  <line x1="274" y1="171" x2="392" y2="195" />
  <line x1="274" y1="171" x2="385" y2="217" />
  <line x1="274" y1="171" x2="374" y2="238" />
  <line x1="274" y1="171" x2="359" y2="256" />
  <line x1="274" y1="171" x2="341" y2="271" />
  <line x1="274" y1="171" x2="320" y2="282" />
  <line x1="274" y1="171" x2="298" y2="289" />
  <line x1="274" y1="171" x2="274" y2="291" />
  <line x1="274" y1="171" x2="251" y2="289" />
  <line x1="274" y1="171" x2="228" y2="282" />
  <line x1="274" y1="171" x2="207" y2="271" />
  <line x1="274" y1="171" x2="189" y2="256" />
  <line x1="274" y1="171" x2="174" y2="238" />
  <line x1="274" y1="171" x2="163" y2="217" />
  <line x1="274" y1="171" x2="156" y2="195" />
  <line x1="274" y1="171" x2="154" y2="171" />
  <line x1="274" y1="171" x2="156" y2="148" />
  <line x1="274" y1="171" x2="163" y2="125" />
  <line x1="274" y1="171" x2="174" y2="104" />
  <line x1="274" y1="171" x2="189" y2="86" />
  <line x1="274" y1="171" x2="207" y2="71" />
  <line x1="274" y1="171" x2="228" y2="60" />
  <line x1="274" y1="171" x2="251" y2="53" />
  <line x1="274" y1="171" x2="274" y2="51" />
  <line x1="274" y1="171" x2="298" y2="53" />
  <line x1="274" y1="171" x2="320" y2="60" />
  <line x1="274" y1="171" x2="341" y2="71" />
  <line x1="274" y1="171" x2="359" y2="86" />
  <line x1="274" y1="171" x2="374" y2="104" />
  <line x1="274" y1="171" x2="385" y2="125" />
  <line x1="274" y1="171" x2="392" y2="148" />
  <circle cx="263" cy="440" r="10"
          style="fill:red;" />
  <circle cx="52" cy="433" r="10"
          style="fill:red;" />
  <circle cx="177" cy="48" r="10"
          style="fill:red;" />
  <circle cx="21" cy="112" r="10"
          style="fill:red;" />
  <circle cx="340" cy="55" r="10"
          style="fill:red;" />
  <circle cx="299" cy="390" r="10"
          style="fill:red;" />
  <circle cx="356" cy="267" r="10"
          style="fill:red;" />
  <circle cx="570" cy="287" r="10"
          style="fill:red;" />
  <circle cx="662" cy="42" r="10"
          style="fill:red;" />
  <circle cx="18" cy="191" r="10"
          style="fill:red;" />
  <circle cx="558" cy="353" r="10"
          style="fill:red;" />
  <circle cx="637" cy="81" r="10"
          style="fill:red;" />
  <circle cx="454" cy="407" r="10"
          style="fill:red;" />
  <circle cx="606" cy="82" r="10"
          style="fill:red;" />
  <circle cx="447" cy="264" r="10"
          style="fill:red;" />
  <circle cx="183" cy="238" r="10"
          style="fill:red;" />
  <circle cx="392" cy="428" r="10"
          style="fill:red;" />
  <circle cx="614" cy="355" r="10"
          style="fill:red;" />
  <circle cx="419" cy="305" r="10"
          style="fill:red;" />
  <circle cx="615" cy="34" r="10"
          style="fill:red;" />
  <circle cx="177" cy="172" r="10"
          style="fill:red;" />
  <circle cx="326" cy="247" r="10"
          style="fill:red;" />
  <circle cx="203" cy="163" r="10"
          style="fill:red;" />
  <circle cx="155" cy="470" r="10"
          style="fill:red;" />
  <circle cx="461" cy="275" r="10"
          style="fill:red;" />
  <circle cx="410" cy="276" r="10"
          style="fill:green;" />
  <circle cx="418" cy="160" r="10"
          style="fill:green;" />
  <circle cx="694" cy="114" r="10"
          style="fill:green;" />
  <circle cx="471" cy="477" r="10"
          style="fill:green;" />
  <circle cx="398" cy="240" r="10"
          style="fill:green;" />
  <circle cx="270" cy="498" r="10"
          style="fill:green;" />
  <circle cx="471" cy="304" r="10"
          style="fill:green;" />
  <circle cx="541" cy="320" r="10"
          style="fill:green;" />
  <circle cx="76" cy="254" r="10"
          style="fill:green;" />
  <circle cx="582" cy="154" r="10"
          style="fill:green;" />
  <circle cx="507" cy="414" r="10"
          style="fill:green;" />
  <circle cx="697" cy="255" r="10"
          style="fill:green;" />
  <circle cx="161" cy="278" r="10"
          style="fill:green;" />
  <circle cx="324" cy="113" r="10"
          style="fill:green;" />
  <circle cx="189" cy="342" r="10"
          style="fill:green;" />
  <circle cx="467" cy="278" r="10"
          style="fill:green;" />
  <circle cx="351" cy="466" r="10"
          style="fill:green;" />
  <circle cx="529" cy="85" r="10"
          style="fill:green;" />
  <circle cx="132" cy="296" r="10"
          style="fill:green;" />
  <circle cx="630" cy="422" r="10"
          style="fill:green;" />
  <circle cx="484" cy="464" r="10"
          style="fill:green;" />
  <circle cx="548" cy="333" r="10"
          style="fill:green;" />
  <circle cx="27" cy="194" r="10"
          style="fill:green;" />
  <circle cx="167" cy="262" r="10"
          style="fill:green;" />
  <circle cx="623" cy="124" r="10"
          style="fill:orange;" />
  <circle cx="479" cy="278" r="10"
          style="fill:orange;" />
  <circle cx="615" cy="382" r="10"
          style="fill:orange;" />
  <circle cx="188" cy="209" r="10"
          style="fill:orange;" />
  <circle cx="686" cy="58" r="10"
          style="fill:orange;" />
  <circle cx="533" cy="247" r="10"
          style="fill:green;" />
  <circle cx="274" cy="171" r="10"
          style="fill:yellow;" />
  <text x="10" y="535" font-size="15">
   DTW        = 151.7
  </text>
  <text x="10" y="555" font-size="15">
   experience = 9
  </text>
  <text x="10" y="575" font-size="15">
   reward = 0.0
  </text>
  <text x="10" y="595" font-size="15">
   objects eaten => friend: 1
  </text>
 </g>
</svg>
