<?xml version="1.0"?>
<svg height="600" width="720" >
 <g style="fill-opacity:1.0; stroke:black;
  stroke-width:1;">
  <rect x="10" y="10" height="500"
        width="700" style="fill:none;" />
  <line x1="272" y1="171" x2="392" y2="171" />
  <line x1="272" y1="171" x2="389" y2="194" />
  <line x1="272" y1="171" x2="383" y2="216" />
  <line x1="272" y1="171" x2="372" y2="237" />
  <line x1="272" y1="171" x2="357" y2="255" />
  <line x1="272" y1="171" x2="338" y2="270" />
  <line x1="272" y1="171" x2="318" y2="281" />
  <line x1="272" y1="171" x2="295" y2="288" />
  <line x1="272" y1="171" x2="272" y2="291" />
  <line x1="272" y1="171" x2="248" y2="288" />
  <line x1="272" y1="171" x2="226" y2="281" />
  <line x1="272" y1="171" x2="205" y2="270" />
  <line x1="272" y1="171" x2="187" y2="255" />
  <line x1="272" y1="171" x2="172" y2="237" />
  <line x1="272" y1="171" x2="161" y2="216" />
  <line x1="272" y1="171" x2="154" y2="194" />
  <line x1="272" y1="171" x2="152" y2="171" />
  <line x1="272" y1="171" x2="154" y2="147" />
  <line x1="272" y1="171" x2="161" y2="125" />
  <line x1="272" y1="171" x2="172" y2="104" />
  <line x1="272" y1="171" x2="187" y2="86" />
  <line x1="272" y1="171" x2="205" y2="71" />
  <line x1="272" y1="171" x2="226" y2="60" />
  <line x1="272" y1="171" x2="248" y2="53" />
  <line x1="272" y1="171" x2="272" y2="51" />
  <line x1="272" y1="171" x2="295" y2="53" />
  <line x1="272" y1="171" x2="318" y2="60" />
  <line x1="272" y1="171" x2="338" y2="71" />
  <line x1="272" y1="171" x2="357" y2="86" />
  <line x1="272" y1="171" x2="372" y2="104" />
  <line x1="272" y1="171" x2="383" y2="125" />
  <line x1="272" y1="171" x2="389" y2="147" />
  <circle cx="263" cy="441" r="10"
          style="fill:red;" />
  <circle cx="52" cy="434" r="10"
          style="fill:red;" />
  <circle cx="178" cy="49" r="10"
          style="fill:red;" />
  <circle cx="21" cy="112" r="10"
          style="fill:red;" />
  <circle cx="341" cy="56" r="10"
          style="fill:red;" />
  <circle cx="298" cy="390" r="10"
          style="fill:red;" />
  <circle cx="355" cy="267" r="10"
          style="fill:red;" />
  <circle cx="569" cy="286" r="10"
          style="fill:red;" />
  <circle cx="663" cy="42" r="10"
          style="fill:red;" />
  <circle cx="20" cy="192" r="10"
          style="fill:red;" />
  <circle cx="558" cy="354" r="10"
          style="fill:red;" />
  <circle cx="637" cy="81" r="10"
          style="fill:red;" />
  <circle cx="453" cy="407" r="10"
          style="fill:red;" />
  <circle cx="605" cy="83" r="10"
          style="fill:red;" />
  <circle cx="447" cy="264" r="10"
          style="fill:red;" />
  <circle cx="182" cy="237" r="10"
          style="fill:red;" />
  <circle cx="392" cy="429" r="10"
          style="fill:red;" />
  <circle cx="615" cy="354" r="10"
          style="fill:red;" />
  <circle cx="421" cy="304" r="10"
          style="fill:red;" />
  <circle cx="615" cy="32" r="10"
          style="fill:red;" />
  <circle cx="177" cy="173" r="10"
          style="fill:red;" />
  <circle cx="325" cy="248" r="10"
          style="fill:red;" />
  <circle cx="202" cy="164" r="10"
          style="fill:red;" />
  <circle cx="154" cy="468" r="10"
          style="fill:red;" />
  <circle cx="461" cy="274" r="10"
          style="fill:red;" />
  <circle cx="410" cy="275" r="10"
          style="fill:green;" />
  <circle cx="418" cy="161" r="10"
          style="fill:green;" />
  <circle cx="695" cy="115" r="10"
          style="fill:green;" />
  <circle cx="472" cy="478" r="10"
          style="fill:green;" />
  <circle cx="397" cy="238" r="10"
          style="fill:green;" />
  <circle cx="269" cy="497" r="10"
          style="fill:green;" />
  <circle cx="470" cy="303" r="10"
          style="fill:green;" />
  <circle cx="542" cy="319" r="10"
          style="fill:green;" />
  <circle cx="76" cy="254" r="10"
          style="fill:green;" />
  <circle cx="580" cy="153" r="10"
          style="fill:green;" />
  <circle cx="507" cy="413" r="10"
          style="fill:green;" />
  <circle cx="699" cy="254" r="10"
          style="fill:green;" />
  <circle cx="161" cy="279" r="10"
          style="fill:green;" />
  <circle cx="325" cy="113" r="10"
          style="fill:green;" />
  <circle cx="190" cy="342" r="10"
          style="fill:green;" />
  <circle cx="468" cy="277" r="10"
          style="fill:green;" />
  <circle cx="350" cy="466" r="10"
          style="fill:green;" />
  <circle cx="528" cy="85" r="10"
          style="fill:green;" />
  <circle cx="133" cy="296" r="10"
          style="fill:green;" />
  <circle cx="631" cy="422" r="10"
          style="fill:green;" />
  <circle cx="483" cy="463" r="10"
          style="fill:green;" />
  <circle cx="549" cy="333" r="10"
          style="fill:green;" />
  <circle cx="28" cy="194" r="10"
          style="fill:green;" />
  <circle cx="166" cy="262" r="10"
          style="fill:green;" />
  <circle cx="623" cy="124" r="10"
          style="fill:orange;" />
  <circle cx="479" cy="277" r="10"
          style="fill:orange;" />
  <circle cx="616" cy="381" r="10"
          style="fill:orange;" />
  <circle cx="188" cy="209" r="10"
          style="fill:orange;" />
  <circle cx="684" cy="57" r="10"
          style="fill:orange;" />
  <circle cx="533" cy="246" r="10"
          style="fill:green;" />
  <circle cx="272" cy="171" r="10"
          style="fill:yellow;" />
  <text x="10" y="535" font-size="15">
   DTW        = 151.0
  </text>
  <text x="10" y="555" font-size="15">
   experience = 9
  </text>
  <text x="10" y="575" font-size="15">
   reward = 0.0
  </text>
  <text x="10" y="595" font-size="15">
   objects eaten => friend: 1
  </text>
 </g>
</svg>
