<?xml version="1.0"?>
<svg height="600" width="720" >
 <g style="fill-opacity:1.0; stroke:black;
  stroke-width:1;">
  <rect x="10" y="10" height="500"
        width="700" style="fill:none;" />
  <line x1="264" y1="169" x2="384" y2="169" />
  <line x1="264" y1="169" x2="381" y2="192" />
  <line x1="264" y1="169" x2="375" y2="215" />
  <line x1="264" y1="169" x2="363" y2="235" />
  <line x1="264" y1="169" x2="349" y2="254" />
  <line x1="264" y1="169" x2="330" y2="269" />
  <line x1="264" y1="169" x2="310" y2="280" />
  <line x1="264" y1="169" x2="287" y2="287" />
  <line x1="264" y1="169" x2="264" y2="289" />
  <line x1="264" y1="169" x2="240" y2="287" />
  <line x1="264" y1="169" x2="218" y2="280" />
  <line x1="264" y1="169" x2="197" y2="269" />
  <line x1="264" y1="169" x2="179" y2="254" />
  <line x1="264" y1="169" x2="164" y2="235" />
  <line x1="264" y1="169" x2="153" y2="215" />
  <line x1="264" y1="169" x2="146" y2="192" />
  <line x1="264" y1="169" x2="144" y2="169" />
  <line x1="264" y1="169" x2="146" y2="145" />
  <line x1="264" y1="169" x2="153" y2="123" />
  <line x1="264" y1="169" x2="164" y2="102" />
  <line x1="264" y1="169" x2="179" y2="84" />
  <line x1="264" y1="169" x2="197" y2="69" />
  <line x1="264" y1="169" x2="218" y2="58" />
  <line x1="264" y1="169" x2="240" y2="51" />
  <line x1="264" y1="169" x2="264" y2="49" />
  <line x1="264" y1="169" x2="287" y2="51" />
  <line x1="264" y1="169" x2="310" y2="58" />
  <line x1="264" y1="169" x2="330" y2="69" />
  <line x1="264" y1="169" x2="349" y2="84" />
  <line x1="264" y1="169" x2="363" y2="102" />
  <line x1="264" y1="169" x2="375" y2="123" />
  <line x1="264" y1="169" x2="381" y2="145" />
  <circle cx="262" cy="445" r="10"
          style="fill:red;" />
  <circle cx="52" cy="438" r="10"
          style="fill:red;" />
  <circle cx="179" cy="54" r="10"
          style="fill:red;" />
  <circle cx="23" cy="114" r="10"
          style="fill:red;" />
  <circle cx="345" cy="57" r="10"
          style="fill:red;" />
  <circle cx="297" cy="389" r="10"
          style="fill:red;" />
  <circle cx="352" cy="269" r="10"
          style="fill:red;" />
  <circle cx="567" cy="283" r="10"
          style="fill:red;" />
  <circle cx="664" cy="44" r="10"
          style="fill:red;" />
  <circle cx="24" cy="196" r="10"
          style="fill:red;" />
  <circle cx="559" cy="358" r="10"
          style="fill:red;" />
  <circle cx="639" cy="82" r="10"
          style="fill:red;" />
  <circle cx="450" cy="405" r="10"
          style="fill:red;" />
  <circle cx="601" cy="85" r="10"
          style="fill:red;" />
  <circle cx="447" cy="264" r="10"
          style="fill:red;" />
  <circle cx="180" cy="235" r="10"
          style="fill:red;" />
  <circle cx="390" cy="433" r="10"
          style="fill:red;" />
  <circle cx="617" cy="350" r="10"
          style="fill:red;" />
  <circle cx="425" cy="301" r="10"
          style="fill:red;" />
  <circle cx="612" cy="29" r="10"
          style="fill:red;" />
  <circle cx="177" cy="178" r="10"
          style="fill:red;" />
  <circle cx="322" cy="250" r="10"
          style="fill:red;" />
  <circle cx="198" cy="168" r="10"
          style="fill:red;" />
  <circle cx="150" cy="465" r="10"
          style="fill:red;" />
  <circle cx="463" cy="270" r="10"
          style="fill:red;" />
  <circle cx="413" cy="272" r="10"
          style="fill:green;" />
  <circle cx="416" cy="161" r="10"
          style="fill:green;" />
  <circle cx="698" cy="119" r="10"
          style="fill:green;" />
  <circle cx="472" cy="483" r="10"
          style="fill:green;" />
  <circle cx="393" cy="234" r="10"
          style="fill:green;" />
  <circle cx="267" cy="495" r="10"
          style="fill:green;" />
  <circle cx="466" cy="299" r="10"
          style="fill:green;" />
  <circle cx="546" cy="315" r="10"
          style="fill:green;" />
  <circle cx="74" cy="252" r="10"
          style="fill:green;" />
  <circle cx="576" cy="150" r="10"
          style="fill:green;" />
  <circle cx="506" cy="411" r="10"
          style="fill:green;" />
  <circle cx="694" cy="250" r="10"
          style="fill:green;" />
  <circle cx="161" cy="283" r="10"
          style="fill:green;" />
  <circle cx="329" cy="112" r="10"
          style="fill:green;" />
  <circle cx="192" cy="341" r="10"
          style="fill:green;" />
  <circle cx="471" cy="274" r="10"
          style="fill:green;" />
  <circle cx="346" cy="466" r="10"
          style="fill:green;" />
  <circle cx="524" cy="87" r="10"
          style="fill:green;" />
  <circle cx="135" cy="294" r="10"
          style="fill:green;" />
  <circle cx="634" cy="423" r="10"
          style="fill:green;" />
  <circle cx="480" cy="458" r="10"
          style="fill:green;" />
  <circle cx="553" cy="333" r="10"
          style="fill:green;" />
  <circle cx="32" cy="194" r="10"
          style="fill:green;" />
  <circle cx="164" cy="263" r="10"
          style="fill:green;" />
  <circle cx="621" cy="125" r="10"
          style="fill:orange;" />
  <circle cx="478" cy="273" r="10"
          style="fill:orange;" />
  <circle cx="619" cy="378" r="10"
          style="fill:orange;" />
  <circle cx="188" cy="208" r="10"
          style="fill:orange;" />
  <circle cx="680" cy="52" r="10"
          style="fill:orange;" />
  <circle cx="535" cy="243" r="10"
          style="fill:green;" />
  <circle cx="264" cy="169" r="10"
          style="fill:yellow;" />
  <text x="10" y="535" font-size="15">
   DTW        = 149.3
  </text>
  <text x="10" y="555" font-size="15">
   experience = 9
  </text>
  <text x="10" y="575" font-size="15">
   reward = 0.0
  </text>
  <text x="10" y="595" font-size="15">
   objects eaten => friend: 1
  </text>
 </g>
</svg>
