<?xml version="1.0"?>
<svg height="600" width="720" >
 <g style="fill-opacity:1.0; stroke:black;
  stroke-width:1;">
  <rect x="10" y="10" height="500"
        width="700" style="fill:none;" />
  <line x1="260" y1="168" x2="380" y2="168" />
  <line x1="260" y1="168" x2="378" y2="192" />
  <line x1="260" y1="168" x2="371" y2="214" />
  <line x1="260" y1="168" x2="360" y2="235" />
  <line x1="260" y1="168" x2="345" y2="253" />
  <line x1="260" y1="168" x2="327" y2="268" />
  <line x1="260" y1="168" x2="306" y2="279" />
  <line x1="260" y1="168" x2="284" y2="286" />
  <line x1="260" y1="168" x2="260" y2="288" />
  <line x1="260" y1="168" x2="237" y2="286" />
  <line x1="260" y1="168" x2="214" y2="279" />
  <line x1="260" y1="168" x2="194" y2="268" />
  <line x1="260" y1="168" x2="175" y2="253" />
  <line x1="260" y1="168" x2="161" y2="235" />
  <line x1="260" y1="168" x2="149" y2="214" />
  <line x1="260" y1="168" x2="143" y2="192" />
  <line x1="260" y1="168" x2="140" y2="168" />
  <line x1="260" y1="168" x2="143" y2="145" />
  <line x1="260" y1="168" x2="149" y2="122" />
  <line x1="260" y1="168" x2="161" y2="102" />
  <line x1="260" y1="168" x2="175" y2="83" />
  <line x1="260" y1="168" x2="194" y2="69" />
  <line x1="260" y1="168" x2="214" y2="57" />
  <line x1="260" y1="168" x2="237" y2="51" />
  <line x1="260" y1="168" x2="260" y2="48" />
  <line x1="260" y1="168" x2="284" y2="51" />
  <line x1="260" y1="168" x2="306" y2="57" />
  <line x1="260" y1="168" x2="327" y2="69" />
  <line x1="260" y1="168" x2="345" y2="83" />
  <line x1="260" y1="168" x2="360" y2="102" />
  <line x1="260" y1="168" x2="371" y2="122" />
  <line x1="260" y1="168" x2="378" y2="145" />
  <circle cx="262" cy="446" r="10"
          style="fill:red;" />
  <circle cx="53" cy="439" r="10"
          style="fill:red;" />
  <circle cx="180" cy="55" r="10"
          style="fill:red;" />
  <circle cx="24" cy="114" r="10"
          style="fill:red;" />
  <circle cx="346" cy="58" r="10"
          style="fill:red;" />
  <circle cx="296" cy="388" r="10"
          style="fill:red;" />
  <circle cx="352" cy="269" r="10"
          style="fill:red;" />
  <circle cx="567" cy="281" r="10"
          style="fill:red;" />
  <circle cx="665" cy="44" r="10"
          style="fill:red;" />
  <circle cx="25" cy="197" r="10"
          style="fill:red;" />
  <circle cx="559" cy="360" r="10"
          style="fill:red;" />
  <circle cx="640" cy="83" r="10"
          style="fill:red;" />
  <circle cx="449" cy="405" r="10"
          style="fill:red;" />
  <circle cx="599" cy="86" r="10"
          style="fill:red;" />
  <circle cx="447" cy="264" r="10"
          style="fill:red;" />
  <circle cx="180" cy="234" r="10"
          style="fill:red;" />
  <circle cx="390" cy="435" r="10"
          style="fill:red;" />
  <circle cx="617" cy="349" r="10"
          style="fill:red;" />
  <circle cx="426" cy="300" r="10"
          style="fill:red;" />
  <circle cx="611" cy="28" r="10"
          style="fill:red;" />
  <circle cx="177" cy="179" r="10"
          style="fill:red;" />
  <circle cx="321" cy="250" r="10"
          style="fill:red;" />
  <circle cx="197" cy="169" r="10"
          style="fill:red;" />
  <circle cx="149" cy="464" r="10"
          style="fill:red;" />
  <circle cx="463" cy="268" r="10"
          style="fill:red;" />
  <circle cx="413" cy="271" r="10"
          style="fill:green;" />
  <circle cx="416" cy="161" r="10"
          style="fill:green;" />
  <circle cx="699" cy="121" r="10"
          style="fill:green;" />
  <circle cx="472" cy="484" r="10"
          style="fill:green;" />
  <circle cx="392" cy="233" r="10"
          style="fill:green;" />
  <circle cx="266" cy="494" r="10"
          style="fill:green;" />
  <circle cx="464" cy="298" r="10"
          style="fill:green;" />
  <circle cx="547" cy="314" r="10"
          style="fill:green;" />
  <circle cx="73" cy="251" r="10"
          style="fill:green;" />
  <circle cx="575" cy="149" r="10"
          style="fill:green;" />
  <circle cx="506" cy="411" r="10"
          style="fill:green;" />
  <circle cx="693" cy="249" r="10"
          style="fill:green;" />
  <circle cx="162" cy="284" r="10"
          style="fill:green;" />
  <circle cx="331" cy="112" r="10"
          style="fill:green;" />
  <circle cx="192" cy="341" r="10"
          style="fill:green;" />
  <circle cx="472" cy="273" r="10"
          style="fill:green;" />
  <circle cx="345" cy="466" r="10"
          style="fill:green;" />
  <circle cx="523" cy="88" r="10"
          style="fill:green;" />
  <circle cx="135" cy="293" r="10"
          style="fill:green;" />
  <circle cx="635" cy="424" r="10"
          style="fill:green;" />
  <circle cx="479" cy="457" r="10"
          style="fill:green;" />
  <circle cx="554" cy="333" r="10"
          style="fill:green;" />
  <circle cx="33" cy="195" r="10"
          style="fill:green;" />
  <circle cx="163" cy="263" r="10"
          style="fill:green;" />
  <circle cx="621" cy="126" r="10"
          style="fill:orange;" />
  <circle cx="477" cy="271" r="10"
          style="fill:orange;" />
  <circle cx="620" cy="377" r="10"
          style="fill:orange;" />
  <circle cx="188" cy="207" r="10"
          style="fill:orange;" />
  <circle cx="679" cy="51" r="10"
          style="fill:orange;" />
  <circle cx="536" cy="242" r="10"
          style="fill:green;" />
  <circle cx="260" cy="168" r="10"
          style="fill:yellow;" />
  <text x="10" y="535" font-size="15">
   DTW        = 148.8
  </text>
  <text x="10" y="555" font-size="15">
   experience = 9
  </text>
  <text x="10" y="575" font-size="15">
   reward = 0.0
  </text>
  <text x="10" y="595" font-size="15">
   objects eaten => friend: 1
  </text>
 </g>
</svg>
