<?xml version="1.0"?>
<svg height="600" width="720" >
 <g style="fill-opacity:1.0; stroke:black;
  stroke-width:1;">
  <rect x="10" y="10" height="500"
        width="700" style="fill:none;" />
  <line x1="257" y1="168" x2="377" y2="168" />
  <line x1="257" y1="168" x2="375" y2="191" />
  <line x1="257" y1="168" x2="368" y2="214" />
  <line x1="257" y1="168" x2="357" y2="235" />
  <line x1="257" y1="168" x2="342" y2="253" />
  <line x1="257" y1="168" x2="324" y2="268" />
  <line x1="257" y1="168" x2="303" y2="279" />
  <line x1="257" y1="168" x2="280" y2="286" />
  <line x1="257" y1="168" x2="257" y2="288" />
  <line x1="257" y1="168" x2="234" y2="286" />
  <line x1="257" y1="168" x2="211" y2="279" />
  <line x1="257" y1="168" x2="190" y2="268" />
  <line x1="257" y1="168" x2="172" y2="253" />
  <line x1="257" y1="168" x2="157" y2="235" />
  <line x1="257" y1="168" x2="146" y2="214" />
  <line x1="257" y1="168" x2="139" y2="191" />
  <line x1="257" y1="168" x2="137" y2="168" />
  <line x1="257" y1="168" x2="139" y2="144" />
  <line x1="257" y1="168" x2="146" y2="122" />
  <line x1="257" y1="168" x2="157" y2="101" />
  <line x1="257" y1="168" x2="172" y2="83" />
  <line x1="257" y1="168" x2="190" y2="68" />
  <line x1="257" y1="168" x2="211" y2="57" />
  <line x1="257" y1="168" x2="234" y2="50" />
  <line x1="257" y1="168" x2="257" y2="48" />
  <line x1="257" y1="168" x2="280" y2="50" />
  <line x1="257" y1="168" x2="303" y2="57" />
  <line x1="257" y1="168" x2="324" y2="68" />
  <line x1="257" y1="168" x2="342" y2="83" />
  <line x1="257" y1="168" x2="357" y2="101" />
  <line x1="257" y1="168" x2="368" y2="122" />
  <line x1="257" y1="168" x2="375" y2="144" />
  <circle cx="262" cy="447" r="10"
          style="fill:red;" />
  <circle cx="53" cy="440" r="10"
          style="fill:red;" />
  <circle cx="180" cy="57" r="10"
          style="fill:red;" />
  <circle cx="24" cy="115" r="10"
          style="fill:red;" />
  <circle cx="347" cy="59" r="10"
          style="fill:red;" />
  <circle cx="295" cy="388" r="10"
          style="fill:red;" />
  <circle cx="351" cy="270" r="10"
          style="fill:red;" />
  <circle cx="566" cy="280" r="10"
          style="fill:red;" />
  <circle cx="665" cy="45" r="10"
          style="fill:red;" />
  <circle cx="26" cy="198" r="10"
          style="fill:red;" />
  <circle cx="559" cy="361" r="10"
          style="fill:red;" />
  <circle cx="641" cy="83" r="10"
          style="fill:red;" />
  <circle cx="448" cy="405" r="10"
          style="fill:red;" />
  <circle cx="598" cy="87" r="10"
          style="fill:red;" />
  <circle cx="447" cy="264" r="10"
          style="fill:red;" />
  <circle cx="179" cy="233" r="10"
          style="fill:red;" />
  <circle cx="389" cy="436" r="10"
          style="fill:red;" />
  <circle cx="618" cy="348" r="10"
          style="fill:red;" />
  <circle cx="428" cy="299" r="10"
          style="fill:red;" />
  <circle cx="611" cy="27" r="10"
          style="fill:red;" />
  <circle cx="177" cy="181" r="10"
          style="fill:red;" />
  <circle cx="320" cy="251" r="10"
          style="fill:red;" />
  <circle cx="196" cy="170" r="10"
          style="fill:red;" />
  <circle cx="148" cy="463" r="10"
          style="fill:red;" />
  <circle cx="463" cy="267" r="10"
          style="fill:red;" />
  <circle cx="414" cy="270" r="10"
          style="fill:green;" />
  <circle cx="415" cy="162" r="10"
          style="fill:green;" />
  <circle cx="698" cy="122" r="10"
          style="fill:green;" />
  <circle cx="472" cy="485" r="10"
          style="fill:green;" />
  <circle cx="391" cy="232" r="10"
          style="fill:green;" />
  <circle cx="265" cy="493" r="10"
          style="fill:green;" />
  <circle cx="463" cy="297" r="10"
          style="fill:green;" />
  <circle cx="548" cy="312" r="10"
          style="fill:green;" />
  <circle cx="73" cy="251" r="10"
          style="fill:green;" />
  <circle cx="574" cy="148" r="10"
          style="fill:green;" />
  <circle cx="506" cy="410" r="10"
          style="fill:green;" />
  <circle cx="691" cy="248" r="10"
          style="fill:green;" />
  <circle cx="162" cy="285" r="10"
          style="fill:green;" />
  <circle cx="332" cy="111" r="10"
          style="fill:green;" />
  <circle cx="193" cy="341" r="10"
          style="fill:green;" />
  <circle cx="473" cy="272" r="10"
          style="fill:green;" />
  <circle cx="344" cy="466" r="10"
          style="fill:green;" />
  <circle cx="521" cy="88" r="10"
          style="fill:green;" />
  <circle cx="136" cy="293" r="10"
          style="fill:green;" />
  <circle cx="636" cy="424" r="10"
          style="fill:green;" />
  <circle cx="479" cy="455" r="10"
          style="fill:green;" />
  <circle cx="555" cy="333" r="10"
          style="fill:green;" />
  <circle cx="34" cy="195" r="10"
          style="fill:green;" />
  <circle cx="162" cy="263" r="10"
          style="fill:green;" />
  <circle cx="621" cy="126" r="10"
          style="fill:orange;" />
  <circle cx="477" cy="270" r="10"
          style="fill:orange;" />
  <circle cx="622" cy="376" r="10"
          style="fill:orange;" />
  <circle cx="188" cy="207" r="10"
          style="fill:orange;" />
  <circle cx="677" cy="49" r="10"
          style="fill:orange;" />
  <circle cx="537" cy="241" r="10"
          style="fill:green;" />
  <circle cx="257" cy="168" r="10"
          style="fill:yellow;" />
  <text x="10" y="535" font-size="15">
   DTW        = 148.3
  </text>
  <text x="10" y="555" font-size="15">
   experience = 9
  </text>
  <text x="10" y="575" font-size="15">
   reward = 0.0
  </text>
  <text x="10" y="595" font-size="15">
   objects eaten => friend: 1
  </text>
 </g>
</svg>
