<?xml version="1.0"?>
<svg height="600" width="720" >
 <g style="fill-opacity:1.0; stroke:black;
  stroke-width:1;">
  <rect x="10" y="10" height="500"
        width="700" style="fill:none;" />
  <line x1="254" y1="167" x2="374" y2="167" />
  <line x1="254" y1="167" x2="371" y2="191" />
  <line x1="254" y1="167" x2="364" y2="213" />
  <line x1="254" y1="167" x2="353" y2="234" />
  <line x1="254" y1="167" x2="338" y2="252" />
  <line x1="254" y1="167" x2="320" y2="267" />
  <line x1="254" y1="167" x2="299" y2="278" />
  <line x1="254" y1="167" x2="277" y2="285" />
  <line x1="254" y1="167" x2="254" y2="287" />
  <line x1="254" y1="167" x2="230" y2="285" />
  <line x1="254" y1="167" x2="208" y2="278" />
  <line x1="254" y1="167" x2="187" y2="267" />
  <line x1="254" y1="167" x2="169" y2="252" />
  <line x1="254" y1="167" x2="154" y2="234" />
  <line x1="254" y1="167" x2="143" y2="213" />
  <line x1="254" y1="167" x2="136" y2="191" />
  <line x1="254" y1="167" x2="134" y2="167" />
  <line x1="254" y1="167" x2="136" y2="144" />
  <line x1="254" y1="167" x2="143" y2="121" />
  <line x1="254" y1="167" x2="154" y2="101" />
  <line x1="254" y1="167" x2="169" y2="82" />
  <line x1="254" y1="167" x2="187" y2="68" />
  <line x1="254" y1="167" x2="208" y2="56" />
  <line x1="254" y1="167" x2="230" y2="50" />
  <line x1="254" y1="167" x2="254" y2="47" />
  <line x1="254" y1="167" x2="277" y2="50" />
  <line x1="254" y1="167" x2="299" y2="56" />
  <line x1="254" y1="167" x2="320" y2="68" />
  <line x1="254" y1="167" x2="338" y2="82" />
  <line x1="254" y1="167" x2="353" y2="101" />
  <line x1="254" y1="167" x2="364" y2="121" />
  <line x1="254" y1="167" x2="371" y2="144" />
  <circle cx="262" cy="448" r="10"
          style="fill:red;" />
  <circle cx="53" cy="441" r="10"
          style="fill:red;" />
  <circle cx="180" cy="58" r="10"
          style="fill:red;" />
  <circle cx="25" cy="115" r="10"
          style="fill:red;" />
  <circle cx="349" cy="59" r="10"
          style="fill:red;" />
  <circle cx="295" cy="387" r="10"
          style="fill:red;" />
  <circle cx="350" cy="270" r="10"
          style="fill:red;" />
  <circle cx="565" cy="279" r="10"
          style="fill:red;" />
  <circle cx="666" cy="45" r="10"
          style="fill:red;" />
  <circle cx="28" cy="200" r="10"
          style="fill:red;" />
  <circle cx="559" cy="363" r="10"
          style="fill:red;" />
  <circle cx="641" cy="83" r="10"
          style="fill:red;" />
  <circle cx="447" cy="404" r="10"
          style="fill:red;" />
  <circle cx="597" cy="87" r="10"
          style="fill:red;" />
  <circle cx="446" cy="264" r="10"
          style="fill:red;" />
  <circle cx="179" cy="232" r="10"
          style="fill:red;" />
  <circle cx="389" cy="437" r="10"
          style="fill:red;" />
  <circle cx="618" cy="347" r="10"
          style="fill:red;" />
  <circle cx="429" cy="298" r="10"
          style="fill:red;" />
  <circle cx="610" cy="26" r="10"
          style="fill:red;" />
  <circle cx="177" cy="182" r="10"
          style="fill:red;" />
  <circle cx="319" cy="252" r="10"
          style="fill:red;" />
  <circle cx="194" cy="171" r="10"
          style="fill:red;" />
  <circle cx="147" cy="462" r="10"
          style="fill:red;" />
  <circle cx="464" cy="265" r="10"
          style="fill:red;" />
  <circle cx="415" cy="270" r="10"
          style="fill:green;" />
  <circle cx="415" cy="162" r="10"
          style="fill:green;" />
  <circle cx="697" cy="124" r="10"
          style="fill:green;" />
  <circle cx="472" cy="487" r="10"
          style="fill:green;" />
  <circle cx="390" cy="230" r="10"
          style="fill:green;" />
  <circle cx="264" cy="492" r="10"
          style="fill:green;" />
  <circle cx="461" cy="296" r="10"
          style="fill:green;" />
  <circle cx="549" cy="311" r="10"
          style="fill:green;" />
  <circle cx="72" cy="250" r="10"
          style="fill:green;" />
  <circle cx="573" cy="147" r="10"
          style="fill:green;" />
  <circle cx="506" cy="409" r="10"
          style="fill:green;" />
  <circle cx="690" cy="246" r="10"
          style="fill:green;" />
  <circle cx="162" cy="287" r="10"
          style="fill:green;" />
  <circle cx="334" cy="111" r="10"
          style="fill:green;" />
  <circle cx="194" cy="340" r="10"
          style="fill:green;" />
  <circle cx="474" cy="271" r="10"
          style="fill:green;" />
  <circle cx="342" cy="466" r="10"
          style="fill:green;" />
  <circle cx="520" cy="89" r="10"
          style="fill:green;" />
  <circle cx="137" cy="292" r="10"
          style="fill:green;" />
  <circle cx="636" cy="425" r="10"
          style="fill:green;" />
  <circle cx="478" cy="454" r="10"
          style="fill:green;" />
  <circle cx="556" cy="333" r="10"
          style="fill:green;" />
  <circle cx="36" cy="195" r="10"
          style="fill:green;" />
  <circle cx="161" cy="263" r="10"
          style="fill:green;" />
  <circle cx="620" cy="127" r="10"
          style="fill:orange;" />
  <circle cx="477" cy="269" r="10"
          style="fill:orange;" />
  <circle cx="623" cy="375" r="10"
          style="fill:orange;" />
  <circle cx="188" cy="207" r="10"
          style="fill:orange;" />
  <circle cx="676" cy="48" r="10"
          style="fill:orange;" />
  <circle cx="537" cy="240" r="10"
          style="fill:green;" />
  <circle cx="254" cy="167" r="10"
          style="fill:yellow;" />
  <text x="10" y="535" font-size="15">
   DTW        = 147.9
  </text>
  <text x="10" y="555" font-size="15">
   experience = 9
  </text>
  <text x="10" y="575" font-size="15">
   reward = 0.0
  </text>
  <text x="10" y="595" font-size="15">
   objects eaten => friend: 1
  </text>
 </g>
</svg>
