<?xml version="1.0"?>
<svg height="600" width="720" >
 <g style="fill-opacity:1.0; stroke:black;
  stroke-width:1;">
  <rect x="10" y="10" height="500"
        width="700" style="fill:none;" />
  <line x1="248" y1="164" x2="368" y2="164" />
  <line x1="248" y1="164" x2="366" y2="187" />
  <line x1="248" y1="164" x2="359" y2="209" />
  <line x1="248" y1="164" x2="348" y2="230" />
  <line x1="248" y1="164" x2="333" y2="248" />
  <line x1="248" y1="164" x2="315" y2="263" />
  <line x1="248" y1="164" x2="294" y2="274" />
  <line x1="248" y1="164" x2="272" y2="281" />
  <line x1="248" y1="164" x2="248" y2="284" />
  <line x1="248" y1="164" x2="225" y2="281" />
  <line x1="248" y1="164" x2="202" y2="274" />
  <line x1="248" y1="164" x2="181" y2="263" />
  <line x1="248" y1="164" x2="163" y2="248" />
  <line x1="248" y1="164" x2="148" y2="230" />
  <line x1="248" y1="164" x2="137" y2="209" />
  <line x1="248" y1="164" x2="130" y2="187" />
  <line x1="248" y1="164" x2="128" y2="164" />
  <line x1="248" y1="164" x2="130" y2="140" />
  <line x1="248" y1="164" x2="137" y2="118" />
  <line x1="248" y1="164" x2="148" y2="97" />
  <line x1="248" y1="164" x2="163" y2="79" />
  <line x1="248" y1="164" x2="181" y2="64" />
  <line x1="248" y1="164" x2="202" y2="53" />
  <line x1="248" y1="164" x2="225" y2="46" />
  <line x1="248" y1="164" x2="248" y2="44" />
  <line x1="248" y1="164" x2="272" y2="46" />
  <line x1="248" y1="164" x2="294" y2="53" />
  <line x1="248" y1="164" x2="315" y2="64" />
  <line x1="248" y1="164" x2="333" y2="79" />
  <line x1="248" y1="164" x2="348" y2="97" />
  <line x1="248" y1="164" x2="359" y2="118" />
  <line x1="248" y1="164" x2="366" y2="140" />
  <circle cx="262" cy="451" r="10"
          style="fill:red;" />
  <circle cx="54" cy="444" r="10"
          style="fill:red;" />
  <circle cx="181" cy="61" r="10"
          style="fill:red;" />
  <circle cx="26" cy="116" r="10"
          style="fill:red;" />
  <circle cx="351" cy="60" r="10"
          style="fill:red;" />
  <circle cx="293" cy="387" r="10"
          style="fill:red;" />
  <circle cx="348" cy="271" r="10"
          style="fill:red;" />
  <circle cx="564" cy="277" r="10"
          style="fill:red;" />
  <circle cx="667" cy="46" r="10"
          style="fill:red;" />
  <circle cx="30" cy="202" r="10"
          style="fill:red;" />
  <circle cx="560" cy="365" r="10"
          style="fill:red;" />
  <circle cx="642" cy="84" r="10"
          style="fill:red;" />
  <circle cx="445" cy="404" r="10"
          style="fill:red;" />
  <circle cx="594" cy="89" r="10"
          style="fill:red;" />
  <circle cx="446" cy="264" r="10"
          style="fill:red;" />
  <circle cx="177" cy="230" r="10"
          style="fill:red;" />
  <circle cx="388" cy="440" r="10"
          style="fill:red;" />
  <circle cx="619" cy="344" r="10"
          style="fill:red;" />
  <circle cx="432" cy="296" r="10"
          style="fill:red;" />
  <circle cx="608" cy="23" r="10"
          style="fill:red;" />
  <circle cx="177" cy="185" r="10"
          style="fill:red;" />
  <circle cx="317" cy="253" r="10"
          style="fill:red;" />
  <circle cx="192" cy="173" r="10"
          style="fill:red;" />
  <circle cx="144" cy="460" r="10"
          style="fill:red;" />
  <circle cx="465" cy="262" r="10"
          style="fill:red;" />
  <circle cx="416" cy="268" r="10"
          style="fill:green;" />
  <circle cx="414" cy="162" r="10"
          style="fill:green;" />
  <circle cx="695" cy="126" r="10"
          style="fill:green;" />
  <circle cx="473" cy="490" r="10"
          style="fill:green;" />
  <circle cx="387" cy="228" r="10"
          style="fill:green;" />
  <circle cx="262" cy="491" r="10"
          style="fill:green;" />
  <circle cx="458" cy="294" r="10"
          style="fill:green;" />
  <circle cx="551" cy="308" r="10"
          style="fill:green;" />
  <circle cx="71" cy="249" r="10"
          style="fill:green;" />
  <circle cx="570" cy="145" r="10"
          style="fill:green;" />
  <circle cx="505" cy="408" r="10"
          style="fill:green;" />
  <circle cx="687" cy="244" r="10"
          style="fill:green;" />
  <circle cx="162" cy="289" r="10"
          style="fill:green;" />
  <circle cx="336" cy="111" r="10"
          style="fill:green;" />
  <circle cx="195" cy="340" r="10"
          style="fill:green;" />
  <circle cx="476" cy="269" r="10"
          style="fill:green;" />
  <circle cx="340" cy="466" r="10"
          style="fill:green;" />
  <circle cx="517" cy="90" r="10"
          style="fill:green;" />
  <circle cx="138" cy="291" r="10"
          style="fill:green;" />
  <circle cx="638" cy="425" r="10"
          style="fill:green;" />
  <circle cx="476" cy="451" r="10"
          style="fill:green;" />
  <circle cx="559" cy="332" r="10"
          style="fill:green;" />
  <circle cx="38" cy="195" r="10"
          style="fill:green;" />
  <circle cx="160" cy="264" r="10"
          style="fill:green;" />
  <circle cx="619" cy="128" r="10"
          style="fill:orange;" />
  <circle cx="476" cy="266" r="10"
          style="fill:orange;" />
  <circle cx="625" cy="373" r="10"
          style="fill:orange;" />
  <circle cx="188" cy="206" r="10"
          style="fill:orange;" />
  <circle cx="673" cy="45" r="10"
          style="fill:orange;" />
  <circle cx="539" cy="239" r="10"
          style="fill:green;" />
  <circle cx="248" cy="164" r="10"
          style="fill:yellow;" />
  <text x="10" y="535" font-size="15">
   DTW        = 144.1
  </text>
  <text x="10" y="555" font-size="15">
   experience = 9
  </text>
  <text x="10" y="575" font-size="15">
   reward = 0.0
  </text>
  <text x="10" y="595" font-size="15">
   objects eaten => friend: 1
  </text>
 </g>
</svg>
