<?xml version="1.0"?>
<svg height="600" width="720" >
 <g style="fill-opacity:1.0; stroke:black;
  stroke-width:1;">
  <rect x="10" y="10" height="500"
        width="700" style="fill:none;" />
  <line x1="245" y1="162" x2="365" y2="162" />
  <line x1="245" y1="162" x2="363" y2="185" />
  <line x1="245" y1="162" x2="356" y2="208" />
  <line x1="245" y1="162" x2="345" y2="228" />
  <line x1="245" y1="162" x2="330" y2="247" />
  <line x1="245" y1="162" x2="312" y2="261" />
  <line x1="245" y1="162" x2="291" y2="273" />
  <line x1="245" y1="162" x2="269" y2="279" />
  <line x1="245" y1="162" x2="245" y2="282" />
  <line x1="245" y1="162" x2="222" y2="279" />
  <line x1="245" y1="162" x2="200" y2="273" />
  <line x1="245" y1="162" x2="179" y2="261" />
  <line x1="245" y1="162" x2="161" y2="247" />
  <line x1="245" y1="162" x2="146" y2="228" />
  <line x1="245" y1="162" x2="135" y2="208" />
  <line x1="245" y1="162" x2="128" y2="185" />
  <line x1="245" y1="162" x2="125" y2="162" />
  <line x1="245" y1="162" x2="128" y2="138" />
  <line x1="245" y1="162" x2="135" y2="116" />
  <line x1="245" y1="162" x2="146" y2="95" />
  <line x1="245" y1="162" x2="161" y2="77" />
  <line x1="245" y1="162" x2="179" y2="62" />
  <line x1="245" y1="162" x2="200" y2="51" />
  <line x1="245" y1="162" x2="222" y2="44" />
  <line x1="245" y1="162" x2="245" y2="42" />
  <line x1="245" y1="162" x2="269" y2="44" />
  <line x1="245" y1="162" x2="291" y2="51" />
  <line x1="245" y1="162" x2="312" y2="62" />
  <line x1="245" y1="162" x2="330" y2="77" />
  <line x1="245" y1="162" x2="345" y2="95" />
  <line x1="245" y1="162" x2="356" y2="116" />
  <line x1="245" y1="162" x2="363" y2="138" />
  <circle cx="262" cy="452" r="10"
          style="fill:red;" />
  <circle cx="54" cy="445" r="10"
          style="fill:red;" />
  <circle cx="182" cy="63" r="10"
          style="fill:red;" />
  <circle cx="27" cy="117" r="10"
          style="fill:red;" />
  <circle cx="352" cy="61" r="10"
          style="fill:red;" />
  <circle cx="293" cy="386" r="10"
          style="fill:red;" />
  <circle cx="347" cy="272" r="10"
          style="fill:red;" />
  <circle cx="563" cy="276" r="10"
          style="fill:red;" />
  <circle cx="667" cy="47" r="10"
          style="fill:red;" />
  <circle cx="31" cy="203" r="10"
          style="fill:red;" />
  <circle cx="560" cy="367" r="10"
          style="fill:red;" />
  <circle cx="643" cy="84" r="10"
          style="fill:red;" />
  <circle cx="445" cy="403" r="10"
          style="fill:red;" />
  <circle cx="593" cy="90" r="10"
          style="fill:red;" />
  <circle cx="446" cy="264" r="10"
          style="fill:red;" />
  <circle cx="177" cy="229" r="10"
          style="fill:red;" />
  <circle cx="387" cy="441" r="10"
          style="fill:red;" />
  <circle cx="620" cy="343" r="10"
          style="fill:red;" />
  <circle cx="434" cy="295" r="10"
          style="fill:red;" />
  <circle cx="607" cy="22" r="10"
          style="fill:red;" />
  <circle cx="176" cy="186" r="10"
          style="fill:red;" />
  <circle cx="316" cy="254" r="10"
          style="fill:red;" />
  <circle cx="191" cy="174" r="10"
          style="fill:red;" />
  <circle cx="143" cy="458" r="10"
          style="fill:red;" />
  <circle cx="465" cy="261" r="10"
          style="fill:red;" />
  <circle cx="417" cy="267" r="10"
          style="fill:green;" />
  <circle cx="414" cy="162" r="10"
          style="fill:green;" />
  <circle cx="694" cy="128" r="10"
          style="fill:green;" />
  <circle cx="473" cy="491" r="10"
          style="fill:green;" />
  <circle cx="386" cy="226" r="10"
          style="fill:green;" />
  <circle cx="261" cy="490" r="10"
          style="fill:green;" />
  <circle cx="457" cy="293" r="10"
          style="fill:green;" />
  <circle cx="552" cy="307" r="10"
          style="fill:green;" />
  <circle cx="70" cy="248" r="10"
          style="fill:green;" />
  <circle cx="569" cy="144" r="10"
          style="fill:green;" />
  <circle cx="505" cy="407" r="10"
          style="fill:green;" />
  <circle cx="686" cy="243" r="10"
          style="fill:green;" />
  <circle cx="162" cy="290" r="10"
          style="fill:green;" />
  <circle cx="338" cy="110" r="10"
          style="fill:green;" />
  <circle cx="196" cy="339" r="10"
          style="fill:green;" />
  <circle cx="477" cy="268" r="10"
          style="fill:green;" />
  <circle cx="339" cy="466" r="10"
          style="fill:green;" />
  <circle cx="516" cy="91" r="10"
          style="fill:green;" />
  <circle cx="138" cy="290" r="10"
          style="fill:green;" />
  <circle cx="639" cy="426" r="10"
          style="fill:green;" />
  <circle cx="475" cy="450" r="10"
          style="fill:green;" />
  <circle cx="560" cy="332" r="10"
          style="fill:green;" />
  <circle cx="39" cy="195" r="10"
          style="fill:green;" />
  <circle cx="159" cy="264" r="10"
          style="fill:green;" />
  <circle cx="619" cy="128" r="10"
          style="fill:orange;" />
  <circle cx="476" cy="264" r="10"
          style="fill:orange;" />
  <circle cx="626" cy="372" r="10"
          style="fill:orange;" />
  <circle cx="188" cy="205" r="10"
          style="fill:orange;" />
  <circle cx="671" cy="44" r="10"
          style="fill:orange;" />
  <circle cx="539" cy="238" r="10"
          style="fill:green;" />
  <circle cx="245" cy="162" r="10"
          style="fill:yellow;" />
  <text x="10" y="535" font-size="15">
   DTW        = 142.2
  </text>
  <text x="10" y="555" font-size="15">
   experience = 9
  </text>
  <text x="10" y="575" font-size="15">
   reward = 0.0
  </text>
  <text x="10" y="595" font-size="15">
   objects eaten => friend: 1
  </text>
 </g>
</svg>
