<?xml version="1.0"?>
<svg height="600" width="720" >
 <g style="fill-opacity:1.0; stroke:black;
  stroke-width:1;">
  <rect x="10" y="10" height="500"
        width="700" style="fill:none;" />
  <line x1="243" y1="160" x2="363" y2="160" />
  <line x1="243" y1="160" x2="360" y2="183" />
  <line x1="243" y1="160" x2="354" y2="206" />
  <line x1="243" y1="160" x2="343" y2="226" />
  <line x1="243" y1="160" x2="328" y2="245" />
  <line x1="243" y1="160" x2="309" y2="260" />
  <line x1="243" y1="160" x2="289" y2="271" />
  <line x1="243" y1="160" x2="266" y2="277" />
  <line x1="243" y1="160" x2="243" y2="280" />
  <line x1="243" y1="160" x2="219" y2="277" />
  <line x1="243" y1="160" x2="197" y2="271" />
  <line x1="243" y1="160" x2="176" y2="260" />
  <line x1="243" y1="160" x2="158" y2="245" />
  <line x1="243" y1="160" x2="143" y2="226" />
  <line x1="243" y1="160" x2="132" y2="206" />
  <line x1="243" y1="160" x2="125" y2="183" />
  <line x1="243" y1="160" x2="123" y2="160" />
  <line x1="243" y1="160" x2="125" y2="136" />
  <line x1="243" y1="160" x2="132" y2="114" />
  <line x1="243" y1="160" x2="143" y2="93" />
  <line x1="243" y1="160" x2="158" y2="75" />
  <line x1="243" y1="160" x2="176" y2="60" />
  <line x1="243" y1="160" x2="197" y2="49" />
  <line x1="243" y1="160" x2="219" y2="42" />
  <line x1="243" y1="160" x2="243" y2="40" />
  <line x1="243" y1="160" x2="266" y2="42" />
  <line x1="243" y1="160" x2="289" y2="49" />
  <line x1="243" y1="160" x2="309" y2="60" />
  <line x1="243" y1="160" x2="328" y2="75" />
  <line x1="243" y1="160" x2="343" y2="93" />
  <line x1="243" y1="160" x2="354" y2="114" />
  <line x1="243" y1="160" x2="360" y2="136" />
  <circle cx="262" cy="453" r="10"
          style="fill:red;" />
  <circle cx="54" cy="446" r="10"
          style="fill:red;" />
  <circle cx="182" cy="64" r="10"
          style="fill:red;" />
  <circle cx="27" cy="117" r="10"
          style="fill:red;" />
  <circle cx="354" cy="61" r="10"
          style="fill:red;" />
  <circle cx="292" cy="386" r="10"
          style="fill:red;" />
  <circle cx="347" cy="272" r="10"
          style="fill:red;" />
  <circle cx="563" cy="275" r="10"
          style="fill:red;" />
  <circle cx="668" cy="47" r="10"
          style="fill:red;" />
  <circle cx="33" cy="205" r="10"
          style="fill:red;" />
  <circle cx="560" cy="368" r="10"
          style="fill:red;" />
  <circle cx="644" cy="85" r="10"
          style="fill:red;" />
  <circle cx="444" cy="403" r="10"
          style="fill:red;" />
  <circle cx="592" cy="90" r="10"
          style="fill:red;" />
  <circle cx="446" cy="263" r="10"
          style="fill:red;" />
  <circle cx="176" cy="228" r="10"
          style="fill:red;" />
  <circle cx="387" cy="442" r="10"
          style="fill:red;" />
  <circle cx="620" cy="342" r="10"
          style="fill:red;" />
  <circle cx="435" cy="294" r="10"
          style="fill:red;" />
  <circle cx="606" cy="21" r="10"
          style="fill:red;" />
  <circle cx="176" cy="188" r="10"
          style="fill:red;" />
  <circle cx="315" cy="255" r="10"
          style="fill:red;" />
  <circle cx="190" cy="175" r="10"
          style="fill:red;" />
  <circle cx="142" cy="457" r="10"
          style="fill:red;" />
  <circle cx="465" cy="259" r="10"
          style="fill:red;" />
  <circle cx="418" cy="266" r="10"
          style="fill:green;" />
  <circle cx="413" cy="162" r="10"
          style="fill:green;" />
  <circle cx="693" cy="129" r="10"
          style="fill:green;" />
  <circle cx="473" cy="493" r="10"
          style="fill:green;" />
  <circle cx="385" cy="225" r="10"
          style="fill:green;" />
  <circle cx="260" cy="489" r="10"
          style="fill:green;" />
  <circle cx="456" cy="292" r="10"
          style="fill:green;" />
  <circle cx="554" cy="306" r="10"
          style="fill:green;" />
  <circle cx="70" cy="248" r="10"
          style="fill:green;" />
  <circle cx="567" cy="143" r="10"
          style="fill:green;" />
  <circle cx="505" cy="406" r="10"
          style="fill:green;" />
  <circle cx="684" cy="241" r="10"
          style="fill:green;" />
  <circle cx="163" cy="292" r="10"
          style="fill:green;" />
  <circle cx="339" cy="110" r="10"
          style="fill:green;" />
  <circle cx="196" cy="339" r="10"
          style="fill:green;" />
  <circle cx="478" cy="267" r="10"
          style="fill:green;" />
  <circle cx="338" cy="466" r="10"
          style="fill:green;" />
  <circle cx="514" cy="91" r="10"
          style="fill:green;" />
  <circle cx="139" cy="290" r="10"
          style="fill:green;" />
  <circle cx="640" cy="426" r="10"
          style="fill:green;" />
  <circle cx="474" cy="448" r="10"
          style="fill:green;" />
  <circle cx="561" cy="332" r="10"
          style="fill:green;" />
  <circle cx="41" cy="196" r="10"
          style="fill:green;" />
  <circle cx="158" cy="264" r="10"
          style="fill:green;" />
  <circle cx="619" cy="129" r="10"
          style="fill:orange;" />
  <circle cx="475" cy="263" r="10"
          style="fill:orange;" />
  <circle cx="627" cy="371" r="10"
          style="fill:orange;" />
  <circle cx="187" cy="205" r="10"
          style="fill:orange;" />
  <circle cx="670" cy="42" r="10"
          style="fill:orange;" />
  <circle cx="540" cy="237" r="10"
          style="fill:green;" />
  <circle cx="243" cy="160" r="10"
          style="fill:yellow;" />
  <text x="10" y="535" font-size="15">
   DTW        = 140.3
  </text>
  <text x="10" y="555" font-size="15">
   experience = 10
  </text>
  <text x="10" y="575" font-size="15">
   reward = 0.0
  </text>
  <text x="10" y="595" font-size="15">
   objects eaten => friend: 1
  </text>
 </g>
</svg>
