<?xml version="1.0"?>
<svg height="600" width="720" >
 <g style="fill-opacity:1.0; stroke:black;
  stroke-width:1;">
  <rect x="10" y="10" height="500"
        width="700" style="fill:none;" />
  <line x1="241" y1="160" x2="361" y2="160" />
  <line x1="241" y1="160" x2="358" y2="183" />
  <line x1="241" y1="160" x2="351" y2="206" />
  <line x1="241" y1="160" x2="340" y2="226" />
  <line x1="241" y1="160" x2="325" y2="245" />
  <line x1="241" y1="160" x2="307" y2="260" />
  <line x1="241" y1="160" x2="287" y2="271" />
  <line x1="241" y1="160" x2="264" y2="277" />
  <line x1="241" y1="160" x2="241" y2="280" />
  <line x1="241" y1="160" x2="217" y2="277" />
  <line x1="241" y1="160" x2="195" y2="271" />
  <line x1="241" y1="160" x2="174" y2="260" />
  <line x1="241" y1="160" x2="156" y2="245" />
  <line x1="241" y1="160" x2="141" y2="226" />
  <line x1="241" y1="160" x2="130" y2="206" />
  <line x1="241" y1="160" x2="123" y2="183" />
  <line x1="241" y1="160" x2="121" y2="160" />
  <line x1="241" y1="160" x2="123" y2="136" />
  <line x1="241" y1="160" x2="130" y2="114" />
  <line x1="241" y1="160" x2="141" y2="93" />
  <line x1="241" y1="160" x2="156" y2="75" />
  <line x1="241" y1="160" x2="174" y2="60" />
  <line x1="241" y1="160" x2="195" y2="49" />
  <line x1="241" y1="160" x2="217" y2="42" />
  <line x1="241" y1="160" x2="241" y2="40" />
  <line x1="241" y1="160" x2="264" y2="42" />
  <line x1="241" y1="160" x2="287" y2="49" />
  <line x1="241" y1="160" x2="307" y2="60" />
  <line x1="241" y1="160" x2="325" y2="75" />
  <line x1="241" y1="160" x2="340" y2="93" />
  <line x1="241" y1="160" x2="351" y2="114" />
  <line x1="241" y1="160" x2="358" y2="136" />
  <circle cx="262" cy="455" r="10"
          style="fill:red;" />
  <circle cx="54" cy="447" r="10"
          style="fill:red;" />
  <circle cx="183" cy="66" r="10"
          style="fill:red;" />
  <circle cx="28" cy="117" r="10"
          style="fill:red;" />
  <circle cx="355" cy="62" r="10"
          style="fill:red;" />
  <circle cx="292" cy="385" r="10"
          style="fill:red;" />
  <circle cx="346" cy="273" r="10"
          style="fill:red;" />
  <circle cx="562" cy="273" r="10"
          style="fill:red;" />
  <circle cx="669" cy="48" r="10"
          style="fill:red;" />
  <circle cx="34" cy="206" r="10"
          style="fill:red;" />
  <circle cx="560" cy="370" r="10"
          style="fill:red;" />
  <circle cx="644" cy="85" r="10"
          style="fill:red;" />
  <circle cx="443" cy="403" r="10"
          style="fill:red;" />
  <circle cx="590" cy="91" r="10"
          style="fill:red;" />
  <circle cx="446" cy="263" r="10"
          style="fill:red;" />
  <circle cx="176" cy="227" r="10"
          style="fill:red;" />
  <circle cx="387" cy="444" r="10"
          style="fill:red;" />
  <circle cx="621" cy="341" r="10"
          style="fill:red;" />
  <circle cx="437" cy="293" r="10"
          style="fill:red;" />
  <circle cx="606" cy="20" r="10"
          style="fill:red;" />
  <circle cx="176" cy="189" r="10"
          style="fill:red;" />
  <circle cx="314" cy="255" r="10"
          style="fill:red;" />
  <circle cx="188" cy="177" r="10"
          style="fill:red;" />
  <circle cx="141" cy="456" r="10"
          style="fill:red;" />
  <circle cx="466" cy="258" r="10"
          style="fill:red;" />
  <circle cx="418" cy="265" r="10"
          style="fill:green;" />
  <circle cx="413" cy="163" r="10"
          style="fill:green;" />
  <circle cx="692" cy="131" r="10"
          style="fill:green;" />
  <circle cx="473" cy="494" r="10"
          style="fill:green;" />
  <circle cx="384" cy="224" r="10"
          style="fill:green;" />
  <circle cx="260" cy="488" r="10"
          style="fill:green;" />
  <circle cx="454" cy="290" r="10"
          style="fill:green;" />
  <circle cx="555" cy="305" r="10"
          style="fill:green;" />
  <circle cx="69" cy="247" r="10"
          style="fill:green;" />
  <circle cx="566" cy="142" r="10"
          style="fill:green;" />
  <circle cx="505" cy="406" r="10"
          style="fill:green;" />
  <circle cx="683" cy="240" r="10"
          style="fill:green;" />
  <circle cx="163" cy="293" r="10"
          style="fill:green;" />
  <circle cx="341" cy="110" r="10"
          style="fill:green;" />
  <circle cx="197" cy="339" r="10"
          style="fill:green;" />
  <circle cx="479" cy="266" r="10"
          style="fill:green;" />
  <circle cx="336" cy="466" r="10"
          style="fill:green;" />
  <circle cx="513" cy="92" r="10"
          style="fill:green;" />
  <circle cx="139" cy="289" r="10"
          style="fill:green;" />
  <circle cx="641" cy="427" r="10"
          style="fill:green;" />
  <circle cx="473" cy="447" r="10"
          style="fill:green;" />
  <circle cx="562" cy="332" r="10"
          style="fill:green;" />
  <circle cx="42" cy="196" r="10"
          style="fill:green;" />
  <circle cx="157" cy="264" r="10"
          style="fill:green;" />
  <circle cx="618" cy="129" r="10"
          style="fill:orange;" />
  <circle cx="475" cy="262" r="10"
          style="fill:orange;" />
  <circle cx="628" cy="370" r="10"
          style="fill:orange;" />
  <circle cx="187" cy="205" r="10"
          style="fill:orange;" />
  <circle cx="668" cy="41" r="10"
          style="fill:orange;" />
  <circle cx="541" cy="236" r="10"
          style="fill:green;" />
  <circle cx="241" cy="160" r="10"
          style="fill:yellow;" />
  <text x="10" y="535" font-size="15">
   DTW        = 140.3
  </text>
  <text x="10" y="555" font-size="15">
   experience = 10
  </text>
  <text x="10" y="575" font-size="15">
   reward = 0.0
  </text>
  <text x="10" y="595" font-size="15">
   objects eaten => friend: 1
  </text>
 </g>
</svg>
