<?xml version="1.0"?>
<svg height="600" width="720" >
 <g style="fill-opacity:1.0; stroke:black;
  stroke-width:1;">
  <rect x="10" y="10" height="500"
        width="700" style="fill:none;" />
  <line x1="236" y1="160" x2="356" y2="160" />
  <line x1="236" y1="160" x2="354" y2="183" />
  <line x1="236" y1="160" x2="347" y2="206" />
  <line x1="236" y1="160" x2="336" y2="226" />
  <line x1="236" y1="160" x2="321" y2="245" />
  <line x1="236" y1="160" x2="303" y2="260" />
  <line x1="236" y1="160" x2="282" y2="271" />
  <line x1="236" y1="160" x2="260" y2="277" />
  <line x1="236" y1="160" x2="236" y2="280" />
  <line x1="236" y1="160" x2="213" y2="277" />
  <line x1="236" y1="160" x2="190" y2="271" />
  <line x1="236" y1="160" x2="170" y2="260" />
  <line x1="236" y1="160" x2="151" y2="245" />
  <line x1="236" y1="160" x2="136" y2="226" />
  <line x1="236" y1="160" x2="125" y2="206" />
  <line x1="236" y1="160" x2="119" y2="183" />
  <line x1="236" y1="160" x2="116" y2="160" />
  <line x1="236" y1="160" x2="119" y2="136" />
  <line x1="236" y1="160" x2="125" y2="114" />
  <line x1="236" y1="160" x2="136" y2="93" />
  <line x1="236" y1="160" x2="151" y2="75" />
  <line x1="236" y1="160" x2="170" y2="60" />
  <line x1="236" y1="160" x2="190" y2="49" />
  <line x1="236" y1="160" x2="213" y2="42" />
  <line x1="236" y1="160" x2="236" y2="40" />
  <line x1="236" y1="160" x2="260" y2="42" />
  <line x1="236" y1="160" x2="282" y2="49" />
  <line x1="236" y1="160" x2="303" y2="60" />
  <line x1="236" y1="160" x2="321" y2="75" />
  <line x1="236" y1="160" x2="336" y2="93" />
  <line x1="236" y1="160" x2="347" y2="114" />
  <line x1="236" y1="160" x2="354" y2="136" />
  <circle cx="262" cy="457" r="10"
          style="fill:red;" />
  <circle cx="55" cy="450" r="10"
          style="fill:red;" />
  <circle cx="184" cy="69" r="10"
          style="fill:red;" />
  <circle cx="29" cy="118" r="10"
          style="fill:red;" />
  <circle cx="357" cy="63" r="10"
          style="fill:red;" />
  <circle cx="290" cy="384" r="10"
          style="fill:red;" />
  <circle cx="344" cy="274" r="10"
          style="fill:red;" />
  <circle cx="561" cy="271" r="10"
          style="fill:red;" />
  <circle cx="670" cy="49" r="10"
          style="fill:red;" />
  <circle cx="37" cy="208" r="10"
          style="fill:red;" />
  <circle cx="561" cy="373" r="10"
          style="fill:red;" />
  <circle cx="645" cy="86" r="10"
          style="fill:red;" />
  <circle cx="441" cy="402" r="10"
          style="fill:red;" />
  <circle cx="588" cy="93" r="10"
          style="fill:red;" />
  <circle cx="445" cy="263" r="10"
          style="fill:red;" />
  <circle cx="174" cy="225" r="10"
          style="fill:red;" />
  <circle cx="386" cy="446" r="10"
          style="fill:red;" />
  <circle cx="622" cy="339" r="10"
          style="fill:red;" />
  <circle cx="440" cy="291" r="10"
          style="fill:red;" />
  <circle cx="604" cy="20" r="10"
          style="fill:red;" />
  <circle cx="176" cy="192" r="10"
          style="fill:red;" />
  <circle cx="311" cy="257" r="10"
          style="fill:red;" />
  <circle cx="186" cy="179" r="10"
          style="fill:red;" />
  <circle cx="138" cy="454" r="10"
          style="fill:red;" />
  <circle cx="467" cy="255" r="10"
          style="fill:red;" />
  <circle cx="420" cy="263" r="10"
          style="fill:green;" />
  <circle cx="412" cy="163" r="10"
          style="fill:green;" />
  <circle cx="689" cy="133" r="10"
          style="fill:green;" />
  <circle cx="473" cy="497" r="10"
          style="fill:green;" />
  <circle cx="381" cy="221" r="10"
          style="fill:green;" />
  <circle cx="258" cy="487" r="10"
          style="fill:green;" />
  <circle cx="451" cy="288" r="10"
          style="fill:green;" />
  <circle cx="557" cy="302" r="10"
          style="fill:green;" />
  <circle cx="68" cy="246" r="10"
          style="fill:green;" />
  <circle cx="563" cy="140" r="10"
          style="fill:green;" />
  <circle cx="504" cy="404" r="10"
          style="fill:green;" />
  <circle cx="680" cy="238" r="10"
          style="fill:green;" />
  <circle cx="163" cy="295" r="10"
          style="fill:green;" />
  <circle cx="344" cy="109" r="10"
          style="fill:green;" />
  <circle cx="198" cy="338" r="10"
          style="fill:green;" />
  <circle cx="481" cy="264" r="10"
          style="fill:green;" />
  <circle cx="334" cy="466" r="10"
          style="fill:green;" />
  <circle cx="510" cy="93" r="10"
          style="fill:green;" />
  <circle cx="141" cy="288" r="10"
          style="fill:green;" />
  <circle cx="643" cy="427" r="10"
          style="fill:green;" />
  <circle cx="471" cy="444" r="10"
          style="fill:green;" />
  <circle cx="565" cy="332" r="10"
          style="fill:green;" />
  <circle cx="44" cy="196" r="10"
          style="fill:green;" />
  <circle cx="156" cy="265" r="10"
          style="fill:green;" />
  <circle cx="617" cy="130" r="10"
          style="fill:orange;" />
  <circle cx="474" cy="259" r="10"
          style="fill:orange;" />
  <circle cx="631" cy="369" r="10"
          style="fill:orange;" />
  <circle cx="187" cy="204" r="10"
          style="fill:orange;" />
  <circle cx="666" cy="38" r="10"
          style="fill:orange;" />
  <circle cx="542" cy="234" r="10"
          style="fill:green;" />
  <circle cx="236" cy="160" r="10"
          style="fill:yellow;" />
  <text x="10" y="535" font-size="15">
   DTW        = 140.2
  </text>
  <text x="10" y="555" font-size="15">
   experience = 10
  </text>
  <text x="10" y="575" font-size="15">
   reward = 0.0
  </text>
  <text x="10" y="595" font-size="15">
   objects eaten => friend: 1
  </text>
 </g>
</svg>
