<?xml version="1.0"?>
<svg height="600" width="720" >
 <g style="fill-opacity:1.0; stroke:black;
  stroke-width:1;">
  <rect x="10" y="10" height="500"
        width="700" style="fill:none;" />
  <line x1="234" y1="160" x2="354" y2="160" />
  <line x1="234" y1="160" x2="352" y2="183" />
  <line x1="234" y1="160" x2="345" y2="206" />
  <line x1="234" y1="160" x2="334" y2="226" />
  <line x1="234" y1="160" x2="319" y2="245" />
  <line x1="234" y1="160" x2="301" y2="260" />
  <line x1="234" y1="160" x2="280" y2="271" />
  <line x1="234" y1="160" x2="258" y2="277" />
  <line x1="234" y1="160" x2="234" y2="280" />
  <line x1="234" y1="160" x2="211" y2="277" />
  <line x1="234" y1="160" x2="188" y2="271" />
  <line x1="234" y1="160" x2="167" y2="260" />
  <line x1="234" y1="160" x2="149" y2="245" />
  <line x1="234" y1="160" x2="134" y2="226" />
  <line x1="234" y1="160" x2="123" y2="206" />
  <line x1="234" y1="160" x2="116" y2="183" />
  <line x1="234" y1="160" x2="114" y2="160" />
  <line x1="234" y1="160" x2="116" y2="136" />
  <line x1="234" y1="160" x2="123" y2="114" />
  <line x1="234" y1="160" x2="134" y2="93" />
  <line x1="234" y1="160" x2="149" y2="75" />
  <line x1="234" y1="160" x2="167" y2="60" />
  <line x1="234" y1="160" x2="188" y2="49" />
  <line x1="234" y1="160" x2="211" y2="42" />
  <line x1="234" y1="160" x2="234" y2="40" />
  <line x1="234" y1="160" x2="258" y2="42" />
  <line x1="234" y1="160" x2="280" y2="49" />
  <line x1="234" y1="160" x2="301" y2="60" />
  <line x1="234" y1="160" x2="319" y2="75" />
  <line x1="234" y1="160" x2="334" y2="93" />
  <line x1="234" y1="160" x2="345" y2="114" />
  <line x1="234" y1="160" x2="352" y2="136" />
  <circle cx="262" cy="458" r="10"
          style="fill:red;" />
  <circle cx="55" cy="451" r="10"
          style="fill:red;" />
  <circle cx="184" cy="70" r="10"
          style="fill:red;" />
  <circle cx="30" cy="119" r="10"
          style="fill:red;" />
  <circle cx="359" cy="64" r="10"
          style="fill:red;" />
  <circle cx="290" cy="384" r="10"
          style="fill:red;" />
  <circle cx="343" cy="274" r="10"
          style="fill:red;" />
  <circle cx="560" cy="270" r="10"
          style="fill:red;" />
  <circle cx="670" cy="49" r="10"
          style="fill:red;" />
  <circle cx="38" cy="210" r="10"
          style="fill:red;" />
  <circle cx="561" cy="374" r="10"
          style="fill:red;" />
  <circle cx="646" cy="86" r="10"
          style="fill:red;" />
  <circle cx="440" cy="402" r="10"
          style="fill:red;" />
  <circle cx="586" cy="93" r="10"
          style="fill:red;" />
  <circle cx="445" cy="263" r="10"
          style="fill:red;" />
  <circle cx="174" cy="224" r="10"
          style="fill:red;" />
  <circle cx="385" cy="447" r="10"
          style="fill:red;" />
  <circle cx="622" cy="337" r="10"
          style="fill:red;" />
  <circle cx="441" cy="290" r="10"
          style="fill:red;" />
  <circle cx="603" cy="21" r="10"
          style="fill:red;" />
  <circle cx="176" cy="194" r="10"
          style="fill:red;" />
  <circle cx="310" cy="257" r="10"
          style="fill:red;" />
  <circle cx="185" cy="180" r="10"
          style="fill:red;" />
  <circle cx="137" cy="453" r="10"
          style="fill:red;" />
  <circle cx="467" cy="254" r="10"
          style="fill:red;" />
  <circle cx="421" cy="262" r="10"
          style="fill:green;" />
  <circle cx="412" cy="163" r="10"
          style="fill:green;" />
  <circle cx="688" cy="135" r="10"
          style="fill:green;" />
  <circle cx="473" cy="498" r="10"
          style="fill:green;" />
  <circle cx="380" cy="220" r="10"
          style="fill:green;" />
  <circle cx="257" cy="486" r="10"
          style="fill:green;" />
  <circle cx="450" cy="287" r="10"
          style="fill:green;" />
  <circle cx="558" cy="301" r="10"
          style="fill:green;" />
  <circle cx="67" cy="245" r="10"
          style="fill:green;" />
  <circle cx="562" cy="139" r="10"
          style="fill:green;" />
  <circle cx="504" cy="404" r="10"
          style="fill:green;" />
  <circle cx="679" cy="236" r="10"
          style="fill:green;" />
  <circle cx="163" cy="297" r="10"
          style="fill:green;" />
  <circle cx="345" cy="109" r="10"
          style="fill:green;" />
  <circle cx="199" cy="338" r="10"
          style="fill:green;" />
  <circle cx="482" cy="263" r="10"
          style="fill:green;" />
  <circle cx="333" cy="466" r="10"
          style="fill:green;" />
  <circle cx="509" cy="94" r="10"
          style="fill:green;" />
  <circle cx="141" cy="287" r="10"
          style="fill:green;" />
  <circle cx="644" cy="428" r="10"
          style="fill:green;" />
  <circle cx="470" cy="442" r="10"
          style="fill:green;" />
  <circle cx="566" cy="332" r="10"
          style="fill:green;" />
  <circle cx="46" cy="196" r="10"
          style="fill:green;" />
  <circle cx="155" cy="265" r="10"
          style="fill:green;" />
  <circle cx="617" cy="131" r="10"
          style="fill:orange;" />
  <circle cx="474" cy="258" r="10"
          style="fill:orange;" />
  <circle cx="632" cy="368" r="10"
          style="fill:orange;" />
  <circle cx="187" cy="203" r="10"
          style="fill:orange;" />
  <circle cx="664" cy="36" r="10"
          style="fill:orange;" />
  <circle cx="543" cy="233" r="10"
          style="fill:green;" />
  <circle cx="234" cy="160" r="10"
          style="fill:yellow;" />
  <text x="10" y="535" font-size="15">
   DTW        = 140.2
  </text>
  <text x="10" y="555" font-size="15">
   experience = 10
  </text>
  <text x="10" y="575" font-size="15">
   reward = 0.0
  </text>
  <text x="10" y="595" font-size="15">
   objects eaten => friend: 1
  </text>
 </g>
</svg>
