<?xml version="1.0"?>
<svg height="600" width="720" >
 <g style="fill-opacity:1.0; stroke:black;
  stroke-width:1;">
  <rect x="10" y="10" height="500"
        width="700" style="fill:none;" />
  <line x1="232" y1="161" x2="352" y2="161" />
  <line x1="232" y1="161" x2="350" y2="185" />
  <line x1="232" y1="161" x2="343" y2="207" />
  <line x1="232" y1="161" x2="332" y2="228" />
  <line x1="232" y1="161" x2="317" y2="246" />
  <line x1="232" y1="161" x2="299" y2="261" />
  <line x1="232" y1="161" x2="278" y2="272" />
  <line x1="232" y1="161" x2="256" y2="279" />
  <line x1="232" y1="161" x2="232" y2="281" />
  <line x1="232" y1="161" x2="209" y2="279" />
  <line x1="232" y1="161" x2="186" y2="272" />
  <line x1="232" y1="161" x2="166" y2="261" />
  <line x1="232" y1="161" x2="148" y2="246" />
  <line x1="232" y1="161" x2="133" y2="228" />
  <line x1="232" y1="161" x2="122" y2="207" />
  <line x1="232" y1="161" x2="115" y2="185" />
  <line x1="232" y1="161" x2="112" y2="161" />
  <line x1="232" y1="161" x2="115" y2="138" />
  <line x1="232" y1="161" x2="122" y2="115" />
  <line x1="232" y1="161" x2="133" y2="95" />
  <line x1="232" y1="161" x2="148" y2="76" />
  <line x1="232" y1="161" x2="166" y2="61" />
  <line x1="232" y1="161" x2="186" y2="50" />
  <line x1="232" y1="161" x2="209" y2="44" />
  <line x1="232" y1="161" x2="232" y2="41" />
  <line x1="232" y1="161" x2="256" y2="44" />
  <line x1="232" y1="161" x2="278" y2="50" />
  <line x1="232" y1="161" x2="299" y2="61" />
  <line x1="232" y1="161" x2="317" y2="76" />
  <line x1="232" y1="161" x2="332" y2="95" />
  <line x1="232" y1="161" x2="343" y2="115" />
  <line x1="232" y1="161" x2="350" y2="138" />
  <circle cx="262" cy="460" r="10"
          style="fill:red;" />
  <circle cx="55" cy="452" r="10"
          style="fill:red;" />
  <circle cx="184" cy="72" r="10"
          style="fill:red;" />
  <circle cx="30" cy="119" r="10"
          style="fill:red;" />
  <circle cx="360" cy="64" r="10"
          style="fill:red;" />
  <circle cx="289" cy="384" r="10"
          style="fill:red;" />
  <circle cx="342" cy="275" r="10"
          style="fill:red;" />
  <circle cx="559" cy="269" r="10"
          style="fill:red;" />
  <circle cx="671" cy="50" r="10"
          style="fill:red;" />
  <circle cx="39" cy="211" r="10"
          style="fill:red;" />
  <circle cx="561" cy="375" r="10"
          style="fill:red;" />
  <circle cx="647" cy="86" r="10"
          style="fill:red;" />
  <circle cx="439" cy="401" r="10"
          style="fill:red;" />
  <circle cx="585" cy="94" r="10"
          style="fill:red;" />
  <circle cx="445" cy="263" r="10"
          style="fill:red;" />
  <circle cx="173" cy="223" r="10"
          style="fill:red;" />
  <circle cx="385" cy="449" r="10"
          style="fill:red;" />
  <circle cx="623" cy="336" r="10"
          style="fill:red;" />
  <circle cx="443" cy="289" r="10"
          style="fill:red;" />
  <circle cx="602" cy="22" r="10"
          style="fill:red;" />
  <circle cx="176" cy="195" r="10"
          style="fill:red;" />
  <circle cx="309" cy="258" r="10"
          style="fill:red;" />
  <circle cx="184" cy="181" r="10"
          style="fill:red;" />
  <circle cx="136" cy="452" r="10"
          style="fill:red;" />
  <circle cx="467" cy="252" r="10"
          style="fill:red;" />
  <circle cx="421" cy="261" r="10"
          style="fill:green;" />
  <circle cx="411" cy="163" r="10"
          style="fill:green;" />
  <circle cx="687" cy="136" r="10"
          style="fill:green;" />
  <circle cx="474" cy="500" r="10"
          style="fill:green;" />
  <circle cx="379" cy="218" r="10"
          style="fill:green;" />
  <circle cx="256" cy="485" r="10"
          style="fill:green;" />
  <circle cx="449" cy="286" r="10"
          style="fill:green;" />
  <circle cx="559" cy="299" r="10"
          style="fill:green;" />
  <circle cx="67" cy="245" r="10"
          style="fill:green;" />
  <circle cx="561" cy="137" r="10"
          style="fill:green;" />
  <circle cx="504" cy="403" r="10"
          style="fill:green;" />
  <circle cx="677" cy="235" r="10"
          style="fill:green;" />
  <circle cx="163" cy="298" r="10"
          style="fill:green;" />
  <circle cx="346" cy="109" r="10"
          style="fill:green;" />
  <circle cx="200" cy="338" r="10"
          style="fill:green;" />
  <circle cx="483" cy="262" r="10"
          style="fill:green;" />
  <circle cx="331" cy="466" r="10"
          style="fill:green;" />
  <circle cx="507" cy="94" r="10"
          style="fill:green;" />
  <circle cx="142" cy="287" r="10"
          style="fill:green;" />
  <circle cx="645" cy="428" r="10"
          style="fill:green;" />
  <circle cx="469" cy="441" r="10"
          style="fill:green;" />
  <circle cx="567" cy="332" r="10"
          style="fill:green;" />
  <circle cx="47" cy="196" r="10"
          style="fill:green;" />
  <circle cx="154" cy="265" r="10"
          style="fill:green;" />
  <circle cx="617" cy="131" r="10"
          style="fill:orange;" />
  <circle cx="474" cy="256" r="10"
          style="fill:orange;" />
  <circle cx="633" cy="367" r="10"
          style="fill:orange;" />
  <circle cx="187" cy="203" r="10"
          style="fill:orange;" />
  <circle cx="663" cy="35" r="10"
          style="fill:orange;" />
  <circle cx="543" cy="232" r="10"
          style="fill:green;" />
  <circle cx="232" cy="161" r="10"
          style="fill:yellow;" />
  <text x="10" y="535" font-size="15">
   DTW        = 141.7
  </text>
  <text x="10" y="555" font-size="15">
   experience = 10
  </text>
  <text x="10" y="575" font-size="15">
   reward = 0.0
  </text>
  <text x="10" y="595" font-size="15">
   objects eaten => friend: 1
  </text>
 </g>
</svg>
