<?xml version="1.0"?>
<svg height="600" width="720" >
 <g style="fill-opacity:1.0; stroke:black;
  stroke-width:1;">
  <rect x="10" y="10" height="500"
        width="700" style="fill:none;" />
  <line x1="414" y1="288" x2="534" y2="288" />
  <line x1="414" y1="288" x2="531" y2="311" />
  <line x1="414" y1="288" x2="524" y2="334" />
  <line x1="414" y1="288" x2="513" y2="355" />
  <line x1="414" y1="288" x2="498" y2="373" />
  <line x1="414" y1="288" x2="480" y2="388" />
  <line x1="414" y1="288" x2="460" y2="399" />
  <line x1="414" y1="288" x2="437" y2="406" />
  <line x1="414" y1="288" x2="414" y2="408" />
  <line x1="414" y1="288" x2="390" y2="406" />
  <line x1="414" y1="288" x2="368" y2="399" />
  <line x1="414" y1="288" x2="347" y2="388" />
  <line x1="414" y1="288" x2="329" y2="373" />
  <line x1="414" y1="288" x2="314" y2="355" />
  <line x1="414" y1="288" x2="303" y2="334" />
  <line x1="414" y1="288" x2="296" y2="311" />
  <line x1="414" y1="288" x2="294" y2="288" />
  <line x1="414" y1="288" x2="296" y2="265" />
  <line x1="414" y1="288" x2="303" y2="242" />
  <line x1="414" y1="288" x2="314" y2="221" />
  <line x1="414" y1="288" x2="329" y2="203" />
  <line x1="414" y1="288" x2="347" y2="188" />
  <line x1="414" y1="288" x2="368" y2="177" />
  <line x1="414" y1="288" x2="390" y2="170" />
  <line x1="414" y1="288" x2="414" y2="168" />
  <line x1="414" y1="288" x2="437" y2="170" />
  <line x1="414" y1="288" x2="460" y2="177" />
  <line x1="414" y1="288" x2="480" y2="188" />
  <line x1="414" y1="288" x2="498" y2="203" />
  <line x1="414" y1="288" x2="513" y2="221" />
  <line x1="414" y1="288" x2="524" y2="242" />
  <line x1="414" y1="288" x2="531" y2="265" />
  <circle cx="270" cy="279" r="10"
          style="fill:red;" />
  <circle cx="22" cy="278" r="10"
          style="fill:red;" />
  <circle cx="120" cy="180" r="10"
          style="fill:red;" />
  <circle cx="96" cy="53" r="10"
          style="fill:red;" />
  <circle cx="178" cy="59" r="10"
          style="fill:red;" />
  <circle cx="381" cy="445" r="10"
          style="fill:red;" />
  <circle cx="464" cy="202" r="10"
          style="fill:red;" />
  <circle cx="656" cy="435" r="10"
          style="fill:red;" />
  <circle cx="594" cy="65" r="10"
          style="fill:red;" />
  <circle cx="186" cy="27" r="10"
          style="fill:red;" />
  <circle cx="533" cy="167" r="10"
          style="fill:red;" />
  <circle cx="558" cy="38" r="10"
          style="fill:red;" />
  <circle cx="572" cy="454" r="10"
          style="fill:red;" />
  <circle cx="624" cy="54" r="10"
          style="fill:red;" />
  <circle cx="464" cy="275" r="10"
          style="fill:red;" />
  <circle cx="263" cy="360" r="10"
          style="fill:red;" />
  <circle cx="454" cy="260" r="10"
          style="fill:red;" />
  <circle cx="547" cy="493" r="10"
          style="fill:red;" />
  <circle cx="227" cy="439" r="10"
          style="fill:red;" />
  <circle cx="677" cy="181" r="10"
          style="fill:red;" />
  <circle cx="187" cy="52" r="10"
          style="fill:red;" />
  <circle cx="467" cy="158" r="10"
          style="fill:red;" />
  <circle cx="360" cy="21" r="10"
          style="fill:red;" />
  <circle cx="308" cy="382" r="10"
          style="fill:red;" />
  <circle cx="408" cy="464" r="10"
          style="fill:red;" />
  <circle cx="315" cy="394" r="10"
          style="fill:green;" />
  <circle cx="473" cy="136" r="10"
          style="fill:green;" />
  <circle cx="557" cy="105" r="10"
          style="fill:green;" />
  <circle cx="454" cy="290" r="10"
          style="fill:green;" />
  <circle cx="558" cy="414" r="10"
          style="fill:green;" />
  <circle cx="440" cy="310" r="10"
          style="fill:green;" />
  <circle cx="386" cy="391" r="10"
          style="fill:green;" />
  <circle cx="656" cy="449" r="10"
          style="fill:green;" />
  <circle cx="396" cy="488" r="10"
          style="fill:green;" />
  <circle cx="153" cy="332" r="10"
          style="fill:green;" />
  <circle cx="647" cy="289" r="10"
          style="fill:green;" />
  <circle cx="532" cy="491" r="10"
          style="fill:green;" />
  <circle cx="513" cy="417" r="10"
          style="fill:green;" />
  <circle cx="138" cy="115" r="10"
          style="fill:green;" />
  <circle cx="138" cy="147" r="10"
          style="fill:green;" />
  <circle cx="102" cy="381" r="10"
          style="fill:green;" />
  <circle cx="336" cy="404" r="10"
          style="fill:green;" />
  <circle cx="510" cy="473" r="10"
          style="fill:green;" />
  <circle cx="688" cy="31" r="10"
          style="fill:green;" />
  <circle cx="56" cy="373" r="10"
          style="fill:green;" />
  <circle cx="514" cy="369" r="10"
          style="fill:green;" />
  <circle cx="605" cy="339" r="10"
          style="fill:green;" />
  <circle cx="393" cy="345" r="10"
          style="fill:green;" />
  <circle cx="174" cy="173" r="10"
          style="fill:green;" />
  <circle cx="271" cy="239" r="10"
          style="fill:green;" />
  <circle cx="675" cy="63" r="10"
          style="fill:orange;" />
  <circle cx="521" cy="458" r="10"
          style="fill:orange;" />
  <circle cx="465" cy="490" r="10"
          style="fill:orange;" />
  <circle cx="193" cy="259" r="10"
          style="fill:orange;" />
  <circle cx="524" cy="246" r="10"
          style="fill:orange;" />
  <circle cx="414" cy="288" r="10"
          style="fill:yellow;" />
  <text x="10" y="535" font-size="15">
   DTW        = 211.4
  </text>
  <text x="10" y="555" font-size="15">
   experience = 1
  </text>
  <text x="10" y="575" font-size="15">
   reward = 0.0
  </text>
  <text x="10" y="595" font-size="15">
   objects eaten => 
  </text>
 </g>
</svg>
