<?xml version="1.0"?>
<svg height="600" width="720" >
 <g style="fill-opacity:1.0; stroke:black;
  stroke-width:1;">
  <rect x="10" y="10" height="500"
        width="700" style="fill:none;" />
  <line x1="415" y1="284" x2="535" y2="284" />
  <line x1="415" y1="284" x2="532" y2="307" />
  <line x1="415" y1="284" x2="526" y2="330" />
  <line x1="415" y1="284" x2="514" y2="351" />
  <line x1="415" y1="284" x2="500" y2="369" />
  <line x1="415" y1="284" x2="481" y2="384" />
  <line x1="415" y1="284" x2="461" y2="395" />
  <line x1="415" y1="284" x2="438" y2="402" />
  <line x1="415" y1="284" x2="415" y2="404" />
  <line x1="415" y1="284" x2="391" y2="402" />
  <line x1="415" y1="284" x2="369" y2="395" />
  <line x1="415" y1="284" x2="348" y2="384" />
  <line x1="415" y1="284" x2="330" y2="369" />
  <line x1="415" y1="284" x2="315" y2="351" />
  <line x1="415" y1="284" x2="304" y2="330" />
  <line x1="415" y1="284" x2="297" y2="307" />
  <line x1="415" y1="284" x2="295" y2="284" />
  <line x1="415" y1="284" x2="297" y2="261" />
  <line x1="415" y1="284" x2="304" y2="238" />
  <line x1="415" y1="284" x2="315" y2="217" />
  <line x1="415" y1="284" x2="330" y2="199" />
  <line x1="415" y1="284" x2="348" y2="184" />
  <line x1="415" y1="284" x2="369" y2="173" />
  <line x1="415" y1="284" x2="391" y2="166" />
  <line x1="415" y1="284" x2="415" y2="164" />
  <line x1="415" y1="284" x2="438" y2="166" />
  <line x1="415" y1="284" x2="461" y2="173" />
  <line x1="415" y1="284" x2="481" y2="184" />
  <line x1="415" y1="284" x2="500" y2="199" />
  <line x1="415" y1="284" x2="514" y2="217" />
  <line x1="415" y1="284" x2="526" y2="238" />
  <line x1="415" y1="284" x2="532" y2="261" />
  <circle cx="270" cy="282" r="10"
          style="fill:red;" />
  <circle cx="23" cy="281" r="10"
          style="fill:red;" />
  <circle cx="121" cy="177" r="10"
          style="fill:red;" />
  <circle cx="94" cy="54" r="10"
          style="fill:red;" />
  <circle cx="180" cy="57" r="10"
          style="fill:red;" />
  <circle cx="380" cy="444" r="10"
          style="fill:red;" />
  <circle cx="462" cy="203" r="10"
          style="fill:red;" />
  <circle cx="655" cy="433" r="10"
          style="fill:red;" />
  <circle cx="595" cy="63" r="10"
          style="fill:red;" />
  <circle cx="184" cy="29" r="10"
          style="fill:red;" />
  <circle cx="534" cy="170" r="10"
          style="fill:red;" />
  <circle cx="559" cy="39" r="10"
          style="fill:red;" />
  <circle cx="570" cy="453" r="10"
          style="fill:red;" />
  <circle cx="627" cy="52" r="10"
          style="fill:red;" />
  <circle cx="463" cy="275" r="10"
          style="fill:red;" />
  <circle cx="261" cy="358" r="10"
          style="fill:red;" />
  <circle cx="453" cy="262" r="10"
          style="fill:red;" />
  <circle cx="548" cy="495" r="10"
          style="fill:red;" />
  <circle cx="230" cy="437" r="10"
          style="fill:red;" />
  <circle cx="679" cy="178" r="10"
          style="fill:red;" />
  <circle cx="187" cy="49" r="10"
          style="fill:red;" />
  <circle cx="465" cy="159" r="10"
          style="fill:red;" />
  <circle cx="357" cy="19" r="10"
          style="fill:red;" />
  <circle cx="305" cy="385" r="10"
          style="fill:red;" />
  <circle cx="408" cy="461" r="10"
          style="fill:red;" />
  <circle cx="316" cy="392" r="10"
          style="fill:green;" />
  <circle cx="473" cy="136" r="10"
          style="fill:green;" />
  <circle cx="559" cy="103" r="10"
          style="fill:green;" />
  <circle cx="454" cy="293" r="10"
          style="fill:green;" />
  <circle cx="556" cy="411" r="10"
          style="fill:green;" />
  <circle cx="438" cy="308" r="10"
          style="fill:green;" />
  <circle cx="384" cy="393" r="10"
          style="fill:green;" />
  <circle cx="653" cy="447" r="10"
          style="fill:green;" />
  <circle cx="398" cy="486" r="10"
          style="fill:green;" />
  <circle cx="152" cy="331" r="10"
          style="fill:green;" />
  <circle cx="650" cy="287" r="10"
          style="fill:green;" />
  <circle cx="531" cy="492" r="10"
          style="fill:green;" />
  <circle cx="516" cy="414" r="10"
          style="fill:green;" />
  <circle cx="139" cy="118" r="10"
          style="fill:green;" />
  <circle cx="141" cy="146" r="10"
          style="fill:green;" />
  <circle cx="103" cy="380" r="10"
          style="fill:green;" />
  <circle cx="338" cy="402" r="10"
          style="fill:green;" />
  <circle cx="507" cy="473" r="10"
          style="fill:green;" />
  <circle cx="691" cy="30" r="10"
          style="fill:green;" />
  <circle cx="57" cy="372" r="10"
          style="fill:green;" />
  <circle cx="516" cy="370" r="10"
          style="fill:green;" />
  <circle cx="604" cy="342" r="10"
          style="fill:green;" />
  <circle cx="395" cy="344" r="10"
          style="fill:green;" />
  <circle cx="171" cy="174" r="10"
          style="fill:green;" />
  <circle cx="269" cy="239" r="10"
          style="fill:green;" />
  <circle cx="674" cy="64" r="10"
          style="fill:orange;" />
  <circle cx="521" cy="455" r="10"
          style="fill:orange;" />
  <circle cx="467" cy="492" r="10"
          style="fill:orange;" />
  <circle cx="193" cy="258" r="10"
          style="fill:orange;" />
  <circle cx="527" cy="243" r="10"
          style="fill:orange;" />
  <circle cx="415" cy="284" r="10"
          style="fill:yellow;" />
  <text x="10" y="535" font-size="15">
   DTW        = 215.5
  </text>
  <text x="10" y="555" font-size="15">
   experience = 1
  </text>
  <text x="10" y="575" font-size="15">
   reward = 0.0
  </text>
  <text x="10" y="595" font-size="15">
   objects eaten => 
  </text>
 </g>
</svg>
