<?xml version="1.0"?>
<svg height="600" width="720" >
 <g style="fill-opacity:1.0; stroke:black;
  stroke-width:1;">
  <rect x="10" y="10" height="500"
        width="700" style="fill:none;" />
  <line x1="417" y1="280" x2="537" y2="280" />
  <line x1="417" y1="280" x2="535" y2="304" />
  <line x1="417" y1="280" x2="528" y2="326" />
  <line x1="417" y1="280" x2="517" y2="347" />
  <line x1="417" y1="280" x2="502" y2="365" />
  <line x1="417" y1="280" x2="484" y2="380" />
  <line x1="417" y1="280" x2="463" y2="391" />
  <line x1="417" y1="280" x2="441" y2="398" />
  <line x1="417" y1="280" x2="417" y2="400" />
  <line x1="417" y1="280" x2="394" y2="398" />
  <line x1="417" y1="280" x2="371" y2="391" />
  <line x1="417" y1="280" x2="351" y2="380" />
  <line x1="417" y1="280" x2="332" y2="365" />
  <line x1="417" y1="280" x2="317" y2="347" />
  <line x1="417" y1="280" x2="306" y2="326" />
  <line x1="417" y1="280" x2="300" y2="304" />
  <line x1="417" y1="280" x2="297" y2="280" />
  <line x1="417" y1="280" x2="300" y2="257" />
  <line x1="417" y1="280" x2="306" y2="234" />
  <line x1="417" y1="280" x2="317" y2="214" />
  <line x1="417" y1="280" x2="332" y2="195" />
  <line x1="417" y1="280" x2="351" y2="181" />
  <line x1="417" y1="280" x2="371" y2="169" />
  <line x1="417" y1="280" x2="394" y2="163" />
  <line x1="417" y1="280" x2="417" y2="160" />
  <line x1="417" y1="280" x2="441" y2="163" />
  <line x1="417" y1="280" x2="463" y2="169" />
  <line x1="417" y1="280" x2="484" y2="181" />
  <line x1="417" y1="280" x2="502" y2="195" />
  <line x1="417" y1="280" x2="517" y2="214" />
  <line x1="417" y1="280" x2="528" y2="234" />
  <line x1="417" y1="280" x2="535" y2="257" />
  <circle cx="270" cy="284" r="10"
          style="fill:red;" />
  <circle cx="23" cy="283" r="10"
          style="fill:red;" />
  <circle cx="122" cy="174" r="10"
          style="fill:red;" />
  <circle cx="93" cy="55" r="10"
          style="fill:red;" />
  <circle cx="183" cy="56" r="10"
          style="fill:red;" />
  <circle cx="379" cy="443" r="10"
          style="fill:red;" />
  <circle cx="460" cy="204" r="10"
          style="fill:red;" />
  <circle cx="653" cy="431" r="10"
          style="fill:red;" />
  <circle cx="596" cy="62" r="10"
          style="fill:red;" />
  <circle cx="181" cy="32" r="10"
          style="fill:red;" />
  <circle cx="534" cy="173" r="10"
          style="fill:red;" />
  <circle cx="560" cy="39" r="10"
          style="fill:red;" />
  <circle cx="568" cy="452" r="10"
          style="fill:red;" />
  <circle cx="629" cy="51" r="10"
          style="fill:red;" />
  <circle cx="463" cy="275" r="10"
          style="fill:red;" />
  <circle cx="260" cy="357" r="10"
          style="fill:red;" />
  <circle cx="452" cy="265" r="10"
          style="fill:red;" />
  <circle cx="549" cy="498" r="10"
          style="fill:red;" />
  <circle cx="233" cy="435" r="10"
          style="fill:red;" />
  <circle cx="680" cy="176" r="10"
          style="fill:red;" />
  <circle cx="187" cy="46" r="10"
          style="fill:red;" />
  <circle cx="463" cy="161" r="10"
          style="fill:red;" />
  <circle cx="355" cy="21" r="10"
          style="fill:red;" />
  <circle cx="303" cy="387" r="10"
          style="fill:red;" />
  <circle cx="409" cy="458" r="10"
          style="fill:red;" />
  <circle cx="318" cy="390" r="10"
          style="fill:green;" />
  <circle cx="472" cy="136" r="10"
          style="fill:green;" />
  <circle cx="561" cy="100" r="10"
          style="fill:green;" />
  <circle cx="455" cy="296" r="10"
          style="fill:green;" />
  <circle cx="553" cy="409" r="10"
          style="fill:green;" />
  <circle cx="435" cy="306" r="10"
          style="fill:green;" />
  <circle cx="383" cy="395" r="10"
          style="fill:green;" />
  <circle cx="650" cy="445" r="10"
          style="fill:green;" />
  <circle cx="400" cy="483" r="10"
          style="fill:green;" />
  <circle cx="151" cy="329" r="10"
          style="fill:green;" />
  <circle cx="653" cy="284" r="10"
          style="fill:green;" />
  <circle cx="531" cy="494" r="10"
          style="fill:green;" />
  <circle cx="519" cy="412" r="10"
          style="fill:green;" />
  <circle cx="139" cy="120" r="10"
          style="fill:green;" />
  <circle cx="144" cy="146" r="10"
          style="fill:green;" />
  <circle cx="105" cy="380" r="10"
          style="fill:green;" />
  <circle cx="340" cy="400" r="10"
          style="fill:green;" />
  <circle cx="505" cy="473" r="10"
          style="fill:green;" />
  <circle cx="694" cy="29" r="10"
          style="fill:green;" />
  <circle cx="58" cy="370" r="10"
          style="fill:green;" />
  <circle cx="518" cy="370" r="10"
          style="fill:green;" />
  <circle cx="602" cy="345" r="10"
          style="fill:green;" />
  <circle cx="398" cy="344" r="10"
          style="fill:green;" />
  <circle cx="169" cy="174" r="10"
          style="fill:green;" />
  <circle cx="268" cy="240" r="10"
          style="fill:green;" />
  <circle cx="673" cy="65" r="10"
          style="fill:orange;" />
  <circle cx="520" cy="453" r="10"
          style="fill:orange;" />
  <circle cx="469" cy="494" r="10"
          style="fill:orange;" />
  <circle cx="193" cy="257" r="10"
          style="fill:orange;" />
  <circle cx="530" cy="240" r="10"
          style="fill:orange;" />
  <circle cx="417" cy="280" r="10"
          style="fill:yellow;" />
  <text x="10" y="535" font-size="15">
   DTW        = 219.2
  </text>
  <text x="10" y="555" font-size="15">
   experience = 1
  </text>
  <text x="10" y="575" font-size="15">
   reward = 0.0
  </text>
  <text x="10" y="595" font-size="15">
   objects eaten => 
  </text>
 </g>
</svg>
