<?xml version="1.0"?>
<svg height="600" width="720" >
 <g style="fill-opacity:1.0; stroke:black;
  stroke-width:1;">
  <rect x="10" y="10" height="500"
        width="700" style="fill:none;" />
  <line x1="418" y1="277" x2="538" y2="277" />
  <line x1="418" y1="277" x2="536" y2="300" />
  <line x1="418" y1="277" x2="529" y2="323" />
  <line x1="418" y1="277" x2="518" y2="344" />
  <line x1="418" y1="277" x2="503" y2="362" />
  <line x1="418" y1="277" x2="485" y2="377" />
  <line x1="418" y1="277" x2="464" y2="388" />
  <line x1="418" y1="277" x2="442" y2="395" />
  <line x1="418" y1="277" x2="418" y2="397" />
  <line x1="418" y1="277" x2="395" y2="395" />
  <line x1="418" y1="277" x2="372" y2="388" />
  <line x1="418" y1="277" x2="351" y2="377" />
  <line x1="418" y1="277" x2="333" y2="362" />
  <line x1="418" y1="277" x2="318" y2="344" />
  <line x1="418" y1="277" x2="307" y2="323" />
  <line x1="418" y1="277" x2="300" y2="300" />
  <line x1="418" y1="277" x2="298" y2="277" />
  <line x1="418" y1="277" x2="300" y2="254" />
  <line x1="418" y1="277" x2="307" y2="231" />
  <line x1="418" y1="277" x2="318" y2="210" />
  <line x1="418" y1="277" x2="333" y2="192" />
  <line x1="418" y1="277" x2="351" y2="177" />
  <line x1="418" y1="277" x2="372" y2="166" />
  <line x1="418" y1="277" x2="395" y2="159" />
  <line x1="418" y1="277" x2="418" y2="157" />
  <line x1="418" y1="277" x2="442" y2="159" />
  <line x1="418" y1="277" x2="464" y2="166" />
  <line x1="418" y1="277" x2="485" y2="177" />
  <line x1="418" y1="277" x2="503" y2="192" />
  <line x1="418" y1="277" x2="518" y2="210" />
  <line x1="418" y1="277" x2="529" y2="231" />
  <line x1="418" y1="277" x2="536" y2="254" />
  <circle cx="270" cy="286" r="10"
          style="fill:red;" />
  <circle cx="24" cy="285" r="10"
          style="fill:red;" />
  <circle cx="123" cy="171" r="10"
          style="fill:red;" />
  <circle cx="92" cy="56" r="10"
          style="fill:red;" />
  <circle cx="185" cy="55" r="10"
          style="fill:red;" />
  <circle cx="378" cy="442" r="10"
          style="fill:red;" />
  <circle cx="459" cy="205" r="10"
          style="fill:red;" />
  <circle cx="652" cy="428" r="10"
          style="fill:red;" />
  <circle cx="597" cy="61" r="10"
          style="fill:red;" />
  <circle cx="179" cy="35" r="10"
          style="fill:red;" />
  <circle cx="534" cy="176" r="10"
          style="fill:red;" />
  <circle cx="561" cy="40" r="10"
          style="fill:red;" />
  <circle cx="566" cy="451" r="10"
          style="fill:red;" />
  <circle cx="632" cy="49" r="10"
          style="fill:red;" />
  <circle cx="463" cy="275" r="10"
          style="fill:red;" />
  <circle cx="259" cy="355" r="10"
          style="fill:red;" />
  <circle cx="451" cy="267" r="10"
          style="fill:red;" />
  <circle cx="550" cy="498" r="10"
          style="fill:red;" />
  <circle cx="236" cy="433" r="10"
          style="fill:red;" />
  <circle cx="682" cy="174" r="10"
          style="fill:red;" />
  <circle cx="187" cy="43" r="10"
          style="fill:red;" />
  <circle cx="460" cy="162" r="10"
          style="fill:red;" />
  <circle cx="352" cy="23" r="10"
          style="fill:red;" />
  <circle cx="301" cy="389" r="10"
          style="fill:red;" />
  <circle cx="410" cy="456" r="10"
          style="fill:red;" />
  <circle cx="319" cy="388" r="10"
          style="fill:green;" />
  <circle cx="471" cy="137" r="10"
          style="fill:green;" />
  <circle cx="563" cy="97" r="10"
          style="fill:green;" />
  <circle cx="455" cy="299" r="10"
          style="fill:green;" />
  <circle cx="551" cy="406" r="10"
          style="fill:green;" />
  <circle cx="433" cy="303" r="10"
          style="fill:green;" />
  <circle cx="381" cy="396" r="10"
          style="fill:green;" />
  <circle cx="647" cy="443" r="10"
          style="fill:green;" />
  <circle cx="402" cy="481" r="10"
          style="fill:green;" />
  <circle cx="150" cy="328" r="10"
          style="fill:green;" />
  <circle cx="655" cy="282" r="10"
          style="fill:green;" />
  <circle cx="531" cy="495" r="10"
          style="fill:green;" />
  <circle cx="522" cy="409" r="10"
          style="fill:green;" />
  <circle cx="139" cy="123" r="10"
          style="fill:green;" />
  <circle cx="147" cy="145" r="10"
          style="fill:green;" />
  <circle cx="106" cy="379" r="10"
          style="fill:green;" />
  <circle cx="342" cy="398" r="10"
          style="fill:green;" />
  <circle cx="502" cy="473" r="10"
          style="fill:green;" />
  <circle cx="696" cy="28" r="10"
          style="fill:green;" />
  <circle cx="60" cy="369" r="10"
          style="fill:green;" />
  <circle cx="519" cy="371" r="10"
          style="fill:green;" />
  <circle cx="600" cy="348" r="10"
          style="fill:green;" />
  <circle cx="400" cy="344" r="10"
          style="fill:green;" />
  <circle cx="166" cy="174" r="10"
          style="fill:green;" />
  <circle cx="266" cy="240" r="10"
          style="fill:green;" />
  <circle cx="672" cy="66" r="10"
          style="fill:orange;" />
  <circle cx="519" cy="450" r="10"
          style="fill:orange;" />
  <circle cx="471" cy="496" r="10"
          style="fill:orange;" />
  <circle cx="193" cy="257" r="10"
          style="fill:orange;" />
  <circle cx="533" cy="237" r="10"
          style="fill:orange;" />
  <circle cx="418" cy="277" r="10"
          style="fill:yellow;" />
  <text x="10" y="535" font-size="15">
   DTW        = 222.4
  </text>
  <text x="10" y="555" font-size="15">
   experience = 1
  </text>
  <text x="10" y="575" font-size="15">
   reward = 0.0
  </text>
  <text x="10" y="595" font-size="15">
   objects eaten => 
  </text>
 </g>
</svg>
