<?xml version="1.0"?>
<svg height="600" width="720" >
 <g style="fill-opacity:1.0; stroke:black;
  stroke-width:1;">
  <rect x="10" y="10" height="500"
        width="700" style="fill:none;" />
  <line x1="410" y1="308" x2="530" y2="308" />
  <line x1="410" y1="308" x2="527" y2="331" />
  <line x1="410" y1="308" x2="520" y2="354" />
  <line x1="410" y1="308" x2="509" y2="375" />
  <line x1="410" y1="308" x2="494" y2="393" />
  <line x1="410" y1="308" x2="476" y2="408" />
  <line x1="410" y1="308" x2="455" y2="419" />
  <line x1="410" y1="308" x2="433" y2="426" />
  <line x1="410" y1="308" x2="410" y2="428" />
  <line x1="410" y1="308" x2="386" y2="426" />
  <line x1="410" y1="308" x2="364" y2="419" />
  <line x1="410" y1="308" x2="343" y2="408" />
  <line x1="410" y1="308" x2="325" y2="393" />
  <line x1="410" y1="308" x2="310" y2="375" />
  <line x1="410" y1="308" x2="299" y2="354" />
  <line x1="410" y1="308" x2="292" y2="331" />
  <line x1="410" y1="308" x2="290" y2="308" />
  <line x1="410" y1="308" x2="292" y2="285" />
  <line x1="410" y1="308" x2="299" y2="262" />
  <line x1="410" y1="308" x2="310" y2="241" />
  <line x1="410" y1="308" x2="325" y2="223" />
  <line x1="410" y1="308" x2="343" y2="208" />
  <line x1="410" y1="308" x2="364" y2="197" />
  <line x1="410" y1="308" x2="386" y2="190" />
  <line x1="410" y1="308" x2="410" y2="188" />
  <line x1="410" y1="308" x2="433" y2="190" />
  <line x1="410" y1="308" x2="455" y2="197" />
  <line x1="410" y1="308" x2="476" y2="208" />
  <line x1="410" y1="308" x2="494" y2="223" />
  <line x1="410" y1="308" x2="509" y2="241" />
  <line x1="410" y1="308" x2="520" y2="262" />
  <line x1="410" y1="308" x2="527" y2="285" />
  <circle cx="271" cy="262" r="10"
          style="fill:red;" />
  <circle cx="20" cy="262" r="10"
          style="fill:red;" />
  <circle cx="114" cy="201" r="10"
          style="fill:red;" />
  <circle cx="104" cy="47" r="10"
          style="fill:red;" />
  <circle cx="160" cy="67" r="10"
          style="fill:red;" />
  <circle cx="390" cy="451" r="10"
          style="fill:red;" />
  <circle cx="475" cy="195" r="10"
          style="fill:red;" />
  <circle cx="665" cy="451" r="10"
          style="fill:red;" />
  <circle cx="586" cy="72" r="10"
          style="fill:red;" />
  <circle cx="204" cy="29" r="10"
          style="fill:red;" />
  <circle cx="531" cy="147" r="10"
          style="fill:red;" />
  <circle cx="549" cy="33" r="10"
          style="fill:red;" />
  <circle cx="584" cy="459" r="10"
          style="fill:red;" />
  <circle cx="606" cy="64" r="10"
          style="fill:red;" />
  <circle cx="465" cy="277" r="10"
          style="fill:red;" />
  <circle cx="271" cy="373" r="10"
          style="fill:red;" />
  <circle cx="461" cy="241" r="10"
          style="fill:red;" />
  <circle cx="540" cy="477" r="10"
          style="fill:red;" />
  <circle cx="207" cy="454" r="10"
          style="fill:red;" />
  <circle cx="666" cy="196" r="10"
          style="fill:red;" />
  <circle cx="188" cy="72" r="10"
          style="fill:red;" />
  <circle cx="482" cy="148" r="10"
          style="fill:red;" />
  <circle cx="376" cy="37" r="10"
          style="fill:red;" />
  <circle cx="324" cy="367" r="10"
          style="fill:red;" />
  <circle cx="402" cy="485" r="10"
          style="fill:red;" />
  <circle cx="304" cy="406" r="10"
          style="fill:green;" />
  <circle cx="479" cy="133" r="10"
          style="fill:green;" />
  <circle cx="543" cy="125" r="10"
          style="fill:green;" />
  <circle cx="452" cy="270" r="10"
          style="fill:green;" />
  <circle cx="576" cy="433" r="10"
          style="fill:green;" />
  <circle cx="458" cy="324" r="10"
          style="fill:green;" />
  <circle cx="399" cy="380" r="10"
          style="fill:green;" />
  <circle cx="675" cy="465" r="10"
          style="fill:green;" />
  <circle cx="380" cy="491" r="10"
          style="fill:green;" />
  <circle cx="161" cy="340" r="10"
          style="fill:green;" />
  <circle cx="629" cy="303" r="10"
          style="fill:green;" />
  <circle cx="534" cy="481" r="10"
          style="fill:green;" />
  <circle cx="493" cy="434" r="10"
          style="fill:green;" />
  <circle cx="136" cy="98" r="10"
          style="fill:green;" />
  <circle cx="118" cy="150" r="10"
          style="fill:green;" />
  <circle cx="93" cy="385" r="10"
          style="fill:green;" />
  <circle cx="322" cy="417" r="10"
          style="fill:green;" />
  <circle cx="527" cy="474" r="10"
          style="fill:green;" />
  <circle cx="669" cy="40" r="10"
          style="fill:green;" />
  <circle cx="48" cy="381" r="10"
          style="fill:green;" />
  <circle cx="501" cy="363" r="10"
          style="fill:green;" />
  <circle cx="618" cy="318" r="10"
          style="fill:green;" />
  <circle cx="376" cy="346" r="10"
          style="fill:green;" />
  <circle cx="191" cy="171" r="10"
          style="fill:green;" />
  <circle cx="282" cy="236" r="10"
          style="fill:green;" />
  <circle cx="680" cy="56" r="10"
          style="fill:orange;" />
  <circle cx="526" cy="477" r="10"
          style="fill:orange;" />
  <circle cx="448" cy="476" r="10"
          style="fill:orange;" />
  <circle cx="193" cy="264" r="10"
          style="fill:orange;" />
  <circle cx="504" cy="266" r="10"
          style="fill:orange;" />
  <circle cx="410" cy="308" r="10"
          style="fill:yellow;" />
  <text x="10" y="535" font-size="15">
   DTW        = 191.5
  </text>
  <text x="10" y="555" font-size="15">
   experience = 0
  </text>
  <text x="10" y="575" font-size="15">
   reward = 0.0
  </text>
  <text x="10" y="595" font-size="15">
   objects eaten => 
  </text>
 </g>
</svg>
