<?xml version="1.0"?>
<svg height="600" width="720" >
 <g style="fill-opacity:1.0; stroke:black;
  stroke-width:1;">
  <rect x="10" y="10" height="500"
        width="700" style="fill:none;" />
  <line x1="413" y1="270" x2="533" y2="270" />
  <line x1="413" y1="270" x2="531" y2="294" />
  <line x1="413" y1="270" x2="524" y2="316" />
  <line x1="413" y1="270" x2="513" y2="337" />
  <line x1="413" y1="270" x2="498" y2="355" />
  <line x1="413" y1="270" x2="480" y2="370" />
  <line x1="413" y1="270" x2="459" y2="381" />
  <line x1="413" y1="270" x2="436" y2="388" />
  <line x1="413" y1="270" x2="413" y2="390" />
  <line x1="413" y1="270" x2="390" y2="388" />
  <line x1="413" y1="270" x2="367" y2="381" />
  <line x1="413" y1="270" x2="346" y2="370" />
  <line x1="413" y1="270" x2="328" y2="355" />
  <line x1="413" y1="270" x2="313" y2="337" />
  <line x1="413" y1="270" x2="302" y2="316" />
  <line x1="413" y1="270" x2="295" y2="294" />
  <line x1="413" y1="270" x2="293" y2="270" />
  <line x1="413" y1="270" x2="295" y2="247" />
  <line x1="413" y1="270" x2="302" y2="224" />
  <line x1="413" y1="270" x2="313" y2="204" />
  <line x1="413" y1="270" x2="328" y2="186" />
  <line x1="413" y1="270" x2="346" y2="171" />
  <line x1="413" y1="270" x2="367" y2="160" />
  <line x1="413" y1="270" x2="390" y2="153" />
  <line x1="413" y1="270" x2="413" y2="150" />
  <line x1="413" y1="270" x2="436" y2="153" />
  <line x1="413" y1="270" x2="459" y2="160" />
  <line x1="413" y1="270" x2="480" y2="171" />
  <line x1="413" y1="270" x2="498" y2="186" />
  <line x1="413" y1="270" x2="513" y2="204" />
  <line x1="413" y1="270" x2="524" y2="224" />
  <line x1="413" y1="270" x2="531" y2="247" />
  <circle cx="269" cy="293" r="10"
          style="fill:red;" />
  <circle cx="25" cy="291" r="10"
          style="fill:red;" />
  <circle cx="125" cy="164" r="10"
          style="fill:red;" />
  <circle cx="89" cy="58" r="10"
          style="fill:red;" />
  <circle cx="192" cy="52" r="10"
          style="fill:red;" />
  <circle cx="374" cy="440" r="10"
          style="fill:red;" />
  <circle cx="455" cy="207" r="10"
          style="fill:red;" />
  <circle cx="649" cy="423" r="10"
          style="fill:red;" />
  <circle cx="599" cy="59" r="10"
          style="fill:red;" />
  <circle cx="172" cy="41" r="10"
          style="fill:red;" />
  <circle cx="535" cy="183" r="10"
          style="fill:red;" />
  <circle cx="564" cy="42" r="10"
          style="fill:red;" />
  <circle cx="562" cy="450" r="10"
          style="fill:red;" />
  <circle cx="638" cy="45" r="10"
          style="fill:red;" />
  <circle cx="462" cy="275" r="10"
          style="fill:red;" />
  <circle cx="256" cy="350" r="10"
          style="fill:red;" />
  <circle cx="449" cy="274" r="10"
          style="fill:red;" />
  <circle cx="553" cy="492" r="10"
          style="fill:red;" />
  <circle cx="244" cy="428" r="10"
          style="fill:red;" />
  <circle cx="686" cy="168" r="10"
          style="fill:red;" />
  <circle cx="186" cy="36" r="10"
          style="fill:red;" />
  <circle cx="455" cy="165" r="10"
          style="fill:red;" />
  <circle cx="346" cy="29" r="10"
          style="fill:red;" />
  <circle cx="295" cy="395" r="10"
          style="fill:red;" />
  <circle cx="412" cy="448" r="10"
          style="fill:red;" />
  <circle cx="323" cy="384" r="10"
          style="fill:green;" />
  <circle cx="469" cy="138" r="10"
          style="fill:green;" />
  <circle cx="569" cy="90" r="10"
          style="fill:green;" />
  <circle cx="456" cy="306" r="10"
          style="fill:green;" />
  <circle cx="545" cy="399" r="10"
          style="fill:green;" />
  <circle cx="426" cy="298" r="10"
          style="fill:green;" />
  <circle cx="376" cy="401" r="10"
          style="fill:green;" />
  <circle cx="640" cy="437" r="10"
          style="fill:green;" />
  <circle cx="408" cy="474" r="10"
          style="fill:green;" />
  <circle cx="147" cy="325" r="10"
          style="fill:green;" />
  <circle cx="662" cy="277" r="10"
          style="fill:green;" />
  <circle cx="530" cy="499" r="10"
          style="fill:green;" />
  <circle cx="529" cy="403" r="10"
          style="fill:green;" />
  <circle cx="140" cy="129" r="10"
          style="fill:green;" />
  <circle cx="154" cy="144" r="10"
          style="fill:green;" />
  <circle cx="109" cy="378" r="10"
          style="fill:green;" />
  <circle cx="347" cy="393" r="10"
          style="fill:green;" />
  <circle cx="496" cy="473" r="10"
          style="fill:green;" />
  <circle cx="695" cy="25" r="10"
          style="fill:green;" />
  <circle cx="62" cy="366" r="10"
          style="fill:green;" />
  <circle cx="524" cy="373" r="10"
          style="fill:green;" />
  <circle cx="595" cy="356" r="10"
          style="fill:green;" />
  <circle cx="406" cy="344" r="10"
          style="fill:green;" />
  <circle cx="160" cy="175" r="10"
          style="fill:green;" />
  <circle cx="262" cy="241" r="10"
          style="fill:green;" />
  <circle cx="670" cy="68" r="10"
          style="fill:orange;" />
  <circle cx="518" cy="443" r="10"
          style="fill:orange;" />
  <circle cx="477" cy="497" r="10"
          style="fill:orange;" />
  <circle cx="192" cy="255" r="10"
          style="fill:orange;" />
  <circle cx="540" cy="230" r="10"
          style="fill:orange;" />
  <circle cx="413" cy="270" r="10"
          style="fill:yellow;" />
  <text x="10" y="535" font-size="15">
   DTW        = 229.1
  </text>
  <text x="10" y="555" font-size="15">
   experience = 1
  </text>
  <text x="10" y="575" font-size="15">
   reward = 0.0
  </text>
  <text x="10" y="595" font-size="15">
   objects eaten => 
  </text>
 </g>
</svg>
