<?xml version="1.0"?>
<svg height="600" width="720" >
 <g style="fill-opacity:1.0; stroke:black;
  stroke-width:1;">
  <rect x="10" y="10" height="500"
        width="700" style="fill:none;" />
  <line x1="411" y1="269" x2="531" y2="269" />
  <line x1="411" y1="269" x2="529" y2="293" />
  <line x1="411" y1="269" x2="522" y2="315" />
  <line x1="411" y1="269" x2="511" y2="336" />
  <line x1="411" y1="269" x2="496" y2="354" />
  <line x1="411" y1="269" x2="478" y2="369" />
  <line x1="411" y1="269" x2="457" y2="380" />
  <line x1="411" y1="269" x2="435" y2="387" />
  <line x1="411" y1="269" x2="411" y2="389" />
  <line x1="411" y1="269" x2="388" y2="387" />
  <line x1="411" y1="269" x2="365" y2="380" />
  <line x1="411" y1="269" x2="345" y2="369" />
  <line x1="411" y1="269" x2="326" y2="354" />
  <line x1="411" y1="269" x2="311" y2="336" />
  <line x1="411" y1="269" x2="300" y2="315" />
  <line x1="411" y1="269" x2="293" y2="293" />
  <line x1="411" y1="269" x2="291" y2="269" />
  <line x1="411" y1="269" x2="293" y2="246" />
  <line x1="411" y1="269" x2="300" y2="223" />
  <line x1="411" y1="269" x2="311" y2="203" />
  <line x1="411" y1="269" x2="326" y2="184" />
  <line x1="411" y1="269" x2="345" y2="169" />
  <line x1="411" y1="269" x2="365" y2="158" />
  <line x1="411" y1="269" x2="388" y2="152" />
  <line x1="411" y1="269" x2="411" y2="149" />
  <line x1="411" y1="269" x2="435" y2="152" />
  <line x1="411" y1="269" x2="457" y2="158" />
  <line x1="411" y1="269" x2="478" y2="169" />
  <line x1="411" y1="269" x2="496" y2="184" />
  <line x1="411" y1="269" x2="511" y2="203" />
  <line x1="411" y1="269" x2="522" y2="223" />
  <line x1="411" y1="269" x2="529" y2="246" />
  <circle cx="269" cy="294" r="10"
          style="fill:red;" />
  <circle cx="25" cy="293" r="10"
          style="fill:red;" />
  <circle cx="126" cy="163" r="10"
          style="fill:red;" />
  <circle cx="88" cy="58" r="10"
          style="fill:red;" />
  <circle cx="193" cy="52" r="10"
          style="fill:red;" />
  <circle cx="374" cy="440" r="10"
          style="fill:red;" />
  <circle cx="454" cy="208" r="10"
          style="fill:red;" />
  <circle cx="648" cy="421" r="10"
          style="fill:red;" />
  <circle cx="600" cy="58" r="10"
          style="fill:red;" />
  <circle cx="171" cy="42" r="10"
          style="fill:red;" />
  <circle cx="536" cy="184" r="10"
          style="fill:red;" />
  <circle cx="565" cy="42" r="10"
          style="fill:red;" />
  <circle cx="561" cy="449" r="10"
          style="fill:red;" />
  <circle cx="640" cy="45" r="10"
          style="fill:red;" />
  <circle cx="462" cy="274" r="10"
          style="fill:red;" />
  <circle cx="255" cy="349" r="10"
          style="fill:red;" />
  <circle cx="448" cy="275" r="10"
          style="fill:red;" />
  <circle cx="553" cy="491" r="10"
          style="fill:red;" />
  <circle cx="245" cy="427" r="10"
          style="fill:red;" />
  <circle cx="687" cy="167" r="10"
          style="fill:red;" />
  <circle cx="186" cy="35" r="10"
          style="fill:red;" />
  <circle cx="454" cy="166" r="10"
          style="fill:red;" />
  <circle cx="345" cy="30" r="10"
          style="fill:red;" />
  <circle cx="294" cy="396" r="10"
          style="fill:red;" />
  <circle cx="413" cy="447" r="10"
          style="fill:red;" />
  <circle cx="323" cy="383" r="10"
          style="fill:green;" />
  <circle cx="468" cy="138" r="10"
          style="fill:green;" />
  <circle cx="570" cy="89" r="10"
          style="fill:green;" />
  <circle cx="456" cy="307" r="10"
          style="fill:green;" />
  <circle cx="544" cy="398" r="10"
          style="fill:green;" />
  <circle cx="425" cy="297" r="10"
          style="fill:green;" />
  <circle cx="375" cy="401" r="10"
          style="fill:green;" />
  <circle cx="639" cy="436" r="10"
          style="fill:green;" />
  <circle cx="409" cy="473" r="10"
          style="fill:green;" />
  <circle cx="146" cy="325" r="10"
          style="fill:green;" />
  <circle cx="663" cy="276" r="10"
          style="fill:green;" />
  <circle cx="529" cy="498" r="10"
          style="fill:green;" />
  <circle cx="530" cy="402" r="10"
          style="fill:green;" />
  <circle cx="140" cy="130" r="10"
          style="fill:green;" />
  <circle cx="155" cy="144" r="10"
          style="fill:green;" />
  <circle cx="110" cy="377" r="10"
          style="fill:green;" />
  <circle cx="348" cy="392" r="10"
          style="fill:green;" />
  <circle cx="495" cy="472" r="10"
          style="fill:green;" />
  <circle cx="694" cy="24" r="10"
          style="fill:green;" />
  <circle cx="63" cy="366" r="10"
          style="fill:green;" />
  <circle cx="525" cy="374" r="10"
          style="fill:green;" />
  <circle cx="594" cy="357" r="10"
          style="fill:green;" />
  <circle cx="407" cy="344" r="10"
          style="fill:green;" />
  <circle cx="159" cy="175" r="10"
          style="fill:green;" />
  <circle cx="261" cy="241" r="10"
          style="fill:green;" />
  <circle cx="670" cy="69" r="10"
          style="fill:orange;" />
  <circle cx="518" cy="442" r="10"
          style="fill:orange;" />
  <circle cx="478" cy="496" r="10"
          style="fill:orange;" />
  <circle cx="192" cy="254" r="10"
          style="fill:orange;" />
  <circle cx="542" cy="229" r="10"
          style="fill:orange;" />
  <circle cx="411" cy="269" r="10"
          style="fill:yellow;" />
  <text x="10" y="535" font-size="15">
   DTW        = 230.3
  </text>
  <text x="10" y="555" font-size="15">
   experience = 1
  </text>
  <text x="10" y="575" font-size="15">
   reward = 0.0
  </text>
  <text x="10" y="595" font-size="15">
   objects eaten => 
  </text>
 </g>
</svg>
