<?xml version="1.0"?>
<svg height="600" width="720" >
 <g style="fill-opacity:1.0; stroke:black;
  stroke-width:1;">
  <rect x="10" y="10" height="500"
        width="700" style="fill:none;" />
  <line x1="408" y1="269" x2="528" y2="269" />
  <line x1="408" y1="269" x2="526" y2="292" />
  <line x1="408" y1="269" x2="519" y2="315" />
  <line x1="408" y1="269" x2="508" y2="335" />
  <line x1="408" y1="269" x2="493" y2="354" />
  <line x1="408" y1="269" x2="474" y2="368" />
  <line x1="408" y1="269" x2="454" y2="380" />
  <line x1="408" y1="269" x2="431" y2="386" />
  <line x1="408" y1="269" x2="408" y2="389" />
  <line x1="408" y1="269" x2="384" y2="386" />
  <line x1="408" y1="269" x2="362" y2="380" />
  <line x1="408" y1="269" x2="341" y2="368" />
  <line x1="408" y1="269" x2="323" y2="354" />
  <line x1="408" y1="269" x2="308" y2="335" />
  <line x1="408" y1="269" x2="297" y2="315" />
  <line x1="408" y1="269" x2="290" y2="292" />
  <line x1="408" y1="269" x2="288" y2="269" />
  <line x1="408" y1="269" x2="290" y2="245" />
  <line x1="408" y1="269" x2="297" y2="223" />
  <line x1="408" y1="269" x2="308" y2="202" />
  <line x1="408" y1="269" x2="323" y2="184" />
  <line x1="408" y1="269" x2="341" y2="169" />
  <line x1="408" y1="269" x2="362" y2="158" />
  <line x1="408" y1="269" x2="384" y2="151" />
  <line x1="408" y1="269" x2="408" y2="149" />
  <line x1="408" y1="269" x2="431" y2="151" />
  <line x1="408" y1="269" x2="454" y2="158" />
  <line x1="408" y1="269" x2="474" y2="169" />
  <line x1="408" y1="269" x2="493" y2="184" />
  <line x1="408" y1="269" x2="508" y2="202" />
  <line x1="408" y1="269" x2="519" y2="223" />
  <line x1="408" y1="269" x2="526" y2="245" />
  <circle cx="269" cy="296" r="10"
          style="fill:red;" />
  <circle cx="25" cy="295" r="10"
          style="fill:red;" />
  <circle cx="127" cy="160" r="10"
          style="fill:red;" />
  <circle cx="87" cy="59" r="10"
          style="fill:red;" />
  <circle cx="195" cy="50" r="10"
          style="fill:red;" />
  <circle cx="373" cy="439" r="10"
          style="fill:red;" />
  <circle cx="452" cy="209" r="10"
          style="fill:red;" />
  <circle cx="647" cy="419" r="10"
          style="fill:red;" />
  <circle cx="601" cy="57" r="10"
          style="fill:red;" />
  <circle cx="168" cy="45" r="10"
          style="fill:red;" />
  <circle cx="536" cy="187" r="10"
          style="fill:red;" />
  <circle cx="566" cy="43" r="10"
          style="fill:red;" />
  <circle cx="559" cy="449" r="10"
          style="fill:red;" />
  <circle cx="642" cy="43" r="10"
          style="fill:red;" />
  <circle cx="462" cy="274" r="10"
          style="fill:red;" />
  <circle cx="254" cy="347" r="10"
          style="fill:red;" />
  <circle cx="447" cy="278" r="10"
          style="fill:red;" />
  <circle cx="554" cy="488" r="10"
          style="fill:red;" />
  <circle cx="248" cy="425" r="10"
          style="fill:red;" />
  <circle cx="688" cy="165" r="10"
          style="fill:red;" />
  <circle cx="186" cy="32" r="10"
          style="fill:red;" />
  <circle cx="452" cy="168" r="10"
          style="fill:red;" />
  <circle cx="343" cy="32" r="10"
          style="fill:red;" />
  <circle cx="291" cy="398" r="10"
          style="fill:red;" />
  <circle cx="413" cy="444" r="10"
          style="fill:red;" />
  <circle cx="325" cy="381" r="10"
          style="fill:green;" />
  <circle cx="467" cy="138" r="10"
          style="fill:green;" />
  <circle cx="572" cy="86" r="10"
          style="fill:green;" />
  <circle cx="456" cy="310" r="10"
          style="fill:green;" />
  <circle cx="541" cy="395" r="10"
          style="fill:green;" />
  <circle cx="423" cy="295" r="10"
          style="fill:green;" />
  <circle cx="374" cy="403" r="10"
          style="fill:green;" />
  <circle cx="636" cy="434" r="10"
          style="fill:green;" />
  <circle cx="411" cy="470" r="10"
          style="fill:green;" />
  <circle cx="145" cy="323" r="10"
          style="fill:green;" />
  <circle cx="666" cy="274" r="10"
          style="fill:green;" />
  <circle cx="529" cy="497" r="10"
          style="fill:green;" />
  <circle cx="533" cy="399" r="10"
          style="fill:green;" />
  <circle cx="141" cy="133" r="10"
          style="fill:green;" />
  <circle cx="158" cy="143" r="10"
          style="fill:green;" />
  <circle cx="111" cy="377" r="10"
          style="fill:green;" />
  <circle cx="350" cy="390" r="10"
          style="fill:green;" />
  <circle cx="493" cy="472" r="10"
          style="fill:green;" />
  <circle cx="691" cy="23" r="10"
          style="fill:green;" />
  <circle cx="64" cy="364" r="10"
          style="fill:green;" />
  <circle cx="527" cy="374" r="10"
          style="fill:green;" />
  <circle cx="592" cy="360" r="10"
          style="fill:green;" />
  <circle cx="410" cy="343" r="10"
          style="fill:green;" />
  <circle cx="156" cy="176" r="10"
          style="fill:green;" />
  <circle cx="260" cy="241" r="10"
          style="fill:green;" />
  <circle cx="669" cy="69" r="10"
          style="fill:orange;" />
  <circle cx="517" cy="439" r="10"
          style="fill:orange;" />
  <circle cx="481" cy="494" r="10"
          style="fill:orange;" />
  <circle cx="192" cy="254" r="10"
          style="fill:orange;" />
  <circle cx="544" cy="226" r="10"
          style="fill:orange;" />
  <circle cx="408" cy="269" r="10"
          style="fill:yellow;" />
  <text x="10" y="535" font-size="15">
   DTW        = 230.8
  </text>
  <text x="10" y="555" font-size="15">
   experience = 2
  </text>
  <text x="10" y="575" font-size="15">
   reward = 0.0
  </text>
  <text x="10" y="595" font-size="15">
   objects eaten => 
  </text>
 </g>
</svg>
