<?xml version="1.0"?>
<svg height="600" width="720" >
 <g style="fill-opacity:1.0; stroke:black;
  stroke-width:1;">
  <rect x="10" y="10" height="500"
        width="700" style="fill:none;" />
  <line x1="405" y1="270" x2="525" y2="270" />
  <line x1="405" y1="270" x2="523" y2="293" />
  <line x1="405" y1="270" x2="516" y2="316" />
  <line x1="405" y1="270" x2="505" y2="336" />
  <line x1="405" y1="270" x2="490" y2="355" />
  <line x1="405" y1="270" x2="472" y2="370" />
  <line x1="405" y1="270" x2="451" y2="381" />
  <line x1="405" y1="270" x2="428" y2="387" />
  <line x1="405" y1="270" x2="405" y2="390" />
  <line x1="405" y1="270" x2="381" y2="387" />
  <line x1="405" y1="270" x2="359" y2="381" />
  <line x1="405" y1="270" x2="338" y2="370" />
  <line x1="405" y1="270" x2="320" y2="355" />
  <line x1="405" y1="270" x2="305" y2="336" />
  <line x1="405" y1="270" x2="294" y2="316" />
  <line x1="405" y1="270" x2="287" y2="293" />
  <line x1="405" y1="270" x2="285" y2="270" />
  <line x1="405" y1="270" x2="287" y2="246" />
  <line x1="405" y1="270" x2="294" y2="224" />
  <line x1="405" y1="270" x2="305" y2="203" />
  <line x1="405" y1="270" x2="320" y2="185" />
  <line x1="405" y1="270" x2="338" y2="170" />
  <line x1="405" y1="270" x2="359" y2="159" />
  <line x1="405" y1="270" x2="381" y2="152" />
  <line x1="405" y1="270" x2="405" y2="150" />
  <line x1="405" y1="270" x2="428" y2="152" />
  <line x1="405" y1="270" x2="451" y2="159" />
  <line x1="405" y1="270" x2="472" y2="170" />
  <line x1="405" y1="270" x2="490" y2="185" />
  <line x1="405" y1="270" x2="505" y2="203" />
  <line x1="405" y1="270" x2="516" y2="224" />
  <line x1="405" y1="270" x2="523" y2="246" />
  <circle cx="269" cy="299" r="10"
          style="fill:red;" />
  <circle cx="26" cy="297" r="10"
          style="fill:red;" />
  <circle cx="127" cy="157" r="10"
          style="fill:red;" />
  <circle cx="86" cy="60" r="10"
          style="fill:red;" />
  <circle cx="198" cy="49" r="10"
          style="fill:red;" />
  <circle cx="371" cy="438" r="10"
          style="fill:red;" />
  <circle cx="450" cy="210" r="10"
          style="fill:red;" />
  <circle cx="645" cy="417" r="10"
          style="fill:red;" />
  <circle cx="602" cy="56" r="10"
          style="fill:red;" />
  <circle cx="166" cy="47" r="10"
          style="fill:red;" />
  <circle cx="536" cy="190" r="10"
          style="fill:red;" />
  <circle cx="567" cy="43" r="10"
          style="fill:red;" />
  <circle cx="557" cy="448" r="10"
          style="fill:red;" />
  <circle cx="645" cy="42" r="10"
          style="fill:red;" />
  <circle cx="462" cy="274" r="10"
          style="fill:red;" />
  <circle cx="253" cy="345" r="10"
          style="fill:red;" />
  <circle cx="446" cy="280" r="10"
          style="fill:red;" />
  <circle cx="555" cy="486" r="10"
          style="fill:red;" />
  <circle cx="251" cy="423" r="10"
          style="fill:red;" />
  <circle cx="690" cy="162" r="10"
          style="fill:red;" />
  <circle cx="186" cy="29" r="10"
          style="fill:red;" />
  <circle cx="450" cy="169" r="10"
          style="fill:red;" />
  <circle cx="340" cy="34" r="10"
          style="fill:red;" />
  <circle cx="289" cy="400" r="10"
          style="fill:red;" />
  <circle cx="414" cy="441" r="10"
          style="fill:red;" />
  <circle cx="326" cy="379" r="10"
          style="fill:green;" />
  <circle cx="467" cy="139" r="10"
          style="fill:green;" />
  <circle cx="574" cy="83" r="10"
          style="fill:green;" />
  <circle cx="456" cy="313" r="10"
          style="fill:green;" />
  <circle cx="539" cy="393" r="10"
          style="fill:green;" />
  <circle cx="420" cy="293" r="10"
          style="fill:green;" />
  <circle cx="372" cy="405" r="10"
          style="fill:green;" />
  <circle cx="633" cy="431" r="10"
          style="fill:green;" />
  <circle cx="414" cy="468" r="10"
          style="fill:green;" />
  <circle cx="144" cy="322" r="10"
          style="fill:green;" />
  <circle cx="668" cy="272" r="10"
          style="fill:green;" />
  <circle cx="529" cy="495" r="10"
          style="fill:green;" />
  <circle cx="536" cy="397" r="10"
          style="fill:green;" />
  <circle cx="141" cy="135" r="10"
          style="fill:green;" />
  <circle cx="161" cy="143" r="10"
          style="fill:green;" />
  <circle cx="113" cy="376" r="10"
          style="fill:green;" />
  <circle cx="352" cy="388" r="10"
          style="fill:green;" />
  <circle cx="490" cy="472" r="10"
          style="fill:green;" />
  <circle cx="688" cy="22" r="10"
          style="fill:green;" />
  <circle cx="65" cy="363" r="10"
          style="fill:green;" />
  <circle cx="528" cy="375" r="10"
          style="fill:green;" />
  <circle cx="590" cy="363" r="10"
          style="fill:green;" />
  <circle cx="412" cy="343" r="10"
          style="fill:green;" />
  <circle cx="154" cy="176" r="10"
          style="fill:green;" />
  <circle cx="258" cy="242" r="10"
          style="fill:green;" />
  <circle cx="668" cy="70" r="10"
          style="fill:orange;" />
  <circle cx="516" cy="436" r="10"
          style="fill:orange;" />
  <circle cx="483" cy="492" r="10"
          style="fill:orange;" />
  <circle cx="192" cy="253" r="10"
          style="fill:orange;" />
  <circle cx="547" cy="223" r="10"
          style="fill:orange;" />
  <circle cx="405" cy="270" r="10"
          style="fill:yellow;" />
  <text x="10" y="535" font-size="15">
   DTW        = 229.7
  </text>
  <text x="10" y="555" font-size="15">
   experience = 2
  </text>
  <text x="10" y="575" font-size="15">
   reward = 0.0
  </text>
  <text x="10" y="595" font-size="15">
   objects eaten => 
  </text>
 </g>
</svg>
