<?xml version="1.0"?>
<svg height="600" width="720" >
 <g style="fill-opacity:1.0; stroke:black;
  stroke-width:1;">
  <rect x="10" y="10" height="500"
        width="700" style="fill:none;" />
  <line x1="403" y1="270" x2="523" y2="270" />
  <line x1="403" y1="270" x2="521" y2="294" />
  <line x1="403" y1="270" x2="514" y2="316" />
  <line x1="403" y1="270" x2="503" y2="337" />
  <line x1="403" y1="270" x2="488" y2="355" />
  <line x1="403" y1="270" x2="470" y2="370" />
  <line x1="403" y1="270" x2="449" y2="381" />
  <line x1="403" y1="270" x2="427" y2="388" />
  <line x1="403" y1="270" x2="403" y2="390" />
  <line x1="403" y1="270" x2="380" y2="388" />
  <line x1="403" y1="270" x2="357" y2="381" />
  <line x1="403" y1="270" x2="337" y2="370" />
  <line x1="403" y1="270" x2="318" y2="355" />
  <line x1="403" y1="270" x2="304" y2="337" />
  <line x1="403" y1="270" x2="292" y2="316" />
  <line x1="403" y1="270" x2="286" y2="294" />
  <line x1="403" y1="270" x2="283" y2="270" />
  <line x1="403" y1="270" x2="286" y2="247" />
  <line x1="403" y1="270" x2="292" y2="224" />
  <line x1="403" y1="270" x2="304" y2="204" />
  <line x1="403" y1="270" x2="318" y2="186" />
  <line x1="403" y1="270" x2="337" y2="171" />
  <line x1="403" y1="270" x2="357" y2="159" />
  <line x1="403" y1="270" x2="380" y2="153" />
  <line x1="403" y1="270" x2="403" y2="150" />
  <line x1="403" y1="270" x2="427" y2="153" />
  <line x1="403" y1="270" x2="449" y2="159" />
  <line x1="403" y1="270" x2="470" y2="171" />
  <line x1="403" y1="270" x2="488" y2="186" />
  <line x1="403" y1="270" x2="503" y2="204" />
  <line x1="403" y1="270" x2="514" y2="224" />
  <line x1="403" y1="270" x2="521" y2="247" />
  <circle cx="269" cy="300" r="10"
          style="fill:red;" />
  <circle cx="26" cy="299" r="10"
          style="fill:red;" />
  <circle cx="128" cy="155" r="10"
          style="fill:red;" />
  <circle cx="85" cy="61" r="10"
          style="fill:red;" />
  <circle cx="199" cy="49" r="10"
          style="fill:red;" />
  <circle cx="371" cy="438" r="10"
          style="fill:red;" />
  <circle cx="450" cy="210" r="10"
          style="fill:red;" />
  <circle cx="645" cy="416" r="10"
          style="fill:red;" />
  <circle cx="602" cy="56" r="10"
          style="fill:red;" />
  <circle cx="164" cy="48" r="10"
          style="fill:red;" />
  <circle cx="537" cy="192" r="10"
          style="fill:red;" />
  <circle cx="568" cy="44" r="10"
          style="fill:red;" />
  <circle cx="556" cy="447" r="10"
          style="fill:red;" />
  <circle cx="646" cy="41" r="10"
          style="fill:red;" />
  <circle cx="461" cy="274" r="10"
          style="fill:red;" />
  <circle cx="252" cy="344" r="10"
          style="fill:red;" />
  <circle cx="446" cy="282" r="10"
          style="fill:red;" />
  <circle cx="556" cy="485" r="10"
          style="fill:red;" />
  <circle cx="252" cy="422" r="10"
          style="fill:red;" />
  <circle cx="691" cy="161" r="10"
          style="fill:red;" />
  <circle cx="186" cy="28" r="10"
          style="fill:red;" />
  <circle cx="448" cy="170" r="10"
          style="fill:red;" />
  <circle cx="339" cy="35" r="10"
          style="fill:red;" />
  <circle cx="288" cy="401" r="10"
          style="fill:red;" />
  <circle cx="415" cy="440" r="10"
          style="fill:red;" />
  <circle cx="327" cy="378" r="10"
          style="fill:green;" />
  <circle cx="466" cy="139" r="10"
          style="fill:green;" />
  <circle cx="575" cy="82" r="10"
          style="fill:green;" />
  <circle cx="456" cy="314" r="10"
          style="fill:green;" />
  <circle cx="537" cy="391" r="10"
          style="fill:green;" />
  <circle cx="419" cy="292" r="10"
          style="fill:green;" />
  <circle cx="371" cy="406" r="10"
          style="fill:green;" />
  <circle cx="632" cy="430" r="10"
          style="fill:green;" />
  <circle cx="415" cy="466" r="10"
          style="fill:green;" />
  <circle cx="143" cy="322" r="10"
          style="fill:green;" />
  <circle cx="670" cy="271" r="10"
          style="fill:green;" />
  <circle cx="528" cy="494" r="10"
          style="fill:green;" />
  <circle cx="537" cy="396" r="10"
          style="fill:green;" />
  <circle cx="141" cy="137" r="10"
          style="fill:green;" />
  <circle cx="162" cy="142" r="10"
          style="fill:green;" />
  <circle cx="113" cy="376" r="10"
          style="fill:green;" />
  <circle cx="353" cy="387" r="10"
          style="fill:green;" />
  <circle cx="489" cy="472" r="10"
          style="fill:green;" />
  <circle cx="687" cy="21" r="10"
          style="fill:green;" />
  <circle cx="66" cy="363" r="10"
          style="fill:green;" />
  <circle cx="529" cy="376" r="10"
          style="fill:green;" />
  <circle cx="590" cy="365" r="10"
          style="fill:green;" />
  <circle cx="413" cy="343" r="10"
          style="fill:green;" />
  <circle cx="152" cy="176" r="10"
          style="fill:green;" />
  <circle cx="257" cy="242" r="10"
          style="fill:green;" />
  <circle cx="668" cy="71" r="10"
          style="fill:orange;" />
  <circle cx="516" cy="435" r="10"
          style="fill:orange;" />
  <circle cx="484" cy="491" r="10"
          style="fill:orange;" />
  <circle cx="192" cy="252" r="10"
          style="fill:orange;" />
  <circle cx="549" cy="221" r="10"
          style="fill:orange;" />
  <circle cx="403" cy="270" r="10"
          style="fill:yellow;" />
  <text x="10" y="535" font-size="15">
   DTW        = 229.1
  </text>
  <text x="10" y="555" font-size="15">
   experience = 2
  </text>
  <text x="10" y="575" font-size="15">
   reward = 0.0
  </text>
  <text x="10" y="595" font-size="15">
   objects eaten => 
  </text>
 </g>
</svg>
