<?xml version="1.0"?>
<svg height="600" width="720" >
 <g style="fill-opacity:1.0; stroke:black;
  stroke-width:1;">
  <rect x="10" y="10" height="500"
        width="700" style="fill:none;" />
  <line x1="400" y1="267" x2="520" y2="267" />
  <line x1="400" y1="267" x2="517" y2="291" />
  <line x1="400" y1="267" x2="511" y2="313" />
  <line x1="400" y1="267" x2="500" y2="334" />
  <line x1="400" y1="267" x2="485" y2="352" />
  <line x1="400" y1="267" x2="466" y2="367" />
  <line x1="400" y1="267" x2="446" y2="378" />
  <line x1="400" y1="267" x2="423" y2="385" />
  <line x1="400" y1="267" x2="400" y2="387" />
  <line x1="400" y1="267" x2="376" y2="385" />
  <line x1="400" y1="267" x2="354" y2="378" />
  <line x1="400" y1="267" x2="333" y2="367" />
  <line x1="400" y1="267" x2="315" y2="352" />
  <line x1="400" y1="267" x2="300" y2="334" />
  <line x1="400" y1="267" x2="289" y2="313" />
  <line x1="400" y1="267" x2="282" y2="291" />
  <line x1="400" y1="267" x2="280" y2="267" />
  <line x1="400" y1="267" x2="282" y2="244" />
  <line x1="400" y1="267" x2="289" y2="221" />
  <line x1="400" y1="267" x2="300" y2="201" />
  <line x1="400" y1="267" x2="315" y2="182" />
  <line x1="400" y1="267" x2="333" y2="167" />
  <line x1="400" y1="267" x2="354" y2="156" />
  <line x1="400" y1="267" x2="376" y2="150" />
  <line x1="400" y1="267" x2="400" y2="147" />
  <line x1="400" y1="267" x2="423" y2="150" />
  <line x1="400" y1="267" x2="446" y2="156" />
  <line x1="400" y1="267" x2="466" y2="167" />
  <line x1="400" y1="267" x2="485" y2="182" />
  <line x1="400" y1="267" x2="500" y2="201" />
  <line x1="400" y1="267" x2="511" y2="221" />
  <line x1="400" y1="267" x2="517" y2="244" />
  <circle cx="269" cy="304" r="10"
          style="fill:red;" />
  <circle cx="27" cy="302" r="10"
          style="fill:red;" />
  <circle cx="129" cy="151" r="10"
          style="fill:red;" />
  <circle cx="83" cy="62" r="10"
          style="fill:red;" />
  <circle cx="203" cy="47" r="10"
          style="fill:red;" />
  <circle cx="369" cy="437" r="10"
          style="fill:red;" />
  <circle cx="447" cy="212" r="10"
          style="fill:red;" />
  <circle cx="643" cy="412" r="10"
          style="fill:red;" />
  <circle cx="604" cy="54" r="10"
          style="fill:red;" />
  <circle cx="161" cy="52" r="10"
          style="fill:red;" />
  <circle cx="537" cy="196" r="10"
          style="fill:red;" />
  <circle cx="570" cy="45" r="10"
          style="fill:red;" />
  <circle cx="553" cy="446" r="10"
          style="fill:red;" />
  <circle cx="650" cy="39" r="10"
          style="fill:red;" />
  <circle cx="461" cy="274" r="10"
          style="fill:red;" />
  <circle cx="250" cy="342" r="10"
          style="fill:red;" />
  <circle cx="444" cy="285" r="10"
          style="fill:red;" />
  <circle cx="557" cy="482" r="10"
          style="fill:red;" />
  <circle cx="257" cy="419" r="10"
          style="fill:red;" />
  <circle cx="693" cy="158" r="10"
          style="fill:red;" />
  <circle cx="186" cy="23" r="10"
          style="fill:red;" />
  <circle cx="445" cy="172" r="10"
          style="fill:red;" />
  <circle cx="335" cy="39" r="10"
          style="fill:red;" />
  <circle cx="284" cy="405" r="10"
          style="fill:red;" />
  <circle cx="416" cy="435" r="10"
          style="fill:red;" />
  <circle cx="329" cy="376" r="10"
          style="fill:green;" />
  <circle cx="465" cy="139" r="10"
          style="fill:green;" />
  <circle cx="578" cy="78" r="10"
          style="fill:green;" />
  <circle cx="457" cy="319" r="10"
          style="fill:green;" />
  <circle cx="534" cy="387" r="10"
          style="fill:green;" />
  <circle cx="415" cy="289" r="10"
          style="fill:green;" />
  <circle cx="368" cy="408" r="10"
          style="fill:green;" />
  <circle cx="627" cy="427" r="10"
          style="fill:green;" />
  <circle cx="418" cy="462" r="10"
          style="fill:green;" />
  <circle cx="141" cy="320" r="10"
          style="fill:green;" />
  <circle cx="673" cy="268" r="10"
          style="fill:green;" />
  <circle cx="528" cy="492" r="10"
          style="fill:green;" />
  <circle cx="541" cy="392" r="10"
          style="fill:green;" />
  <circle cx="142" cy="140" r="10"
          style="fill:green;" />
  <circle cx="167" cy="142" r="10"
          style="fill:green;" />
  <circle cx="115" cy="375" r="10"
          style="fill:green;" />
  <circle cx="356" cy="384" r="10"
          style="fill:green;" />
  <circle cx="485" cy="472" r="10"
          style="fill:green;" />
  <circle cx="683" cy="19" r="10"
          style="fill:green;" />
  <circle cx="68" cy="361" r="10"
          style="fill:green;" />
  <circle cx="532" cy="377" r="10"
          style="fill:green;" />
  <circle cx="587" cy="369" r="10"
          style="fill:green;" />
  <circle cx="417" cy="343" r="10"
          style="fill:green;" />
  <circle cx="149" cy="176" r="10"
          style="fill:green;" />
  <circle cx="255" cy="242" r="10"
          style="fill:green;" />
  <circle cx="667" cy="72" r="10"
          style="fill:orange;" />
  <circle cx="515" cy="430" r="10"
          style="fill:orange;" />
  <circle cx="488" cy="488" r="10"
          style="fill:orange;" />
  <circle cx="192" cy="251" r="10"
          style="fill:orange;" />
  <circle cx="553" cy="217" r="10"
          style="fill:orange;" />
  <circle cx="400" cy="267" r="10"
          style="fill:yellow;" />
  <text x="10" y="535" font-size="15">
   DTW        = 232.3
  </text>
  <text x="10" y="555" font-size="15">
   experience = 2
  </text>
  <text x="10" y="575" font-size="15">
   reward = 0.0
  </text>
  <text x="10" y="595" font-size="15">
   objects eaten => 
  </text>
 </g>
</svg>
