<?xml version="1.0"?>
<svg height="600" width="720" >
 <g style="fill-opacity:1.0; stroke:black;
  stroke-width:1;">
  <rect x="10" y="10" height="500"
        width="700" style="fill:none;" />
  <line x1="399" y1="266" x2="519" y2="266" />
  <line x1="399" y1="266" x2="516" y2="290" />
  <line x1="399" y1="266" x2="509" y2="312" />
  <line x1="399" y1="266" x2="498" y2="333" />
  <line x1="399" y1="266" x2="483" y2="351" />
  <line x1="399" y1="266" x2="465" y2="366" />
  <line x1="399" y1="266" x2="444" y2="377" />
  <line x1="399" y1="266" x2="422" y2="384" />
  <line x1="399" y1="266" x2="399" y2="386" />
  <line x1="399" y1="266" x2="375" y2="384" />
  <line x1="399" y1="266" x2="353" y2="377" />
  <line x1="399" y1="266" x2="332" y2="366" />
  <line x1="399" y1="266" x2="314" y2="351" />
  <line x1="399" y1="266" x2="299" y2="333" />
  <line x1="399" y1="266" x2="288" y2="312" />
  <line x1="399" y1="266" x2="281" y2="290" />
  <line x1="399" y1="266" x2="279" y2="266" />
  <line x1="399" y1="266" x2="281" y2="243" />
  <line x1="399" y1="266" x2="288" y2="220" />
  <line x1="399" y1="266" x2="299" y2="200" />
  <line x1="399" y1="266" x2="314" y2="181" />
  <line x1="399" y1="266" x2="332" y2="166" />
  <line x1="399" y1="266" x2="353" y2="155" />
  <line x1="399" y1="266" x2="375" y2="148" />
  <line x1="399" y1="266" x2="399" y2="146" />
  <line x1="399" y1="266" x2="422" y2="148" />
  <line x1="399" y1="266" x2="444" y2="155" />
  <line x1="399" y1="266" x2="465" y2="166" />
  <line x1="399" y1="266" x2="483" y2="181" />
  <line x1="399" y1="266" x2="498" y2="200" />
  <line x1="399" y1="266" x2="509" y2="220" />
  <line x1="399" y1="266" x2="516" y2="243" />
  <circle cx="269" cy="305" r="10"
          style="fill:red;" />
  <circle cx="27" cy="303" r="10"
          style="fill:red;" />
  <circle cx="130" cy="149" r="10"
          style="fill:red;" />
  <circle cx="83" cy="62" r="10"
          style="fill:red;" />
  <circle cx="204" cy="46" r="10"
          style="fill:red;" />
  <circle cx="368" cy="436" r="10"
          style="fill:red;" />
  <circle cx="446" cy="212" r="10"
          style="fill:red;" />
  <circle cx="642" cy="411" r="10"
          style="fill:red;" />
  <circle cx="605" cy="54" r="10"
          style="fill:red;" />
  <circle cx="159" cy="53" r="10"
          style="fill:red;" />
  <circle cx="537" cy="197" r="10"
          style="fill:red;" />
  <circle cx="571" cy="45" r="10"
          style="fill:red;" />
  <circle cx="553" cy="446" r="10"
          style="fill:red;" />
  <circle cx="651" cy="38" r="10"
          style="fill:red;" />
  <circle cx="461" cy="274" r="10"
          style="fill:red;" />
  <circle cx="250" cy="341" r="10"
          style="fill:red;" />
  <circle cx="444" cy="287" r="10"
          style="fill:red;" />
  <circle cx="558" cy="480" r="10"
          style="fill:red;" />
  <circle cx="258" cy="418" r="10"
          style="fill:red;" />
  <circle cx="694" cy="157" r="10"
          style="fill:red;" />
  <circle cx="185" cy="22" r="10"
          style="fill:red;" />
  <circle cx="444" cy="172" r="10"
          style="fill:red;" />
  <circle cx="334" cy="40" r="10"
          style="fill:red;" />
  <circle cx="283" cy="406" r="10"
          style="fill:red;" />
  <circle cx="416" cy="434" r="10"
          style="fill:red;" />
  <circle cx="330" cy="375" r="10"
          style="fill:green;" />
  <circle cx="465" cy="140" r="10"
          style="fill:green;" />
  <circle cx="579" cy="76" r="10"
          style="fill:green;" />
  <circle cx="457" cy="320" r="10"
          style="fill:green;" />
  <circle cx="532" cy="386" r="10"
          style="fill:green;" />
  <circle cx="414" cy="288" r="10"
          style="fill:green;" />
  <circle cx="367" cy="409" r="10"
          style="fill:green;" />
  <circle cx="626" cy="426" r="10"
          style="fill:green;" />
  <circle cx="419" cy="461" r="10"
          style="fill:green;" />
  <circle cx="141" cy="319" r="10"
          style="fill:green;" />
  <circle cx="675" cy="267" r="10"
          style="fill:green;" />
  <circle cx="528" cy="492" r="10"
          style="fill:green;" />
  <circle cx="543" cy="391" r="10"
          style="fill:green;" />
  <circle cx="142" cy="142" r="10"
          style="fill:green;" />
  <circle cx="168" cy="141" r="10"
          style="fill:green;" />
  <circle cx="116" cy="375" r="10"
          style="fill:green;" />
  <circle cx="357" cy="383" r="10"
          style="fill:green;" />
  <circle cx="484" cy="472" r="10"
          style="fill:green;" />
  <circle cx="681" cy="20" r="10"
          style="fill:green;" />
  <circle cx="68" cy="360" r="10"
          style="fill:green;" />
  <circle cx="533" cy="377" r="10"
          style="fill:green;" />
  <circle cx="586" cy="371" r="10"
          style="fill:green;" />
  <circle cx="418" cy="343" r="10"
          style="fill:green;" />
  <circle cx="147" cy="177" r="10"
          style="fill:green;" />
  <circle cx="254" cy="243" r="10"
          style="fill:green;" />
  <circle cx="666" cy="73" r="10"
          style="fill:orange;" />
  <circle cx="515" cy="429" r="10"
          style="fill:orange;" />
  <circle cx="489" cy="487" r="10"
          style="fill:orange;" />
  <circle cx="192" cy="251" r="10"
          style="fill:orange;" />
  <circle cx="555" cy="216" r="10"
          style="fill:orange;" />
  <circle cx="399" cy="266" r="10"
          style="fill:yellow;" />
  <text x="10" y="535" font-size="15">
   DTW        = 233.3
  </text>
  <text x="10" y="555" font-size="15">
   experience = 2
  </text>
  <text x="10" y="575" font-size="15">
   reward = 0.0
  </text>
  <text x="10" y="595" font-size="15">
   objects eaten => 
  </text>
 </g>
</svg>
