<?xml version="1.0"?>
<svg height="600" width="720" >
 <g style="fill-opacity:1.0; stroke:black;
  stroke-width:1;">
  <rect x="10" y="10" height="500"
        width="700" style="fill:none;" />
  <line x1="410" y1="307" x2="530" y2="307" />
  <line x1="410" y1="307" x2="527" y2="330" />
  <line x1="410" y1="307" x2="520" y2="352" />
  <line x1="410" y1="307" x2="509" y2="373" />
  <line x1="410" y1="307" x2="494" y2="391" />
  <line x1="410" y1="307" x2="476" y2="406" />
  <line x1="410" y1="307" x2="455" y2="417" />
  <line x1="410" y1="307" x2="433" y2="424" />
  <line x1="410" y1="307" x2="410" y2="427" />
  <line x1="410" y1="307" x2="386" y2="424" />
  <line x1="410" y1="307" x2="364" y2="417" />
  <line x1="410" y1="307" x2="343" y2="406" />
  <line x1="410" y1="307" x2="325" y2="391" />
  <line x1="410" y1="307" x2="310" y2="373" />
  <line x1="410" y1="307" x2="299" y2="352" />
  <line x1="410" y1="307" x2="292" y2="330" />
  <line x1="410" y1="307" x2="290" y2="307" />
  <line x1="410" y1="307" x2="292" y2="283" />
  <line x1="410" y1="307" x2="299" y2="261" />
  <line x1="410" y1="307" x2="310" y2="240" />
  <line x1="410" y1="307" x2="325" y2="222" />
  <line x1="410" y1="307" x2="343" y2="207" />
  <line x1="410" y1="307" x2="364" y2="196" />
  <line x1="410" y1="307" x2="386" y2="189" />
  <line x1="410" y1="307" x2="410" y2="187" />
  <line x1="410" y1="307" x2="433" y2="189" />
  <line x1="410" y1="307" x2="455" y2="196" />
  <line x1="410" y1="307" x2="476" y2="207" />
  <line x1="410" y1="307" x2="494" y2="222" />
  <line x1="410" y1="307" x2="509" y2="240" />
  <line x1="410" y1="307" x2="520" y2="261" />
  <line x1="410" y1="307" x2="527" y2="283" />
  <circle cx="271" cy="263" r="10"
          style="fill:red;" />
  <circle cx="19" cy="263" r="10"
          style="fill:red;" />
  <circle cx="115" cy="199" r="10"
          style="fill:red;" />
  <circle cx="103" cy="47" r="10"
          style="fill:red;" />
  <circle cx="162" cy="66" r="10"
          style="fill:red;" />
  <circle cx="390" cy="450" r="10"
          style="fill:red;" />
  <circle cx="474" cy="195" r="10"
          style="fill:red;" />
  <circle cx="665" cy="450" r="10"
          style="fill:red;" />
  <circle cx="587" cy="71" r="10"
          style="fill:red;" />
  <circle cx="203" cy="28" r="10"
          style="fill:red;" />
  <circle cx="531" cy="149" r="10"
          style="fill:red;" />
  <circle cx="550" cy="34" r="10"
          style="fill:red;" />
  <circle cx="583" cy="458" r="10"
          style="fill:red;" />
  <circle cx="607" cy="63" r="10"
          style="fill:red;" />
  <circle cx="465" cy="277" r="10"
          style="fill:red;" />
  <circle cx="271" cy="372" r="10"
          style="fill:red;" />
  <circle cx="460" cy="243" r="10"
          style="fill:red;" />
  <circle cx="540" cy="478" r="10"
          style="fill:red;" />
  <circle cx="208" cy="453" r="10"
          style="fill:red;" />
  <circle cx="666" cy="195" r="10"
          style="fill:red;" />
  <circle cx="188" cy="70" r="10"
          style="fill:red;" />
  <circle cx="481" cy="149" r="10"
          style="fill:red;" />
  <circle cx="375" cy="35" r="10"
          style="fill:red;" />
  <circle cx="323" cy="368" r="10"
          style="fill:red;" />
  <circle cx="402" cy="483" r="10"
          style="fill:red;" />
  <circle cx="305" cy="406" r="10"
          style="fill:green;" />
  <circle cx="479" cy="133" r="10"
          style="fill:green;" />
  <circle cx="544" cy="124" r="10"
          style="fill:green;" />
  <circle cx="452" cy="271" r="10"
          style="fill:green;" />
  <circle cx="574" cy="432" r="10"
          style="fill:green;" />
  <circle cx="457" cy="323" r="10"
          style="fill:green;" />
  <circle cx="398" cy="381" r="10"
          style="fill:green;" />
  <circle cx="674" cy="464" r="10"
          style="fill:green;" />
  <circle cx="381" cy="492" r="10"
          style="fill:green;" />
  <circle cx="161" cy="340" r="10"
          style="fill:green;" />
  <circle cx="630" cy="302" r="10"
          style="fill:green;" />
  <circle cx="534" cy="482" r="10"
          style="fill:green;" />
  <circle cx="495" cy="433" r="10"
          style="fill:green;" />
  <circle cx="136" cy="99" r="10"
          style="fill:green;" />
  <circle cx="120" cy="150" r="10"
          style="fill:green;" />
  <circle cx="93" cy="385" r="10"
          style="fill:green;" />
  <circle cx="323" cy="416" r="10"
          style="fill:green;" />
  <circle cx="526" cy="474" r="10"
          style="fill:green;" />
  <circle cx="670" cy="39" r="10"
          style="fill:green;" />
  <circle cx="48" cy="380" r="10"
          style="fill:green;" />
  <circle cx="502" cy="363" r="10"
          style="fill:green;" />
  <circle cx="618" cy="320" r="10"
          style="fill:green;" />
  <circle cx="377" cy="346" r="10"
          style="fill:green;" />
  <circle cx="190" cy="171" r="10"
          style="fill:green;" />
  <circle cx="281" cy="236" r="10"
          style="fill:green;" />
  <circle cx="680" cy="57" r="10"
          style="fill:orange;" />
  <circle cx="526" cy="476" r="10"
          style="fill:orange;" />
  <circle cx="450" cy="477" r="10"
          style="fill:orange;" />
  <circle cx="193" cy="264" r="10"
          style="fill:orange;" />
  <circle cx="505" cy="265" r="10"
          style="fill:orange;" />
  <circle cx="410" cy="307" r="10"
          style="fill:yellow;" />
  <text x="10" y="535" font-size="15">
   DTW        = 193.0
  </text>
  <text x="10" y="555" font-size="15">
   experience = 0
  </text>
  <text x="10" y="575" font-size="15">
   reward = 0.0
  </text>
  <text x="10" y="595" font-size="15">
   objects eaten => 
  </text>
 </g>
</svg>
