<?xml version="1.0"?>
<svg height="600" width="720" >
 <g style="fill-opacity:1.0; stroke:black;
  stroke-width:1;">
  <rect x="10" y="10" height="500"
        width="700" style="fill:none;" />
  <line x1="389" y1="263" x2="509" y2="263" />
  <line x1="389" y1="263" x2="506" y2="286" />
  <line x1="389" y1="263" x2="500" y2="309" />
  <line x1="389" y1="263" x2="489" y2="330" />
  <line x1="389" y1="263" x2="474" y2="348" />
  <line x1="389" y1="263" x2="455" y2="363" />
  <line x1="389" y1="263" x2="435" y2="374" />
  <line x1="389" y1="263" x2="412" y2="381" />
  <line x1="389" y1="263" x2="389" y2="383" />
  <line x1="389" y1="263" x2="365" y2="381" />
  <line x1="389" y1="263" x2="343" y2="374" />
  <line x1="389" y1="263" x2="322" y2="363" />
  <line x1="389" y1="263" x2="304" y2="348" />
  <line x1="389" y1="263" x2="289" y2="330" />
  <line x1="389" y1="263" x2="278" y2="309" />
  <line x1="389" y1="263" x2="271" y2="286" />
  <line x1="389" y1="263" x2="269" y2="263" />
  <line x1="389" y1="263" x2="271" y2="239" />
  <line x1="389" y1="263" x2="278" y2="217" />
  <line x1="389" y1="263" x2="289" y2="196" />
  <line x1="389" y1="263" x2="304" y2="178" />
  <line x1="389" y1="263" x2="322" y2="163" />
  <line x1="389" y1="263" x2="343" y2="152" />
  <line x1="389" y1="263" x2="365" y2="145" />
  <line x1="389" y1="263" x2="389" y2="143" />
  <line x1="389" y1="263" x2="412" y2="145" />
  <line x1="389" y1="263" x2="435" y2="152" />
  <line x1="389" y1="263" x2="455" y2="163" />
  <line x1="389" y1="263" x2="474" y2="178" />
  <line x1="389" y1="263" x2="489" y2="196" />
  <line x1="389" y1="263" x2="500" y2="217" />
  <line x1="389" y1="263" x2="506" y2="239" />
  <circle cx="269" cy="310" r="10"
          style="fill:red;" />
  <circle cx="28" cy="308" r="10"
          style="fill:red;" />
  <circle cx="131" cy="143" r="10"
          style="fill:red;" />
  <circle cx="80" cy="64" r="10"
          style="fill:red;" />
  <circle cx="209" cy="44" r="10"
          style="fill:red;" />
  <circle cx="366" cy="434" r="10"
          style="fill:red;" />
  <circle cx="443" cy="214" r="10"
          style="fill:red;" />
  <circle cx="639" cy="407" r="10"
          style="fill:red;" />
  <circle cx="607" cy="52" r="10"
          style="fill:red;" />
  <circle cx="154" cy="58" r="10"
          style="fill:red;" />
  <circle cx="538" cy="203" r="10"
          style="fill:red;" />
  <circle cx="573" cy="46" r="10"
          style="fill:red;" />
  <circle cx="549" cy="445" r="10"
          style="fill:red;" />
  <circle cx="656" cy="35" r="10"
          style="fill:red;" />
  <circle cx="460" cy="273" r="10"
          style="fill:red;" />
  <circle cx="247" cy="337" r="10"
          style="fill:red;" />
  <circle cx="442" cy="292" r="10"
          style="fill:red;" />
  <circle cx="560" cy="476" r="10"
          style="fill:red;" />
  <circle cx="264" cy="413" r="10"
          style="fill:red;" />
  <circle cx="697" cy="152" r="10"
          style="fill:red;" />
  <circle cx="185" cy="22" r="10"
          style="fill:red;" />
  <circle cx="440" cy="175" r="10"
          style="fill:red;" />
  <circle cx="329" cy="45" r="10"
          style="fill:red;" />
  <circle cx="278" cy="410" r="10"
          style="fill:red;" />
  <circle cx="418" cy="428" r="10"
          style="fill:red;" />
  <circle cx="333" cy="371" r="10"
          style="fill:green;" />
  <circle cx="463" cy="140" r="10"
          style="fill:green;" />
  <circle cx="583" cy="71" r="10"
          style="fill:green;" />
  <circle cx="457" cy="326" r="10"
          style="fill:green;" />
  <circle cx="528" cy="381" r="10"
          style="fill:green;" />
  <circle cx="408" cy="284" r="10"
          style="fill:green;" />
  <circle cx="364" cy="412" r="10"
          style="fill:green;" />
  <circle cx="620" cy="421" r="10"
          style="fill:green;" />
  <circle cx="424" cy="456" r="10"
          style="fill:green;" />
  <circle cx="138" cy="317" r="10"
          style="fill:green;" />
  <circle cx="680" cy="263" r="10"
          style="fill:green;" />
  <circle cx="527" cy="489" r="10"
          style="fill:green;" />
  <circle cx="548" cy="386" r="10"
          style="fill:green;" />
  <circle cx="143" cy="147" r="10"
          style="fill:green;" />
  <circle cx="174" cy="140" r="10"
          style="fill:green;" />
  <circle cx="119" cy="373" r="10"
          style="fill:green;" />
  <circle cx="361" cy="379" r="10"
          style="fill:green;" />
  <circle cx="479" cy="472" r="10"
          style="fill:green;" />
  <circle cx="676" cy="22" r="10"
          style="fill:green;" />
  <circle cx="71" cy="358" r="10"
          style="fill:green;" />
  <circle cx="536" cy="379" r="10"
          style="fill:green;" />
  <circle cx="582" cy="377" r="10"
          style="fill:green;" />
  <circle cx="423" cy="342" r="10"
          style="fill:green;" />
  <circle cx="143" cy="177" r="10"
          style="fill:green;" />
  <circle cx="251" cy="243" r="10"
          style="fill:green;" />
  <circle cx="665" cy="75" r="10"
          style="fill:orange;" />
  <circle cx="513" cy="424" r="10"
          style="fill:orange;" />
  <circle cx="493" cy="483" r="10"
          style="fill:orange;" />
  <circle cx="192" cy="249" r="10"
          style="fill:orange;" />
  <circle cx="560" cy="210" r="10"
          style="fill:orange;" />
  <circle cx="389" cy="263" r="10"
          style="fill:yellow;" />
  <text x="10" y="535" font-size="15">
   DTW        = 236.6
  </text>
  <text x="10" y="555" font-size="15">
   experience = 2
  </text>
  <text x="10" y="575" font-size="15">
   reward = 0.0
  </text>
  <text x="10" y="595" font-size="15">
   objects eaten => 
  </text>
 </g>
</svg>
