<?xml version="1.0"?>
<svg height="600" width="720" >
 <g style="fill-opacity:1.0; stroke:black;
  stroke-width:1;">
  <rect x="10" y="10" height="500"
        width="700" style="fill:none;" />
  <line x1="387" y1="261" x2="507" y2="261" />
  <line x1="387" y1="261" x2="504" y2="284" />
  <line x1="387" y1="261" x2="498" y2="307" />
  <line x1="387" y1="261" x2="487" y2="327" />
  <line x1="387" y1="261" x2="472" y2="346" />
  <line x1="387" y1="261" x2="453" y2="360" />
  <line x1="387" y1="261" x2="433" y2="372" />
  <line x1="387" y1="261" x2="410" y2="378" />
  <line x1="387" y1="261" x2="387" y2="381" />
  <line x1="387" y1="261" x2="363" y2="378" />
  <line x1="387" y1="261" x2="341" y2="372" />
  <line x1="387" y1="261" x2="320" y2="360" />
  <line x1="387" y1="261" x2="302" y2="346" />
  <line x1="387" y1="261" x2="287" y2="327" />
  <line x1="387" y1="261" x2="276" y2="307" />
  <line x1="387" y1="261" x2="269" y2="284" />
  <line x1="387" y1="261" x2="267" y2="261" />
  <line x1="387" y1="261" x2="269" y2="237" />
  <line x1="387" y1="261" x2="276" y2="215" />
  <line x1="387" y1="261" x2="287" y2="194" />
  <line x1="387" y1="261" x2="302" y2="176" />
  <line x1="387" y1="261" x2="320" y2="161" />
  <line x1="387" y1="261" x2="341" y2="150" />
  <line x1="387" y1="261" x2="363" y2="143" />
  <line x1="387" y1="261" x2="387" y2="141" />
  <line x1="387" y1="261" x2="410" y2="143" />
  <line x1="387" y1="261" x2="433" y2="150" />
  <line x1="387" y1="261" x2="453" y2="161" />
  <line x1="387" y1="261" x2="472" y2="176" />
  <line x1="387" y1="261" x2="487" y2="194" />
  <line x1="387" y1="261" x2="498" y2="215" />
  <line x1="387" y1="261" x2="504" y2="237" />
  <circle cx="269" cy="311" r="10"
          style="fill:red;" />
  <circle cx="28" cy="309" r="10"
          style="fill:red;" />
  <circle cx="132" cy="142" r="10"
          style="fill:red;" />
  <circle cx="80" cy="65" r="10"
          style="fill:red;" />
  <circle cx="210" cy="43" r="10"
          style="fill:red;" />
  <circle cx="365" cy="434" r="10"
          style="fill:red;" />
  <circle cx="442" cy="215" r="10"
          style="fill:red;" />
  <circle cx="639" cy="406" r="10"
          style="fill:red;" />
  <circle cx="607" cy="51" r="10"
          style="fill:red;" />
  <circle cx="153" cy="60" r="10"
          style="fill:red;" />
  <circle cx="538" cy="204" r="10"
          style="fill:red;" />
  <circle cx="574" cy="47" r="10"
          style="fill:red;" />
  <circle cx="548" cy="444" r="10"
          style="fill:red;" />
  <circle cx="658" cy="34" r="10"
          style="fill:red;" />
  <circle cx="460" cy="273" r="10"
          style="fill:red;" />
  <circle cx="247" cy="336" r="10"
          style="fill:red;" />
  <circle cx="442" cy="293" r="10"
          style="fill:red;" />
  <circle cx="560" cy="475" r="10"
          style="fill:red;" />
  <circle cx="266" cy="412" r="10"
          style="fill:red;" />
  <circle cx="698" cy="151" r="10"
          style="fill:red;" />
  <circle cx="185" cy="23" r="10"
          style="fill:red;" />
  <circle cx="439" cy="176" r="10"
          style="fill:red;" />
  <circle cx="328" cy="46" r="10"
          style="fill:red;" />
  <circle cx="277" cy="411" r="10"
          style="fill:red;" />
  <circle cx="418" cy="427" r="10"
          style="fill:red;" />
  <circle cx="334" cy="370" r="10"
          style="fill:green;" />
  <circle cx="462" cy="141" r="10"
          style="fill:green;" />
  <circle cx="584" cy="69" r="10"
          style="fill:green;" />
  <circle cx="458" cy="327" r="10"
          style="fill:green;" />
  <circle cx="526" cy="379" r="10"
          style="fill:green;" />
  <circle cx="407" cy="283" r="10"
          style="fill:green;" />
  <circle cx="363" cy="413" r="10"
          style="fill:green;" />
  <circle cx="619" cy="420" r="10"
          style="fill:green;" />
  <circle cx="425" cy="455" r="10"
          style="fill:green;" />
  <circle cx="138" cy="316" r="10"
          style="fill:green;" />
  <circle cx="681" cy="262" r="10"
          style="fill:green;" />
  <circle cx="527" cy="488" r="10"
          style="fill:green;" />
  <circle cx="550" cy="385" r="10"
          style="fill:green;" />
  <circle cx="143" cy="148" r="10"
          style="fill:green;" />
  <circle cx="175" cy="140" r="10"
          style="fill:green;" />
  <circle cx="119" cy="373" r="10"
          style="fill:green;" />
  <circle cx="362" cy="378" r="10"
          style="fill:green;" />
  <circle cx="478" cy="472" r="10"
          style="fill:green;" />
  <circle cx="674" cy="23" r="10"
          style="fill:green;" />
  <circle cx="71" cy="357" r="10"
          style="fill:green;" />
  <circle cx="537" cy="379" r="10"
          style="fill:green;" />
  <circle cx="581" cy="378" r="10"
          style="fill:green;" />
  <circle cx="424" cy="342" r="10"
          style="fill:green;" />
  <circle cx="141" cy="177" r="10"
          style="fill:green;" />
  <circle cx="250" cy="244" r="10"
          style="fill:green;" />
  <circle cx="664" cy="75" r="10"
          style="fill:orange;" />
  <circle cx="513" cy="422" r="10"
          style="fill:orange;" />
  <circle cx="495" cy="482" r="10"
          style="fill:orange;" />
  <circle cx="192" cy="249" r="10"
          style="fill:orange;" />
  <circle cx="562" cy="208" r="10"
          style="fill:orange;" />
  <circle cx="387" cy="261" r="10"
          style="fill:yellow;" />
  <text x="10" y="535" font-size="15">
   DTW        = 238.8
  </text>
  <text x="10" y="555" font-size="15">
   experience = 2
  </text>
  <text x="10" y="575" font-size="15">
   reward = 0.0
  </text>
  <text x="10" y="595" font-size="15">
   objects eaten => 
  </text>
 </g>
</svg>
