<?xml version="1.0"?>
<svg height="600" width="720" >
 <g style="fill-opacity:1.0; stroke:black;
  stroke-width:1;">
  <rect x="10" y="10" height="500"
        width="700" style="fill:none;" />
  <line x1="385" y1="259" x2="505" y2="259" />
  <line x1="385" y1="259" x2="503" y2="282" />
  <line x1="385" y1="259" x2="496" y2="304" />
  <line x1="385" y1="259" x2="485" y2="325" />
  <line x1="385" y1="259" x2="470" y2="343" />
  <line x1="385" y1="259" x2="452" y2="358" />
  <line x1="385" y1="259" x2="431" y2="369" />
  <line x1="385" y1="259" x2="408" y2="376" />
  <line x1="385" y1="259" x2="385" y2="379" />
  <line x1="385" y1="259" x2="361" y2="376" />
  <line x1="385" y1="259" x2="339" y2="369" />
  <line x1="385" y1="259" x2="318" y2="358" />
  <line x1="385" y1="259" x2="300" y2="343" />
  <line x1="385" y1="259" x2="285" y2="325" />
  <line x1="385" y1="259" x2="274" y2="304" />
  <line x1="385" y1="259" x2="267" y2="282" />
  <line x1="385" y1="259" x2="265" y2="259" />
  <line x1="385" y1="259" x2="267" y2="235" />
  <line x1="385" y1="259" x2="274" y2="213" />
  <line x1="385" y1="259" x2="285" y2="192" />
  <line x1="385" y1="259" x2="300" y2="174" />
  <line x1="385" y1="259" x2="318" y2="159" />
  <line x1="385" y1="259" x2="339" y2="148" />
  <line x1="385" y1="259" x2="361" y2="141" />
  <line x1="385" y1="259" x2="385" y2="139" />
  <line x1="385" y1="259" x2="408" y2="141" />
  <line x1="385" y1="259" x2="431" y2="148" />
  <line x1="385" y1="259" x2="452" y2="159" />
  <line x1="385" y1="259" x2="470" y2="174" />
  <line x1="385" y1="259" x2="485" y2="192" />
  <line x1="385" y1="259" x2="496" y2="213" />
  <line x1="385" y1="259" x2="503" y2="235" />
  <circle cx="268" cy="312" r="10"
          style="fill:red;" />
  <circle cx="28" cy="310" r="10"
          style="fill:red;" />
  <circle cx="132" cy="141" r="10"
          style="fill:red;" />
  <circle cx="79" cy="65" r="10"
          style="fill:red;" />
  <circle cx="212" cy="43" r="10"
          style="fill:red;" />
  <circle cx="364" cy="434" r="10"
          style="fill:red;" />
  <circle cx="441" cy="215" r="10"
          style="fill:red;" />
  <circle cx="638" cy="404" r="10"
          style="fill:red;" />
  <circle cx="608" cy="50" r="10"
          style="fill:red;" />
  <circle cx="151" cy="61" r="10"
          style="fill:red;" />
  <circle cx="538" cy="206" r="10"
          style="fill:red;" />
  <circle cx="574" cy="47" r="10"
          style="fill:red;" />
  <circle cx="547" cy="444" r="10"
          style="fill:red;" />
  <circle cx="659" cy="33" r="10"
          style="fill:red;" />
  <circle cx="460" cy="273" r="10"
          style="fill:red;" />
  <circle cx="246" cy="335" r="10"
          style="fill:red;" />
  <circle cx="441" cy="295" r="10"
          style="fill:red;" />
  <circle cx="561" cy="473" r="10"
          style="fill:red;" />
  <circle cx="267" cy="411" r="10"
          style="fill:red;" />
  <circle cx="699" cy="150" r="10"
          style="fill:red;" />
  <circle cx="185" cy="25" r="10"
          style="fill:red;" />
  <circle cx="438" cy="176" r="10"
          style="fill:red;" />
  <circle cx="327" cy="47" r="10"
          style="fill:red;" />
  <circle cx="276" cy="413" r="10"
          style="fill:red;" />
  <circle cx="419" cy="425" r="10"
          style="fill:red;" />
  <circle cx="334" cy="369" r="10"
          style="fill:green;" />
  <circle cx="462" cy="141" r="10"
          style="fill:green;" />
  <circle cx="586" cy="68" r="10"
          style="fill:green;" />
  <circle cx="458" cy="329" r="10"
          style="fill:green;" />
  <circle cx="525" cy="378" r="10"
          style="fill:green;" />
  <circle cx="406" cy="282" r="10"
          style="fill:green;" />
  <circle cx="362" cy="414" r="10"
          style="fill:green;" />
  <circle cx="617" cy="419" r="10"
          style="fill:green;" />
  <circle cx="426" cy="453" r="10"
          style="fill:green;" />
  <circle cx="137" cy="316" r="10"
          style="fill:green;" />
  <circle cx="683" cy="261" r="10"
          style="fill:green;" />
  <circle cx="527" cy="487" r="10"
          style="fill:green;" />
  <circle cx="551" cy="383" r="10"
          style="fill:green;" />
  <circle cx="143" cy="149" r="10"
          style="fill:green;" />
  <circle cx="177" cy="140" r="10"
          style="fill:green;" />
  <circle cx="120" cy="373" r="10"
          style="fill:green;" />
  <circle cx="363" cy="378" r="10"
          style="fill:green;" />
  <circle cx="477" cy="472" r="10"
          style="fill:green;" />
  <circle cx="673" cy="24" r="10"
          style="fill:green;" />
  <circle cx="72" cy="357" r="10"
          style="fill:green;" />
  <circle cx="538" cy="380" r="10"
          style="fill:green;" />
  <circle cx="580" cy="380" r="10"
          style="fill:green;" />
  <circle cx="425" cy="342" r="10"
          style="fill:green;" />
  <circle cx="140" cy="178" r="10"
          style="fill:green;" />
  <circle cx="249" cy="244" r="10"
          style="fill:green;" />
  <circle cx="664" cy="76" r="10"
          style="fill:orange;" />
  <circle cx="513" cy="421" r="10"
          style="fill:orange;" />
  <circle cx="496" cy="481" r="10"
          style="fill:orange;" />
  <circle cx="192" cy="249" r="10"
          style="fill:orange;" />
  <circle cx="563" cy="207" r="10"
          style="fill:orange;" />
  <circle cx="385" cy="259" r="10"
          style="fill:yellow;" />
  <text x="10" y="535" font-size="15">
   DTW        = 239.0
  </text>
  <text x="10" y="555" font-size="15">
   experience = 2
  </text>
  <text x="10" y="575" font-size="15">
   reward = 0.0
  </text>
  <text x="10" y="595" font-size="15">
   objects eaten => 
  </text>
 </g>
</svg>
