<?xml version="1.0"?>
<svg height="600" width="720" >
 <g style="fill-opacity:1.0; stroke:black;
  stroke-width:1;">
  <rect x="10" y="10" height="500"
        width="700" style="fill:none;" />
  <line x1="381" y1="254" x2="501" y2="254" />
  <line x1="381" y1="254" x2="499" y2="278" />
  <line x1="381" y1="254" x2="492" y2="300" />
  <line x1="381" y1="254" x2="481" y2="321" />
  <line x1="381" y1="254" x2="466" y2="339" />
  <line x1="381" y1="254" x2="448" y2="354" />
  <line x1="381" y1="254" x2="427" y2="365" />
  <line x1="381" y1="254" x2="404" y2="372" />
  <line x1="381" y1="254" x2="381" y2="374" />
  <line x1="381" y1="254" x2="357" y2="372" />
  <line x1="381" y1="254" x2="335" y2="365" />
  <line x1="381" y1="254" x2="314" y2="354" />
  <line x1="381" y1="254" x2="296" y2="339" />
  <line x1="381" y1="254" x2="281" y2="321" />
  <line x1="381" y1="254" x2="270" y2="300" />
  <line x1="381" y1="254" x2="263" y2="278" />
  <line x1="381" y1="254" x2="261" y2="254" />
  <line x1="381" y1="254" x2="263" y2="231" />
  <line x1="381" y1="254" x2="270" y2="208" />
  <line x1="381" y1="254" x2="281" y2="188" />
  <line x1="381" y1="254" x2="296" y2="169" />
  <line x1="381" y1="254" x2="314" y2="154" />
  <line x1="381" y1="254" x2="335" y2="143" />
  <line x1="381" y1="254" x2="357" y2="136" />
  <line x1="381" y1="254" x2="381" y2="134" />
  <line x1="381" y1="254" x2="404" y2="136" />
  <line x1="381" y1="254" x2="427" y2="143" />
  <line x1="381" y1="254" x2="448" y2="154" />
  <line x1="381" y1="254" x2="466" y2="169" />
  <line x1="381" y1="254" x2="481" y2="188" />
  <line x1="381" y1="254" x2="492" y2="208" />
  <line x1="381" y1="254" x2="499" y2="231" />
  <circle cx="268" cy="315" r="10"
          style="fill:red;" />
  <circle cx="29" cy="313" r="10"
          style="fill:red;" />
  <circle cx="133" cy="138" r="10"
          style="fill:red;" />
  <circle cx="78" cy="66" r="10"
          style="fill:red;" />
  <circle cx="214" cy="42" r="10"
          style="fill:red;" />
  <circle cx="363" cy="433" r="10"
          style="fill:red;" />
  <circle cx="440" cy="216" r="10"
          style="fill:red;" />
  <circle cx="637" cy="402" r="10"
          style="fill:red;" />
  <circle cx="609" cy="49" r="10"
          style="fill:red;" />
  <circle cx="149" cy="63" r="10"
          style="fill:red;" />
  <circle cx="539" cy="209" r="10"
          style="fill:red;" />
  <circle cx="575" cy="48" r="10"
          style="fill:red;" />
  <circle cx="545" cy="443" r="10"
          style="fill:red;" />
  <circle cx="662" cy="32" r="10"
          style="fill:red;" />
  <circle cx="460" cy="273" r="10"
          style="fill:red;" />
  <circle cx="245" cy="333" r="10"
          style="fill:red;" />
  <circle cx="440" cy="297" r="10"
          style="fill:red;" />
  <circle cx="562" cy="471" r="10"
          style="fill:red;" />
  <circle cx="270" cy="409" r="10"
          style="fill:red;" />
  <circle cx="697" cy="148" r="10"
          style="fill:red;" />
  <circle cx="185" cy="28" r="10"
          style="fill:red;" />
  <circle cx="436" cy="178" r="10"
          style="fill:red;" />
  <circle cx="325" cy="49" r="10"
          style="fill:red;" />
  <circle cx="274" cy="415" r="10"
          style="fill:red;" />
  <circle cx="420" cy="422" r="10"
          style="fill:red;" />
  <circle cx="336" cy="367" r="10"
          style="fill:green;" />
  <circle cx="461" cy="141" r="10"
          style="fill:green;" />
  <circle cx="588" cy="65" r="10"
          style="fill:green;" />
  <circle cx="458" cy="332" r="10"
          style="fill:green;" />
  <circle cx="523" cy="375" r="10"
          style="fill:green;" />
  <circle cx="403" cy="280" r="10"
          style="fill:green;" />
  <circle cx="360" cy="416" r="10"
          style="fill:green;" />
  <circle cx="614" cy="417" r="10"
          style="fill:green;" />
  <circle cx="428" cy="451" r="10"
          style="fill:green;" />
  <circle cx="136" cy="315" r="10"
          style="fill:green;" />
  <circle cx="685" cy="259" r="10"
          style="fill:green;" />
  <circle cx="526" cy="486" r="10"
          style="fill:green;" />
  <circle cx="554" cy="381" r="10"
          style="fill:green;" />
  <circle cx="143" cy="152" r="10"
          style="fill:green;" />
  <circle cx="180" cy="139" r="10"
          style="fill:green;" />
  <circle cx="121" cy="372" r="10"
          style="fill:green;" />
  <circle cx="365" cy="376" r="10"
          style="fill:green;" />
  <circle cx="474" cy="472" r="10"
          style="fill:green;" />
  <circle cx="670" cy="25" r="10"
          style="fill:green;" />
  <circle cx="73" cy="356" r="10"
          style="fill:green;" />
  <circle cx="540" cy="381" r="10"
          style="fill:green;" />
  <circle cx="578" cy="382" r="10"
          style="fill:green;" />
  <circle cx="428" cy="342" r="10"
          style="fill:green;" />
  <circle cx="138" cy="178" r="10"
          style="fill:green;" />
  <circle cx="248" cy="244" r="10"
          style="fill:green;" />
  <circle cx="663" cy="76" r="10"
          style="fill:orange;" />
  <circle cx="512" cy="418" r="10"
          style="fill:orange;" />
  <circle cx="498" cy="479" r="10"
          style="fill:orange;" />
  <circle cx="192" cy="248" r="10"
          style="fill:orange;" />
  <circle cx="566" cy="204" r="10"
          style="fill:orange;" />
  <circle cx="381" cy="254" r="10"
          style="fill:yellow;" />
  <text x="10" y="535" font-size="15">
   DTW        = 234.7
  </text>
  <text x="10" y="555" font-size="15">
   experience = 3
  </text>
  <text x="10" y="575" font-size="15">
   reward = 0.0
  </text>
  <text x="10" y="595" font-size="15">
   objects eaten => 
  </text>
 </g>
</svg>
