<?xml version="1.0"?>
<svg height="600" width="720" >
 <g style="fill-opacity:1.0; stroke:black;
  stroke-width:1;">
  <rect x="10" y="10" height="500"
        width="700" style="fill:none;" />
  <line x1="379" y1="254" x2="499" y2="254" />
  <line x1="379" y1="254" x2="497" y2="277" />
  <line x1="379" y1="254" x2="490" y2="300" />
  <line x1="379" y1="254" x2="479" y2="321" />
  <line x1="379" y1="254" x2="464" y2="339" />
  <line x1="379" y1="254" x2="446" y2="354" />
  <line x1="379" y1="254" x2="425" y2="365" />
  <line x1="379" y1="254" x2="403" y2="372" />
  <line x1="379" y1="254" x2="379" y2="374" />
  <line x1="379" y1="254" x2="356" y2="372" />
  <line x1="379" y1="254" x2="333" y2="365" />
  <line x1="379" y1="254" x2="313" y2="354" />
  <line x1="379" y1="254" x2="294" y2="339" />
  <line x1="379" y1="254" x2="280" y2="321" />
  <line x1="379" y1="254" x2="268" y2="300" />
  <line x1="379" y1="254" x2="262" y2="277" />
  <line x1="379" y1="254" x2="259" y2="254" />
  <line x1="379" y1="254" x2="262" y2="231" />
  <line x1="379" y1="254" x2="268" y2="208" />
  <line x1="379" y1="254" x2="280" y2="187" />
  <line x1="379" y1="254" x2="294" y2="169" />
  <line x1="379" y1="254" x2="313" y2="154" />
  <line x1="379" y1="254" x2="333" y2="143" />
  <line x1="379" y1="254" x2="356" y2="136" />
  <line x1="379" y1="254" x2="379" y2="134" />
  <line x1="379" y1="254" x2="403" y2="136" />
  <line x1="379" y1="254" x2="425" y2="143" />
  <line x1="379" y1="254" x2="446" y2="154" />
  <line x1="379" y1="254" x2="464" y2="169" />
  <line x1="379" y1="254" x2="479" y2="187" />
  <line x1="379" y1="254" x2="490" y2="208" />
  <line x1="379" y1="254" x2="497" y2="231" />
  <circle cx="268" cy="316" r="10"
          style="fill:red;" />
  <circle cx="29" cy="314" r="10"
          style="fill:red;" />
  <circle cx="134" cy="136" r="10"
          style="fill:red;" />
  <circle cx="77" cy="67" r="10"
          style="fill:red;" />
  <circle cx="215" cy="41" r="10"
          style="fill:red;" />
  <circle cx="362" cy="432" r="10"
          style="fill:red;" />
  <circle cx="439" cy="217" r="10"
          style="fill:red;" />
  <circle cx="636" cy="401" r="10"
          style="fill:red;" />
  <circle cx="609" cy="49" r="10"
          style="fill:red;" />
  <circle cx="148" cy="65" r="10"
          style="fill:red;" />
  <circle cx="539" cy="210" r="10"
          style="fill:red;" />
  <circle cx="576" cy="48" r="10"
          style="fill:red;" />
  <circle cx="544" cy="443" r="10"
          style="fill:red;" />
  <circle cx="663" cy="31" r="10"
          style="fill:red;" />
  <circle cx="460" cy="273" r="10"
          style="fill:red;" />
  <circle cx="244" cy="332" r="10"
          style="fill:red;" />
  <circle cx="440" cy="298" r="10"
          style="fill:red;" />
  <circle cx="562" cy="470" r="10"
          style="fill:red;" />
  <circle cx="272" cy="408" r="10"
          style="fill:red;" />
  <circle cx="696" cy="147" r="10"
          style="fill:red;" />
  <circle cx="185" cy="29" r="10"
          style="fill:red;" />
  <circle cx="434" cy="178" r="10"
          style="fill:red;" />
  <circle cx="323" cy="50" r="10"
          style="fill:red;" />
  <circle cx="272" cy="416" r="10"
          style="fill:red;" />
  <circle cx="420" cy="421" r="10"
          style="fill:red;" />
  <circle cx="337" cy="367" r="10"
          style="fill:green;" />
  <circle cx="461" cy="141" r="10"
          style="fill:green;" />
  <circle cx="589" cy="64" r="10"
          style="fill:green;" />
  <circle cx="458" cy="333" r="10"
          style="fill:green;" />
  <circle cx="521" cy="374" r="10"
          style="fill:green;" />
  <circle cx="402" cy="278" r="10"
          style="fill:green;" />
  <circle cx="359" cy="416" r="10"
          style="fill:green;" />
  <circle cx="613" cy="416" r="10"
          style="fill:green;" />
  <circle cx="429" cy="450" r="10"
          style="fill:green;" />
  <circle cx="135" cy="314" r="10"
          style="fill:green;" />
  <circle cx="687" cy="258" r="10"
          style="fill:green;" />
  <circle cx="526" cy="485" r="10"
          style="fill:green;" />
  <circle cx="556" cy="380" r="10"
          style="fill:green;" />
  <circle cx="143" cy="153" r="10"
          style="fill:green;" />
  <circle cx="181" cy="139" r="10"
          style="fill:green;" />
  <circle cx="122" cy="372" r="10"
          style="fill:green;" />
  <circle cx="366" cy="375" r="10"
          style="fill:green;" />
  <circle cx="473" cy="472" r="10"
          style="fill:green;" />
  <circle cx="669" cy="25" r="10"
          style="fill:green;" />
  <circle cx="74" cy="355" r="10"
          style="fill:green;" />
  <circle cx="541" cy="381" r="10"
          style="fill:green;" />
  <circle cx="577" cy="384" r="10"
          style="fill:green;" />
  <circle cx="429" cy="342" r="10"
          style="fill:green;" />
  <circle cx="136" cy="178" r="10"
          style="fill:green;" />
  <circle cx="247" cy="244" r="10"
          style="fill:green;" />
  <circle cx="663" cy="77" r="10"
          style="fill:orange;" />
  <circle cx="512" cy="417" r="10"
          style="fill:orange;" />
  <circle cx="499" cy="478" r="10"
          style="fill:orange;" />
  <circle cx="192" cy="247" r="10"
          style="fill:orange;" />
  <circle cx="567" cy="203" r="10"
          style="fill:orange;" />
  <circle cx="379" cy="254" r="10"
          style="fill:yellow;" />
  <text x="10" y="535" font-size="15">
   DTW        = 234.4
  </text>
  <text x="10" y="555" font-size="15">
   experience = 3
  </text>
  <text x="10" y="575" font-size="15">
   reward = 0.0
  </text>
  <text x="10" y="595" font-size="15">
   objects eaten => 
  </text>
 </g>
</svg>
