<?xml version="1.0"?>
<svg height="600" width="720" >
 <g style="fill-opacity:1.0; stroke:black;
  stroke-width:1;">
  <rect x="10" y="10" height="500"
        width="700" style="fill:none;" />
  <line x1="376" y1="253" x2="496" y2="253" />
  <line x1="376" y1="253" x2="494" y2="277" />
  <line x1="376" y1="253" x2="487" y2="299" />
  <line x1="376" y1="253" x2="476" y2="320" />
  <line x1="376" y1="253" x2="461" y2="338" />
  <line x1="376" y1="253" x2="443" y2="353" />
  <line x1="376" y1="253" x2="422" y2="364" />
  <line x1="376" y1="253" x2="400" y2="371" />
  <line x1="376" y1="253" x2="376" y2="373" />
  <line x1="376" y1="253" x2="353" y2="371" />
  <line x1="376" y1="253" x2="330" y2="364" />
  <line x1="376" y1="253" x2="310" y2="353" />
  <line x1="376" y1="253" x2="291" y2="338" />
  <line x1="376" y1="253" x2="276" y2="320" />
  <line x1="376" y1="253" x2="265" y2="299" />
  <line x1="376" y1="253" x2="259" y2="277" />
  <line x1="376" y1="253" x2="256" y2="253" />
  <line x1="376" y1="253" x2="259" y2="230" />
  <line x1="376" y1="253" x2="265" y2="208" />
  <line x1="376" y1="253" x2="276" y2="187" />
  <line x1="376" y1="253" x2="291" y2="169" />
  <line x1="376" y1="253" x2="310" y2="154" />
  <line x1="376" y1="253" x2="330" y2="143" />
  <line x1="376" y1="253" x2="353" y2="136" />
  <line x1="376" y1="253" x2="376" y2="133" />
  <line x1="376" y1="253" x2="400" y2="136" />
  <line x1="376" y1="253" x2="422" y2="143" />
  <line x1="376" y1="253" x2="443" y2="154" />
  <line x1="376" y1="253" x2="461" y2="169" />
  <line x1="376" y1="253" x2="476" y2="187" />
  <line x1="376" y1="253" x2="487" y2="208" />
  <line x1="376" y1="253" x2="494" y2="230" />
  <circle cx="268" cy="319" r="10"
          style="fill:red;" />
  <circle cx="30" cy="316" r="10"
          style="fill:red;" />
  <circle cx="134" cy="133" r="10"
          style="fill:red;" />
  <circle cx="76" cy="67" r="10"
          style="fill:red;" />
  <circle cx="218" cy="40" r="10"
          style="fill:red;" />
  <circle cx="361" cy="431" r="10"
          style="fill:red;" />
  <circle cx="437" cy="218" r="10"
          style="fill:red;" />
  <circle cx="635" cy="399" r="10"
          style="fill:red;" />
  <circle cx="610" cy="48" r="10"
          style="fill:red;" />
  <circle cx="145" cy="67" r="10"
          style="fill:red;" />
  <circle cx="539" cy="213" r="10"
          style="fill:red;" />
  <circle cx="577" cy="49" r="10"
          style="fill:red;" />
  <circle cx="543" cy="442" r="10"
          style="fill:red;" />
  <circle cx="665" cy="30" r="10"
          style="fill:red;" />
  <circle cx="460" cy="273" r="10"
          style="fill:red;" />
  <circle cx="243" cy="330" r="10"
          style="fill:red;" />
  <circle cx="439" cy="301" r="10"
          style="fill:red;" />
  <circle cx="564" cy="468" r="10"
          style="fill:red;" />
  <circle cx="275" cy="406" r="10"
          style="fill:red;" />
  <circle cx="695" cy="144" r="10"
          style="fill:red;" />
  <circle cx="185" cy="32" r="10"
          style="fill:red;" />
  <circle cx="432" cy="180" r="10"
          style="fill:red;" />
  <circle cx="321" cy="52" r="10"
          style="fill:red;" />
  <circle cx="270" cy="418" r="10"
          style="fill:red;" />
  <circle cx="421" cy="418" r="10"
          style="fill:red;" />
  <circle cx="338" cy="365" r="10"
          style="fill:green;" />
  <circle cx="460" cy="142" r="10"
          style="fill:green;" />
  <circle cx="591" cy="61" r="10"
          style="fill:green;" />
  <circle cx="458" cy="336" r="10"
          style="fill:green;" />
  <circle cx="519" cy="371" r="10"
          style="fill:green;" />
  <circle cx="399" cy="276" r="10"
          style="fill:green;" />
  <circle cx="358" cy="418" r="10"
          style="fill:green;" />
  <circle cx="610" cy="413" r="10"
          style="fill:green;" />
  <circle cx="431" cy="447" r="10"
          style="fill:green;" />
  <circle cx="134" cy="313" r="10"
          style="fill:green;" />
  <circle cx="689" cy="255" r="10"
          style="fill:green;" />
  <circle cx="526" cy="484" r="10"
          style="fill:green;" />
  <circle cx="558" cy="377" r="10"
          style="fill:green;" />
  <circle cx="144" cy="155" r="10"
          style="fill:green;" />
  <circle cx="184" cy="138" r="10"
          style="fill:green;" />
  <circle cx="123" cy="371" r="10"
          style="fill:green;" />
  <circle cx="368" cy="373" r="10"
          style="fill:green;" />
  <circle cx="471" cy="471" r="10"
          style="fill:green;" />
  <circle cx="666" cy="27" r="10"
          style="fill:green;" />
  <circle cx="75" cy="354" r="10"
          style="fill:green;" />
  <circle cx="543" cy="382" r="10"
          style="fill:green;" />
  <circle cx="576" cy="387" r="10"
          style="fill:green;" />
  <circle cx="431" cy="342" r="10"
          style="fill:green;" />
  <circle cx="134" cy="178" r="10"
          style="fill:green;" />
  <circle cx="245" cy="245" r="10"
          style="fill:green;" />
  <circle cx="662" cy="78" r="10"
          style="fill:orange;" />
  <circle cx="511" cy="414" r="10"
          style="fill:orange;" />
  <circle cx="501" cy="476" r="10"
          style="fill:orange;" />
  <circle cx="192" cy="247" r="10"
          style="fill:orange;" />
  <circle cx="570" cy="200" r="10"
          style="fill:orange;" />
  <circle cx="376" cy="253" r="10"
          style="fill:yellow;" />
  <text x="10" y="535" font-size="15">
   DTW        = 234.0
  </text>
  <text x="10" y="555" font-size="15">
   experience = 3
  </text>
  <text x="10" y="575" font-size="15">
   reward = 0.0
  </text>
  <text x="10" y="595" font-size="15">
   objects eaten => 
  </text>
 </g>
</svg>
