<?xml version="1.0"?>
<svg height="600" width="720" >
 <g style="fill-opacity:1.0; stroke:black;
  stroke-width:1;">
  <rect x="10" y="10" height="500"
        width="700" style="fill:none;" />
  <line x1="373" y1="252" x2="493" y2="252" />
  <line x1="373" y1="252" x2="491" y2="275" />
  <line x1="373" y1="252" x2="484" y2="297" />
  <line x1="373" y1="252" x2="473" y2="318" />
  <line x1="373" y1="252" x2="458" y2="336" />
  <line x1="373" y1="252" x2="440" y2="351" />
  <line x1="373" y1="252" x2="419" y2="362" />
  <line x1="373" y1="252" x2="397" y2="369" />
  <line x1="373" y1="252" x2="373" y2="372" />
  <line x1="373" y1="252" x2="350" y2="369" />
  <line x1="373" y1="252" x2="327" y2="362" />
  <line x1="373" y1="252" x2="307" y2="351" />
  <line x1="373" y1="252" x2="289" y2="336" />
  <line x1="373" y1="252" x2="274" y2="318" />
  <line x1="373" y1="252" x2="263" y2="297" />
  <line x1="373" y1="252" x2="256" y2="275" />
  <line x1="373" y1="252" x2="253" y2="252" />
  <line x1="373" y1="252" x2="256" y2="228" />
  <line x1="373" y1="252" x2="263" y2="206" />
  <line x1="373" y1="252" x2="274" y2="185" />
  <line x1="373" y1="252" x2="289" y2="167" />
  <line x1="373" y1="252" x2="307" y2="152" />
  <line x1="373" y1="252" x2="327" y2="141" />
  <line x1="373" y1="252" x2="350" y2="134" />
  <line x1="373" y1="252" x2="373" y2="132" />
  <line x1="373" y1="252" x2="397" y2="134" />
  <line x1="373" y1="252" x2="419" y2="141" />
  <line x1="373" y1="252" x2="440" y2="152" />
  <line x1="373" y1="252" x2="458" y2="167" />
  <line x1="373" y1="252" x2="473" y2="185" />
  <line x1="373" y1="252" x2="484" y2="206" />
  <line x1="373" y1="252" x2="491" y2="228" />
  <circle cx="268" cy="321" r="10"
          style="fill:red;" />
  <circle cx="30" cy="319" r="10"
          style="fill:red;" />
  <circle cx="135" cy="130" r="10"
          style="fill:red;" />
  <circle cx="75" cy="68" r="10"
          style="fill:red;" />
  <circle cx="220" cy="39" r="10"
          style="fill:red;" />
  <circle cx="360" cy="431" r="10"
          style="fill:red;" />
  <circle cx="435" cy="219" r="10"
          style="fill:red;" />
  <circle cx="634" cy="396" r="10"
          style="fill:red;" />
  <circle cx="611" cy="47" r="10"
          style="fill:red;" />
  <circle cx="142" cy="70" r="10"
          style="fill:red;" />
  <circle cx="540" cy="216" r="10"
          style="fill:red;" />
  <circle cx="578" cy="49" r="10"
          style="fill:red;" />
  <circle cx="541" cy="441" r="10"
          style="fill:red;" />
  <circle cx="668" cy="28" r="10"
          style="fill:red;" />
  <circle cx="459" cy="273" r="10"
          style="fill:red;" />
  <circle cx="242" cy="328" r="10"
          style="fill:red;" />
  <circle cx="438" cy="304" r="10"
          style="fill:red;" />
  <circle cx="565" cy="465" r="10"
          style="fill:red;" />
  <circle cx="277" cy="404" r="10"
          style="fill:red;" />
  <circle cx="693" cy="142" r="10"
          style="fill:red;" />
  <circle cx="184" cy="35" r="10"
          style="fill:red;" />
  <circle cx="430" cy="181" r="10"
          style="fill:red;" />
  <circle cx="319" cy="55" r="10"
          style="fill:red;" />
  <circle cx="268" cy="420" r="10"
          style="fill:red;" />
  <circle cx="422" cy="415" r="10"
          style="fill:red;" />
  <circle cx="340" cy="363" r="10"
          style="fill:green;" />
  <circle cx="459" cy="142" r="10"
          style="fill:green;" />
  <circle cx="593" cy="58" r="10"
          style="fill:green;" />
  <circle cx="459" cy="339" r="10"
          style="fill:green;" />
  <circle cx="516" cy="369" r="10"
          style="fill:green;" />
  <circle cx="397" cy="274" r="10"
          style="fill:green;" />
  <circle cx="356" cy="420" r="10"
          style="fill:green;" />
  <circle cx="607" cy="411" r="10"
          style="fill:green;" />
  <circle cx="434" cy="444" r="10"
          style="fill:green;" />
  <circle cx="133" cy="312" r="10"
          style="fill:green;" />
  <circle cx="692" cy="253" r="10"
          style="fill:green;" />
  <circle cx="525" cy="482" r="10"
          style="fill:green;" />
  <circle cx="561" cy="375" r="10"
          style="fill:green;" />
  <circle cx="144" cy="158" r="10"
          style="fill:green;" />
  <circle cx="187" cy="138" r="10"
          style="fill:green;" />
  <circle cx="125" cy="371" r="10"
          style="fill:green;" />
  <circle cx="370" cy="371" r="10"
          style="fill:green;" />
  <circle cx="468" cy="471" r="10"
          style="fill:green;" />
  <circle cx="663" cy="28" r="10"
          style="fill:green;" />
  <circle cx="76" cy="353" r="10"
          style="fill:green;" />
  <circle cx="544" cy="383" r="10"
          style="fill:green;" />
  <circle cx="574" cy="390" r="10"
          style="fill:green;" />
  <circle cx="434" cy="342" r="10"
          style="fill:green;" />
  <circle cx="131" cy="179" r="10"
          style="fill:green;" />
  <circle cx="244" cy="245" r="10"
          style="fill:green;" />
  <circle cx="661" cy="79" r="10"
          style="fill:orange;" />
  <circle cx="510" cy="411" r="10"
          style="fill:orange;" />
  <circle cx="504" cy="475" r="10"
          style="fill:orange;" />
  <circle cx="192" cy="246" r="10"
          style="fill:orange;" />
  <circle cx="573" cy="197" r="10"
          style="fill:orange;" />
  <circle cx="373" cy="252" r="10"
          style="fill:yellow;" />
  <text x="10" y="535" font-size="15">
   DTW        = 232.1
  </text>
  <text x="10" y="555" font-size="15">
   experience = 3
  </text>
  <text x="10" y="575" font-size="15">
   reward = 0.0
  </text>
  <text x="10" y="595" font-size="15">
   objects eaten => 
  </text>
 </g>
</svg>
