<?xml version="1.0"?>
<svg height="600" width="720" >
 <g style="fill-opacity:1.0; stroke:black;
  stroke-width:1;">
  <rect x="10" y="10" height="500"
        width="700" style="fill:none;" />
  <line x1="410" y1="304" x2="530" y2="304" />
  <line x1="410" y1="304" x2="527" y2="327" />
  <line x1="410" y1="304" x2="520" y2="349" />
  <line x1="410" y1="304" x2="509" y2="370" />
  <line x1="410" y1="304" x2="494" y2="388" />
  <line x1="410" y1="304" x2="476" y2="403" />
  <line x1="410" y1="304" x2="455" y2="414" />
  <line x1="410" y1="304" x2="433" y2="421" />
  <line x1="410" y1="304" x2="410" y2="424" />
  <line x1="410" y1="304" x2="386" y2="421" />
  <line x1="410" y1="304" x2="364" y2="414" />
  <line x1="410" y1="304" x2="343" y2="403" />
  <line x1="410" y1="304" x2="325" y2="388" />
  <line x1="410" y1="304" x2="310" y2="370" />
  <line x1="410" y1="304" x2="299" y2="349" />
  <line x1="410" y1="304" x2="292" y2="327" />
  <line x1="410" y1="304" x2="290" y2="304" />
  <line x1="410" y1="304" x2="292" y2="280" />
  <line x1="410" y1="304" x2="299" y2="258" />
  <line x1="410" y1="304" x2="310" y2="237" />
  <line x1="410" y1="304" x2="325" y2="219" />
  <line x1="410" y1="304" x2="343" y2="204" />
  <line x1="410" y1="304" x2="364" y2="193" />
  <line x1="410" y1="304" x2="386" y2="186" />
  <line x1="410" y1="304" x2="410" y2="184" />
  <line x1="410" y1="304" x2="433" y2="186" />
  <line x1="410" y1="304" x2="455" y2="193" />
  <line x1="410" y1="304" x2="476" y2="204" />
  <line x1="410" y1="304" x2="494" y2="219" />
  <line x1="410" y1="304" x2="509" y2="237" />
  <line x1="410" y1="304" x2="520" y2="258" />
  <line x1="410" y1="304" x2="527" y2="280" />
  <circle cx="271" cy="265" r="10"
          style="fill:red;" />
  <circle cx="20" cy="265" r="10"
          style="fill:red;" />
  <circle cx="116" cy="196" r="10"
          style="fill:red;" />
  <circle cx="102" cy="48" r="10"
          style="fill:red;" />
  <circle cx="164" cy="65" r="10"
          style="fill:red;" />
  <circle cx="388" cy="450" r="10"
          style="fill:red;" />
  <circle cx="473" cy="196" r="10"
          style="fill:red;" />
  <circle cx="663" cy="448" r="10"
          style="fill:red;" />
  <circle cx="588" cy="70" r="10"
          style="fill:red;" />
  <circle cx="201" cy="26" r="10"
          style="fill:red;" />
  <circle cx="531" cy="152" r="10"
          style="fill:red;" />
  <circle cx="551" cy="34" r="10"
          style="fill:red;" />
  <circle cx="582" cy="457" r="10"
          style="fill:red;" />
  <circle cx="610" cy="62" r="10"
          style="fill:red;" />
  <circle cx="465" cy="276" r="10"
          style="fill:red;" />
  <circle cx="269" cy="371" r="10"
          style="fill:red;" />
  <circle cx="459" cy="245" r="10"
          style="fill:red;" />
  <circle cx="541" cy="480" r="10"
          style="fill:red;" />
  <circle cx="211" cy="451" r="10"
          style="fill:red;" />
  <circle cx="668" cy="193" r="10"
          style="fill:red;" />
  <circle cx="188" cy="68" r="10"
          style="fill:red;" />
  <circle cx="479" cy="150" r="10"
          style="fill:red;" />
  <circle cx="373" cy="33" r="10"
          style="fill:red;" />
  <circle cx="321" cy="370" r="10"
          style="fill:red;" />
  <circle cx="403" cy="480" r="10"
          style="fill:red;" />
  <circle cx="307" cy="404" r="10"
          style="fill:green;" />
  <circle cx="478" cy="133" r="10"
          style="fill:green;" />
  <circle cx="546" cy="121" r="10"
          style="fill:green;" />
  <circle cx="453" cy="274" r="10"
          style="fill:green;" />
  <circle cx="572" cy="429" r="10"
          style="fill:green;" />
  <circle cx="455" cy="321" r="10"
          style="fill:green;" />
  <circle cx="396" cy="382" r="10"
          style="fill:green;" />
  <circle cx="671" cy="462" r="10"
          style="fill:green;" />
  <circle cx="383" cy="495" r="10"
          style="fill:green;" />
  <circle cx="160" cy="338" r="10"
          style="fill:green;" />
  <circle cx="633" cy="300" r="10"
          style="fill:green;" />
  <circle cx="534" cy="483" r="10"
          style="fill:green;" />
  <circle cx="497" cy="431" r="10"
          style="fill:green;" />
  <circle cx="136" cy="102" r="10"
          style="fill:green;" />
  <circle cx="122" cy="150" r="10"
          style="fill:green;" />
  <circle cx="95" cy="384" r="10"
          style="fill:green;" />
  <circle cx="325" cy="414" r="10"
          style="fill:green;" />
  <circle cx="523" cy="474" r="10"
          style="fill:green;" />
  <circle cx="673" cy="38" r="10"
          style="fill:green;" />
  <circle cx="50" cy="379" r="10"
          style="fill:green;" />
  <circle cx="504" cy="364" r="10"
          style="fill:green;" />
  <circle cx="616" cy="323" r="10"
          style="fill:green;" />
  <circle cx="380" cy="346" r="10"
          style="fill:green;" />
  <circle cx="187" cy="172" r="10"
          style="fill:green;" />
  <circle cx="280" cy="237" r="10"
          style="fill:green;" />
  <circle cx="679" cy="58" r="10"
          style="fill:orange;" />
  <circle cx="525" cy="473" r="10"
          style="fill:orange;" />
  <circle cx="452" cy="479" r="10"
          style="fill:orange;" />
  <circle cx="193" cy="263" r="10"
          style="fill:orange;" />
  <circle cx="508" cy="262" r="10"
          style="fill:orange;" />
  <circle cx="410" cy="304" r="10"
          style="fill:yellow;" />
  <text x="10" y="535" font-size="15">
   DTW        = 196.0
  </text>
  <text x="10" y="555" font-size="15">
   experience = 0
  </text>
  <text x="10" y="575" font-size="15">
   reward = 0.0
  </text>
  <text x="10" y="595" font-size="15">
   objects eaten => 
  </text>
 </g>
</svg>
