<?xml version="1.0"?>
<svg height="600" width="720" >
 <g style="fill-opacity:1.0; stroke:black;
  stroke-width:1;">
  <rect x="10" y="10" height="500"
        width="700" style="fill:none;" />
  <line x1="369" y1="244" x2="489" y2="244" />
  <line x1="369" y1="244" x2="486" y2="267" />
  <line x1="369" y1="244" x2="479" y2="290" />
  <line x1="369" y1="244" x2="468" y2="310" />
  <line x1="369" y1="244" x2="453" y2="328" />
  <line x1="369" y1="244" x2="435" y2="343" />
  <line x1="369" y1="244" x2="415" y2="355" />
  <line x1="369" y1="244" x2="392" y2="361" />
  <line x1="369" y1="244" x2="369" y2="364" />
  <line x1="369" y1="244" x2="345" y2="361" />
  <line x1="369" y1="244" x2="323" y2="355" />
  <line x1="369" y1="244" x2="302" y2="343" />
  <line x1="369" y1="244" x2="284" y2="328" />
  <line x1="369" y1="244" x2="269" y2="310" />
  <line x1="369" y1="244" x2="258" y2="290" />
  <line x1="369" y1="244" x2="251" y2="267" />
  <line x1="369" y1="244" x2="249" y2="244" />
  <line x1="369" y1="244" x2="251" y2="220" />
  <line x1="369" y1="244" x2="258" y2="198" />
  <line x1="369" y1="244" x2="269" y2="177" />
  <line x1="369" y1="244" x2="284" y2="159" />
  <line x1="369" y1="244" x2="302" y2="144" />
  <line x1="369" y1="244" x2="323" y2="133" />
  <line x1="369" y1="244" x2="345" y2="126" />
  <line x1="369" y1="244" x2="369" y2="124" />
  <line x1="369" y1="244" x2="392" y2="126" />
  <line x1="369" y1="244" x2="415" y2="133" />
  <line x1="369" y1="244" x2="435" y2="144" />
  <line x1="369" y1="244" x2="453" y2="159" />
  <line x1="369" y1="244" x2="468" y2="177" />
  <line x1="369" y1="244" x2="479" y2="198" />
  <line x1="369" y1="244" x2="486" y2="220" />
  <circle cx="268" cy="326" r="10"
          style="fill:red;" />
  <circle cx="31" cy="324" r="10"
          style="fill:red;" />
  <circle cx="137" cy="124" r="10"
          style="fill:red;" />
  <circle cx="73" cy="70" r="10"
          style="fill:red;" />
  <circle cx="225" cy="36" r="10"
          style="fill:red;" />
  <circle cx="357" cy="429" r="10"
          style="fill:red;" />
  <circle cx="432" cy="221" r="10"
          style="fill:red;" />
  <circle cx="631" cy="392" r="10"
          style="fill:red;" />
  <circle cx="614" cy="45" r="10"
          style="fill:red;" />
  <circle cx="137" cy="75" r="10"
          style="fill:red;" />
  <circle cx="541" cy="221" r="10"
          style="fill:red;" />
  <circle cx="581" cy="51" r="10"
          style="fill:red;" />
  <circle cx="537" cy="440" r="10"
          style="fill:red;" />
  <circle cx="673" cy="25" r="10"
          style="fill:red;" />
  <circle cx="459" cy="272" r="10"
          style="fill:red;" />
  <circle cx="239" cy="325" r="10"
          style="fill:red;" />
  <circle cx="436" cy="309" r="10"
          style="fill:red;" />
  <circle cx="567" cy="461" r="10"
          style="fill:red;" />
  <circle cx="283" cy="400" r="10"
          style="fill:red;" />
  <circle cx="690" cy="138" r="10"
          style="fill:red;" />
  <circle cx="184" cy="40" r="10"
          style="fill:red;" />
  <circle cx="426" cy="184" r="10"
          style="fill:red;" />
  <circle cx="314" cy="59" r="10"
          style="fill:red;" />
  <circle cx="263" cy="425" r="10"
          style="fill:red;" />
  <circle cx="423" cy="409" r="10"
          style="fill:red;" />
  <circle cx="342" cy="359" r="10"
          style="fill:green;" />
  <circle cx="457" cy="143" r="10"
          style="fill:green;" />
  <circle cx="597" cy="53" r="10"
          style="fill:green;" />
  <circle cx="459" cy="345" r="10"
          style="fill:green;" />
  <circle cx="512" cy="363" r="10"
          style="fill:green;" />
  <circle cx="392" cy="270" r="10"
          style="fill:green;" />
  <circle cx="352" cy="423" r="10"
          style="fill:green;" />
  <circle cx="602" cy="407" r="10"
          style="fill:green;" />
  <circle cx="438" cy="439" r="10"
          style="fill:green;" />
  <circle cx="131" cy="309" r="10"
          style="fill:green;" />
  <circle cx="697" cy="249" r="10"
          style="fill:green;" />
  <circle cx="524" cy="480" r="10"
          style="fill:green;" />
  <circle cx="567" cy="370" r="10"
          style="fill:green;" />
  <circle cx="145" cy="163" r="10"
          style="fill:green;" />
  <circle cx="192" cy="137" r="10"
          style="fill:green;" />
  <circle cx="127" cy="370" r="10"
          style="fill:green;" />
  <circle cx="374" cy="367" r="10"
          style="fill:green;" />
  <circle cx="463" cy="471" r="10"
          style="fill:green;" />
  <circle cx="657" cy="30" r="10"
          style="fill:green;" />
  <circle cx="78" cy="350" r="10"
          style="fill:green;" />
  <circle cx="548" cy="384" r="10"
          style="fill:green;" />
  <circle cx="570" cy="396" r="10"
          style="fill:green;" />
  <circle cx="438" cy="341" r="10"
          style="fill:green;" />
  <circle cx="126" cy="179" r="10"
          style="fill:green;" />
  <circle cx="241" cy="246" r="10"
          style="fill:green;" />
  <circle cx="660" cy="81" r="10"
          style="fill:orange;" />
  <circle cx="509" cy="406" r="10"
          style="fill:orange;" />
  <circle cx="508" cy="471" r="10"
          style="fill:orange;" />
  <circle cx="191" cy="244" r="10"
          style="fill:orange;" />
  <circle cx="579" cy="191" r="10"
          style="fill:orange;" />
  <circle cx="369" cy="244" r="10"
          style="fill:yellow;" />
  <text x="10" y="535" font-size="15">
   DTW        = 224.1
  </text>
  <text x="10" y="555" font-size="15">
   experience = 3
  </text>
  <text x="10" y="575" font-size="15">
   reward = 0.0
  </text>
  <text x="10" y="595" font-size="15">
   objects eaten => 
  </text>
 </g>
</svg>
