<?xml version="1.0"?>
<svg height="600" width="720" >
 <g style="fill-opacity:1.0; stroke:black;
  stroke-width:1;">
  <rect x="10" y="10" height="500"
        width="700" style="fill:none;" />
  <line x1="368" y1="241" x2="488" y2="241" />
  <line x1="368" y1="241" x2="485" y2="264" />
  <line x1="368" y1="241" x2="478" y2="287" />
  <line x1="368" y1="241" x2="467" y2="307" />
  <line x1="368" y1="241" x2="452" y2="326" />
  <line x1="368" y1="241" x2="434" y2="341" />
  <line x1="368" y1="241" x2="414" y2="352" />
  <line x1="368" y1="241" x2="391" y2="358" />
  <line x1="368" y1="241" x2="368" y2="361" />
  <line x1="368" y1="241" x2="344" y2="358" />
  <line x1="368" y1="241" x2="322" y2="352" />
  <line x1="368" y1="241" x2="301" y2="341" />
  <line x1="368" y1="241" x2="283" y2="326" />
  <line x1="368" y1="241" x2="268" y2="307" />
  <line x1="368" y1="241" x2="257" y2="287" />
  <line x1="368" y1="241" x2="250" y2="264" />
  <line x1="368" y1="241" x2="248" y2="241" />
  <line x1="368" y1="241" x2="250" y2="217" />
  <line x1="368" y1="241" x2="257" y2="195" />
  <line x1="368" y1="241" x2="268" y2="174" />
  <line x1="368" y1="241" x2="283" y2="156" />
  <line x1="368" y1="241" x2="301" y2="141" />
  <line x1="368" y1="241" x2="322" y2="130" />
  <line x1="368" y1="241" x2="344" y2="123" />
  <line x1="368" y1="241" x2="368" y2="121" />
  <line x1="368" y1="241" x2="391" y2="123" />
  <line x1="368" y1="241" x2="414" y2="130" />
  <line x1="368" y1="241" x2="434" y2="141" />
  <line x1="368" y1="241" x2="452" y2="156" />
  <line x1="368" y1="241" x2="467" y2="174" />
  <line x1="368" y1="241" x2="478" y2="195" />
  <line x1="368" y1="241" x2="485" y2="217" />
  <circle cx="268" cy="327" r="10"
          style="fill:red;" />
  <circle cx="31" cy="325" r="10"
          style="fill:red;" />
  <circle cx="137" cy="123" r="10"
          style="fill:red;" />
  <circle cx="72" cy="71" r="10"
          style="fill:red;" />
  <circle cx="227" cy="36" r="10"
          style="fill:red;" />
  <circle cx="357" cy="429" r="10"
          style="fill:red;" />
  <circle cx="431" cy="221" r="10"
          style="fill:red;" />
  <circle cx="630" cy="391" r="10"
          style="fill:red;" />
  <circle cx="614" cy="44" r="10"
          style="fill:red;" />
  <circle cx="136" cy="76" r="10"
          style="fill:red;" />
  <circle cx="541" cy="223" r="10"
          style="fill:red;" />
  <circle cx="581" cy="51" r="10"
          style="fill:red;" />
  <circle cx="536" cy="440" r="10"
          style="fill:red;" />
  <circle cx="674" cy="24" r="10"
          style="fill:red;" />
  <circle cx="459" cy="272" r="10"
          style="fill:red;" />
  <circle cx="239" cy="324" r="10"
          style="fill:red;" />
  <circle cx="435" cy="310" r="10"
          style="fill:red;" />
  <circle cx="567" cy="460" r="10"
          style="fill:red;" />
  <circle cx="285" cy="399" r="10"
          style="fill:red;" />
  <circle cx="689" cy="136" r="10"
          style="fill:red;" />
  <circle cx="184" cy="42" r="10"
          style="fill:red;" />
  <circle cx="425" cy="185" r="10"
          style="fill:red;" />
  <circle cx="313" cy="60" r="10"
          style="fill:red;" />
  <circle cx="262" cy="426" r="10"
          style="fill:red;" />
  <circle cx="424" cy="408" r="10"
          style="fill:red;" />
  <circle cx="343" cy="358" r="10"
          style="fill:green;" />
  <circle cx="457" cy="143" r="10"
          style="fill:green;" />
  <circle cx="598" cy="51" r="10"
          style="fill:green;" />
  <circle cx="459" cy="346" r="10"
          style="fill:green;" />
  <circle cx="510" cy="362" r="10"
          style="fill:green;" />
  <circle cx="390" cy="269" r="10"
          style="fill:green;" />
  <circle cx="351" cy="424" r="10"
          style="fill:green;" />
  <circle cx="600" cy="406" r="10"
          style="fill:green;" />
  <circle cx="439" cy="438" r="10"
          style="fill:green;" />
  <circle cx="130" cy="309" r="10"
          style="fill:green;" />
  <circle cx="698" cy="248" r="10"
          style="fill:green;" />
  <circle cx="524" cy="479" r="10"
          style="fill:green;" />
  <circle cx="568" cy="368" r="10"
          style="fill:green;" />
  <circle cx="145" cy="164" r="10"
          style="fill:green;" />
  <circle cx="194" cy="137" r="10"
          style="fill:green;" />
  <circle cx="128" cy="369" r="10"
          style="fill:green;" />
  <circle cx="375" cy="366" r="10"
          style="fill:green;" />
  <circle cx="462" cy="471" r="10"
          style="fill:green;" />
  <circle cx="656" cy="31" r="10"
          style="fill:green;" />
  <circle cx="79" cy="350" r="10"
          style="fill:green;" />
  <circle cx="549" cy="385" r="10"
          style="fill:green;" />
  <circle cx="569" cy="397" r="10"
          style="fill:green;" />
  <circle cx="439" cy="341" r="10"
          style="fill:green;" />
  <circle cx="125" cy="179" r="10"
          style="fill:green;" />
  <circle cx="240" cy="246" r="10"
          style="fill:green;" />
  <circle cx="659" cy="81" r="10"
          style="fill:orange;" />
  <circle cx="509" cy="404" r="10"
          style="fill:orange;" />
  <circle cx="510" cy="470" r="10"
          style="fill:orange;" />
  <circle cx="191" cy="244" r="10"
          style="fill:orange;" />
  <circle cx="580" cy="190" r="10"
          style="fill:orange;" />
  <circle cx="368" cy="241" r="10"
          style="fill:yellow;" />
  <text x="10" y="535" font-size="15">
   DTW        = 221.3
  </text>
  <text x="10" y="555" font-size="15">
   experience = 3
  </text>
  <text x="10" y="575" font-size="15">
   reward = 0.0
  </text>
  <text x="10" y="595" font-size="15">
   objects eaten => 
  </text>
 </g>
</svg>
