<?xml version="1.0"?>
<svg height="600" width="720" >
 <g style="fill-opacity:1.0; stroke:black;
  stroke-width:1;">
  <rect x="10" y="10" height="500"
        width="700" style="fill:none;" />
  <line x1="366" y1="235" x2="486" y2="235" />
  <line x1="366" y1="235" x2="483" y2="259" />
  <line x1="366" y1="235" x2="476" y2="281" />
  <line x1="366" y1="235" x2="465" y2="302" />
  <line x1="366" y1="235" x2="450" y2="320" />
  <line x1="366" y1="235" x2="432" y2="335" />
  <line x1="366" y1="235" x2="412" y2="346" />
  <line x1="366" y1="235" x2="389" y2="353" />
  <line x1="366" y1="235" x2="366" y2="355" />
  <line x1="366" y1="235" x2="342" y2="353" />
  <line x1="366" y1="235" x2="320" y2="346" />
  <line x1="366" y1="235" x2="299" y2="335" />
  <line x1="366" y1="235" x2="281" y2="320" />
  <line x1="366" y1="235" x2="266" y2="302" />
  <line x1="366" y1="235" x2="255" y2="281" />
  <line x1="366" y1="235" x2="248" y2="259" />
  <line x1="366" y1="235" x2="246" y2="235" />
  <line x1="366" y1="235" x2="248" y2="212" />
  <line x1="366" y1="235" x2="255" y2="189" />
  <line x1="366" y1="235" x2="266" y2="168" />
  <line x1="366" y1="235" x2="281" y2="150" />
  <line x1="366" y1="235" x2="299" y2="135" />
  <line x1="366" y1="235" x2="320" y2="124" />
  <line x1="366" y1="235" x2="342" y2="117" />
  <line x1="366" y1="235" x2="366" y2="115" />
  <line x1="366" y1="235" x2="389" y2="117" />
  <line x1="366" y1="235" x2="412" y2="124" />
  <line x1="366" y1="235" x2="432" y2="135" />
  <line x1="366" y1="235" x2="450" y2="150" />
  <line x1="366" y1="235" x2="465" y2="168" />
  <line x1="366" y1="235" x2="476" y2="189" />
  <line x1="366" y1="235" x2="483" y2="212" />
  <circle cx="268" cy="330" r="10"
          style="fill:red;" />
  <circle cx="32" cy="327" r="10"
          style="fill:red;" />
  <circle cx="138" cy="120" r="10"
          style="fill:red;" />
  <circle cx="71" cy="72" r="10"
          style="fill:red;" />
  <circle cx="229" cy="35" r="10"
          style="fill:red;" />
  <circle cx="355" cy="428" r="10"
          style="fill:red;" />
  <circle cx="430" cy="222" r="10"
          style="fill:red;" />
  <circle cx="629" cy="388" r="10"
          style="fill:red;" />
  <circle cx="615" cy="43" r="10"
          style="fill:red;" />
  <circle cx="133" cy="79" r="10"
          style="fill:red;" />
  <circle cx="541" cy="226" r="10"
          style="fill:red;" />
  <circle cx="583" cy="52" r="10"
          style="fill:red;" />
  <circle cx="534" cy="439" r="10"
          style="fill:red;" />
  <circle cx="677" cy="23" r="10"
          style="fill:red;" />
  <circle cx="458" cy="272" r="10"
          style="fill:red;" />
  <circle cx="237" cy="322" r="10"
          style="fill:red;" />
  <circle cx="434" cy="313" r="10"
          style="fill:red;" />
  <circle cx="568" cy="457" r="10"
          style="fill:red;" />
  <circle cx="288" cy="397" r="10"
          style="fill:red;" />
  <circle cx="688" cy="134" r="10"
          style="fill:red;" />
  <circle cx="184" cy="45" r="10"
          style="fill:red;" />
  <circle cx="423" cy="186" r="10"
          style="fill:red;" />
  <circle cx="310" cy="63" r="10"
          style="fill:red;" />
  <circle cx="259" cy="428" r="10"
          style="fill:red;" />
  <circle cx="424" cy="405" r="10"
          style="fill:red;" />
  <circle cx="345" cy="357" r="10"
          style="fill:green;" />
  <circle cx="456" cy="143" r="10"
          style="fill:green;" />
  <circle cx="600" cy="48" r="10"
          style="fill:green;" />
  <circle cx="460" cy="349" r="10"
          style="fill:green;" />
  <circle cx="508" cy="359" r="10"
          style="fill:green;" />
  <circle cx="388" cy="267" r="10"
          style="fill:green;" />
  <circle cx="350" cy="426" r="10"
          style="fill:green;" />
  <circle cx="597" cy="403" r="10"
          style="fill:green;" />
  <circle cx="442" cy="435" r="10"
          style="fill:green;" />
  <circle cx="129" cy="307" r="10"
          style="fill:green;" />
  <circle cx="698" cy="246" r="10"
          style="fill:green;" />
  <circle cx="524" cy="477" r="10"
          style="fill:green;" />
  <circle cx="571" cy="366" r="10"
          style="fill:green;" />
  <circle cx="145" cy="167" r="10"
          style="fill:green;" />
  <circle cx="197" cy="136" r="10"
          style="fill:green;" />
  <circle cx="129" cy="369" r="10"
          style="fill:green;" />
  <circle cx="377" cy="364" r="10"
          style="fill:green;" />
  <circle cx="460" cy="471" r="10"
          style="fill:green;" />
  <circle cx="653" cy="32" r="10"
          style="fill:green;" />
  <circle cx="80" cy="349" r="10"
          style="fill:green;" />
  <circle cx="551" cy="385" r="10"
          style="fill:green;" />
  <circle cx="567" cy="400" r="10"
          style="fill:green;" />
  <circle cx="442" cy="341" r="10"
          style="fill:green;" />
  <circle cx="123" cy="180" r="10"
          style="fill:green;" />
  <circle cx="238" cy="246" r="10"
          style="fill:green;" />
  <circle cx="658" cy="82" r="10"
          style="fill:orange;" />
  <circle cx="508" cy="401" r="10"
          style="fill:orange;" />
  <circle cx="512" cy="468" r="10"
          style="fill:orange;" />
  <circle cx="191" cy="243" r="10"
          style="fill:orange;" />
  <circle cx="583" cy="187" r="10"
          style="fill:orange;" />
  <circle cx="366" cy="235" r="10"
          style="fill:yellow;" />
  <text x="10" y="535" font-size="15">
   DTW        = 215.6
  </text>
  <text x="10" y="555" font-size="15">
   experience = 3
  </text>
  <text x="10" y="575" font-size="15">
   reward = 0.0
  </text>
  <text x="10" y="595" font-size="15">
   objects eaten => 
  </text>
 </g>
</svg>
