<?xml version="1.0"?>
<svg height="600" width="720" >
 <g style="fill-opacity:1.0; stroke:black;
  stroke-width:1;">
  <rect x="10" y="10" height="500"
        width="700" style="fill:none;" />
  <line x1="364" y1="234" x2="484" y2="234" />
  <line x1="364" y1="234" x2="482" y2="257" />
  <line x1="364" y1="234" x2="475" y2="279" />
  <line x1="364" y1="234" x2="464" y2="300" />
  <line x1="364" y1="234" x2="449" y2="318" />
  <line x1="364" y1="234" x2="431" y2="333" />
  <line x1="364" y1="234" x2="410" y2="344" />
  <line x1="364" y1="234" x2="387" y2="351" />
  <line x1="364" y1="234" x2="364" y2="354" />
  <line x1="364" y1="234" x2="341" y2="351" />
  <line x1="364" y1="234" x2="318" y2="344" />
  <line x1="364" y1="234" x2="297" y2="333" />
  <line x1="364" y1="234" x2="279" y2="318" />
  <line x1="364" y1="234" x2="264" y2="300" />
  <line x1="364" y1="234" x2="253" y2="279" />
  <line x1="364" y1="234" x2="246" y2="257" />
  <line x1="364" y1="234" x2="244" y2="234" />
  <line x1="364" y1="234" x2="246" y2="210" />
  <line x1="364" y1="234" x2="253" y2="188" />
  <line x1="364" y1="234" x2="264" y2="167" />
  <line x1="364" y1="234" x2="279" y2="149" />
  <line x1="364" y1="234" x2="297" y2="134" />
  <line x1="364" y1="234" x2="318" y2="123" />
  <line x1="364" y1="234" x2="341" y2="116" />
  <line x1="364" y1="234" x2="364" y2="114" />
  <line x1="364" y1="234" x2="387" y2="116" />
  <line x1="364" y1="234" x2="410" y2="123" />
  <line x1="364" y1="234" x2="431" y2="134" />
  <line x1="364" y1="234" x2="449" y2="149" />
  <line x1="364" y1="234" x2="464" y2="167" />
  <line x1="364" y1="234" x2="475" y2="188" />
  <line x1="364" y1="234" x2="482" y2="210" />
  <circle cx="268" cy="332" r="10"
          style="fill:red;" />
  <circle cx="32" cy="329" r="10"
          style="fill:red;" />
  <circle cx="139" cy="117" r="10"
          style="fill:red;" />
  <circle cx="70" cy="72" r="10"
          style="fill:red;" />
  <circle cx="232" cy="34" r="10"
          style="fill:red;" />
  <circle cx="354" cy="427" r="10"
          style="fill:red;" />
  <circle cx="428" cy="223" r="10"
          style="fill:red;" />
  <circle cx="628" cy="386" r="10"
          style="fill:red;" />
  <circle cx="616" cy="42" r="10"
          style="fill:red;" />
  <circle cx="131" cy="81" r="10"
          style="fill:red;" />
  <circle cx="542" cy="229" r="10"
          style="fill:red;" />
  <circle cx="584" cy="52" r="10"
          style="fill:red;" />
  <circle cx="533" cy="438" r="10"
          style="fill:red;" />
  <circle cx="680" cy="21" r="10"
          style="fill:red;" />
  <circle cx="458" cy="272" r="10"
          style="fill:red;" />
  <circle cx="236" cy="320" r="10"
          style="fill:red;" />
  <circle cx="434" cy="315" r="10"
          style="fill:red;" />
  <circle cx="569" cy="455" r="10"
          style="fill:red;" />
  <circle cx="291" cy="395" r="10"
          style="fill:red;" />
  <circle cx="686" cy="132" r="10"
          style="fill:red;" />
  <circle cx="184" cy="48" r="10"
          style="fill:red;" />
  <circle cx="420" cy="187" r="10"
          style="fill:red;" />
  <circle cx="308" cy="65" r="10"
          style="fill:red;" />
  <circle cx="257" cy="430" r="10"
          style="fill:red;" />
  <circle cx="425" cy="402" r="10"
          style="fill:red;" />
  <circle cx="346" cy="355" r="10"
          style="fill:green;" />
  <circle cx="455" cy="144" r="10"
          style="fill:green;" />
  <circle cx="602" cy="46" r="10"
          style="fill:green;" />
  <circle cx="460" cy="352" r="10"
          style="fill:green;" />
  <circle cx="505" cy="356" r="10"
          style="fill:green;" />
  <circle cx="385" cy="265" r="10"
          style="fill:green;" />
  <circle cx="348" cy="427" r="10"
          style="fill:green;" />
  <circle cx="595" cy="401" r="10"
          style="fill:green;" />
  <circle cx="444" cy="433" r="10"
          style="fill:green;" />
  <circle cx="128" cy="306" r="10"
          style="fill:green;" />
  <circle cx="696" cy="244" r="10"
          style="fill:green;" />
  <circle cx="523" cy="476" r="10"
          style="fill:green;" />
  <circle cx="574" cy="363" r="10"
          style="fill:green;" />
  <circle cx="146" cy="169" r="10"
          style="fill:green;" />
  <circle cx="199" cy="136" r="10"
          style="fill:green;" />
  <circle cx="131" cy="368" r="10"
          style="fill:green;" />
  <circle cx="379" cy="362" r="10"
          style="fill:green;" />
  <circle cx="457" cy="471" r="10"
          style="fill:green;" />
  <circle cx="651" cy="33" r="10"
          style="fill:green;" />
  <circle cx="81" cy="347" r="10"
          style="fill:green;" />
  <circle cx="552" cy="386" r="10"
          style="fill:green;" />
  <circle cx="565" cy="403" r="10"
          style="fill:green;" />
  <circle cx="444" cy="341" r="10"
          style="fill:green;" />
  <circle cx="120" cy="180" r="10"
          style="fill:green;" />
  <circle cx="237" cy="247" r="10"
          style="fill:green;" />
  <circle cx="658" cy="83" r="10"
          style="fill:orange;" />
  <circle cx="507" cy="399" r="10"
          style="fill:orange;" />
  <circle cx="514" cy="466" r="10"
          style="fill:orange;" />
  <circle cx="191" cy="242" r="10"
          style="fill:orange;" />
  <circle cx="586" cy="184" r="10"
          style="fill:orange;" />
  <circle cx="364" cy="234" r="10"
          style="fill:yellow;" />
  <text x="10" y="535" font-size="15">
   DTW        = 214.0
  </text>
  <text x="10" y="555" font-size="15">
   experience = 3
  </text>
  <text x="10" y="575" font-size="15">
   reward = 0.0
  </text>
  <text x="10" y="595" font-size="15">
   objects eaten => 
  </text>
 </g>
</svg>
