<?xml version="1.0"?>
<svg height="600" width="720" >
 <g style="fill-opacity:1.0; stroke:black;
  stroke-width:1;">
  <rect x="10" y="10" height="500"
        width="700" style="fill:none;" />
  <line x1="362" y1="232" x2="482" y2="232" />
  <line x1="362" y1="232" x2="480" y2="255" />
  <line x1="362" y1="232" x2="473" y2="278" />
  <line x1="362" y1="232" x2="462" y2="299" />
  <line x1="362" y1="232" x2="447" y2="317" />
  <line x1="362" y1="232" x2="429" y2="332" />
  <line x1="362" y1="232" x2="408" y2="343" />
  <line x1="362" y1="232" x2="386" y2="350" />
  <line x1="362" y1="232" x2="362" y2="352" />
  <line x1="362" y1="232" x2="339" y2="350" />
  <line x1="362" y1="232" x2="316" y2="343" />
  <line x1="362" y1="232" x2="296" y2="332" />
  <line x1="362" y1="232" x2="278" y2="317" />
  <line x1="362" y1="232" x2="263" y2="299" />
  <line x1="362" y1="232" x2="251" y2="278" />
  <line x1="362" y1="232" x2="245" y2="255" />
  <line x1="362" y1="232" x2="242" y2="232" />
  <line x1="362" y1="232" x2="245" y2="209" />
  <line x1="362" y1="232" x2="251" y2="186" />
  <line x1="362" y1="232" x2="263" y2="165" />
  <line x1="362" y1="232" x2="278" y2="147" />
  <line x1="362" y1="232" x2="296" y2="132" />
  <line x1="362" y1="232" x2="316" y2="121" />
  <line x1="362" y1="232" x2="339" y2="114" />
  <line x1="362" y1="232" x2="362" y2="112" />
  <line x1="362" y1="232" x2="386" y2="114" />
  <line x1="362" y1="232" x2="408" y2="121" />
  <line x1="362" y1="232" x2="429" y2="132" />
  <line x1="362" y1="232" x2="447" y2="147" />
  <line x1="362" y1="232" x2="462" y2="165" />
  <line x1="362" y1="232" x2="473" y2="186" />
  <line x1="362" y1="232" x2="480" y2="209" />
  <circle cx="267" cy="335" r="10"
          style="fill:red;" />
  <circle cx="32" cy="332" r="10"
          style="fill:red;" />
  <circle cx="140" cy="114" r="10"
          style="fill:red;" />
  <circle cx="68" cy="73" r="10"
          style="fill:red;" />
  <circle cx="234" cy="32" r="10"
          style="fill:red;" />
  <circle cx="353" cy="426" r="10"
          style="fill:red;" />
  <circle cx="426" cy="224" r="10"
          style="fill:red;" />
  <circle cx="626" cy="384" r="10"
          style="fill:red;" />
  <circle cx="617" cy="41" r="10"
          style="fill:red;" />
  <circle cx="128" cy="84" r="10"
          style="fill:red;" />
  <circle cx="542" cy="231" r="10"
          style="fill:red;" />
  <circle cx="585" cy="53" r="10"
          style="fill:red;" />
  <circle cx="531" cy="437" r="10"
          style="fill:red;" />
  <circle cx="682" cy="20" r="10"
          style="fill:red;" />
  <circle cx="458" cy="272" r="10"
          style="fill:red;" />
  <circle cx="235" cy="318" r="10"
          style="fill:red;" />
  <circle cx="433" cy="318" r="10"
          style="fill:red;" />
  <circle cx="570" cy="453" r="10"
          style="fill:red;" />
  <circle cx="294" cy="393" r="10"
          style="fill:red;" />
  <circle cx="684" cy="130" r="10"
          style="fill:red;" />
  <circle cx="184" cy="50" r="10"
          style="fill:red;" />
  <circle cx="418" cy="189" r="10"
          style="fill:red;" />
  <circle cx="305" cy="67" r="10"
          style="fill:red;" />
  <circle cx="255" cy="433" r="10"
          style="fill:red;" />
  <circle cx="426" cy="399" r="10"
          style="fill:red;" />
  <circle cx="348" cy="353" r="10"
          style="fill:green;" />
  <circle cx="454" cy="144" r="10"
          style="fill:green;" />
  <circle cx="604" cy="43" r="10"
          style="fill:green;" />
  <circle cx="460" cy="355" r="10"
          style="fill:green;" />
  <circle cx="503" cy="354" r="10"
          style="fill:green;" />
  <circle cx="383" cy="263" r="10"
          style="fill:green;" />
  <circle cx="346" cy="429" r="10"
          style="fill:green;" />
  <circle cx="592" cy="399" r="10"
          style="fill:green;" />
  <circle cx="446" cy="430" r="10"
          style="fill:green;" />
  <circle cx="127" cy="305" r="10"
          style="fill:green;" />
  <circle cx="693" cy="242" r="10"
          style="fill:green;" />
  <circle cx="523" cy="475" r="10"
          style="fill:green;" />
  <circle cx="577" cy="361" r="10"
          style="fill:green;" />
  <circle cx="146" cy="172" r="10"
          style="fill:green;" />
  <circle cx="202" cy="135" r="10"
          style="fill:green;" />
  <circle cx="132" cy="367" r="10"
          style="fill:green;" />
  <circle cx="381" cy="360" r="10"
          style="fill:green;" />
  <circle cx="455" cy="471" r="10"
          style="fill:green;" />
  <circle cx="648" cy="34" r="10"
          style="fill:green;" />
  <circle cx="82" cy="346" r="10"
          style="fill:green;" />
  <circle cx="554" cy="387" r="10"
          style="fill:green;" />
  <circle cx="563" cy="406" r="10"
          style="fill:green;" />
  <circle cx="447" cy="341" r="10"
          style="fill:green;" />
  <circle cx="118" cy="180" r="10"
          style="fill:green;" />
  <circle cx="235" cy="247" r="10"
          style="fill:green;" />
  <circle cx="657" cy="84" r="10"
          style="fill:orange;" />
  <circle cx="507" cy="396" r="10"
          style="fill:orange;" />
  <circle cx="516" cy="464" r="10"
          style="fill:orange;" />
  <circle cx="191" cy="242" r="10"
          style="fill:orange;" />
  <circle cx="589" cy="181" r="10"
          style="fill:orange;" />
  <circle cx="362" cy="232" r="10"
          style="fill:yellow;" />
  <text x="10" y="535" font-size="15">
   DTW        = 212.5
  </text>
  <text x="10" y="555" font-size="15">
   experience = 4
  </text>
  <text x="10" y="575" font-size="15">
   reward = 0.0
  </text>
  <text x="10" y="595" font-size="15">
   objects eaten => 
  </text>
 </g>
</svg>
