<?xml version="1.0"?>
<svg height="600" width="720" >
 <g style="fill-opacity:1.0; stroke:black;
  stroke-width:1;">
  <rect x="10" y="10" height="500"
        width="700" style="fill:none;" />
  <line x1="363" y1="231" x2="483" y2="231" />
  <line x1="363" y1="231" x2="481" y2="255" />
  <line x1="363" y1="231" x2="474" y2="277" />
  <line x1="363" y1="231" x2="463" y2="298" />
  <line x1="363" y1="231" x2="448" y2="316" />
  <line x1="363" y1="231" x2="430" y2="331" />
  <line x1="363" y1="231" x2="409" y2="342" />
  <line x1="363" y1="231" x2="387" y2="349" />
  <line x1="363" y1="231" x2="363" y2="351" />
  <line x1="363" y1="231" x2="340" y2="349" />
  <line x1="363" y1="231" x2="317" y2="342" />
  <line x1="363" y1="231" x2="297" y2="331" />
  <line x1="363" y1="231" x2="278" y2="316" />
  <line x1="363" y1="231" x2="263" y2="298" />
  <line x1="363" y1="231" x2="252" y2="277" />
  <line x1="363" y1="231" x2="246" y2="255" />
  <line x1="363" y1="231" x2="243" y2="231" />
  <line x1="363" y1="231" x2="246" y2="208" />
  <line x1="363" y1="231" x2="252" y2="185" />
  <line x1="363" y1="231" x2="263" y2="165" />
  <line x1="363" y1="231" x2="278" y2="147" />
  <line x1="363" y1="231" x2="297" y2="132" />
  <line x1="363" y1="231" x2="317" y2="120" />
  <line x1="363" y1="231" x2="340" y2="114" />
  <line x1="363" y1="231" x2="363" y2="111" />
  <line x1="363" y1="231" x2="387" y2="114" />
  <line x1="363" y1="231" x2="409" y2="120" />
  <line x1="363" y1="231" x2="430" y2="132" />
  <line x1="363" y1="231" x2="448" y2="147" />
  <line x1="363" y1="231" x2="463" y2="165" />
  <line x1="363" y1="231" x2="474" y2="185" />
  <line x1="363" y1="231" x2="481" y2="208" />
  <circle cx="267" cy="336" r="10"
          style="fill:red;" />
  <circle cx="33" cy="333" r="10"
          style="fill:red;" />
  <circle cx="141" cy="113" r="10"
          style="fill:red;" />
  <circle cx="68" cy="74" r="10"
          style="fill:red;" />
  <circle cx="235" cy="32" r="10"
          style="fill:red;" />
  <circle cx="352" cy="426" r="10"
          style="fill:red;" />
  <circle cx="425" cy="225" r="10"
          style="fill:red;" />
  <circle cx="626" cy="383" r="10"
          style="fill:red;" />
  <circle cx="618" cy="41" r="10"
          style="fill:red;" />
  <circle cx="127" cy="85" r="10"
          style="fill:red;" />
  <circle cx="542" cy="233" r="10"
          style="fill:red;" />
  <circle cx="586" cy="53" r="10"
          style="fill:red;" />
  <circle cx="530" cy="437" r="10"
          style="fill:red;" />
  <circle cx="684" cy="19" r="10"
          style="fill:red;" />
  <circle cx="458" cy="272" r="10"
          style="fill:red;" />
  <circle cx="234" cy="317" r="10"
          style="fill:red;" />
  <circle cx="432" cy="319" r="10"
          style="fill:red;" />
  <circle cx="571" cy="452" r="10"
          style="fill:red;" />
  <circle cx="295" cy="392" r="10"
          style="fill:red;" />
  <circle cx="683" cy="129" r="10"
          style="fill:red;" />
  <circle cx="184" cy="52" r="10"
          style="fill:red;" />
  <circle cx="417" cy="189" r="10"
          style="fill:red;" />
  <circle cx="304" cy="68" r="10"
          style="fill:red;" />
  <circle cx="254" cy="434" r="10"
          style="fill:red;" />
  <circle cx="426" cy="397" r="10"
          style="fill:red;" />
  <circle cx="348" cy="352" r="10"
          style="fill:green;" />
  <circle cx="454" cy="144" r="10"
          style="fill:green;" />
  <circle cx="605" cy="41" r="10"
          style="fill:green;" />
  <circle cx="460" cy="356" r="10"
          style="fill:green;" />
  <circle cx="502" cy="352" r="10"
          style="fill:green;" />
  <circle cx="381" cy="262" r="10"
          style="fill:green;" />
  <circle cx="345" cy="430" r="10"
          style="fill:green;" />
  <circle cx="590" cy="398" r="10"
          style="fill:green;" />
  <circle cx="447" cy="429" r="10"
          style="fill:green;" />
  <circle cx="126" cy="304" r="10"
          style="fill:green;" />
  <circle cx="692" cy="241" r="10"
          style="fill:green;" />
  <circle cx="523" cy="474" r="10"
          style="fill:green;" />
  <circle cx="578" cy="360" r="10"
          style="fill:green;" />
  <circle cx="146" cy="173" r="10"
          style="fill:green;" />
  <circle cx="204" cy="135" r="10"
          style="fill:green;" />
  <circle cx="133" cy="367" r="10"
          style="fill:green;" />
  <circle cx="382" cy="359" r="10"
          style="fill:green;" />
  <circle cx="454" cy="471" r="10"
          style="fill:green;" />
  <circle cx="646" cy="35" r="10"
          style="fill:green;" />
  <circle cx="83" cy="346" r="10"
          style="fill:green;" />
  <circle cx="555" cy="387" r="10"
          style="fill:green;" />
  <circle cx="562" cy="408" r="10"
          style="fill:green;" />
  <circle cx="448" cy="341" r="10"
          style="fill:green;" />
  <circle cx="116" cy="181" r="10"
          style="fill:green;" />
  <circle cx="234" cy="247" r="10"
          style="fill:green;" />
  <circle cx="656" cy="84" r="10"
          style="fill:orange;" />
  <circle cx="506" cy="394" r="10"
          style="fill:orange;" />
  <circle cx="518" cy="463" r="10"
          style="fill:orange;" />
  <circle cx="191" cy="241" r="10"
          style="fill:orange;" />
  <circle cx="591" cy="180" r="10"
          style="fill:orange;" />
  <circle cx="363" cy="231" r="10"
          style="fill:yellow;" />
  <text x="10" y="535" font-size="15">
   DTW        = 211.9
  </text>
  <text x="10" y="555" font-size="15">
   experience = 4
  </text>
  <text x="10" y="575" font-size="15">
   reward = 0.0
  </text>
  <text x="10" y="595" font-size="15">
   objects eaten => 
  </text>
 </g>
</svg>
