<?xml version="1.0"?>
<svg height="600" width="720" >
 <g style="fill-opacity:1.0; stroke:black;
  stroke-width:1;">
  <rect x="10" y="10" height="500"
        width="700" style="fill:none;" />
  <line x1="411" y1="302" x2="531" y2="302" />
  <line x1="411" y1="302" x2="529" y2="326" />
  <line x1="411" y1="302" x2="522" y2="348" />
  <line x1="411" y1="302" x2="511" y2="369" />
  <line x1="411" y1="302" x2="496" y2="387" />
  <line x1="411" y1="302" x2="478" y2="402" />
  <line x1="411" y1="302" x2="457" y2="413" />
  <line x1="411" y1="302" x2="434" y2="420" />
  <line x1="411" y1="302" x2="411" y2="422" />
  <line x1="411" y1="302" x2="388" y2="420" />
  <line x1="411" y1="302" x2="365" y2="413" />
  <line x1="411" y1="302" x2="344" y2="402" />
  <line x1="411" y1="302" x2="326" y2="387" />
  <line x1="411" y1="302" x2="311" y2="369" />
  <line x1="411" y1="302" x2="300" y2="348" />
  <line x1="411" y1="302" x2="293" y2="326" />
  <line x1="411" y1="302" x2="291" y2="302" />
  <line x1="411" y1="302" x2="293" y2="279" />
  <line x1="411" y1="302" x2="300" y2="256" />
  <line x1="411" y1="302" x2="311" y2="236" />
  <line x1="411" y1="302" x2="326" y2="217" />
  <line x1="411" y1="302" x2="344" y2="203" />
  <line x1="411" y1="302" x2="365" y2="191" />
  <line x1="411" y1="302" x2="388" y2="185" />
  <line x1="411" y1="302" x2="411" y2="182" />
  <line x1="411" y1="302" x2="434" y2="185" />
  <line x1="411" y1="302" x2="457" y2="191" />
  <line x1="411" y1="302" x2="478" y2="203" />
  <line x1="411" y1="302" x2="496" y2="217" />
  <line x1="411" y1="302" x2="511" y2="236" />
  <line x1="411" y1="302" x2="522" y2="256" />
  <line x1="411" y1="302" x2="529" y2="279" />
  <circle cx="271" cy="267" r="10"
          style="fill:red;" />
  <circle cx="20" cy="266" r="10"
          style="fill:red;" />
  <circle cx="116" cy="195" r="10"
          style="fill:red;" />
  <circle cx="102" cy="48" r="10"
          style="fill:red;" />
  <circle cx="165" cy="64" r="10"
          style="fill:red;" />
  <circle cx="388" cy="449" r="10"
          style="fill:red;" />
  <circle cx="472" cy="197" r="10"
          style="fill:red;" />
  <circle cx="663" cy="447" r="10"
          style="fill:red;" />
  <circle cx="588" cy="70" r="10"
          style="fill:red;" />
  <circle cx="199" cy="24" r="10"
          style="fill:red;" />
  <circle cx="531" cy="153" r="10"
          style="fill:red;" />
  <circle cx="552" cy="35" r="10"
          style="fill:red;" />
  <circle cx="581" cy="457" r="10"
          style="fill:red;" />
  <circle cx="611" cy="61" r="10"
          style="fill:red;" />
  <circle cx="465" cy="276" r="10"
          style="fill:red;" />
  <circle cx="269" cy="370" r="10"
          style="fill:red;" />
  <circle cx="459" cy="247" r="10"
          style="fill:red;" />
  <circle cx="542" cy="482" r="10"
          style="fill:red;" />
  <circle cx="213" cy="449" r="10"
          style="fill:red;" />
  <circle cx="669" cy="192" r="10"
          style="fill:red;" />
  <circle cx="188" cy="66" r="10"
          style="fill:red;" />
  <circle cx="478" cy="151" r="10"
          style="fill:red;" />
  <circle cx="372" cy="32" r="10"
          style="fill:red;" />
  <circle cx="319" cy="371" r="10"
          style="fill:red;" />
  <circle cx="404" cy="479" r="10"
          style="fill:red;" />
  <circle cx="307" cy="403" r="10"
          style="fill:green;" />
  <circle cx="478" cy="134" r="10"
          style="fill:green;" />
  <circle cx="547" cy="119" r="10"
          style="fill:green;" />
  <circle cx="453" cy="276" r="10"
          style="fill:green;" />
  <circle cx="571" cy="428" r="10"
          style="fill:green;" />
  <circle cx="453" cy="320" r="10"
          style="fill:green;" />
  <circle cx="395" cy="383" r="10"
          style="fill:green;" />
  <circle cx="670" cy="460" r="10"
          style="fill:green;" />
  <circle cx="384" cy="496" r="10"
          style="fill:green;" />
  <circle cx="159" cy="338" r="10"
          style="fill:green;" />
  <circle cx="634" cy="299" r="10"
          style="fill:green;" />
  <circle cx="534" cy="484" r="10"
          style="fill:green;" />
  <circle cx="499" cy="429" r="10"
          style="fill:green;" />
  <circle cx="137" cy="103" r="10"
          style="fill:green;" />
  <circle cx="124" cy="149" r="10"
          style="fill:green;" />
  <circle cx="95" cy="384" r="10"
          style="fill:green;" />
  <circle cx="326" cy="413" r="10"
          style="fill:green;" />
  <circle cx="522" cy="474" r="10"
          style="fill:green;" />
  <circle cx="674" cy="37" r="10"
          style="fill:green;" />
  <circle cx="50" cy="379" r="10"
          style="fill:green;" />
  <circle cx="505" cy="365" r="10"
          style="fill:green;" />
  <circle cx="615" cy="324" r="10"
          style="fill:green;" />
  <circle cx="381" cy="345" r="10"
          style="fill:green;" />
  <circle cx="186" cy="172" r="10"
          style="fill:green;" />
  <circle cx="279" cy="237" r="10"
          style="fill:green;" />
  <circle cx="679" cy="58" r="10"
          style="fill:orange;" />
  <circle cx="525" cy="472" r="10"
          style="fill:orange;" />
  <circle cx="453" cy="480" r="10"
          style="fill:orange;" />
  <circle cx="193" cy="263" r="10"
          style="fill:orange;" />
  <circle cx="510" cy="260" r="10"
          style="fill:orange;" />
  <circle cx="411" cy="302" r="10"
          style="fill:yellow;" />
  <text x="10" y="535" font-size="15">
   DTW        = 197.2
  </text>
  <text x="10" y="555" font-size="15">
   experience = 0
  </text>
  <text x="10" y="575" font-size="15">
   reward = 0.0
  </text>
  <text x="10" y="595" font-size="15">
   objects eaten => 
  </text>
 </g>
</svg>
