<?xml version="1.0"?>
<svg height="600" width="720" >
 <g style="fill-opacity:1.0; stroke:black;
  stroke-width:1;">
  <rect x="10" y="10" height="500"
        width="700" style="fill:none;" />
  <line x1="366" y1="229" x2="486" y2="229" />
  <line x1="366" y1="229" x2="483" y2="253" />
  <line x1="366" y1="229" x2="477" y2="275" />
  <line x1="366" y1="229" x2="466" y2="296" />
  <line x1="366" y1="229" x2="451" y2="314" />
  <line x1="366" y1="229" x2="432" y2="329" />
  <line x1="366" y1="229" x2="412" y2="340" />
  <line x1="366" y1="229" x2="389" y2="347" />
  <line x1="366" y1="229" x2="366" y2="349" />
  <line x1="366" y1="229" x2="342" y2="347" />
  <line x1="366" y1="229" x2="320" y2="340" />
  <line x1="366" y1="229" x2="299" y2="329" />
  <line x1="366" y1="229" x2="281" y2="314" />
  <line x1="366" y1="229" x2="266" y2="296" />
  <line x1="366" y1="229" x2="255" y2="275" />
  <line x1="366" y1="229" x2="248" y2="253" />
  <line x1="366" y1="229" x2="246" y2="229" />
  <line x1="366" y1="229" x2="248" y2="206" />
  <line x1="366" y1="229" x2="255" y2="184" />
  <line x1="366" y1="229" x2="266" y2="163" />
  <line x1="366" y1="229" x2="281" y2="145" />
  <line x1="366" y1="229" x2="299" y2="130" />
  <line x1="366" y1="229" x2="320" y2="119" />
  <line x1="366" y1="229" x2="342" y2="112" />
  <line x1="366" y1="229" x2="366" y2="109" />
  <line x1="366" y1="229" x2="389" y2="112" />
  <line x1="366" y1="229" x2="412" y2="119" />
  <line x1="366" y1="229" x2="432" y2="130" />
  <line x1="366" y1="229" x2="451" y2="145" />
  <line x1="366" y1="229" x2="466" y2="163" />
  <line x1="366" y1="229" x2="477" y2="184" />
  <line x1="366" y1="229" x2="483" y2="206" />
  <circle cx="267" cy="340" r="10"
          style="fill:red;" />
  <circle cx="33" cy="337" r="10"
          style="fill:red;" />
  <circle cx="142" cy="108" r="10"
          style="fill:red;" />
  <circle cx="66" cy="75" r="10"
          style="fill:red;" />
  <circle cx="239" cy="30" r="10"
          style="fill:red;" />
  <circle cx="350" cy="424" r="10"
          style="fill:red;" />
  <circle cx="423" cy="226" r="10"
          style="fill:red;" />
  <circle cx="624" cy="379" r="10"
          style="fill:red;" />
  <circle cx="619" cy="39" r="10"
          style="fill:red;" />
  <circle cx="123" cy="89" r="10"
          style="fill:red;" />
  <circle cx="543" cy="237" r="10"
          style="fill:red;" />
  <circle cx="588" cy="54" r="10"
          style="fill:red;" />
  <circle cx="527" cy="436" r="10"
          style="fill:red;" />
  <circle cx="687" cy="21" r="10"
          style="fill:red;" />
  <circle cx="457" cy="271" r="10"
          style="fill:red;" />
  <circle cx="233" cy="314" r="10"
          style="fill:red;" />
  <circle cx="431" cy="323" r="10"
          style="fill:red;" />
  <circle cx="572" cy="448" r="10"
          style="fill:red;" />
  <circle cx="300" cy="389" r="10"
          style="fill:red;" />
  <circle cx="681" cy="125" r="10"
          style="fill:red;" />
  <circle cx="183" cy="56" r="10"
          style="fill:red;" />
  <circle cx="414" cy="192" r="10"
          style="fill:red;" />
  <circle cx="301" cy="72" r="10"
          style="fill:red;" />
  <circle cx="250" cy="437" r="10"
          style="fill:red;" />
  <circle cx="428" cy="393" r="10"
          style="fill:red;" />
  <circle cx="350" cy="349" r="10"
          style="fill:green;" />
  <circle cx="453" cy="145" r="10"
          style="fill:green;" />
  <circle cx="609" cy="37" r="10"
          style="fill:green;" />
  <circle cx="461" cy="360" r="10"
          style="fill:green;" />
  <circle cx="498" cy="348" r="10"
          style="fill:green;" />
  <circle cx="378" cy="259" r="10"
          style="fill:green;" />
  <circle cx="342" cy="432" r="10"
          style="fill:green;" />
  <circle cx="586" cy="394" r="10"
          style="fill:green;" />
  <circle cx="451" cy="425" r="10"
          style="fill:green;" />
  <circle cx="124" cy="303" r="10"
          style="fill:green;" />
  <circle cx="688" cy="238" r="10"
          style="fill:green;" />
  <circle cx="522" cy="472" r="10"
          style="fill:green;" />
  <circle cx="582" cy="356" r="10"
          style="fill:green;" />
  <circle cx="147" cy="177" r="10"
          style="fill:green;" />
  <circle cx="208" cy="134" r="10"
          style="fill:green;" />
  <circle cx="135" cy="366" r="10"
          style="fill:green;" />
  <circle cx="385" cy="356" r="10"
          style="fill:green;" />
  <circle cx="450" cy="471" r="10"
          style="fill:green;" />
  <circle cx="642" cy="37" r="10"
          style="fill:green;" />
  <circle cx="85" cy="344" r="10"
          style="fill:green;" />
  <circle cx="558" cy="389" r="10"
          style="fill:green;" />
  <circle cx="560" cy="412" r="10"
          style="fill:green;" />
  <circle cx="451" cy="340" r="10"
          style="fill:green;" />
  <circle cx="113" cy="181" r="10"
          style="fill:green;" />
  <circle cx="232" cy="248" r="10"
          style="fill:green;" />
  <circle cx="655" cy="86" r="10"
          style="fill:orange;" />
  <circle cx="505" cy="390" r="10"
          style="fill:orange;" />
  <circle cx="521" cy="460" r="10"
          style="fill:orange;" />
  <circle cx="191" cy="240" r="10"
          style="fill:orange;" />
  <circle cx="595" cy="175" r="10"
          style="fill:orange;" />
  <circle cx="366" cy="229" r="10"
          style="fill:yellow;" />
  <text x="10" y="535" font-size="15">
   DTW        = 210.0
  </text>
  <text x="10" y="555" font-size="15">
   experience = 4
  </text>
  <text x="10" y="575" font-size="15">
   reward = 0.0
  </text>
  <text x="10" y="595" font-size="15">
   objects eaten => 
  </text>
 </g>
</svg>
