<?xml version="1.0"?>
<svg height="600" width="720" >
 <g style="fill-opacity:1.0; stroke:black;
  stroke-width:1;">
  <rect x="10" y="10" height="500"
        width="700" style="fill:none;" />
  <line x1="366" y1="227" x2="486" y2="227" />
  <line x1="366" y1="227" x2="484" y2="251" />
  <line x1="366" y1="227" x2="477" y2="273" />
  <line x1="366" y1="227" x2="466" y2="294" />
  <line x1="366" y1="227" x2="451" y2="312" />
  <line x1="366" y1="227" x2="433" y2="327" />
  <line x1="366" y1="227" x2="412" y2="338" />
  <line x1="366" y1="227" x2="390" y2="345" />
  <line x1="366" y1="227" x2="366" y2="347" />
  <line x1="366" y1="227" x2="343" y2="345" />
  <line x1="366" y1="227" x2="321" y2="338" />
  <line x1="366" y1="227" x2="300" y2="327" />
  <line x1="366" y1="227" x2="282" y2="312" />
  <line x1="366" y1="227" x2="267" y2="294" />
  <line x1="366" y1="227" x2="256" y2="273" />
  <line x1="366" y1="227" x2="249" y2="251" />
  <line x1="366" y1="227" x2="246" y2="227" />
  <line x1="366" y1="227" x2="249" y2="204" />
  <line x1="366" y1="227" x2="256" y2="182" />
  <line x1="366" y1="227" x2="267" y2="161" />
  <line x1="366" y1="227" x2="282" y2="143" />
  <line x1="366" y1="227" x2="300" y2="128" />
  <line x1="366" y1="227" x2="321" y2="117" />
  <line x1="366" y1="227" x2="343" y2="110" />
  <line x1="366" y1="227" x2="366" y2="107" />
  <line x1="366" y1="227" x2="390" y2="110" />
  <line x1="366" y1="227" x2="412" y2="117" />
  <line x1="366" y1="227" x2="433" y2="128" />
  <line x1="366" y1="227" x2="451" y2="143" />
  <line x1="366" y1="227" x2="466" y2="161" />
  <line x1="366" y1="227" x2="477" y2="182" />
  <line x1="366" y1="227" x2="484" y2="204" />
  <circle cx="267" cy="341" r="10"
          style="fill:red;" />
  <circle cx="34" cy="338" r="10"
          style="fill:red;" />
  <circle cx="142" cy="107" r="10"
          style="fill:red;" />
  <circle cx="65" cy="76" r="10"
          style="fill:red;" />
  <circle cx="240" cy="29" r="10"
          style="fill:red;" />
  <circle cx="350" cy="424" r="10"
          style="fill:red;" />
  <circle cx="422" cy="227" r="10"
          style="fill:red;" />
  <circle cx="623" cy="378" r="10"
          style="fill:red;" />
  <circle cx="620" cy="39" r="10"
          style="fill:red;" />
  <circle cx="122" cy="90" r="10"
          style="fill:red;" />
  <circle cx="543" cy="239" r="10"
          style="fill:red;" />
  <circle cx="588" cy="55" r="10"
          style="fill:red;" />
  <circle cx="526" cy="436" r="10"
          style="fill:red;" />
  <circle cx="689" cy="22" r="10"
          style="fill:red;" />
  <circle cx="457" cy="271" r="10"
          style="fill:red;" />
  <circle cx="232" cy="313" r="10"
          style="fill:red;" />
  <circle cx="430" cy="324" r="10"
          style="fill:red;" />
  <circle cx="573" cy="447" r="10"
          style="fill:red;" />
  <circle cx="301" cy="388" r="10"
          style="fill:red;" />
  <circle cx="680" cy="124" r="10"
          style="fill:red;" />
  <circle cx="183" cy="58" r="10"
          style="fill:red;" />
  <circle cx="413" cy="192" r="10"
          style="fill:red;" />
  <circle cx="299" cy="73" r="10"
          style="fill:red;" />
  <circle cx="249" cy="438" r="10"
          style="fill:red;" />
  <circle cx="428" cy="392" r="10"
          style="fill:red;" />
  <circle cx="351" cy="348" r="10"
          style="fill:green;" />
  <circle cx="452" cy="145" r="10"
          style="fill:green;" />
  <circle cx="610" cy="36" r="10"
          style="fill:green;" />
  <circle cx="461" cy="362" r="10"
          style="fill:green;" />
  <circle cx="497" cy="347" r="10"
          style="fill:green;" />
  <circle cx="376" cy="258" r="10"
          style="fill:green;" />
  <circle cx="342" cy="433" r="10"
          style="fill:green;" />
  <circle cx="585" cy="393" r="10"
          style="fill:green;" />
  <circle cx="452" cy="424" r="10"
          style="fill:green;" />
  <circle cx="124" cy="302" r="10"
          style="fill:green;" />
  <circle cx="687" cy="237" r="10"
          style="fill:green;" />
  <circle cx="522" cy="471" r="10"
          style="fill:green;" />
  <circle cx="584" cy="355" r="10"
          style="fill:green;" />
  <circle cx="147" cy="178" r="10"
          style="fill:green;" />
  <circle cx="209" cy="134" r="10"
          style="fill:green;" />
  <circle cx="135" cy="366" r="10"
          style="fill:green;" />
  <circle cx="386" cy="355" r="10"
          style="fill:green;" />
  <circle cx="449" cy="471" r="10"
          style="fill:green;" />
  <circle cx="641" cy="37" r="10"
          style="fill:green;" />
  <circle cx="85" cy="343" r="10"
          style="fill:green;" />
  <circle cx="559" cy="389" r="10"
          style="fill:green;" />
  <circle cx="559" cy="414" r="10"
          style="fill:green;" />
  <circle cx="453" cy="340" r="10"
          style="fill:green;" />
  <circle cx="111" cy="181" r="10"
          style="fill:green;" />
  <circle cx="231" cy="248" r="10"
          style="fill:green;" />
  <circle cx="655" cy="86" r="10"
          style="fill:orange;" />
  <circle cx="505" cy="389" r="10"
          style="fill:orange;" />
  <circle cx="522" cy="459" r="10"
          style="fill:orange;" />
  <circle cx="191" cy="240" r="10"
          style="fill:orange;" />
  <circle cx="596" cy="174" r="10"
          style="fill:orange;" />
  <circle cx="366" cy="227" r="10"
          style="fill:yellow;" />
  <text x="10" y="535" font-size="15">
   DTW        = 208.0
  </text>
  <text x="10" y="555" font-size="15">
   experience = 4
  </text>
  <text x="10" y="575" font-size="15">
   reward = 0.0
  </text>
  <text x="10" y="595" font-size="15">
   objects eaten => 
  </text>
 </g>
</svg>
