<?xml version="1.0"?>
<svg height="600" width="720" >
 <g style="fill-opacity:1.0; stroke:black;
  stroke-width:1;">
  <rect x="10" y="10" height="500"
        width="700" style="fill:none;" />
  <line x1="368" y1="223" x2="488" y2="223" />
  <line x1="368" y1="223" x2="486" y2="247" />
  <line x1="368" y1="223" x2="479" y2="269" />
  <line x1="368" y1="223" x2="468" y2="290" />
  <line x1="368" y1="223" x2="453" y2="308" />
  <line x1="368" y1="223" x2="435" y2="323" />
  <line x1="368" y1="223" x2="414" y2="334" />
  <line x1="368" y1="223" x2="391" y2="341" />
  <line x1="368" y1="223" x2="368" y2="343" />
  <line x1="368" y1="223" x2="344" y2="341" />
  <line x1="368" y1="223" x2="322" y2="334" />
  <line x1="368" y1="223" x2="301" y2="323" />
  <line x1="368" y1="223" x2="283" y2="308" />
  <line x1="368" y1="223" x2="268" y2="290" />
  <line x1="368" y1="223" x2="257" y2="269" />
  <line x1="368" y1="223" x2="250" y2="247" />
  <line x1="368" y1="223" x2="248" y2="223" />
  <line x1="368" y1="223" x2="250" y2="200" />
  <line x1="368" y1="223" x2="257" y2="178" />
  <line x1="368" y1="223" x2="268" y2="157" />
  <line x1="368" y1="223" x2="283" y2="139" />
  <line x1="368" y1="223" x2="301" y2="124" />
  <line x1="368" y1="223" x2="322" y2="113" />
  <line x1="368" y1="223" x2="344" y2="106" />
  <line x1="368" y1="223" x2="368" y2="103" />
  <line x1="368" y1="223" x2="391" y2="106" />
  <line x1="368" y1="223" x2="414" y2="113" />
  <line x1="368" y1="223" x2="435" y2="124" />
  <line x1="368" y1="223" x2="453" y2="139" />
  <line x1="368" y1="223" x2="468" y2="157" />
  <line x1="368" y1="223" x2="479" y2="178" />
  <line x1="368" y1="223" x2="486" y2="200" />
  <circle cx="267" cy="343" r="10"
          style="fill:red;" />
  <circle cx="34" cy="340" r="10"
          style="fill:red;" />
  <circle cx="143" cy="104" r="10"
          style="fill:red;" />
  <circle cx="64" cy="77" r="10"
          style="fill:red;" />
  <circle cx="243" cy="28" r="10"
          style="fill:red;" />
  <circle cx="348" cy="423" r="10"
          style="fill:red;" />
  <circle cx="420" cy="228" r="10"
          style="fill:red;" />
  <circle cx="622" cy="376" r="10"
          style="fill:red;" />
  <circle cx="621" cy="37" r="10"
          style="fill:red;" />
  <circle cx="119" cy="92" r="10"
          style="fill:red;" />
  <circle cx="543" cy="241" r="10"
          style="fill:red;" />
  <circle cx="589" cy="55" r="10"
          style="fill:red;" />
  <circle cx="524" cy="435" r="10"
          style="fill:red;" />
  <circle cx="691" cy="24" r="10"
          style="fill:red;" />
  <circle cx="457" cy="271" r="10"
          style="fill:red;" />
  <circle cx="231" cy="311" r="10"
          style="fill:red;" />
  <circle cx="429" cy="327" r="10"
          style="fill:red;" />
  <circle cx="574" cy="445" r="10"
          style="fill:red;" />
  <circle cx="304" cy="386" r="10"
          style="fill:red;" />
  <circle cx="679" cy="122" r="10"
          style="fill:red;" />
  <circle cx="183" cy="60" r="10"
          style="fill:red;" />
  <circle cx="411" cy="194" r="10"
          style="fill:red;" />
  <circle cx="297" cy="75" r="10"
          style="fill:red;" />
  <circle cx="247" cy="440" r="10"
          style="fill:red;" />
  <circle cx="429" cy="389" r="10"
          style="fill:red;" />
  <circle cx="353" cy="347" r="10"
          style="fill:green;" />
  <circle cx="451" cy="145" r="10"
          style="fill:green;" />
  <circle cx="612" cy="33" r="10"
          style="fill:green;" />
  <circle cx="461" cy="365" r="10"
          style="fill:green;" />
  <circle cx="494" cy="344" r="10"
          style="fill:green;" />
  <circle cx="374" cy="256" r="10"
          style="fill:green;" />
  <circle cx="340" cy="435" r="10"
          style="fill:green;" />
  <circle cx="582" cy="391" r="10"
          style="fill:green;" />
  <circle cx="454" cy="421" r="10"
          style="fill:green;" />
  <circle cx="122" cy="301" r="10"
          style="fill:green;" />
  <circle cx="684" cy="235" r="10"
          style="fill:green;" />
  <circle cx="522" cy="470" r="10"
          style="fill:green;" />
  <circle cx="587" cy="352" r="10"
          style="fill:green;" />
  <circle cx="147" cy="180" r="10"
          style="fill:green;" />
  <circle cx="212" cy="133" r="10"
          style="fill:green;" />
  <circle cx="137" cy="365" r="10"
          style="fill:green;" />
  <circle cx="388" cy="353" r="10"
          style="fill:green;" />
  <circle cx="446" cy="470" r="10"
          style="fill:green;" />
  <circle cx="638" cy="38" r="10"
          style="fill:green;" />
  <circle cx="87" cy="342" r="10"
          style="fill:green;" />
  <circle cx="560" cy="390" r="10"
          style="fill:green;" />
  <circle cx="557" cy="417" r="10"
          style="fill:green;" />
  <circle cx="455" cy="340" r="10"
          style="fill:green;" />
  <circle cx="109" cy="182" r="10"
          style="fill:green;" />
  <circle cx="229" cy="248" r="10"
          style="fill:green;" />
  <circle cx="654" cy="87" r="10"
          style="fill:orange;" />
  <circle cx="504" cy="386" r="10"
          style="fill:orange;" />
  <circle cx="525" cy="457" r="10"
          style="fill:orange;" />
  <circle cx="191" cy="239" r="10"
          style="fill:orange;" />
  <circle cx="599" cy="171" r="10"
          style="fill:orange;" />
  <circle cx="368" cy="223" r="10"
          style="fill:yellow;" />
  <text x="10" y="535" font-size="15">
   DTW        = 204.0
  </text>
  <text x="10" y="555" font-size="15">
   experience = 4
  </text>
  <text x="10" y="575" font-size="15">
   reward = 0.0
  </text>
  <text x="10" y="595" font-size="15">
   objects eaten => 
  </text>
 </g>
</svg>
