<?xml version="1.0"?>
<svg height="600" width="720" >
 <g style="fill-opacity:1.0; stroke:black;
  stroke-width:1;">
  <rect x="10" y="10" height="500"
        width="700" style="fill:none;" />
  <line x1="369" y1="221" x2="489" y2="221" />
  <line x1="369" y1="221" x2="486" y2="245" />
  <line x1="369" y1="221" x2="479" y2="267" />
  <line x1="369" y1="221" x2="468" y2="288" />
  <line x1="369" y1="221" x2="453" y2="306" />
  <line x1="369" y1="221" x2="435" y2="321" />
  <line x1="369" y1="221" x2="414" y2="332" />
  <line x1="369" y1="221" x2="392" y2="339" />
  <line x1="369" y1="221" x2="369" y2="341" />
  <line x1="369" y1="221" x2="345" y2="339" />
  <line x1="369" y1="221" x2="323" y2="332" />
  <line x1="369" y1="221" x2="302" y2="321" />
  <line x1="369" y1="221" x2="284" y2="306" />
  <line x1="369" y1="221" x2="269" y2="288" />
  <line x1="369" y1="221" x2="258" y2="267" />
  <line x1="369" y1="221" x2="251" y2="245" />
  <line x1="369" y1="221" x2="249" y2="221" />
  <line x1="369" y1="221" x2="251" y2="198" />
  <line x1="369" y1="221" x2="258" y2="176" />
  <line x1="369" y1="221" x2="269" y2="155" />
  <line x1="369" y1="221" x2="284" y2="137" />
  <line x1="369" y1="221" x2="302" y2="122" />
  <line x1="369" y1="221" x2="323" y2="111" />
  <line x1="369" y1="221" x2="345" y2="104" />
  <line x1="369" y1="221" x2="369" y2="101" />
  <line x1="369" y1="221" x2="392" y2="104" />
  <line x1="369" y1="221" x2="414" y2="111" />
  <line x1="369" y1="221" x2="435" y2="122" />
  <line x1="369" y1="221" x2="453" y2="137" />
  <line x1="369" y1="221" x2="468" y2="155" />
  <line x1="369" y1="221" x2="479" y2="176" />
  <line x1="369" y1="221" x2="486" y2="198" />
  <circle cx="267" cy="345" r="10"
          style="fill:red;" />
  <circle cx="34" cy="341" r="10"
          style="fill:red;" />
  <circle cx="144" cy="102" r="10"
          style="fill:red;" />
  <circle cx="64" cy="77" r="10"
          style="fill:red;" />
  <circle cx="244" cy="28" r="10"
          style="fill:red;" />
  <circle cx="348" cy="423" r="10"
          style="fill:red;" />
  <circle cx="420" cy="228" r="10"
          style="fill:red;" />
  <circle cx="621" cy="375" r="10"
          style="fill:red;" />
  <circle cx="622" cy="37" r="10"
          style="fill:red;" />
  <circle cx="118" cy="94" r="10"
          style="fill:red;" />
  <circle cx="543" cy="243" r="10"
          style="fill:red;" />
  <circle cx="590" cy="56" r="10"
          style="fill:red;" />
  <circle cx="523" cy="435" r="10"
          style="fill:red;" />
  <circle cx="693" cy="24" r="10"
          style="fill:red;" />
  <circle cx="457" cy="271" r="10"
          style="fill:red;" />
  <circle cx="230" cy="311" r="10"
          style="fill:red;" />
  <circle cx="429" cy="328" r="10"
          style="fill:red;" />
  <circle cx="574" cy="443" r="10"
          style="fill:red;" />
  <circle cx="306" cy="385" r="10"
          style="fill:red;" />
  <circle cx="678" cy="121" r="10"
          style="fill:red;" />
  <circle cx="183" cy="62" r="10"
          style="fill:red;" />
  <circle cx="410" cy="194" r="10"
          style="fill:red;" />
  <circle cx="296" cy="76" r="10"
          style="fill:red;" />
  <circle cx="245" cy="442" r="10"
          style="fill:red;" />
  <circle cx="429" cy="387" r="10"
          style="fill:red;" />
  <circle cx="353" cy="346" r="10"
          style="fill:green;" />
  <circle cx="451" cy="146" r="10"
          style="fill:green;" />
  <circle cx="613" cy="32" r="10"
          style="fill:green;" />
  <circle cx="461" cy="366" r="10"
          style="fill:green;" />
  <circle cx="493" cy="343" r="10"
          style="fill:green;" />
  <circle cx="372" cy="255" r="10"
          style="fill:green;" />
  <circle cx="339" cy="436" r="10"
          style="fill:green;" />
  <circle cx="580" cy="390" r="10"
          style="fill:green;" />
  <circle cx="455" cy="420" r="10"
          style="fill:green;" />
  <circle cx="122" cy="300" r="10"
          style="fill:green;" />
  <circle cx="683" cy="234" r="10"
          style="fill:green;" />
  <circle cx="522" cy="469" r="10"
          style="fill:green;" />
  <circle cx="588" cy="351" r="10"
          style="fill:green;" />
  <circle cx="147" cy="182" r="10"
          style="fill:green;" />
  <circle cx="214" cy="133" r="10"
          style="fill:green;" />
  <circle cx="137" cy="365" r="10"
          style="fill:green;" />
  <circle cx="389" cy="352" r="10"
          style="fill:green;" />
  <circle cx="445" cy="470" r="10"
          style="fill:green;" />
  <circle cx="637" cy="39" r="10"
          style="fill:green;" />
  <circle cx="87" cy="341" r="10"
          style="fill:green;" />
  <circle cx="561" cy="390" r="10"
          style="fill:green;" />
  <circle cx="556" cy="418" r="10"
          style="fill:green;" />
  <circle cx="456" cy="340" r="10"
          style="fill:green;" />
  <circle cx="108" cy="182" r="10"
          style="fill:green;" />
  <circle cx="228" cy="248" r="10"
          style="fill:green;" />
  <circle cx="654" cy="88" r="10"
          style="fill:orange;" />
  <circle cx="504" cy="385" r="10"
          style="fill:orange;" />
  <circle cx="526" cy="456" r="10"
          style="fill:orange;" />
  <circle cx="191" cy="239" r="10"
          style="fill:orange;" />
  <circle cx="601" cy="169" r="10"
          style="fill:orange;" />
  <circle cx="369" cy="221" r="10"
          style="fill:yellow;" />
  <text x="10" y="535" font-size="15">
   DTW        = 202.0
  </text>
  <text x="10" y="555" font-size="15">
   experience = 4
  </text>
  <text x="10" y="575" font-size="15">
   reward = 0.0
  </text>
  <text x="10" y="595" font-size="15">
   objects eaten => 
  </text>
 </g>
</svg>
