<?xml version="1.0"?>
<svg height="600" width="720" >
 <g style="fill-opacity:1.0; stroke:black;
  stroke-width:1;">
  <rect x="10" y="10" height="500"
        width="700" style="fill:none;" />
  <line x1="365" y1="215" x2="485" y2="215" />
  <line x1="365" y1="215" x2="482" y2="238" />
  <line x1="365" y1="215" x2="476" y2="261" />
  <line x1="365" y1="215" x2="465" y2="282" />
  <line x1="365" y1="215" x2="450" y2="300" />
  <line x1="365" y1="215" x2="431" y2="315" />
  <line x1="365" y1="215" x2="411" y2="326" />
  <line x1="365" y1="215" x2="388" y2="333" />
  <line x1="365" y1="215" x2="365" y2="335" />
  <line x1="365" y1="215" x2="341" y2="333" />
  <line x1="365" y1="215" x2="319" y2="326" />
  <line x1="365" y1="215" x2="298" y2="315" />
  <line x1="365" y1="215" x2="280" y2="300" />
  <line x1="365" y1="215" x2="265" y2="282" />
  <line x1="365" y1="215" x2="254" y2="261" />
  <line x1="365" y1="215" x2="247" y2="238" />
  <line x1="365" y1="215" x2="245" y2="215" />
  <line x1="365" y1="215" x2="247" y2="192" />
  <line x1="365" y1="215" x2="254" y2="169" />
  <line x1="365" y1="215" x2="265" y2="148" />
  <line x1="365" y1="215" x2="280" y2="130" />
  <line x1="365" y1="215" x2="298" y2="115" />
  <line x1="365" y1="215" x2="319" y2="104" />
  <line x1="365" y1="215" x2="341" y2="97" />
  <line x1="365" y1="215" x2="365" y2="95" />
  <line x1="365" y1="215" x2="388" y2="97" />
  <line x1="365" y1="215" x2="411" y2="104" />
  <line x1="365" y1="215" x2="431" y2="115" />
  <line x1="365" y1="215" x2="450" y2="130" />
  <line x1="365" y1="215" x2="465" y2="148" />
  <line x1="365" y1="215" x2="476" y2="169" />
  <line x1="365" y1="215" x2="482" y2="192" />
  <circle cx="267" cy="350" r="10"
          style="fill:red;" />
  <circle cx="35" cy="346" r="10"
          style="fill:red;" />
  <circle cx="145" cy="96" r="10"
          style="fill:red;" />
  <circle cx="61" cy="79" r="10"
          style="fill:red;" />
  <circle cx="249" cy="25" r="10"
          style="fill:red;" />
  <circle cx="345" cy="421" r="10"
          style="fill:red;" />
  <circle cx="416" cy="230" r="10"
          style="fill:red;" />
  <circle cx="618" cy="370" r="10"
          style="fill:red;" />
  <circle cx="624" cy="35" r="10"
          style="fill:red;" />
  <circle cx="113" cy="99" r="10"
          style="fill:red;" />
  <circle cx="544" cy="249" r="10"
          style="fill:red;" />
  <circle cx="592" cy="57" r="10"
          style="fill:red;" />
  <circle cx="520" cy="433" r="10"
          style="fill:red;" />
  <circle cx="698" cy="27" r="10"
          style="fill:red;" />
  <circle cx="456" cy="271" r="10"
          style="fill:red;" />
  <circle cx="228" cy="307" r="10"
          style="fill:red;" />
  <circle cx="427" cy="333" r="10"
          style="fill:red;" />
  <circle cx="577" cy="439" r="10"
          style="fill:red;" />
  <circle cx="311" cy="380" r="10"
          style="fill:red;" />
  <circle cx="675" cy="116" r="10"
          style="fill:red;" />
  <circle cx="183" cy="68" r="10"
          style="fill:red;" />
  <circle cx="405" cy="197" r="10"
          style="fill:red;" />
  <circle cx="291" cy="81" r="10"
          style="fill:red;" />
  <circle cx="241" cy="446" r="10"
          style="fill:red;" />
  <circle cx="431" cy="382" r="10"
          style="fill:red;" />
  <circle cx="356" cy="342" r="10"
          style="fill:green;" />
  <circle cx="449" cy="146" r="10"
          style="fill:green;" />
  <circle cx="617" cy="26" r="10"
          style="fill:green;" />
  <circle cx="462" cy="372" r="10"
          style="fill:green;" />
  <circle cx="488" cy="338" r="10"
          style="fill:green;" />
  <circle cx="367" cy="250" r="10"
          style="fill:green;" />
  <circle cx="335" cy="439" r="10"
          style="fill:green;" />
  <circle cx="575" cy="386" r="10"
          style="fill:green;" />
  <circle cx="459" cy="415" r="10"
          style="fill:green;" />
  <circle cx="120" cy="298" r="10"
          style="fill:green;" />
  <circle cx="677" cy="230" r="10"
          style="fill:green;" />
  <circle cx="521" cy="466" r="10"
          style="fill:green;" />
  <circle cx="594" cy="346" r="10"
          style="fill:green;" />
  <circle cx="148" cy="187" r="10"
          style="fill:green;" />
  <circle cx="219" cy="132" r="10"
          style="fill:green;" />
  <circle cx="140" cy="364" r="10"
          style="fill:green;" />
  <circle cx="394" cy="348" r="10"
          style="fill:green;" />
  <circle cx="440" cy="470" r="10"
          style="fill:green;" />
  <circle cx="631" cy="41" r="10"
          style="fill:green;" />
  <circle cx="89" cy="339" r="10"
          style="fill:green;" />
  <circle cx="565" cy="392" r="10"
          style="fill:green;" />
  <circle cx="552" cy="424" r="10"
          style="fill:green;" />
  <circle cx="461" cy="340" r="10"
          style="fill:green;" />
  <circle cx="103" cy="182" r="10"
          style="fill:green;" />
  <circle cx="225" cy="249" r="10"
          style="fill:green;" />
  <circle cx="652" cy="90" r="10"
          style="fill:orange;" />
  <circle cx="503" cy="379" r="10"
          style="fill:orange;" />
  <circle cx="530" cy="452" r="10"
          style="fill:orange;" />
  <circle cx="191" cy="237" r="10"
          style="fill:orange;" />
  <circle cx="606" cy="164" r="10"
          style="fill:orange;" />
  <circle cx="365" cy="215" r="10"
          style="fill:yellow;" />
  <text x="10" y="535" font-size="15">
   DTW        = 195.6
  </text>
  <text x="10" y="555" font-size="15">
   experience = 4
  </text>
  <text x="10" y="575" font-size="15">
   reward = 0.0
  </text>
  <text x="10" y="595" font-size="15">
   objects eaten => 
  </text>
 </g>
</svg>
