<?xml version="1.0"?>
<svg height="600" width="720" >
 <g style="fill-opacity:1.0; stroke:black;
  stroke-width:1;">
  <rect x="10" y="10" height="500"
        width="700" style="fill:none;" />
  <line x1="362" y1="214" x2="482" y2="214" />
  <line x1="362" y1="214" x2="480" y2="237" />
  <line x1="362" y1="214" x2="473" y2="260" />
  <line x1="362" y1="214" x2="462" y2="280" />
  <line x1="362" y1="214" x2="447" y2="299" />
  <line x1="362" y1="214" x2="429" y2="314" />
  <line x1="362" y1="214" x2="408" y2="325" />
  <line x1="362" y1="214" x2="386" y2="332" />
  <line x1="362" y1="214" x2="362" y2="334" />
  <line x1="362" y1="214" x2="339" y2="332" />
  <line x1="362" y1="214" x2="317" y2="325" />
  <line x1="362" y1="214" x2="296" y2="314" />
  <line x1="362" y1="214" x2="278" y2="299" />
  <line x1="362" y1="214" x2="263" y2="280" />
  <line x1="362" y1="214" x2="252" y2="260" />
  <line x1="362" y1="214" x2="245" y2="237" />
  <line x1="362" y1="214" x2="242" y2="214" />
  <line x1="362" y1="214" x2="245" y2="190" />
  <line x1="362" y1="214" x2="252" y2="168" />
  <line x1="362" y1="214" x2="263" y2="147" />
  <line x1="362" y1="214" x2="278" y2="129" />
  <line x1="362" y1="214" x2="296" y2="114" />
  <line x1="362" y1="214" x2="317" y2="103" />
  <line x1="362" y1="214" x2="339" y2="96" />
  <line x1="362" y1="214" x2="362" y2="94" />
  <line x1="362" y1="214" x2="386" y2="96" />
  <line x1="362" y1="214" x2="408" y2="103" />
  <line x1="362" y1="214" x2="429" y2="114" />
  <line x1="362" y1="214" x2="447" y2="129" />
  <line x1="362" y1="214" x2="462" y2="147" />
  <line x1="362" y1="214" x2="473" y2="168" />
  <line x1="362" y1="214" x2="480" y2="190" />
  <circle cx="267" cy="351" r="10"
          style="fill:red;" />
  <circle cx="35" cy="347" r="10"
          style="fill:red;" />
  <circle cx="146" cy="95" r="10"
          style="fill:red;" />
  <circle cx="61" cy="79" r="10"
          style="fill:red;" />
  <circle cx="250" cy="25" r="10"
          style="fill:red;" />
  <circle cx="345" cy="421" r="10"
          style="fill:red;" />
  <circle cx="415" cy="231" r="10"
          style="fill:red;" />
  <circle cx="618" cy="369" r="10"
          style="fill:red;" />
  <circle cx="624" cy="34" r="10"
          style="fill:red;" />
  <circle cx="111" cy="100" r="10"
          style="fill:red;" />
  <circle cx="544" cy="250" r="10"
          style="fill:red;" />
  <circle cx="593" cy="57" r="10"
          style="fill:red;" />
  <circle cx="519" cy="433" r="10"
          style="fill:red;" />
  <circle cx="699" cy="28" r="10"
          style="fill:red;" />
  <circle cx="456" cy="271" r="10"
          style="fill:red;" />
  <circle cx="227" cy="306" r="10"
          style="fill:red;" />
  <circle cx="426" cy="335" r="10"
          style="fill:red;" />
  <circle cx="577" cy="438" r="10"
          style="fill:red;" />
  <circle cx="313" cy="379" r="10"
          style="fill:red;" />
  <circle cx="674" cy="115" r="10"
          style="fill:red;" />
  <circle cx="183" cy="69" r="10"
          style="fill:red;" />
  <circle cx="404" cy="198" r="10"
          style="fill:red;" />
  <circle cx="290" cy="82" r="10"
          style="fill:red;" />
  <circle cx="239" cy="447" r="10"
          style="fill:red;" />
  <circle cx="431" cy="380" r="10"
          style="fill:red;" />
  <circle cx="357" cy="341" r="10"
          style="fill:green;" />
  <circle cx="449" cy="147" r="10"
          style="fill:green;" />
  <circle cx="618" cy="25" r="10"
          style="fill:green;" />
  <circle cx="462" cy="373" r="10"
          style="fill:green;" />
  <circle cx="487" cy="336" r="10"
          style="fill:green;" />
  <circle cx="366" cy="249" r="10"
          style="fill:green;" />
  <circle cx="334" cy="440" r="10"
          style="fill:green;" />
  <circle cx="573" cy="384" r="10"
          style="fill:green;" />
  <circle cx="461" cy="413" r="10"
          style="fill:green;" />
  <circle cx="119" cy="297" r="10"
          style="fill:green;" />
  <circle cx="676" cy="229" r="10"
          style="fill:green;" />
  <circle cx="521" cy="465" r="10"
          style="fill:green;" />
  <circle cx="595" cy="345" r="10"
          style="fill:green;" />
  <circle cx="148" cy="188" r="10"
          style="fill:green;" />
  <circle cx="221" cy="132" r="10"
          style="fill:green;" />
  <circle cx="141" cy="364" r="10"
          style="fill:green;" />
  <circle cx="395" cy="347" r="10"
          style="fill:green;" />
  <circle cx="439" cy="470" r="10"
          style="fill:green;" />
  <circle cx="630" cy="42" r="10"
          style="fill:green;" />
  <circle cx="90" cy="339" r="10"
          style="fill:green;" />
  <circle cx="566" cy="392" r="10"
          style="fill:green;" />
  <circle cx="551" cy="426" r="10"
          style="fill:green;" />
  <circle cx="462" cy="339" r="10"
          style="fill:green;" />
  <circle cx="101" cy="182" r="10"
          style="fill:green;" />
  <circle cx="224" cy="249" r="10"
          style="fill:green;" />
  <circle cx="652" cy="90" r="10"
          style="fill:orange;" />
  <circle cx="503" cy="378" r="10"
          style="fill:orange;" />
  <circle cx="531" cy="451" r="10"
          style="fill:orange;" />
  <circle cx="191" cy="237" r="10"
          style="fill:orange;" />
  <circle cx="608" cy="162" r="10"
          style="fill:orange;" />
  <circle cx="362" cy="214" r="10"
          style="fill:yellow;" />
  <text x="10" y="535" font-size="15">
   DTW        = 194.3
  </text>
  <text x="10" y="555" font-size="15">
   experience = 4
  </text>
  <text x="10" y="575" font-size="15">
   reward = 0.0
  </text>
  <text x="10" y="595" font-size="15">
   objects eaten => 
  </text>
 </g>
</svg>
