<?xml version="1.0"?>
<svg height="600" width="720" >
 <g style="fill-opacity:1.0; stroke:black;
  stroke-width:1;">
  <rect x="10" y="10" height="500"
        width="700" style="fill:none;" />
  <line x1="356" y1="210" x2="476" y2="210" />
  <line x1="356" y1="210" x2="473" y2="233" />
  <line x1="356" y1="210" x2="467" y2="256" />
  <line x1="356" y1="210" x2="455" y2="277" />
  <line x1="356" y1="210" x2="441" y2="295" />
  <line x1="356" y1="210" x2="422" y2="310" />
  <line x1="356" y1="210" x2="402" y2="321" />
  <line x1="356" y1="210" x2="379" y2="328" />
  <line x1="356" y1="210" x2="356" y2="330" />
  <line x1="356" y1="210" x2="332" y2="328" />
  <line x1="356" y1="210" x2="310" y2="321" />
  <line x1="356" y1="210" x2="289" y2="310" />
  <line x1="356" y1="210" x2="271" y2="295" />
  <line x1="356" y1="210" x2="256" y2="277" />
  <line x1="356" y1="210" x2="245" y2="256" />
  <line x1="356" y1="210" x2="238" y2="233" />
  <line x1="356" y1="210" x2="236" y2="210" />
  <line x1="356" y1="210" x2="238" y2="187" />
  <line x1="356" y1="210" x2="245" y2="164" />
  <line x1="356" y1="210" x2="256" y2="143" />
  <line x1="356" y1="210" x2="271" y2="125" />
  <line x1="356" y1="210" x2="289" y2="110" />
  <line x1="356" y1="210" x2="310" y2="99" />
  <line x1="356" y1="210" x2="332" y2="92" />
  <line x1="356" y1="210" x2="356" y2="90" />
  <line x1="356" y1="210" x2="379" y2="92" />
  <line x1="356" y1="210" x2="402" y2="99" />
  <line x1="356" y1="210" x2="422" y2="110" />
  <line x1="356" y1="210" x2="441" y2="125" />
  <line x1="356" y1="210" x2="455" y2="143" />
  <line x1="356" y1="210" x2="467" y2="164" />
  <line x1="356" y1="210" x2="473" y2="187" />
  <circle cx="267" cy="354" r="10"
          style="fill:red;" />
  <circle cx="36" cy="351" r="10"
          style="fill:red;" />
  <circle cx="147" cy="91" r="10"
          style="fill:red;" />
  <circle cx="59" cy="81" r="10"
          style="fill:red;" />
  <circle cx="254" cy="23" r="10"
          style="fill:red;" />
  <circle cx="343" cy="419" r="10"
          style="fill:red;" />
  <circle cx="413" cy="232" r="10"
          style="fill:red;" />
  <circle cx="616" cy="366" r="10"
          style="fill:red;" />
  <circle cx="626" cy="33" r="10"
          style="fill:red;" />
  <circle cx="108" cy="104" r="10"
          style="fill:red;" />
  <circle cx="545" cy="254" r="10"
          style="fill:red;" />
  <circle cx="595" cy="58" r="10"
          style="fill:red;" />
  <circle cx="516" cy="432" r="10"
          style="fill:red;" />
  <circle cx="695" cy="30" r="10"
          style="fill:red;" />
  <circle cx="456" cy="270" r="10"
          style="fill:red;" />
  <circle cx="225" cy="303" r="10"
          style="fill:red;" />
  <circle cx="425" cy="339" r="10"
          style="fill:red;" />
  <circle cx="579" cy="434" r="10"
          style="fill:red;" />
  <circle cx="317" cy="376" r="10"
          style="fill:red;" />
  <circle cx="671" cy="112" r="10"
          style="fill:red;" />
  <circle cx="182" cy="73" r="10"
          style="fill:red;" />
  <circle cx="401" cy="200" r="10"
          style="fill:red;" />
  <circle cx="286" cy="85" r="10"
          style="fill:red;" />
  <circle cx="236" cy="451" r="10"
          style="fill:red;" />
  <circle cx="433" cy="376" r="10"
          style="fill:red;" />
  <circle cx="359" cy="338" r="10"
          style="fill:green;" />
  <circle cx="447" cy="147" r="10"
          style="fill:green;" />
  <circle cx="621" cy="20" r="10"
          style="fill:green;" />
  <circle cx="462" cy="378" r="10"
          style="fill:green;" />
  <circle cx="483" cy="332" r="10"
          style="fill:green;" />
  <circle cx="362" cy="246" r="10"
          style="fill:green;" />
  <circle cx="332" cy="442" r="10"
          style="fill:green;" />
  <circle cx="569" cy="381" r="10"
          style="fill:green;" />
  <circle cx="464" cy="409" r="10"
          style="fill:green;" />
  <circle cx="117" cy="295" r="10"
          style="fill:green;" />
  <circle cx="672" cy="225" r="10"
          style="fill:green;" />
  <circle cx="520" cy="463" r="10"
          style="fill:green;" />
  <circle cx="599" cy="341" r="10"
          style="fill:green;" />
  <circle cx="149" cy="192" r="10"
          style="fill:green;" />
  <circle cx="225" cy="131" r="10"
          style="fill:green;" />
  <circle cx="143" cy="363" r="10"
          style="fill:green;" />
  <circle cx="398" cy="345" r="10"
          style="fill:green;" />
  <circle cx="435" cy="470" r="10"
          style="fill:green;" />
  <circle cx="625" cy="44" r="10"
          style="fill:green;" />
  <circle cx="92" cy="337" r="10"
          style="fill:green;" />
  <circle cx="569" cy="394" r="10"
          style="fill:green;" />
  <circle cx="548" cy="430" r="10"
          style="fill:green;" />
  <circle cx="466" cy="339" r="10"
          style="fill:green;" />
  <circle cx="98" cy="183" r="10"
          style="fill:green;" />
  <circle cx="222" cy="250" r="10"
          style="fill:green;" />
  <circle cx="650" cy="91" r="10"
          style="fill:orange;" />
  <circle cx="502" cy="374" r="10"
          style="fill:orange;" />
  <circle cx="535" cy="449" r="10"
          style="fill:orange;" />
  <circle cx="190" cy="236" r="10"
          style="fill:orange;" />
  <circle cx="612" cy="158" r="10"
          style="fill:orange;" />
  <circle cx="356" cy="210" r="10"
          style="fill:yellow;" />
  <text x="10" y="535" font-size="15">
   DTW        = 190.5
  </text>
  <text x="10" y="555" font-size="15">
   experience = 5
  </text>
  <text x="10" y="575" font-size="15">
   reward = 0.0
  </text>
  <text x="10" y="595" font-size="15">
   objects eaten => 
  </text>
 </g>
</svg>
