<?xml version="1.0"?>
<svg height="600" width="720" >
 <g style="fill-opacity:1.0; stroke:black;
  stroke-width:1;">
  <rect x="10" y="10" height="500"
        width="700" style="fill:none;" />
  <line x1="354" y1="210" x2="474" y2="210" />
  <line x1="354" y1="210" x2="472" y2="234" />
  <line x1="354" y1="210" x2="465" y2="256" />
  <line x1="354" y1="210" x2="454" y2="277" />
  <line x1="354" y1="210" x2="439" y2="295" />
  <line x1="354" y1="210" x2="421" y2="310" />
  <line x1="354" y1="210" x2="400" y2="321" />
  <line x1="354" y1="210" x2="377" y2="328" />
  <line x1="354" y1="210" x2="354" y2="330" />
  <line x1="354" y1="210" x2="330" y2="328" />
  <line x1="354" y1="210" x2="308" y2="321" />
  <line x1="354" y1="210" x2="287" y2="310" />
  <line x1="354" y1="210" x2="269" y2="295" />
  <line x1="354" y1="210" x2="254" y2="277" />
  <line x1="354" y1="210" x2="243" y2="256" />
  <line x1="354" y1="210" x2="236" y2="234" />
  <line x1="354" y1="210" x2="234" y2="210" />
  <line x1="354" y1="210" x2="236" y2="187" />
  <line x1="354" y1="210" x2="243" y2="165" />
  <line x1="354" y1="210" x2="254" y2="144" />
  <line x1="354" y1="210" x2="269" y2="126" />
  <line x1="354" y1="210" x2="287" y2="111" />
  <line x1="354" y1="210" x2="308" y2="100" />
  <line x1="354" y1="210" x2="330" y2="93" />
  <line x1="354" y1="210" x2="354" y2="90" />
  <line x1="354" y1="210" x2="377" y2="93" />
  <line x1="354" y1="210" x2="400" y2="100" />
  <line x1="354" y1="210" x2="421" y2="111" />
  <line x1="354" y1="210" x2="439" y2="126" />
  <line x1="354" y1="210" x2="454" y2="144" />
  <line x1="354" y1="210" x2="465" y2="165" />
  <line x1="354" y1="210" x2="472" y2="187" />
  <circle cx="267" cy="356" r="10"
          style="fill:red;" />
  <circle cx="36" cy="352" r="10"
          style="fill:red;" />
  <circle cx="148" cy="89" r="10"
          style="fill:red;" />
  <circle cx="58" cy="81" r="10"
          style="fill:red;" />
  <circle cx="255" cy="23" r="10"
          style="fill:red;" />
  <circle cx="342" cy="419" r="10"
          style="fill:red;" />
  <circle cx="412" cy="233" r="10"
          style="fill:red;" />
  <circle cx="615" cy="365" r="10"
          style="fill:red;" />
  <circle cx="626" cy="32" r="10"
          style="fill:red;" />
  <circle cx="106" cy="105" r="10"
          style="fill:red;" />
  <circle cx="545" cy="256" r="10"
          style="fill:red;" />
  <circle cx="595" cy="59" r="10"
          style="fill:red;" />
  <circle cx="515" cy="431" r="10"
          style="fill:red;" />
  <circle cx="694" cy="31" r="10"
          style="fill:red;" />
  <circle cx="456" cy="270" r="10"
          style="fill:red;" />
  <circle cx="225" cy="302" r="10"
          style="fill:red;" />
  <circle cx="425" cy="340" r="10"
          style="fill:red;" />
  <circle cx="579" cy="433" r="10"
          style="fill:red;" />
  <circle cx="319" cy="375" r="10"
          style="fill:red;" />
  <circle cx="670" cy="110" r="10"
          style="fill:red;" />
  <circle cx="182" cy="75" r="10"
          style="fill:red;" />
  <circle cx="400" cy="200" r="10"
          style="fill:red;" />
  <circle cx="285" cy="86" r="10"
          style="fill:red;" />
  <circle cx="235" cy="452" r="10"
          style="fill:red;" />
  <circle cx="433" cy="374" r="10"
          style="fill:red;" />
  <circle cx="360" cy="338" r="10"
          style="fill:green;" />
  <circle cx="447" cy="147" r="10"
          style="fill:green;" />
  <circle cx="622" cy="19" r="10"
          style="fill:green;" />
  <circle cx="462" cy="379" r="10"
          style="fill:green;" />
  <circle cx="482" cy="331" r="10"
          style="fill:green;" />
  <circle cx="361" cy="245" r="10"
          style="fill:green;" />
  <circle cx="331" cy="443" r="10"
          style="fill:green;" />
  <circle cx="568" cy="380" r="10"
          style="fill:green;" />
  <circle cx="465" cy="408" r="10"
          style="fill:green;" />
  <circle cx="117" cy="295" r="10"
          style="fill:green;" />
  <circle cx="671" cy="224" r="10"
          style="fill:green;" />
  <circle cx="520" cy="462" r="10"
          style="fill:green;" />
  <circle cx="601" cy="340" r="10"
          style="fill:green;" />
  <circle cx="149" cy="193" r="10"
          style="fill:green;" />
  <circle cx="227" cy="131" r="10"
          style="fill:green;" />
  <circle cx="143" cy="362" r="10"
          style="fill:green;" />
  <circle cx="399" cy="344" r="10"
          style="fill:green;" />
  <circle cx="434" cy="470" r="10"
          style="fill:green;" />
  <circle cx="624" cy="44" r="10"
          style="fill:green;" />
  <circle cx="92" cy="336" r="10"
          style="fill:green;" />
  <circle cx="569" cy="394" r="10"
          style="fill:green;" />
  <circle cx="548" cy="432" r="10"
          style="fill:green;" />
  <circle cx="467" cy="339" r="10"
          style="fill:green;" />
  <circle cx="97" cy="183" r="10"
          style="fill:green;" />
  <circle cx="221" cy="250" r="10"
          style="fill:green;" />
  <circle cx="650" cy="92" r="10"
          style="fill:orange;" />
  <circle cx="501" cy="372" r="10"
          style="fill:orange;" />
  <circle cx="536" cy="448" r="10"
          style="fill:orange;" />
  <circle cx="190" cy="235" r="10"
          style="fill:orange;" />
  <circle cx="614" cy="156" r="10"
          style="fill:orange;" />
  <circle cx="354" cy="210" r="10"
          style="fill:yellow;" />
  <text x="10" y="535" font-size="15">
   DTW        = 190.9
  </text>
  <text x="10" y="555" font-size="15">
   experience = 5
  </text>
  <text x="10" y="575" font-size="15">
   reward = 0.0
  </text>
  <text x="10" y="595" font-size="15">
   objects eaten => 
  </text>
 </g>
</svg>
