<?xml version="1.0"?>
<svg height="600" width="720" >
 <g style="fill-opacity:1.0; stroke:black;
  stroke-width:1;">
  <rect x="10" y="10" height="500"
        width="700" style="fill:none;" />
  <line x1="352" y1="211" x2="472" y2="211" />
  <line x1="352" y1="211" x2="470" y2="234" />
  <line x1="352" y1="211" x2="463" y2="257" />
  <line x1="352" y1="211" x2="452" y2="278" />
  <line x1="352" y1="211" x2="437" y2="296" />
  <line x1="352" y1="211" x2="419" y2="311" />
  <line x1="352" y1="211" x2="398" y2="322" />
  <line x1="352" y1="211" x2="375" y2="329" />
  <line x1="352" y1="211" x2="352" y2="331" />
  <line x1="352" y1="211" x2="329" y2="329" />
  <line x1="352" y1="211" x2="306" y2="322" />
  <line x1="352" y1="211" x2="285" y2="311" />
  <line x1="352" y1="211" x2="267" y2="296" />
  <line x1="352" y1="211" x2="252" y2="278" />
  <line x1="352" y1="211" x2="241" y2="257" />
  <line x1="352" y1="211" x2="234" y2="234" />
  <line x1="352" y1="211" x2="232" y2="211" />
  <line x1="352" y1="211" x2="234" y2="188" />
  <line x1="352" y1="211" x2="241" y2="165" />
  <line x1="352" y1="211" x2="252" y2="144" />
  <line x1="352" y1="211" x2="267" y2="126" />
  <line x1="352" y1="211" x2="285" y2="111" />
  <line x1="352" y1="211" x2="306" y2="100" />
  <line x1="352" y1="211" x2="329" y2="93" />
  <line x1="352" y1="211" x2="352" y2="91" />
  <line x1="352" y1="211" x2="375" y2="93" />
  <line x1="352" y1="211" x2="398" y2="100" />
  <line x1="352" y1="211" x2="419" y2="111" />
  <line x1="352" y1="211" x2="437" y2="126" />
  <line x1="352" y1="211" x2="452" y2="144" />
  <line x1="352" y1="211" x2="463" y2="165" />
  <line x1="352" y1="211" x2="470" y2="188" />
  <circle cx="266" cy="357" r="10"
          style="fill:red;" />
  <circle cx="37" cy="353" r="10"
          style="fill:red;" />
  <circle cx="148" cy="88" r="10"
          style="fill:red;" />
  <circle cx="58" cy="82" r="10"
          style="fill:red;" />
  <circle cx="256" cy="22" r="10"
          style="fill:red;" />
  <circle cx="342" cy="418" r="10"
          style="fill:red;" />
  <circle cx="411" cy="233" r="10"
          style="fill:red;" />
  <circle cx="614" cy="363" r="10"
          style="fill:red;" />
  <circle cx="627" cy="32" r="10"
          style="fill:red;" />
  <circle cx="105" cy="106" r="10"
          style="fill:red;" />
  <circle cx="545" cy="257" r="10"
          style="fill:red;" />
  <circle cx="596" cy="59" r="10"
          style="fill:red;" />
  <circle cx="514" cy="431" r="10"
          style="fill:red;" />
  <circle cx="693" cy="32" r="10"
          style="fill:red;" />
  <circle cx="456" cy="270" r="10"
          style="fill:red;" />
  <circle cx="224" cy="301" r="10"
          style="fill:red;" />
  <circle cx="424" cy="341" r="10"
          style="fill:red;" />
  <circle cx="580" cy="432" r="10"
          style="fill:red;" />
  <circle cx="320" cy="374" r="10"
          style="fill:red;" />
  <circle cx="670" cy="109" r="10"
          style="fill:red;" />
  <circle cx="182" cy="76" r="10"
          style="fill:red;" />
  <circle cx="399" cy="201" r="10"
          style="fill:red;" />
  <circle cx="284" cy="87" r="10"
          style="fill:red;" />
  <circle cx="234" cy="453" r="10"
          style="fill:red;" />
  <circle cx="433" cy="373" r="10"
          style="fill:red;" />
  <circle cx="361" cy="337" r="10"
          style="fill:green;" />
  <circle cx="447" cy="148" r="10"
          style="fill:green;" />
  <circle cx="623" cy="20" r="10"
          style="fill:green;" />
  <circle cx="462" cy="380" r="10"
          style="fill:green;" />
  <circle cx="481" cy="330" r="10"
          style="fill:green;" />
  <circle cx="360" cy="244" r="10"
          style="fill:green;" />
  <circle cx="330" cy="444" r="10"
          style="fill:green;" />
  <circle cx="566" cy="379" r="10"
          style="fill:green;" />
  <circle cx="466" cy="407" r="10"
          style="fill:green;" />
  <circle cx="116" cy="294" r="10"
          style="fill:green;" />
  <circle cx="670" cy="223" r="10"
          style="fill:green;" />
  <circle cx="520" cy="462" r="10"
          style="fill:green;" />
  <circle cx="602" cy="338" r="10"
          style="fill:green;" />
  <circle cx="149" cy="194" r="10"
          style="fill:green;" />
  <circle cx="228" cy="130" r="10"
          style="fill:green;" />
  <circle cx="144" cy="362" r="10"
          style="fill:green;" />
  <circle cx="400" cy="343" r="10"
          style="fill:green;" />
  <circle cx="433" cy="470" r="10"
          style="fill:green;" />
  <circle cx="623" cy="45" r="10"
          style="fill:green;" />
  <circle cx="93" cy="336" r="10"
          style="fill:green;" />
  <circle cx="570" cy="394" r="10"
          style="fill:green;" />
  <circle cx="547" cy="433" r="10"
          style="fill:green;" />
  <circle cx="468" cy="339" r="10"
          style="fill:green;" />
  <circle cx="95" cy="183" r="10"
          style="fill:green;" />
  <circle cx="220" cy="250" r="10"
          style="fill:green;" />
  <circle cx="650" cy="92" r="10"
          style="fill:orange;" />
  <circle cx="501" cy="371" r="10"
          style="fill:orange;" />
  <circle cx="537" cy="447" r="10"
          style="fill:orange;" />
  <circle cx="190" cy="235" r="10"
          style="fill:orange;" />
  <circle cx="615" cy="155" r="10"
          style="fill:orange;" />
  <circle cx="352" cy="211" r="10"
          style="fill:yellow;" />
  <text x="10" y="535" font-size="15">
   DTW        = 191.4
  </text>
  <text x="10" y="555" font-size="15">
   experience = 5
  </text>
  <text x="10" y="575" font-size="15">
   reward = 0.0
  </text>
  <text x="10" y="595" font-size="15">
   objects eaten => 
  </text>
 </g>
</svg>
