<?xml version="1.0"?>
<svg height="600" width="720" >
 <g style="fill-opacity:1.0; stroke:black;
  stroke-width:1;">
  <rect x="10" y="10" height="500"
        width="700" style="fill:none;" />
  <line x1="350" y1="211" x2="470" y2="211" />
  <line x1="350" y1="211" x2="468" y2="235" />
  <line x1="350" y1="211" x2="461" y2="257" />
  <line x1="350" y1="211" x2="450" y2="278" />
  <line x1="350" y1="211" x2="435" y2="296" />
  <line x1="350" y1="211" x2="417" y2="311" />
  <line x1="350" y1="211" x2="396" y2="322" />
  <line x1="350" y1="211" x2="374" y2="329" />
  <line x1="350" y1="211" x2="350" y2="331" />
  <line x1="350" y1="211" x2="327" y2="329" />
  <line x1="350" y1="211" x2="304" y2="322" />
  <line x1="350" y1="211" x2="284" y2="311" />
  <line x1="350" y1="211" x2="265" y2="296" />
  <line x1="350" y1="211" x2="250" y2="278" />
  <line x1="350" y1="211" x2="239" y2="257" />
  <line x1="350" y1="211" x2="233" y2="235" />
  <line x1="350" y1="211" x2="230" y2="211" />
  <line x1="350" y1="211" x2="233" y2="188" />
  <line x1="350" y1="211" x2="239" y2="165" />
  <line x1="350" y1="211" x2="250" y2="145" />
  <line x1="350" y1="211" x2="265" y2="127" />
  <line x1="350" y1="211" x2="284" y2="112" />
  <line x1="350" y1="211" x2="304" y2="101" />
  <line x1="350" y1="211" x2="327" y2="94" />
  <line x1="350" y1="211" x2="350" y2="91" />
  <line x1="350" y1="211" x2="374" y2="94" />
  <line x1="350" y1="211" x2="396" y2="101" />
  <line x1="350" y1="211" x2="417" y2="112" />
  <line x1="350" y1="211" x2="435" y2="127" />
  <line x1="350" y1="211" x2="450" y2="145" />
  <line x1="350" y1="211" x2="461" y2="165" />
  <line x1="350" y1="211" x2="468" y2="188" />
  <circle cx="266" cy="358" r="10"
          style="fill:red;" />
  <circle cx="37" cy="354" r="10"
          style="fill:red;" />
  <circle cx="148" cy="86" r="10"
          style="fill:red;" />
  <circle cx="57" cy="82" r="10"
          style="fill:red;" />
  <circle cx="258" cy="21" r="10"
          style="fill:red;" />
  <circle cx="341" cy="418" r="10"
          style="fill:red;" />
  <circle cx="411" cy="234" r="10"
          style="fill:red;" />
  <circle cx="614" cy="362" r="10"
          style="fill:red;" />
  <circle cx="627" cy="31" r="10"
          style="fill:red;" />
  <circle cx="104" cy="108" r="10"
          style="fill:red;" />
  <circle cx="546" cy="259" r="10"
          style="fill:red;" />
  <circle cx="597" cy="59" r="10"
          style="fill:red;" />
  <circle cx="513" cy="431" r="10"
          style="fill:red;" />
  <circle cx="691" cy="33" r="10"
          style="fill:red;" />
  <circle cx="456" cy="270" r="10"
          style="fill:red;" />
  <circle cx="223" cy="300" r="10"
          style="fill:red;" />
  <circle cx="424" cy="343" r="10"
          style="fill:red;" />
  <circle cx="580" cy="431" r="10"
          style="fill:red;" />
  <circle cx="322" cy="373" r="10"
          style="fill:red;" />
  <circle cx="669" cy="108" r="10"
          style="fill:red;" />
  <circle cx="182" cy="78" r="10"
          style="fill:red;" />
  <circle cx="398" cy="202" r="10"
          style="fill:red;" />
  <circle cx="282" cy="89" r="10"
          style="fill:red;" />
  <circle cx="232" cy="454" r="10"
          style="fill:red;" />
  <circle cx="434" cy="371" r="10"
          style="fill:red;" />
  <circle cx="361" cy="336" r="10"
          style="fill:green;" />
  <circle cx="446" cy="148" r="10"
          style="fill:green;" />
  <circle cx="624" cy="22" r="10"
          style="fill:green;" />
  <circle cx="463" cy="382" r="10"
          style="fill:green;" />
  <circle cx="480" cy="328" r="10"
          style="fill:green;" />
  <circle cx="358" cy="243" r="10"
          style="fill:green;" />
  <circle cx="329" cy="445" r="10"
          style="fill:green;" />
  <circle cx="565" cy="378" r="10"
          style="fill:green;" />
  <circle cx="467" cy="406" r="10"
          style="fill:green;" />
  <circle cx="115" cy="294" r="10"
          style="fill:green;" />
  <circle cx="668" cy="222" r="10"
          style="fill:green;" />
  <circle cx="520" cy="461" r="10"
          style="fill:green;" />
  <circle cx="604" cy="337" r="10"
          style="fill:green;" />
  <circle cx="149" cy="195" r="10"
          style="fill:green;" />
  <circle cx="229" cy="130" r="10"
          style="fill:green;" />
  <circle cx="145" cy="362" r="10"
          style="fill:green;" />
  <circle cx="401" cy="342" r="10"
          style="fill:green;" />
  <circle cx="432" cy="470" r="10"
          style="fill:green;" />
  <circle cx="621" cy="46" r="10"
          style="fill:green;" />
  <circle cx="94" cy="335" r="10"
          style="fill:green;" />
  <circle cx="571" cy="395" r="10"
          style="fill:green;" />
  <circle cx="546" cy="435" r="10"
          style="fill:green;" />
  <circle cx="469" cy="339" r="10"
          style="fill:green;" />
  <circle cx="94" cy="183" r="10"
          style="fill:green;" />
  <circle cx="220" cy="250" r="10"
          style="fill:green;" />
  <circle cx="649" cy="93" r="10"
          style="fill:orange;" />
  <circle cx="501" cy="370" r="10"
          style="fill:orange;" />
  <circle cx="538" cy="446" r="10"
          style="fill:orange;" />
  <circle cx="190" cy="234" r="10"
          style="fill:orange;" />
  <circle cx="617" cy="154" r="10"
          style="fill:orange;" />
  <circle cx="350" cy="211" r="10"
          style="fill:yellow;" />
  <text x="10" y="535" font-size="15">
   DTW        = 191.9
  </text>
  <text x="10" y="555" font-size="15">
   experience = 5
  </text>
  <text x="10" y="575" font-size="15">
   reward = 0.0
  </text>
  <text x="10" y="595" font-size="15">
   objects eaten => 
  </text>
 </g>
</svg>
