<?xml version="1.0"?>
<svg height="600" width="720" >
 <g style="fill-opacity:1.0; stroke:black;
  stroke-width:1;">
  <rect x="10" y="10" height="500"
        width="700" style="fill:none;" />
  <line x1="346" y1="216" x2="466" y2="216" />
  <line x1="346" y1="216" x2="463" y2="239" />
  <line x1="346" y1="216" x2="456" y2="262" />
  <line x1="346" y1="216" x2="445" y2="282" />
  <line x1="346" y1="216" x2="430" y2="300" />
  <line x1="346" y1="216" x2="412" y2="315" />
  <line x1="346" y1="216" x2="391" y2="327" />
  <line x1="346" y1="216" x2="369" y2="333" />
  <line x1="346" y1="216" x2="346" y2="336" />
  <line x1="346" y1="216" x2="322" y2="333" />
  <line x1="346" y1="216" x2="300" y2="327" />
  <line x1="346" y1="216" x2="279" y2="315" />
  <line x1="346" y1="216" x2="261" y2="300" />
  <line x1="346" y1="216" x2="246" y2="282" />
  <line x1="346" y1="216" x2="235" y2="262" />
  <line x1="346" y1="216" x2="228" y2="239" />
  <line x1="346" y1="216" x2="226" y2="216" />
  <line x1="346" y1="216" x2="228" y2="192" />
  <line x1="346" y1="216" x2="235" y2="170" />
  <line x1="346" y1="216" x2="246" y2="149" />
  <line x1="346" y1="216" x2="261" y2="131" />
  <line x1="346" y1="216" x2="279" y2="116" />
  <line x1="346" y1="216" x2="300" y2="105" />
  <line x1="346" y1="216" x2="322" y2="98" />
  <line x1="346" y1="216" x2="346" y2="96" />
  <line x1="346" y1="216" x2="369" y2="98" />
  <line x1="346" y1="216" x2="391" y2="105" />
  <line x1="346" y1="216" x2="412" y2="116" />
  <line x1="346" y1="216" x2="430" y2="131" />
  <line x1="346" y1="216" x2="445" y2="149" />
  <line x1="346" y1="216" x2="456" y2="170" />
  <line x1="346" y1="216" x2="463" y2="192" />
  <circle cx="266" cy="362" r="10"
          style="fill:red;" />
  <circle cx="37" cy="358" r="10"
          style="fill:red;" />
  <circle cx="150" cy="82" r="10"
          style="fill:red;" />
  <circle cx="55" cy="83" r="10"
          style="fill:red;" />
  <circle cx="261" cy="20" r="10"
          style="fill:red;" />
  <circle cx="339" cy="417" r="10"
          style="fill:red;" />
  <circle cx="408" cy="235" r="10"
          style="fill:red;" />
  <circle cx="612" cy="359" r="10"
          style="fill:red;" />
  <circle cx="629" cy="30" r="10"
          style="fill:red;" />
  <circle cx="100" cy="111" r="10"
          style="fill:red;" />
  <circle cx="546" cy="263" r="10"
          style="fill:red;" />
  <circle cx="599" cy="60" r="10"
          style="fill:red;" />
  <circle cx="511" cy="430" r="10"
          style="fill:red;" />
  <circle cx="687" cy="35" r="10"
          style="fill:red;" />
  <circle cx="455" cy="270" r="10"
          style="fill:red;" />
  <circle cx="222" cy="297" r="10"
          style="fill:red;" />
  <circle cx="422" cy="346" r="10"
          style="fill:red;" />
  <circle cx="582" cy="427" r="10"
          style="fill:red;" />
  <circle cx="326" cy="370" r="10"
          style="fill:red;" />
  <circle cx="666" cy="105" r="10"
          style="fill:red;" />
  <circle cx="182" cy="82" r="10"
          style="fill:red;" />
  <circle cx="395" cy="204" r="10"
          style="fill:red;" />
  <circle cx="279" cy="92" r="10"
          style="fill:red;" />
  <circle cx="229" cy="457" r="10"
          style="fill:red;" />
  <circle cx="435" cy="367" r="10"
          style="fill:red;" />
  <circle cx="364" cy="333" r="10"
          style="fill:green;" />
  <circle cx="445" cy="148" r="10"
          style="fill:green;" />
  <circle cx="628" cy="26" r="10"
          style="fill:green;" />
  <circle cx="463" cy="386" r="10"
          style="fill:green;" />
  <circle cx="476" cy="324" r="10"
          style="fill:green;" />
  <circle cx="354" cy="240" r="10"
          style="fill:green;" />
  <circle cx="326" cy="447" r="10"
          style="fill:green;" />
  <circle cx="561" cy="374" r="10"
          style="fill:green;" />
  <circle cx="471" cy="402" r="10"
          style="fill:green;" />
  <circle cx="114" cy="292" r="10"
          style="fill:green;" />
  <circle cx="664" cy="219" r="10"
          style="fill:green;" />
  <circle cx="519" cy="459" r="10"
          style="fill:green;" />
  <circle cx="608" cy="333" r="10"
          style="fill:green;" />
  <circle cx="150" cy="199" r="10"
          style="fill:green;" />
  <circle cx="234" cy="129" r="10"
          style="fill:green;" />
  <circle cx="147" cy="361" r="10"
          style="fill:green;" />
  <circle cx="404" cy="339" r="10"
          style="fill:green;" />
  <circle cx="428" cy="470" r="10"
          style="fill:green;" />
  <circle cx="617" cy="47" r="10"
          style="fill:green;" />
  <circle cx="95" cy="333" r="10"
          style="fill:green;" />
  <circle cx="574" cy="396" r="10"
          style="fill:green;" />
  <circle cx="543" cy="439" r="10"
          style="fill:green;" />
  <circle cx="473" cy="339" r="10"
          style="fill:green;" />
  <circle cx="90" cy="184" r="10"
          style="fill:green;" />
  <circle cx="217" cy="251" r="10"
          style="fill:green;" />
  <circle cx="648" cy="94" r="10"
          style="fill:orange;" />
  <circle cx="500" cy="365" r="10"
          style="fill:orange;" />
  <circle cx="542" cy="443" r="10"
          style="fill:orange;" />
  <circle cx="190" cy="233" r="10"
          style="fill:orange;" />
  <circle cx="621" cy="149" r="10"
          style="fill:orange;" />
  <circle cx="346" cy="216" r="10"
          style="fill:yellow;" />
  <text x="10" y="535" font-size="15">
   DTW        = 196.1
  </text>
  <text x="10" y="555" font-size="15">
   experience = 5
  </text>
  <text x="10" y="575" font-size="15">
   reward = 0.0
  </text>
  <text x="10" y="595" font-size="15">
   objects eaten => 
  </text>
 </g>
</svg>
