<?xml version="1.0"?>
<svg height="600" width="720" >
 <g style="fill-opacity:1.0; stroke:black;
  stroke-width:1;">
  <rect x="10" y="10" height="500"
        width="700" style="fill:none;" />
  <line x1="344" y1="218" x2="464" y2="218" />
  <line x1="344" y1="218" x2="462" y2="241" />
  <line x1="344" y1="218" x2="455" y2="263" />
  <line x1="344" y1="218" x2="444" y2="284" />
  <line x1="344" y1="218" x2="429" y2="302" />
  <line x1="344" y1="218" x2="411" y2="317" />
  <line x1="344" y1="218" x2="390" y2="328" />
  <line x1="344" y1="218" x2="368" y2="335" />
  <line x1="344" y1="218" x2="344" y2="338" />
  <line x1="344" y1="218" x2="321" y2="335" />
  <line x1="344" y1="218" x2="298" y2="328" />
  <line x1="344" y1="218" x2="277" y2="317" />
  <line x1="344" y1="218" x2="259" y2="302" />
  <line x1="344" y1="218" x2="244" y2="284" />
  <line x1="344" y1="218" x2="233" y2="263" />
  <line x1="344" y1="218" x2="226" y2="241" />
  <line x1="344" y1="218" x2="224" y2="218" />
  <line x1="344" y1="218" x2="226" y2="194" />
  <line x1="344" y1="218" x2="233" y2="172" />
  <line x1="344" y1="218" x2="244" y2="151" />
  <line x1="344" y1="218" x2="259" y2="133" />
  <line x1="344" y1="218" x2="277" y2="118" />
  <line x1="344" y1="218" x2="298" y2="107" />
  <line x1="344" y1="218" x2="321" y2="100" />
  <line x1="344" y1="218" x2="344" y2="98" />
  <line x1="344" y1="218" x2="368" y2="100" />
  <line x1="344" y1="218" x2="390" y2="107" />
  <line x1="344" y1="218" x2="411" y2="118" />
  <line x1="344" y1="218" x2="429" y2="133" />
  <line x1="344" y1="218" x2="444" y2="151" />
  <line x1="344" y1="218" x2="455" y2="172" />
  <line x1="344" y1="218" x2="462" y2="194" />
  <circle cx="266" cy="363" r="10"
          style="fill:red;" />
  <circle cx="38" cy="359" r="10"
          style="fill:red;" />
  <circle cx="150" cy="80" r="10"
          style="fill:red;" />
  <circle cx="55" cy="84" r="10"
          style="fill:red;" />
  <circle cx="263" cy="19" r="10"
          style="fill:red;" />
  <circle cx="338" cy="416" r="10"
          style="fill:red;" />
  <circle cx="407" cy="236" r="10"
          style="fill:red;" />
  <circle cx="611" cy="358" r="10"
          style="fill:red;" />
  <circle cx="629" cy="29" r="10"
          style="fill:red;" />
  <circle cx="99" cy="113" r="10"
          style="fill:red;" />
  <circle cx="546" cy="264" r="10"
          style="fill:red;" />
  <circle cx="599" cy="61" r="10"
          style="fill:red;" />
  <circle cx="510" cy="429" r="10"
          style="fill:red;" />
  <circle cx="686" cy="36" r="10"
          style="fill:red;" />
  <circle cx="455" cy="270" r="10"
          style="fill:red;" />
  <circle cx="221" cy="296" r="10"
          style="fill:red;" />
  <circle cx="422" cy="348" r="10"
          style="fill:red;" />
  <circle cx="582" cy="426" r="10"
          style="fill:red;" />
  <circle cx="328" cy="369" r="10"
          style="fill:red;" />
  <circle cx="666" cy="104" r="10"
          style="fill:red;" />
  <circle cx="182" cy="83" r="10"
          style="fill:red;" />
  <circle cx="393" cy="205" r="10"
          style="fill:red;" />
  <circle cx="278" cy="93" r="10"
          style="fill:red;" />
  <circle cx="228" cy="458" r="10"
          style="fill:red;" />
  <circle cx="435" cy="366" r="10"
          style="fill:red;" />
  <circle cx="364" cy="332" r="10"
          style="fill:green;" />
  <circle cx="444" cy="149" r="10"
          style="fill:green;" />
  <circle cx="629" cy="27" r="10"
          style="fill:green;" />
  <circle cx="463" cy="388" r="10"
          style="fill:green;" />
  <circle cx="475" cy="323" r="10"
          style="fill:green;" />
  <circle cx="353" cy="239" r="10"
          style="fill:green;" />
  <circle cx="325" cy="448" r="10"
          style="fill:green;" />
  <circle cx="559" cy="373" r="10"
          style="fill:green;" />
  <circle cx="472" cy="400" r="10"
          style="fill:green;" />
  <circle cx="113" cy="291" r="10"
          style="fill:green;" />
  <circle cx="663" cy="218" r="10"
          style="fill:green;" />
  <circle cx="519" cy="458" r="10"
          style="fill:green;" />
  <circle cx="609" cy="332" r="10"
          style="fill:green;" />
  <circle cx="150" cy="200" r="10"
          style="fill:green;" />
  <circle cx="235" cy="129" r="10"
          style="fill:green;" />
  <circle cx="147" cy="361" r="10"
          style="fill:green;" />
  <circle cx="405" cy="338" r="10"
          style="fill:green;" />
  <circle cx="427" cy="470" r="10"
          style="fill:green;" />
  <circle cx="616" cy="48" r="10"
          style="fill:green;" />
  <circle cx="96" cy="333" r="10"
          style="fill:green;" />
  <circle cx="575" cy="396" r="10"
          style="fill:green;" />
  <circle cx="542" cy="441" r="10"
          style="fill:green;" />
  <circle cx="474" cy="339" r="10"
          style="fill:green;" />
  <circle cx="89" cy="184" r="10"
          style="fill:green;" />
  <circle cx="216" cy="251" r="10"
          style="fill:green;" />
  <circle cx="648" cy="95" r="10"
          style="fill:orange;" />
  <circle cx="499" cy="364" r="10"
          style="fill:orange;" />
  <circle cx="543" cy="442" r="10"
          style="fill:orange;" />
  <circle cx="190" cy="233" r="10"
          style="fill:orange;" />
  <circle cx="622" cy="148" r="10"
          style="fill:orange;" />
  <circle cx="344" cy="218" r="10"
          style="fill:yellow;" />
  <text x="10" y="535" font-size="15">
   DTW        = 198.0
  </text>
  <text x="10" y="555" font-size="15">
   experience = 5
  </text>
  <text x="10" y="575" font-size="15">
   reward = 0.0
  </text>
  <text x="10" y="595" font-size="15">
   objects eaten => 
  </text>
 </g>
</svg>
