<?xml version="1.0"?>
<svg height="600" width="720" >
 <g style="fill-opacity:1.0; stroke:black;
  stroke-width:1;">
  <rect x="10" y="10" height="500"
        width="700" style="fill:none;" />
  <line x1="341" y1="222" x2="461" y2="222" />
  <line x1="341" y1="222" x2="459" y2="246" />
  <line x1="341" y1="222" x2="452" y2="268" />
  <line x1="341" y1="222" x2="441" y2="289" />
  <line x1="341" y1="222" x2="426" y2="307" />
  <line x1="341" y1="222" x2="408" y2="322" />
  <line x1="341" y1="222" x2="387" y2="333" />
  <line x1="341" y1="222" x2="365" y2="340" />
  <line x1="341" y1="222" x2="341" y2="342" />
  <line x1="341" y1="222" x2="318" y2="340" />
  <line x1="341" y1="222" x2="296" y2="333" />
  <line x1="341" y1="222" x2="275" y2="322" />
  <line x1="341" y1="222" x2="257" y2="307" />
  <line x1="341" y1="222" x2="242" y2="289" />
  <line x1="341" y1="222" x2="231" y2="268" />
  <line x1="341" y1="222" x2="224" y2="246" />
  <line x1="341" y1="222" x2="221" y2="222" />
  <line x1="341" y1="222" x2="224" y2="199" />
  <line x1="341" y1="222" x2="231" y2="176" />
  <line x1="341" y1="222" x2="242" y2="156" />
  <line x1="341" y1="222" x2="257" y2="138" />
  <line x1="341" y1="222" x2="275" y2="123" />
  <line x1="341" y1="222" x2="296" y2="112" />
  <line x1="341" y1="222" x2="318" y2="105" />
  <line x1="341" y1="222" x2="341" y2="102" />
  <line x1="341" y1="222" x2="365" y2="105" />
  <line x1="341" y1="222" x2="387" y2="112" />
  <line x1="341" y1="222" x2="408" y2="123" />
  <line x1="341" y1="222" x2="426" y2="138" />
  <line x1="341" y1="222" x2="441" y2="156" />
  <line x1="341" y1="222" x2="452" y2="176" />
  <line x1="341" y1="222" x2="459" y2="199" />
  <circle cx="266" cy="366" r="10"
          style="fill:red;" />
  <circle cx="38" cy="362" r="10"
          style="fill:red;" />
  <circle cx="151" cy="77" r="10"
          style="fill:red;" />
  <circle cx="53" cy="85" r="10"
          style="fill:red;" />
  <circle cx="265" cy="20" r="10"
          style="fill:red;" />
  <circle cx="337" cy="416" r="10"
          style="fill:red;" />
  <circle cx="406" cy="237" r="10"
          style="fill:red;" />
  <circle cx="610" cy="355" r="10"
          style="fill:red;" />
  <circle cx="630" cy="28" r="10"
          style="fill:red;" />
  <circle cx="96" cy="115" r="10"
          style="fill:red;" />
  <circle cx="547" cy="267" r="10"
          style="fill:red;" />
  <circle cx="600" cy="61" r="10"
          style="fill:red;" />
  <circle cx="508" cy="428" r="10"
          style="fill:red;" />
  <circle cx="684" cy="37" r="10"
          style="fill:red;" />
  <circle cx="455" cy="270" r="10"
          style="fill:red;" />
  <circle cx="220" cy="295" r="10"
          style="fill:red;" />
  <circle cx="421" cy="350" r="10"
          style="fill:red;" />
  <circle cx="583" cy="424" r="10"
          style="fill:red;" />
  <circle cx="331" cy="367" r="10"
          style="fill:red;" />
  <circle cx="664" cy="101" r="10"
          style="fill:red;" />
  <circle cx="182" cy="86" r="10"
          style="fill:red;" />
  <circle cx="391" cy="206" r="10"
          style="fill:red;" />
  <circle cx="275" cy="95" r="10"
          style="fill:red;" />
  <circle cx="225" cy="461" r="10"
          style="fill:red;" />
  <circle cx="436" cy="363" r="10"
          style="fill:red;" />
  <circle cx="366" cy="330" r="10"
          style="fill:green;" />
  <circle cx="444" cy="149" r="10"
          style="fill:green;" />
  <circle cx="631" cy="30" r="10"
          style="fill:green;" />
  <circle cx="463" cy="391" r="10"
          style="fill:green;" />
  <circle cx="472" cy="320" r="10"
          style="fill:green;" />
  <circle cx="324" cy="450" r="10"
          style="fill:green;" />
  <circle cx="556" cy="371" r="10"
          style="fill:green;" />
  <circle cx="474" cy="398" r="10"
          style="fill:green;" />
  <circle cx="112" cy="290" r="10"
          style="fill:green;" />
  <circle cx="660" cy="216" r="10"
          style="fill:green;" />
  <circle cx="518" cy="457" r="10"
          style="fill:green;" />
  <circle cx="612" cy="330" r="10"
          style="fill:green;" />
  <circle cx="150" cy="203" r="10"
          style="fill:green;" />
  <circle cx="238" cy="129" r="10"
          style="fill:green;" />
  <circle cx="149" cy="360" r="10"
          style="fill:green;" />
  <circle cx="407" cy="336" r="10"
          style="fill:green;" />
  <circle cx="424" cy="469" r="10"
          style="fill:green;" />
  <circle cx="613" cy="49" r="10"
          style="fill:green;" />
  <circle cx="97" cy="331" r="10"
          style="fill:green;" />
  <circle cx="577" cy="397" r="10"
          style="fill:green;" />
  <circle cx="540" cy="444" r="10"
          style="fill:green;" />
  <circle cx="476" cy="338" r="10"
          style="fill:green;" />
  <circle cx="87" cy="184" r="10"
          style="fill:green;" />
  <circle cx="215" cy="251" r="10"
          style="fill:green;" />
  <circle cx="647" cy="96" r="10"
          style="fill:orange;" />
  <circle cx="499" cy="361" r="10"
          style="fill:orange;" />
  <circle cx="545" cy="440" r="10"
          style="fill:orange;" />
  <circle cx="190" cy="232" r="10"
          style="fill:orange;" />
  <circle cx="625" cy="145" r="10"
          style="fill:orange;" />
  <circle cx="493" cy="302" r="10"
          style="fill:green;" />
  <circle cx="341" cy="222" r="10"
          style="fill:yellow;" />
  <text x="10" y="535" font-size="15">
   DTW        = 202.9
  </text>
  <text x="10" y="555" font-size="15">
   experience = 5
  </text>
  <text x="10" y="575" font-size="15">
   reward = 0.0
  </text>
  <text x="10" y="595" font-size="15">
   objects eaten => friend: 1
  </text>
 </g>
</svg>
