<?xml version="1.0"?>
<svg height="600" width="720" >
 <g style="fill-opacity:1.0; stroke:black;
  stroke-width:1;">
  <rect x="10" y="10" height="500"
        width="700" style="fill:none;" />
  <line x1="340" y1="225" x2="460" y2="225" />
  <line x1="340" y1="225" x2="458" y2="249" />
  <line x1="340" y1="225" x2="451" y2="271" />
  <line x1="340" y1="225" x2="440" y2="292" />
  <line x1="340" y1="225" x2="425" y2="310" />
  <line x1="340" y1="225" x2="407" y2="325" />
  <line x1="340" y1="225" x2="386" y2="336" />
  <line x1="340" y1="225" x2="364" y2="343" />
  <line x1="340" y1="225" x2="340" y2="345" />
  <line x1="340" y1="225" x2="317" y2="343" />
  <line x1="340" y1="225" x2="294" y2="336" />
  <line x1="340" y1="225" x2="274" y2="325" />
  <line x1="340" y1="225" x2="255" y2="310" />
  <line x1="340" y1="225" x2="241" y2="292" />
  <line x1="340" y1="225" x2="229" y2="271" />
  <line x1="340" y1="225" x2="223" y2="249" />
  <line x1="340" y1="225" x2="220" y2="225" />
  <line x1="340" y1="225" x2="223" y2="202" />
  <line x1="340" y1="225" x2="229" y2="179" />
  <line x1="340" y1="225" x2="241" y2="159" />
  <line x1="340" y1="225" x2="255" y2="141" />
  <line x1="340" y1="225" x2="274" y2="126" />
  <line x1="340" y1="225" x2="294" y2="115" />
  <line x1="340" y1="225" x2="317" y2="108" />
  <line x1="340" y1="225" x2="340" y2="105" />
  <line x1="340" y1="225" x2="364" y2="108" />
  <line x1="340" y1="225" x2="386" y2="115" />
  <line x1="340" y1="225" x2="407" y2="126" />
  <line x1="340" y1="225" x2="425" y2="141" />
  <line x1="340" y1="225" x2="440" y2="159" />
  <line x1="340" y1="225" x2="451" y2="179" />
  <line x1="340" y1="225" x2="458" y2="202" />
  <circle cx="266" cy="367" r="10"
          style="fill:red;" />
  <circle cx="38" cy="363" r="10"
          style="fill:red;" />
  <circle cx="152" cy="76" r="10"
          style="fill:red;" />
  <circle cx="53" cy="85" r="10"
          style="fill:red;" />
  <circle cx="266" cy="21" r="10"
          style="fill:red;" />
  <circle cx="336" cy="415" r="10"
          style="fill:red;" />
  <circle cx="405" cy="237" r="10"
          style="fill:red;" />
  <circle cx="609" cy="354" r="10"
          style="fill:red;" />
  <circle cx="631" cy="28" r="10"
          style="fill:red;" />
  <circle cx="95" cy="116" r="10"
          style="fill:red;" />
  <circle cx="547" cy="269" r="10"
          style="fill:red;" />
  <circle cx="601" cy="62" r="10"
          style="fill:red;" />
  <circle cx="507" cy="428" r="10"
          style="fill:red;" />
  <circle cx="682" cy="38" r="10"
          style="fill:red;" />
  <circle cx="455" cy="269" r="10"
          style="fill:red;" />
  <circle cx="219" cy="294" r="10"
          style="fill:red;" />
  <circle cx="420" cy="352" r="10"
          style="fill:red;" />
  <circle cx="584" cy="423" r="10"
          style="fill:red;" />
  <circle cx="332" cy="366" r="10"
          style="fill:red;" />
  <circle cx="663" cy="100" r="10"
          style="fill:red;" />
  <circle cx="182" cy="88" r="10"
          style="fill:red;" />
  <circle cx="390" cy="207" r="10"
          style="fill:red;" />
  <circle cx="274" cy="96" r="10"
          style="fill:red;" />
  <circle cx="224" cy="462" r="10"
          style="fill:red;" />
  <circle cx="437" cy="361" r="10"
          style="fill:red;" />
  <circle cx="367" cy="329" r="10"
          style="fill:green;" />
  <circle cx="443" cy="149" r="10"
          style="fill:green;" />
  <circle cx="632" cy="32" r="10"
          style="fill:green;" />
  <circle cx="464" cy="392" r="10"
          style="fill:green;" />
  <circle cx="471" cy="319" r="10"
          style="fill:green;" />
  <circle cx="323" cy="451" r="10"
          style="fill:green;" />
  <circle cx="555" cy="370" r="10"
          style="fill:green;" />
  <circle cx="475" cy="396" r="10"
          style="fill:green;" />
  <circle cx="111" cy="290" r="10"
          style="fill:green;" />
  <circle cx="659" cy="215" r="10"
          style="fill:green;" />
  <circle cx="518" cy="456" r="10"
          style="fill:green;" />
  <circle cx="614" cy="328" r="10"
          style="fill:green;" />
  <circle cx="151" cy="204" r="10"
          style="fill:green;" />
  <circle cx="239" cy="128" r="10"
          style="fill:green;" />
  <circle cx="150" cy="360" r="10"
          style="fill:green;" />
  <circle cx="408" cy="335" r="10"
          style="fill:green;" />
  <circle cx="423" cy="469" r="10"
          style="fill:green;" />
  <circle cx="612" cy="50" r="10"
          style="fill:green;" />
  <circle cx="98" cy="331" r="10"
          style="fill:green;" />
  <circle cx="577" cy="398" r="10"
          style="fill:green;" />
  <circle cx="539" cy="445" r="10"
          style="fill:green;" />
  <circle cx="478" cy="338" r="10"
          style="fill:green;" />
  <circle cx="85" cy="185" r="10"
          style="fill:green;" />
  <circle cx="214" cy="252" r="10"
          style="fill:green;" />
  <circle cx="646" cy="96" r="10"
          style="fill:orange;" />
  <circle cx="498" cy="360" r="10"
          style="fill:orange;" />
  <circle cx="546" cy="439" r="10"
          style="fill:orange;" />
  <circle cx="190" cy="232" r="10"
          style="fill:orange;" />
  <circle cx="627" cy="143" r="10"
          style="fill:orange;" />
  <circle cx="493" cy="301" r="10"
          style="fill:green;" />
  <circle cx="340" cy="225" r="10"
          style="fill:yellow;" />
  <text x="10" y="535" font-size="15">
   DTW        = 205.9
  </text>
  <text x="10" y="555" font-size="15">
   experience = 5
  </text>
  <text x="10" y="575" font-size="15">
   reward = 0.0
  </text>
  <text x="10" y="595" font-size="15">
   objects eaten => friend: 1
  </text>
 </g>
</svg>
