<?xml version="1.0"?>
<svg height="600" width="720" >
 <g style="fill-opacity:1.0; stroke:black;
  stroke-width:1;">
  <rect x="10" y="10" height="500"
        width="700" style="fill:none;" />
  <line x1="336" y1="234" x2="456" y2="234" />
  <line x1="336" y1="234" x2="453" y2="257" />
  <line x1="336" y1="234" x2="446" y2="280" />
  <line x1="336" y1="234" x2="435" y2="300" />
  <line x1="336" y1="234" x2="420" y2="319" />
  <line x1="336" y1="234" x2="402" y2="334" />
  <line x1="336" y1="234" x2="382" y2="345" />
  <line x1="336" y1="234" x2="359" y2="352" />
  <line x1="336" y1="234" x2="336" y2="354" />
  <line x1="336" y1="234" x2="312" y2="352" />
  <line x1="336" y1="234" x2="290" y2="345" />
  <line x1="336" y1="234" x2="269" y2="334" />
  <line x1="336" y1="234" x2="251" y2="319" />
  <line x1="336" y1="234" x2="236" y2="300" />
  <line x1="336" y1="234" x2="225" y2="280" />
  <line x1="336" y1="234" x2="218" y2="257" />
  <line x1="336" y1="234" x2="216" y2="234" />
  <line x1="336" y1="234" x2="218" y2="210" />
  <line x1="336" y1="234" x2="225" y2="188" />
  <line x1="336" y1="234" x2="236" y2="167" />
  <line x1="336" y1="234" x2="251" y2="149" />
  <line x1="336" y1="234" x2="269" y2="134" />
  <line x1="336" y1="234" x2="290" y2="123" />
  <line x1="336" y1="234" x2="312" y2="116" />
  <line x1="336" y1="234" x2="336" y2="114" />
  <line x1="336" y1="234" x2="359" y2="116" />
  <line x1="336" y1="234" x2="382" y2="123" />
  <line x1="336" y1="234" x2="402" y2="134" />
  <line x1="336" y1="234" x2="420" y2="149" />
  <line x1="336" y1="234" x2="435" y2="167" />
  <line x1="336" y1="234" x2="446" y2="188" />
  <line x1="336" y1="234" x2="453" y2="210" />
  <circle cx="266" cy="371" r="10"
          style="fill:red;" />
  <circle cx="39" cy="366" r="10"
          style="fill:red;" />
  <circle cx="153" cy="72" r="10"
          style="fill:red;" />
  <circle cx="51" cy="87" r="10"
          style="fill:red;" />
  <circle cx="270" cy="23" r="10"
          style="fill:red;" />
  <circle cx="335" cy="414" r="10"
          style="fill:red;" />
  <circle cx="402" cy="239" r="10"
          style="fill:red;" />
  <circle cx="607" cy="351" r="10"
          style="fill:red;" />
  <circle cx="633" cy="26" r="10"
          style="fill:red;" />
  <circle cx="91" cy="120" r="10"
          style="fill:red;" />
  <circle cx="547" cy="273" r="10"
          style="fill:red;" />
  <circle cx="603" cy="63" r="10"
          style="fill:red;" />
  <circle cx="504" cy="427" r="10"
          style="fill:red;" />
  <circle cx="678" cy="40" r="10"
          style="fill:red;" />
  <circle cx="454" cy="269" r="10"
          style="fill:red;" />
  <circle cx="217" cy="291" r="10"
          style="fill:red;" />
  <circle cx="419" cy="355" r="10"
          style="fill:red;" />
  <circle cx="585" cy="419" r="10"
          style="fill:red;" />
  <circle cx="336" cy="363" r="10"
          style="fill:red;" />
  <circle cx="661" cy="97" r="10"
          style="fill:red;" />
  <circle cx="181" cy="92" r="10"
          style="fill:red;" />
  <circle cx="387" cy="209" r="10"
          style="fill:red;" />
  <circle cx="270" cy="100" r="10"
          style="fill:red;" />
  <circle cx="221" cy="465" r="10"
          style="fill:red;" />
  <circle cx="438" cy="357" r="10"
          style="fill:red;" />
  <circle cx="369" cy="327" r="10"
          style="fill:green;" />
  <circle cx="442" cy="150" r="10"
          style="fill:green;" />
  <circle cx="635" cy="36" r="10"
          style="fill:green;" />
  <circle cx="464" cy="396" r="10"
          style="fill:green;" />
  <circle cx="467" cy="315" r="10"
          style="fill:green;" />
  <circle cx="320" cy="453" r="10"
          style="fill:green;" />
  <circle cx="551" cy="367" r="10"
          style="fill:green;" />
  <circle cx="479" cy="393" r="10"
          style="fill:green;" />
  <circle cx="109" cy="288" r="10"
          style="fill:green;" />
  <circle cx="655" cy="212" r="10"
          style="fill:green;" />
  <circle cx="518" cy="454" r="10"
          style="fill:green;" />
  <circle cx="618" cy="325" r="10"
          style="fill:green;" />
  <circle cx="151" cy="208" r="10"
          style="fill:green;" />
  <circle cx="244" cy="128" r="10"
          style="fill:green;" />
  <circle cx="152" cy="359" r="10"
          style="fill:green;" />
  <circle cx="411" cy="332" r="10"
          style="fill:green;" />
  <circle cx="419" cy="469" r="10"
          style="fill:green;" />
  <circle cx="607" cy="52" r="10"
          style="fill:green;" />
  <circle cx="99" cy="329" r="10"
          style="fill:green;" />
  <circle cx="580" cy="399" r="10"
          style="fill:green;" />
  <circle cx="536" cy="450" r="10"
          style="fill:green;" />
  <circle cx="481" cy="338" r="10"
          style="fill:green;" />
  <circle cx="82" cy="185" r="10"
          style="fill:green;" />
  <circle cx="212" cy="252" r="10"
          style="fill:green;" />
  <circle cx="645" cy="97" r="10"
          style="fill:orange;" />
  <circle cx="497" cy="356" r="10"
          style="fill:orange;" />
  <circle cx="550" cy="436" r="10"
          style="fill:orange;" />
  <circle cx="190" cy="231" r="10"
          style="fill:orange;" />
  <circle cx="631" cy="139" r="10"
          style="fill:orange;" />
  <circle cx="495" cy="298" r="10"
          style="fill:green;" />
  <circle cx="336" cy="234" r="10"
          style="fill:yellow;" />
  <text x="10" y="535" font-size="15">
   DTW        = 214.3
  </text>
  <text x="10" y="555" font-size="15">
   experience = 5
  </text>
  <text x="10" y="575" font-size="15">
   reward = 0.0
  </text>
  <text x="10" y="595" font-size="15">
   objects eaten => friend: 1
  </text>
 </g>
</svg>
