<?xml version="1.0"?>
<svg height="600" width="720" >
 <g style="fill-opacity:1.0; stroke:black;
  stroke-width:1;">
  <rect x="10" y="10" height="500"
        width="700" style="fill:none;" />
  <line x1="333" y1="236" x2="453" y2="236" />
  <line x1="333" y1="236" x2="451" y2="260" />
  <line x1="333" y1="236" x2="444" y2="282" />
  <line x1="333" y1="236" x2="433" y2="303" />
  <line x1="333" y1="236" x2="418" y2="321" />
  <line x1="333" y1="236" x2="400" y2="336" />
  <line x1="333" y1="236" x2="379" y2="347" />
  <line x1="333" y1="236" x2="357" y2="354" />
  <line x1="333" y1="236" x2="333" y2="356" />
  <line x1="333" y1="236" x2="310" y2="354" />
  <line x1="333" y1="236" x2="287" y2="347" />
  <line x1="333" y1="236" x2="267" y2="336" />
  <line x1="333" y1="236" x2="248" y2="321" />
  <line x1="333" y1="236" x2="233" y2="303" />
  <line x1="333" y1="236" x2="222" y2="282" />
  <line x1="333" y1="236" x2="215" y2="260" />
  <line x1="333" y1="236" x2="213" y2="236" />
  <line x1="333" y1="236" x2="215" y2="213" />
  <line x1="333" y1="236" x2="222" y2="190" />
  <line x1="333" y1="236" x2="233" y2="170" />
  <line x1="333" y1="236" x2="248" y2="151" />
  <line x1="333" y1="236" x2="267" y2="136" />
  <line x1="333" y1="236" x2="287" y2="125" />
  <line x1="333" y1="236" x2="310" y2="119" />
  <line x1="333" y1="236" x2="333" y2="116" />
  <line x1="333" y1="236" x2="357" y2="119" />
  <line x1="333" y1="236" x2="379" y2="125" />
  <line x1="333" y1="236" x2="400" y2="136" />
  <line x1="333" y1="236" x2="418" y2="151" />
  <line x1="333" y1="236" x2="433" y2="170" />
  <line x1="333" y1="236" x2="444" y2="190" />
  <line x1="333" y1="236" x2="451" y2="213" />
  <circle cx="266" cy="372" r="10"
          style="fill:red;" />
  <circle cx="39" cy="368" r="10"
          style="fill:red;" />
  <circle cx="153" cy="70" r="10"
          style="fill:red;" />
  <circle cx="50" cy="87" r="10"
          style="fill:red;" />
  <circle cx="271" cy="23" r="10"
          style="fill:red;" />
  <circle cx="334" cy="413" r="10"
          style="fill:red;" />
  <circle cx="401" cy="239" r="10"
          style="fill:red;" />
  <circle cx="606" cy="350" r="10"
          style="fill:red;" />
  <circle cx="633" cy="25" r="10"
          style="fill:red;" />
  <circle cx="89" cy="121" r="10"
          style="fill:red;" />
  <circle cx="548" cy="274" r="10"
          style="fill:red;" />
  <circle cx="603" cy="63" r="10"
          style="fill:red;" />
  <circle cx="504" cy="427" r="10"
          style="fill:red;" />
  <circle cx="677" cy="41" r="10"
          style="fill:red;" />
  <circle cx="454" cy="269" r="10"
          style="fill:red;" />
  <circle cx="217" cy="290" r="10"
          style="fill:red;" />
  <circle cx="418" cy="357" r="10"
          style="fill:red;" />
  <circle cx="586" cy="418" r="10"
          style="fill:red;" />
  <circle cx="338" cy="362" r="10"
          style="fill:red;" />
  <circle cx="660" cy="96" r="10"
          style="fill:red;" />
  <circle cx="181" cy="93" r="10"
          style="fill:red;" />
  <circle cx="386" cy="209" r="10"
          style="fill:red;" />
  <circle cx="269" cy="101" r="10"
          style="fill:red;" />
  <circle cx="220" cy="466" r="10"
          style="fill:red;" />
  <circle cx="438" cy="355" r="10"
          style="fill:red;" />
  <circle cx="370" cy="326" r="10"
          style="fill:green;" />
  <circle cx="441" cy="150" r="10"
          style="fill:green;" />
  <circle cx="636" cy="37" r="10"
          style="fill:green;" />
  <circle cx="464" cy="398" r="10"
          style="fill:green;" />
  <circle cx="466" cy="314" r="10"
          style="fill:green;" />
  <circle cx="319" cy="454" r="10"
          style="fill:green;" />
  <circle cx="549" cy="365" r="10"
          style="fill:green;" />
  <circle cx="480" cy="391" r="10"
          style="fill:green;" />
  <circle cx="109" cy="287" r="10"
          style="fill:green;" />
  <circle cx="654" cy="211" r="10"
          style="fill:green;" />
  <circle cx="517" cy="453" r="10"
          style="fill:green;" />
  <circle cx="619" cy="324" r="10"
          style="fill:green;" />
  <circle cx="151" cy="209" r="10"
          style="fill:green;" />
  <circle cx="245" cy="127" r="10"
          style="fill:green;" />
  <circle cx="152" cy="359" r="10"
          style="fill:green;" />
  <circle cx="412" cy="331" r="10"
          style="fill:green;" />
  <circle cx="418" cy="469" r="10"
          style="fill:green;" />
  <circle cx="606" cy="52" r="10"
          style="fill:green;" />
  <circle cx="100" cy="329" r="10"
          style="fill:green;" />
  <circle cx="581" cy="399" r="10"
          style="fill:green;" />
  <circle cx="535" cy="451" r="10"
          style="fill:green;" />
  <circle cx="482" cy="338" r="10"
          style="fill:green;" />
  <circle cx="80" cy="185" r="10"
          style="fill:green;" />
  <circle cx="211" cy="252" r="10"
          style="fill:green;" />
  <circle cx="645" cy="98" r="10"
          style="fill:orange;" />
  <circle cx="497" cy="354" r="10"
          style="fill:orange;" />
  <circle cx="551" cy="435" r="10"
          style="fill:orange;" />
  <circle cx="190" cy="230" r="10"
          style="fill:orange;" />
  <circle cx="632" cy="138" r="10"
          style="fill:orange;" />
  <circle cx="496" cy="297" r="10"
          style="fill:green;" />
  <circle cx="333" cy="236" r="10"
          style="fill:yellow;" />
  <text x="10" y="535" font-size="15">
   DTW        = 216.7
  </text>
  <text x="10" y="555" font-size="15">
   experience = 5
  </text>
  <text x="10" y="575" font-size="15">
   reward = 0.0
  </text>
  <text x="10" y="595" font-size="15">
   objects eaten => friend: 1
  </text>
 </g>
</svg>
