<?xml version="1.0"?>
<svg height="600" width="720" >
 <g style="fill-opacity:1.0; stroke:black;
  stroke-width:1;">
  <rect x="10" y="10" height="500"
        width="700" style="fill:none;" />
  <line x1="327" y1="245" x2="447" y2="245" />
  <line x1="327" y1="245" x2="445" y2="268" />
  <line x1="327" y1="245" x2="438" y2="291" />
  <line x1="327" y1="245" x2="427" y2="312" />
  <line x1="327" y1="245" x2="412" y2="330" />
  <line x1="327" y1="245" x2="394" y2="345" />
  <line x1="327" y1="245" x2="373" y2="356" />
  <line x1="327" y1="245" x2="351" y2="363" />
  <line x1="327" y1="245" x2="327" y2="365" />
  <line x1="327" y1="245" x2="304" y2="363" />
  <line x1="327" y1="245" x2="282" y2="356" />
  <line x1="327" y1="245" x2="261" y2="345" />
  <line x1="327" y1="245" x2="243" y2="330" />
  <line x1="327" y1="245" x2="228" y2="312" />
  <line x1="327" y1="245" x2="217" y2="291" />
  <line x1="327" y1="245" x2="210" y2="268" />
  <line x1="327" y1="245" x2="207" y2="245" />
  <line x1="327" y1="245" x2="210" y2="221" />
  <line x1="327" y1="245" x2="217" y2="199" />
  <line x1="327" y1="245" x2="228" y2="178" />
  <line x1="327" y1="245" x2="243" y2="160" />
  <line x1="327" y1="245" x2="261" y2="145" />
  <line x1="327" y1="245" x2="282" y2="134" />
  <line x1="327" y1="245" x2="304" y2="127" />
  <line x1="327" y1="245" x2="327" y2="125" />
  <line x1="327" y1="245" x2="351" y2="127" />
  <line x1="327" y1="245" x2="373" y2="134" />
  <line x1="327" y1="245" x2="394" y2="145" />
  <line x1="327" y1="245" x2="412" y2="160" />
  <line x1="327" y1="245" x2="427" y2="178" />
  <line x1="327" y1="245" x2="438" y2="199" />
  <line x1="327" y1="245" x2="445" y2="221" />
  <circle cx="266" cy="377" r="10"
          style="fill:red;" />
  <circle cx="40" cy="372" r="10"
          style="fill:red;" />
  <circle cx="155" cy="64" r="10"
          style="fill:red;" />
  <circle cx="48" cy="89" r="10"
          style="fill:red;" />
  <circle cx="276" cy="25" r="10"
          style="fill:red;" />
  <circle cx="331" cy="412" r="10"
          style="fill:red;" />
  <circle cx="398" cy="241" r="10"
          style="fill:red;" />
  <circle cx="604" cy="345" r="10"
          style="fill:red;" />
  <circle cx="635" cy="23" r="10"
          style="fill:red;" />
  <circle cx="84" cy="126" r="10"
          style="fill:red;" />
  <circle cx="548" cy="280" r="10"
          style="fill:red;" />
  <circle cx="606" cy="64" r="10"
          style="fill:red;" />
  <circle cx="500" cy="425" r="10"
          style="fill:red;" />
  <circle cx="672" cy="44" r="10"
          style="fill:red;" />
  <circle cx="454" cy="269" r="10"
          style="fill:red;" />
  <circle cx="214" cy="286" r="10"
          style="fill:red;" />
  <circle cx="416" cy="362" r="10"
          style="fill:red;" />
  <circle cx="588" cy="414" r="10"
          style="fill:red;" />
  <circle cx="344" cy="358" r="10"
          style="fill:red;" />
  <circle cx="657" cy="91" r="10"
          style="fill:red;" />
  <circle cx="181" cy="99" r="10"
          style="fill:red;" />
  <circle cx="382" cy="212" r="10"
          style="fill:red;" />
  <circle cx="264" cy="105" r="10"
          style="fill:red;" />
  <circle cx="215" cy="471" r="10"
          style="fill:red;" />
  <circle cx="440" cy="350" r="10"
          style="fill:red;" />
  <circle cx="372" cy="322" r="10"
          style="fill:green;" />
  <circle cx="440" cy="151" r="10"
          style="fill:green;" />
  <circle cx="640" cy="43" r="10"
          style="fill:green;" />
  <circle cx="465" cy="403" r="10"
          style="fill:green;" />
  <circle cx="461" cy="308" r="10"
          style="fill:green;" />
  <circle cx="316" cy="457" r="10"
          style="fill:green;" />
  <circle cx="544" cy="361" r="10"
          style="fill:green;" />
  <circle cx="484" cy="386" r="10"
          style="fill:green;" />
  <circle cx="106" cy="285" r="10"
          style="fill:green;" />
  <circle cx="649" cy="207" r="10"
          style="fill:green;" />
  <circle cx="517" cy="450" r="10"
          style="fill:green;" />
  <circle cx="625" cy="319" r="10"
          style="fill:green;" />
  <circle cx="152" cy="214" r="10"
          style="fill:green;" />
  <circle cx="251" cy="126" r="10"
          style="fill:green;" />
  <circle cx="155" cy="357" r="10"
          style="fill:green;" />
  <circle cx="416" cy="327" r="10"
          style="fill:green;" />
  <circle cx="413" cy="469" r="10"
          style="fill:green;" />
  <circle cx="600" cy="55" r="10"
          style="fill:green;" />
  <circle cx="102" cy="326" r="10"
          style="fill:green;" />
  <circle cx="585" cy="401" r="10"
          style="fill:green;" />
  <circle cx="532" cy="457" r="10"
          style="fill:green;" />
  <circle cx="487" cy="338" r="10"
          style="fill:green;" />
  <circle cx="75" cy="186" r="10"
          style="fill:green;" />
  <circle cx="208" cy="253" r="10"
          style="fill:green;" />
  <circle cx="643" cy="100" r="10"
          style="fill:orange;" />
  <circle cx="496" cy="349" r="10"
          style="fill:orange;" />
  <circle cx="556" cy="431" r="10"
          style="fill:orange;" />
  <circle cx="190" cy="229" r="10"
          style="fill:orange;" />
  <circle cx="638" cy="132" r="10"
          style="fill:orange;" />
  <circle cx="499" cy="293" r="10"
          style="fill:green;" />
  <circle cx="327" cy="245" r="10"
          style="fill:yellow;" />
  <text x="10" y="535" font-size="15">
   DTW        = 225.4
  </text>
  <text x="10" y="555" font-size="15">
   experience = 6
  </text>
  <text x="10" y="575" font-size="15">
   reward = 0.0
  </text>
  <text x="10" y="595" font-size="15">
   objects eaten => friend: 1
  </text>
 </g>
</svg>
