<?xml version="1.0"?>
<svg height="600" width="720" >
 <g style="fill-opacity:1.0; stroke:black;
  stroke-width:1;">
  <rect x="10" y="10" height="500"
        width="700" style="fill:none;" />
  <line x1="321" y1="253" x2="441" y2="253" />
  <line x1="321" y1="253" x2="439" y2="277" />
  <line x1="321" y1="253" x2="432" y2="299" />
  <line x1="321" y1="253" x2="421" y2="320" />
  <line x1="321" y1="253" x2="406" y2="338" />
  <line x1="321" y1="253" x2="388" y2="353" />
  <line x1="321" y1="253" x2="367" y2="364" />
  <line x1="321" y1="253" x2="344" y2="371" />
  <line x1="321" y1="253" x2="321" y2="373" />
  <line x1="321" y1="253" x2="298" y2="371" />
  <line x1="321" y1="253" x2="275" y2="364" />
  <line x1="321" y1="253" x2="254" y2="353" />
  <line x1="321" y1="253" x2="236" y2="338" />
  <line x1="321" y1="253" x2="221" y2="320" />
  <line x1="321" y1="253" x2="210" y2="299" />
  <line x1="321" y1="253" x2="203" y2="277" />
  <line x1="321" y1="253" x2="201" y2="253" />
  <line x1="321" y1="253" x2="203" y2="230" />
  <line x1="321" y1="253" x2="210" y2="207" />
  <line x1="321" y1="253" x2="221" y2="187" />
  <line x1="321" y1="253" x2="236" y2="168" />
  <line x1="321" y1="253" x2="254" y2="154" />
  <line x1="321" y1="253" x2="275" y2="142" />
  <line x1="321" y1="253" x2="298" y2="136" />
  <line x1="321" y1="253" x2="321" y2="133" />
  <line x1="321" y1="253" x2="344" y2="136" />
  <line x1="321" y1="253" x2="367" y2="142" />
  <line x1="321" y1="253" x2="388" y2="154" />
  <line x1="321" y1="253" x2="406" y2="168" />
  <line x1="321" y1="253" x2="421" y2="187" />
  <line x1="321" y1="253" x2="432" y2="207" />
  <line x1="321" y1="253" x2="439" y2="230" />
  <circle cx="265" cy="383" r="10"
          style="fill:red;" />
  <circle cx="41" cy="378" r="10"
          style="fill:red;" />
  <circle cx="157" cy="57" r="10"
          style="fill:red;" />
  <circle cx="45" cy="91" r="10"
          style="fill:red;" />
  <circle cx="283" cy="28" r="10"
          style="fill:red;" />
  <circle cx="328" cy="410" r="10"
          style="fill:red;" />
  <circle cx="394" cy="244" r="10"
          style="fill:red;" />
  <circle cx="600" cy="339" r="10"
          style="fill:red;" />
  <circle cx="638" cy="21" r="10"
          style="fill:red;" />
  <circle cx="78" cy="133" r="10"
          style="fill:red;" />
  <circle cx="549" cy="287" r="10"
          style="fill:red;" />
  <circle cx="609" cy="66" r="10"
          style="fill:red;" />
  <circle cx="495" cy="423" r="10"
          style="fill:red;" />
  <circle cx="665" cy="48" r="10"
          style="fill:red;" />
  <circle cx="453" cy="268" r="10"
          style="fill:red;" />
  <circle cx="211" cy="281" r="10"
          style="fill:red;" />
  <circle cx="414" cy="368" r="10"
          style="fill:red;" />
  <circle cx="591" cy="408" r="10"
          style="fill:red;" />
  <circle cx="351" cy="353" r="10"
          style="fill:red;" />
  <circle cx="653" cy="86" r="10"
          style="fill:red;" />
  <circle cx="181" cy="106" r="10"
          style="fill:red;" />
  <circle cx="376" cy="216" r="10"
          style="fill:red;" />
  <circle cx="258" cy="111" r="10"
          style="fill:red;" />
  <circle cx="209" cy="476" r="10"
          style="fill:red;" />
  <circle cx="442" cy="342" r="10"
          style="fill:red;" />
  <circle cx="376" cy="318" r="10"
          style="fill:green;" />
  <circle cx="438" cy="152" r="10"
          style="fill:green;" />
  <circle cx="645" cy="50" r="10"
          style="fill:green;" />
  <circle cx="465" cy="411" r="10"
          style="fill:green;" />
  <circle cx="455" cy="301" r="10"
          style="fill:green;" />
  <circle cx="311" cy="462" r="10"
          style="fill:green;" />
  <circle cx="536" cy="355" r="10"
          style="fill:green;" />
  <circle cx="490" cy="380" r="10"
          style="fill:green;" />
  <circle cx="104" cy="282" r="10"
          style="fill:green;" />
  <circle cx="642" cy="202" r="10"
          style="fill:green;" />
  <circle cx="516" cy="447" r="10"
          style="fill:green;" />
  <circle cx="632" cy="312" r="10"
          style="fill:green;" />
  <circle cx="153" cy="220" r="10"
          style="fill:green;" />
  <circle cx="258" cy="125" r="10"
          style="fill:green;" />
  <circle cx="158" cy="356" r="10"
          style="fill:green;" />
  <circle cx="421" cy="322" r="10"
          style="fill:green;" />
  <circle cx="407" cy="469" r="10"
          style="fill:green;" />
  <circle cx="593" cy="57" r="10"
          style="fill:green;" />
  <circle cx="105" cy="323" r="10"
          style="fill:green;" />
  <circle cx="589" cy="403" r="10"
          style="fill:green;" />
  <circle cx="527" cy="464" r="10"
          style="fill:green;" />
  <circle cx="493" cy="337" r="10"
          style="fill:green;" />
  <circle cx="69" cy="187" r="10"
          style="fill:green;" />
  <circle cx="204" cy="254" r="10"
          style="fill:green;" />
  <circle cx="641" cy="102" r="10"
          style="fill:orange;" />
  <circle cx="494" cy="342" r="10"
          style="fill:orange;" />
  <circle cx="561" cy="426" r="10"
          style="fill:orange;" />
  <circle cx="190" cy="227" r="10"
          style="fill:orange;" />
  <circle cx="645" cy="125" r="10"
          style="fill:orange;" />
  <circle cx="502" cy="289" r="10"
          style="fill:green;" />
  <circle cx="321" cy="253" r="10"
          style="fill:yellow;" />
  <text x="10" y="535" font-size="15">
   DTW        = 233.8
  </text>
  <text x="10" y="555" font-size="15">
   experience = 6
  </text>
  <text x="10" y="575" font-size="15">
   reward = 0.0
  </text>
  <text x="10" y="595" font-size="15">
   objects eaten => friend: 1
  </text>
 </g>
</svg>
