<?xml version="1.0"?>
<svg height="600" width="720" >
 <g style="fill-opacity:1.0; stroke:black;
  stroke-width:1;">
  <rect x="10" y="10" height="500"
        width="700" style="fill:none;" />
  <line x1="415" y1="298" x2="535" y2="298" />
  <line x1="415" y1="298" x2="533" y2="321" />
  <line x1="415" y1="298" x2="526" y2="344" />
  <line x1="415" y1="298" x2="515" y2="364" />
  <line x1="415" y1="298" x2="500" y2="383" />
  <line x1="415" y1="298" x2="482" y2="398" />
  <line x1="415" y1="298" x2="461" y2="409" />
  <line x1="415" y1="298" x2="439" y2="415" />
  <line x1="415" y1="298" x2="415" y2="418" />
  <line x1="415" y1="298" x2="392" y2="415" />
  <line x1="415" y1="298" x2="369" y2="409" />
  <line x1="415" y1="298" x2="349" y2="398" />
  <line x1="415" y1="298" x2="330" y2="383" />
  <line x1="415" y1="298" x2="315" y2="364" />
  <line x1="415" y1="298" x2="304" y2="344" />
  <line x1="415" y1="298" x2="298" y2="321" />
  <line x1="415" y1="298" x2="295" y2="298" />
  <line x1="415" y1="298" x2="298" y2="274" />
  <line x1="415" y1="298" x2="304" y2="252" />
  <line x1="415" y1="298" x2="315" y2="231" />
  <line x1="415" y1="298" x2="330" y2="213" />
  <line x1="415" y1="298" x2="349" y2="198" />
  <line x1="415" y1="298" x2="369" y2="187" />
  <line x1="415" y1="298" x2="392" y2="180" />
  <line x1="415" y1="298" x2="415" y2="178" />
  <line x1="415" y1="298" x2="439" y2="180" />
  <line x1="415" y1="298" x2="461" y2="187" />
  <line x1="415" y1="298" x2="482" y2="198" />
  <line x1="415" y1="298" x2="500" y2="213" />
  <line x1="415" y1="298" x2="515" y2="231" />
  <line x1="415" y1="298" x2="526" y2="252" />
  <line x1="415" y1="298" x2="533" y2="274" />
  <circle cx="270" cy="272" r="10"
          style="fill:red;" />
  <circle cx="21" cy="271" r="10"
          style="fill:red;" />
  <circle cx="118" cy="189" r="10"
          style="fill:red;" />
  <circle cx="99" cy="50" r="10"
          style="fill:red;" />
  <circle cx="170" cy="62" r="10"
          style="fill:red;" />
  <circle cx="385" cy="447" r="10"
          style="fill:red;" />
  <circle cx="469" cy="199" r="10"
          style="fill:red;" />
  <circle cx="660" cy="442" r="10"
          style="fill:red;" />
  <circle cx="590" cy="68" r="10"
          style="fill:red;" />
  <circle cx="194" cy="19" r="10"
          style="fill:red;" />
  <circle cx="532" cy="159" r="10"
          style="fill:red;" />
  <circle cx="554" cy="36" r="10"
          style="fill:red;" />
  <circle cx="577" cy="456" r="10"
          style="fill:red;" />
  <circle cx="616" cy="58" r="10"
          style="fill:red;" />
  <circle cx="464" cy="276" r="10"
          style="fill:red;" />
  <circle cx="266" cy="366" r="10"
          style="fill:red;" />
  <circle cx="457" cy="252" r="10"
          style="fill:red;" />
  <circle cx="544" cy="486" r="10"
          style="fill:red;" />
  <circle cx="218" cy="445" r="10"
          style="fill:red;" />
  <circle cx="672" cy="187" r="10"
          style="fill:red;" />
  <circle cx="187" cy="60" r="10"
          style="fill:red;" />
  <circle cx="473" cy="154" r="10"
          style="fill:red;" />
  <circle cx="367" cy="28" r="10"
          style="fill:red;" />
  <circle cx="315" cy="376" r="10"
          style="fill:red;" />
  <circle cx="405" cy="473" r="10"
          style="fill:red;" />
  <circle cx="310" cy="399" r="10"
          style="fill:green;" />
  <circle cx="476" cy="134" r="10"
          style="fill:green;" />
  <circle cx="551" cy="114" r="10"
          style="fill:green;" />
  <circle cx="453" cy="281" r="10"
          style="fill:green;" />
  <circle cx="566" cy="422" r="10"
          style="fill:green;" />
  <circle cx="448" cy="316" r="10"
          style="fill:green;" />
  <circle cx="391" cy="386" r="10"
          style="fill:green;" />
  <circle cx="664" cy="456" r="10"
          style="fill:green;" />
  <circle cx="389" cy="496" r="10"
          style="fill:green;" />
  <circle cx="157" cy="335" r="10"
          style="fill:green;" />
  <circle cx="639" cy="295" r="10"
          style="fill:green;" />
  <circle cx="533" cy="487" r="10"
          style="fill:green;" />
  <circle cx="505" cy="424" r="10"
          style="fill:green;" />
  <circle cx="137" cy="108" r="10"
          style="fill:green;" />
  <circle cx="130" cy="148" r="10"
          style="fill:green;" />
  <circle cx="98" cy="383" r="10"
          style="fill:green;" />
  <circle cx="330" cy="410" r="10"
          style="fill:green;" />
  <circle cx="517" cy="473" r="10"
          style="fill:green;" />
  <circle cx="680" cy="35" r="10"
          style="fill:green;" />
  <circle cx="52" cy="376" r="10"
          style="fill:green;" />
  <circle cx="509" cy="366" r="10"
          style="fill:green;" />
  <circle cx="611" cy="330" r="10"
          style="fill:green;" />
  <circle cx="386" cy="345" r="10"
          style="fill:green;" />
  <circle cx="181" cy="172" r="10"
          style="fill:green;" />
  <circle cx="276" cy="238" r="10"
          style="fill:green;" />
  <circle cx="677" cy="60" r="10"
          style="fill:orange;" />
  <circle cx="523" cy="466" r="10"
          style="fill:orange;" />
  <circle cx="458" cy="484" r="10"
          style="fill:orange;" />
  <circle cx="193" cy="261" r="10"
          style="fill:orange;" />
  <circle cx="516" cy="255" r="10"
          style="fill:orange;" />
  <circle cx="415" cy="298" r="10"
          style="fill:yellow;" />
  <text x="10" y="535" font-size="15">
   DTW        = 201.8
  </text>
  <text x="10" y="555" font-size="15">
   experience = 0
  </text>
  <text x="10" y="575" font-size="15">
   reward = 0.0
  </text>
  <text x="10" y="595" font-size="15">
   objects eaten => 
  </text>
 </g>
</svg>
