<?xml version="1.0"?>
<svg height="600" width="720" >
 <g style="fill-opacity:1.0; stroke:black;
  stroke-width:1;">
  <rect x="10" y="10" height="500"
        width="700" style="fill:none;" />
  <line x1="319" y1="256" x2="439" y2="256" />
  <line x1="319" y1="256" x2="437" y2="280" />
  <line x1="319" y1="256" x2="430" y2="302" />
  <line x1="319" y1="256" x2="419" y2="323" />
  <line x1="319" y1="256" x2="404" y2="341" />
  <line x1="319" y1="256" x2="386" y2="356" />
  <line x1="319" y1="256" x2="365" y2="367" />
  <line x1="319" y1="256" x2="343" y2="374" />
  <line x1="319" y1="256" x2="319" y2="376" />
  <line x1="319" y1="256" x2="296" y2="374" />
  <line x1="319" y1="256" x2="273" y2="367" />
  <line x1="319" y1="256" x2="252" y2="356" />
  <line x1="319" y1="256" x2="234" y2="341" />
  <line x1="319" y1="256" x2="219" y2="323" />
  <line x1="319" y1="256" x2="208" y2="302" />
  <line x1="319" y1="256" x2="201" y2="280" />
  <line x1="319" y1="256" x2="199" y2="256" />
  <line x1="319" y1="256" x2="201" y2="233" />
  <line x1="319" y1="256" x2="208" y2="210" />
  <line x1="319" y1="256" x2="219" y2="189" />
  <line x1="319" y1="256" x2="234" y2="171" />
  <line x1="319" y1="256" x2="252" y2="156" />
  <line x1="319" y1="256" x2="273" y2="145" />
  <line x1="319" y1="256" x2="296" y2="138" />
  <line x1="319" y1="256" x2="319" y2="136" />
  <line x1="319" y1="256" x2="343" y2="138" />
  <line x1="319" y1="256" x2="365" y2="145" />
  <line x1="319" y1="256" x2="386" y2="156" />
  <line x1="319" y1="256" x2="404" y2="171" />
  <line x1="319" y1="256" x2="419" y2="189" />
  <line x1="319" y1="256" x2="430" y2="210" />
  <line x1="319" y1="256" x2="437" y2="233" />
  <circle cx="265" cy="385" r="10"
          style="fill:red;" />
  <circle cx="42" cy="381" r="10"
          style="fill:red;" />
  <circle cx="158" cy="54" r="10"
          style="fill:red;" />
  <circle cx="44" cy="92" r="10"
          style="fill:red;" />
  <circle cx="285" cy="29" r="10"
          style="fill:red;" />
  <circle cx="327" cy="409" r="10"
          style="fill:red;" />
  <circle cx="392" cy="245" r="10"
          style="fill:red;" />
  <circle cx="599" cy="337" r="10"
          style="fill:red;" />
  <circle cx="639" cy="20" r="10"
          style="fill:red;" />
  <circle cx="75" cy="135" r="10"
          style="fill:red;" />
  <circle cx="550" cy="290" r="10"
          style="fill:red;" />
  <circle cx="610" cy="66" r="10"
          style="fill:red;" />
  <circle cx="494" cy="423" r="10"
          style="fill:red;" />
  <circle cx="663" cy="49" r="10"
          style="fill:red;" />
  <circle cx="453" cy="268" r="10"
          style="fill:red;" />
  <circle cx="210" cy="280" r="10"
          style="fill:red;" />
  <circle cx="413" cy="371" r="10"
          style="fill:red;" />
  <circle cx="592" cy="405" r="10"
          style="fill:red;" />
  <circle cx="354" cy="351" r="10"
          style="fill:red;" />
  <circle cx="651" cy="83" r="10"
          style="fill:red;" />
  <circle cx="181" cy="109" r="10"
          style="fill:red;" />
  <circle cx="374" cy="217" r="10"
          style="fill:red;" />
  <circle cx="256" cy="113" r="10"
          style="fill:red;" />
  <circle cx="207" cy="479" r="10"
          style="fill:red;" />
  <circle cx="443" cy="339" r="10"
          style="fill:red;" />
  <circle cx="378" cy="316" r="10"
          style="fill:green;" />
  <circle cx="437" cy="152" r="10"
          style="fill:green;" />
  <circle cx="647" cy="53" r="10"
          style="fill:green;" />
  <circle cx="466" cy="414" r="10"
          style="fill:green;" />
  <circle cx="452" cy="299" r="10"
          style="fill:green;" />
  <circle cx="309" cy="463" r="10"
          style="fill:green;" />
  <circle cx="534" cy="353" r="10"
          style="fill:green;" />
  <circle cx="492" cy="377" r="10"
          style="fill:green;" />
  <circle cx="102" cy="281" r="10"
          style="fill:green;" />
  <circle cx="639" cy="200" r="10"
          style="fill:green;" />
  <circle cx="515" cy="445" r="10"
          style="fill:green;" />
  <circle cx="635" cy="310" r="10"
          style="fill:green;" />
  <circle cx="153" cy="223" r="10"
          style="fill:green;" />
  <circle cx="261" cy="124" r="10"
          style="fill:green;" />
  <circle cx="160" cy="355" r="10"
          style="fill:green;" />
  <circle cx="423" cy="320" r="10"
          style="fill:green;" />
  <circle cx="405" cy="469" r="10"
          style="fill:green;" />
  <circle cx="591" cy="59" r="10"
          style="fill:green;" />
  <circle cx="107" cy="322" r="10"
          style="fill:green;" />
  <circle cx="591" cy="404" r="10"
          style="fill:green;" />
  <circle cx="525" cy="467" r="10"
          style="fill:green;" />
  <circle cx="496" cy="337" r="10"
          style="fill:green;" />
  <circle cx="67" cy="187" r="10"
          style="fill:green;" />
  <circle cx="202" cy="254" r="10"
          style="fill:green;" />
  <circle cx="641" cy="103" r="10"
          style="fill:orange;" />
  <circle cx="493" cy="339" r="10"
          style="fill:orange;" />
  <circle cx="564" cy="424" r="10"
          style="fill:orange;" />
  <circle cx="190" cy="226" r="10"
          style="fill:orange;" />
  <circle cx="648" cy="122" r="10"
          style="fill:orange;" />
  <circle cx="503" cy="287" r="10"
          style="fill:green;" />
  <circle cx="319" cy="256" r="10"
          style="fill:yellow;" />
  <text x="10" y="535" font-size="15">
   DTW        = 236.6
  </text>
  <text x="10" y="555" font-size="15">
   experience = 6
  </text>
  <text x="10" y="575" font-size="15">
   reward = 0.0
  </text>
  <text x="10" y="595" font-size="15">
   objects eaten => friend: 1
  </text>
 </g>
</svg>
