<?xml version="1.0"?>
<svg height="600" width="720" >
 <g style="fill-opacity:1.0; stroke:black;
  stroke-width:1;">
  <rect x="10" y="10" height="500"
        width="700" style="fill:none;" />
  <line x1="319" y1="259" x2="439" y2="259" />
  <line x1="319" y1="259" x2="437" y2="282" />
  <line x1="319" y1="259" x2="430" y2="304" />
  <line x1="319" y1="259" x2="419" y2="325" />
  <line x1="319" y1="259" x2="404" y2="343" />
  <line x1="319" y1="259" x2="386" y2="358" />
  <line x1="319" y1="259" x2="365" y2="369" />
  <line x1="319" y1="259" x2="343" y2="376" />
  <line x1="319" y1="259" x2="319" y2="379" />
  <line x1="319" y1="259" x2="296" y2="376" />
  <line x1="319" y1="259" x2="273" y2="369" />
  <line x1="319" y1="259" x2="253" y2="358" />
  <line x1="319" y1="259" x2="234" y2="343" />
  <line x1="319" y1="259" x2="219" y2="325" />
  <line x1="319" y1="259" x2="208" y2="304" />
  <line x1="319" y1="259" x2="202" y2="282" />
  <line x1="319" y1="259" x2="199" y2="259" />
  <line x1="319" y1="259" x2="202" y2="235" />
  <line x1="319" y1="259" x2="208" y2="213" />
  <line x1="319" y1="259" x2="219" y2="192" />
  <line x1="319" y1="259" x2="234" y2="174" />
  <line x1="319" y1="259" x2="253" y2="159" />
  <line x1="319" y1="259" x2="273" y2="148" />
  <line x1="319" y1="259" x2="296" y2="141" />
  <line x1="319" y1="259" x2="319" y2="139" />
  <line x1="319" y1="259" x2="343" y2="141" />
  <line x1="319" y1="259" x2="365" y2="148" />
  <line x1="319" y1="259" x2="386" y2="159" />
  <line x1="319" y1="259" x2="404" y2="174" />
  <line x1="319" y1="259" x2="419" y2="192" />
  <line x1="319" y1="259" x2="430" y2="213" />
  <line x1="319" y1="259" x2="437" y2="235" />
  <circle cx="265" cy="388" r="10"
          style="fill:red;" />
  <circle cx="42" cy="383" r="10"
          style="fill:red;" />
  <circle cx="159" cy="51" r="10"
          style="fill:red;" />
  <circle cx="43" cy="93" r="10"
          style="fill:red;" />
  <circle cx="288" cy="31" r="10"
          style="fill:red;" />
  <circle cx="326" cy="408" r="10"
          style="fill:red;" />
  <circle cx="391" cy="246" r="10"
          style="fill:red;" />
  <circle cx="598" cy="335" r="10"
          style="fill:red;" />
  <circle cx="640" cy="20" r="10"
          style="fill:red;" />
  <circle cx="73" cy="138" r="10"
          style="fill:red;" />
  <circle cx="550" cy="293" r="10"
          style="fill:red;" />
  <circle cx="611" cy="67" r="10"
          style="fill:red;" />
  <circle cx="492" cy="422" r="10"
          style="fill:red;" />
  <circle cx="660" cy="51" r="10"
          style="fill:red;" />
  <circle cx="453" cy="268" r="10"
          style="fill:red;" />
  <circle cx="209" cy="278" r="10"
          style="fill:red;" />
  <circle cx="412" cy="374" r="10"
          style="fill:red;" />
  <circle cx="593" cy="403" r="10"
          style="fill:red;" />
  <circle cx="357" cy="348" r="10"
          style="fill:red;" />
  <circle cx="649" cy="81" r="10"
          style="fill:red;" />
  <circle cx="180" cy="112" r="10"
          style="fill:red;" />
  <circle cx="372" cy="218" r="10"
          style="fill:red;" />
  <circle cx="254" cy="116" r="10"
          style="fill:red;" />
  <circle cx="204" cy="481" r="10"
          style="fill:red;" />
  <circle cx="444" cy="336" r="10"
          style="fill:red;" />
  <circle cx="379" cy="314" r="10"
          style="fill:green;" />
  <circle cx="436" cy="152" r="10"
          style="fill:green;" />
  <circle cx="650" cy="55" r="10"
          style="fill:green;" />
  <circle cx="466" cy="416" r="10"
          style="fill:green;" />
  <circle cx="450" cy="296" r="10"
          style="fill:green;" />
  <circle cx="308" cy="465" r="10"
          style="fill:green;" />
  <circle cx="531" cy="351" r="10"
          style="fill:green;" />
  <circle cx="494" cy="374" r="10"
          style="fill:green;" />
  <circle cx="101" cy="279" r="10"
          style="fill:green;" />
  <circle cx="637" cy="198" r="10"
          style="fill:green;" />
  <circle cx="515" cy="444" r="10"
          style="fill:green;" />
  <circle cx="638" cy="307" r="10"
          style="fill:green;" />
  <circle cx="153" cy="225" r="10"
          style="fill:green;" />
  <circle cx="264" cy="124" r="10"
          style="fill:green;" />
  <circle cx="161" cy="355" r="10"
          style="fill:green;" />
  <circle cx="425" cy="318" r="10"
          style="fill:green;" />
  <circle cx="402" cy="469" r="10"
          style="fill:green;" />
  <circle cx="588" cy="60" r="10"
          style="fill:green;" />
  <circle cx="108" cy="321" r="10"
          style="fill:green;" />
  <circle cx="593" cy="405" r="10"
          style="fill:green;" />
  <circle cx="523" cy="470" r="10"
          style="fill:green;" />
  <circle cx="498" cy="337" r="10"
          style="fill:green;" />
  <circle cx="64" cy="187" r="10"
          style="fill:green;" />
  <circle cx="200" cy="255" r="10"
          style="fill:green;" />
  <circle cx="640" cy="104" r="10"
          style="fill:orange;" />
  <circle cx="493" cy="336" r="10"
          style="fill:orange;" />
  <circle cx="566" cy="423" r="10"
          style="fill:orange;" />
  <circle cx="189" cy="225" r="10"
          style="fill:orange;" />
  <circle cx="651" cy="119" r="10"
          style="fill:orange;" />
  <circle cx="505" cy="285" r="10"
          style="fill:green;" />
  <circle cx="319" cy="259" r="10"
          style="fill:yellow;" />
  <text x="10" y="535" font-size="15">
   DTW        = 239.1
  </text>
  <text x="10" y="555" font-size="15">
   experience = 6
  </text>
  <text x="10" y="575" font-size="15">
   reward = 0.0
  </text>
  <text x="10" y="595" font-size="15">
   objects eaten => friend: 1
  </text>
 </g>
</svg>
