<?xml version="1.0"?>
<svg height="600" width="720" >
 <g style="fill-opacity:1.0; stroke:black;
  stroke-width:1;">
  <rect x="10" y="10" height="500"
        width="700" style="fill:none;" />
  <line x1="318" y1="261" x2="438" y2="261" />
  <line x1="318" y1="261" x2="435" y2="284" />
  <line x1="318" y1="261" x2="429" y2="307" />
  <line x1="318" y1="261" x2="418" y2="327" />
  <line x1="318" y1="261" x2="403" y2="346" />
  <line x1="318" y1="261" x2="384" y2="361" />
  <line x1="318" y1="261" x2="364" y2="372" />
  <line x1="318" y1="261" x2="341" y2="378" />
  <line x1="318" y1="261" x2="318" y2="381" />
  <line x1="318" y1="261" x2="294" y2="378" />
  <line x1="318" y1="261" x2="272" y2="372" />
  <line x1="318" y1="261" x2="251" y2="361" />
  <line x1="318" y1="261" x2="233" y2="346" />
  <line x1="318" y1="261" x2="218" y2="327" />
  <line x1="318" y1="261" x2="207" y2="307" />
  <line x1="318" y1="261" x2="200" y2="284" />
  <line x1="318" y1="261" x2="198" y2="261" />
  <line x1="318" y1="261" x2="200" y2="237" />
  <line x1="318" y1="261" x2="207" y2="215" />
  <line x1="318" y1="261" x2="218" y2="194" />
  <line x1="318" y1="261" x2="233" y2="176" />
  <line x1="318" y1="261" x2="251" y2="161" />
  <line x1="318" y1="261" x2="272" y2="150" />
  <line x1="318" y1="261" x2="294" y2="143" />
  <line x1="318" y1="261" x2="318" y2="141" />
  <line x1="318" y1="261" x2="341" y2="143" />
  <line x1="318" y1="261" x2="364" y2="150" />
  <line x1="318" y1="261" x2="384" y2="161" />
  <line x1="318" y1="261" x2="403" y2="176" />
  <line x1="318" y1="261" x2="418" y2="194" />
  <line x1="318" y1="261" x2="429" y2="215" />
  <line x1="318" y1="261" x2="435" y2="237" />
  <circle cx="265" cy="390" r="10"
          style="fill:red;" />
  <circle cx="43" cy="385" r="10"
          style="fill:red;" />
  <circle cx="160" cy="48" r="10"
          style="fill:red;" />
  <circle cx="41" cy="94" r="10"
          style="fill:red;" />
  <circle cx="290" cy="32" r="10"
          style="fill:red;" />
  <circle cx="324" cy="407" r="10"
          style="fill:red;" />
  <circle cx="389" cy="247" r="10"
          style="fill:red;" />
  <circle cx="596" cy="333" r="10"
          style="fill:red;" />
  <circle cx="641" cy="21" r="10"
          style="fill:red;" />
  <circle cx="70" cy="140" r="10"
          style="fill:red;" />
  <circle cx="551" cy="296" r="10"
          style="fill:red;" />
  <circle cx="613" cy="68" r="10"
          style="fill:red;" />
  <circle cx="490" cy="421" r="10"
          style="fill:red;" />
  <circle cx="658" cy="52" r="10"
          style="fill:red;" />
  <circle cx="452" cy="268" r="10"
          style="fill:red;" />
  <circle cx="207" cy="276" r="10"
          style="fill:red;" />
  <circle cx="411" cy="376" r="10"
          style="fill:red;" />
  <circle cx="594" cy="401" r="10"
          style="fill:red;" />
  <circle cx="360" cy="346" r="10"
          style="fill:red;" />
  <circle cx="648" cy="79" r="10"
          style="fill:red;" />
  <circle cx="180" cy="115" r="10"
          style="fill:red;" />
  <circle cx="370" cy="220" r="10"
          style="fill:red;" />
  <circle cx="251" cy="118" r="10"
          style="fill:red;" />
  <circle cx="202" cy="483" r="10"
          style="fill:red;" />
  <circle cx="444" cy="334" r="10"
          style="fill:red;" />
  <circle cx="380" cy="312" r="10"
          style="fill:green;" />
  <circle cx="435" cy="153" r="10"
          style="fill:green;" />
  <circle cx="652" cy="58" r="10"
          style="fill:green;" />
  <circle cx="466" cy="419" r="10"
          style="fill:green;" />
  <circle cx="448" cy="293" r="10"
          style="fill:green;" />
  <circle cx="306" cy="467" r="10"
          style="fill:green;" />
  <circle cx="528" cy="349" r="10"
          style="fill:green;" />
  <circle cx="496" cy="372" r="10"
          style="fill:green;" />
  <circle cx="100" cy="278" r="10"
          style="fill:green;" />
  <circle cx="634" cy="195" r="10"
          style="fill:green;" />
  <circle cx="515" cy="443" r="10"
          style="fill:green;" />
  <circle cx="640" cy="305" r="10"
          style="fill:green;" />
  <circle cx="154" cy="228" r="10"
          style="fill:green;" />
  <circle cx="267" cy="123" r="10"
          style="fill:green;" />
  <circle cx="162" cy="354" r="10"
          style="fill:green;" />
  <circle cx="427" cy="316" r="10"
          style="fill:green;" />
  <circle cx="400" cy="468" r="10"
          style="fill:green;" />
  <circle cx="585" cy="61" r="10"
          style="fill:green;" />
  <circle cx="109" cy="320" r="10"
          style="fill:green;" />
  <circle cx="594" cy="405" r="10"
          style="fill:green;" />
  <circle cx="521" cy="473" r="10"
          style="fill:green;" />
  <circle cx="500" cy="337" r="10"
          style="fill:green;" />
  <circle cx="62" cy="188" r="10"
          style="fill:green;" />
  <circle cx="199" cy="255" r="10"
          style="fill:green;" />
  <circle cx="639" cy="105" r="10"
          style="fill:orange;" />
  <circle cx="492" cy="334" r="10"
          style="fill:orange;" />
  <circle cx="568" cy="421" r="10"
          style="fill:orange;" />
  <circle cx="189" cy="224" r="10"
          style="fill:orange;" />
  <circle cx="654" cy="116" r="10"
          style="fill:orange;" />
  <circle cx="506" cy="283" r="10"
          style="fill:green;" />
  <circle cx="318" cy="261" r="10"
          style="fill:yellow;" />
  <text x="10" y="535" font-size="15">
   DTW        = 238.7
  </text>
  <text x="10" y="555" font-size="15">
   experience = 6
  </text>
  <text x="10" y="575" font-size="15">
   reward = 0.0
  </text>
  <text x="10" y="595" font-size="15">
   objects eaten => friend: 1
  </text>
 </g>
</svg>
