<?xml version="1.0"?>
<svg height="600" width="720" >
 <g style="fill-opacity:1.0; stroke:black;
  stroke-width:1;">
  <rect x="10" y="10" height="500"
        width="700" style="fill:none;" />
  <line x1="316" y1="262" x2="436" y2="262" />
  <line x1="316" y1="262" x2="434" y2="285" />
  <line x1="316" y1="262" x2="427" y2="308" />
  <line x1="316" y1="262" x2="416" y2="328" />
  <line x1="316" y1="262" x2="401" y2="347" />
  <line x1="316" y1="262" x2="383" y2="362" />
  <line x1="316" y1="262" x2="362" y2="373" />
  <line x1="316" y1="262" x2="340" y2="379" />
  <line x1="316" y1="262" x2="316" y2="382" />
  <line x1="316" y1="262" x2="293" y2="379" />
  <line x1="316" y1="262" x2="270" y2="373" />
  <line x1="316" y1="262" x2="250" y2="362" />
  <line x1="316" y1="262" x2="231" y2="347" />
  <line x1="316" y1="262" x2="216" y2="328" />
  <line x1="316" y1="262" x2="205" y2="308" />
  <line x1="316" y1="262" x2="199" y2="285" />
  <line x1="316" y1="262" x2="196" y2="262" />
  <line x1="316" y1="262" x2="199" y2="238" />
  <line x1="316" y1="262" x2="205" y2="216" />
  <line x1="316" y1="262" x2="216" y2="195" />
  <line x1="316" y1="262" x2="231" y2="177" />
  <line x1="316" y1="262" x2="250" y2="162" />
  <line x1="316" y1="262" x2="270" y2="151" />
  <line x1="316" y1="262" x2="293" y2="144" />
  <line x1="316" y1="262" x2="316" y2="142" />
  <line x1="316" y1="262" x2="340" y2="144" />
  <line x1="316" y1="262" x2="362" y2="151" />
  <line x1="316" y1="262" x2="383" y2="162" />
  <line x1="316" y1="262" x2="401" y2="177" />
  <line x1="316" y1="262" x2="416" y2="195" />
  <line x1="316" y1="262" x2="427" y2="216" />
  <line x1="316" y1="262" x2="434" y2="238" />
  <circle cx="265" cy="392" r="10"
          style="fill:red;" />
  <circle cx="43" cy="387" r="10"
          style="fill:red;" />
  <circle cx="160" cy="47" r="10"
          style="fill:red;" />
  <circle cx="41" cy="94" r="10"
          style="fill:red;" />
  <circle cx="291" cy="32" r="10"
          style="fill:red;" />
  <circle cx="324" cy="407" r="10"
          style="fill:red;" />
  <circle cx="388" cy="247" r="10"
          style="fill:red;" />
  <circle cx="596" cy="332" r="10"
          style="fill:red;" />
  <circle cx="642" cy="21" r="10"
          style="fill:red;" />
  <circle cx="69" cy="142" r="10"
          style="fill:red;" />
  <circle cx="551" cy="297" r="10"
          style="fill:red;" />
  <circle cx="613" cy="68" r="10"
          style="fill:red;" />
  <circle cx="489" cy="421" r="10"
          style="fill:red;" />
  <circle cx="656" cy="53" r="10"
          style="fill:red;" />
  <circle cx="452" cy="268" r="10"
          style="fill:red;" />
  <circle cx="207" cy="275" r="10"
          style="fill:red;" />
  <circle cx="411" cy="377" r="10"
          style="fill:red;" />
  <circle cx="594" cy="400" r="10"
          style="fill:red;" />
  <circle cx="362" cy="345" r="10"
          style="fill:red;" />
  <circle cx="647" cy="78" r="10"
          style="fill:red;" />
  <circle cx="180" cy="116" r="10"
          style="fill:red;" />
  <circle cx="369" cy="220" r="10"
          style="fill:red;" />
  <circle cx="250" cy="119" r="10"
          style="fill:red;" />
  <circle cx="201" cy="484" r="10"
          style="fill:red;" />
  <circle cx="445" cy="332" r="10"
          style="fill:red;" />
  <circle cx="381" cy="311" r="10"
          style="fill:green;" />
  <circle cx="435" cy="153" r="10"
          style="fill:green;" />
  <circle cx="653" cy="60" r="10"
          style="fill:green;" />
  <circle cx="466" cy="421" r="10"
          style="fill:green;" />
  <circle cx="446" cy="292" r="10"
          style="fill:green;" />
  <circle cx="305" cy="467" r="10"
          style="fill:green;" />
  <circle cx="527" cy="348" r="10"
          style="fill:green;" />
  <circle cx="498" cy="371" r="10"
          style="fill:green;" />
  <circle cx="99" cy="278" r="10"
          style="fill:green;" />
  <circle cx="633" cy="194" r="10"
          style="fill:green;" />
  <circle cx="514" cy="442" r="10"
          style="fill:green;" />
  <circle cx="642" cy="304" r="10"
          style="fill:green;" />
  <circle cx="154" cy="229" r="10"
          style="fill:green;" />
  <circle cx="268" cy="123" r="10"
          style="fill:green;" />
  <circle cx="163" cy="354" r="10"
          style="fill:green;" />
  <circle cx="428" cy="315" r="10"
          style="fill:green;" />
  <circle cx="399" cy="468" r="10"
          style="fill:green;" />
  <circle cx="584" cy="62" r="10"
          style="fill:green;" />
  <circle cx="109" cy="319" r="10"
          style="fill:green;" />
  <circle cx="595" cy="406" r="10"
          style="fill:green;" />
  <circle cx="521" cy="475" r="10"
          style="fill:green;" />
  <circle cx="502" cy="337" r="10"
          style="fill:green;" />
  <circle cx="60" cy="188" r="10"
          style="fill:green;" />
  <circle cx="198" cy="255" r="10"
          style="fill:green;" />
  <circle cx="639" cy="105" r="10"
          style="fill:orange;" />
  <circle cx="492" cy="332" r="10"
          style="fill:orange;" />
  <circle cx="570" cy="420" r="10"
          style="fill:orange;" />
  <circle cx="189" cy="224" r="10"
          style="fill:orange;" />
  <circle cx="655" cy="114" r="10"
          style="fill:orange;" />
  <circle cx="507" cy="282" r="10"
          style="fill:green;" />
  <circle cx="316" cy="262" r="10"
          style="fill:yellow;" />
  <text x="10" y="535" font-size="15">
   DTW        = 237.7
  </text>
  <text x="10" y="555" font-size="15">
   experience = 6
  </text>
  <text x="10" y="575" font-size="15">
   reward = 0.0
  </text>
  <text x="10" y="595" font-size="15">
   objects eaten => friend: 1
  </text>
 </g>
</svg>
