<?xml version="1.0"?>
<svg height="600" width="720" >
 <g style="fill-opacity:1.0; stroke:black;
  stroke-width:1;">
  <rect x="10" y="10" height="500"
        width="700" style="fill:none;" />
  <line x1="313" y1="264" x2="433" y2="264" />
  <line x1="313" y1="264" x2="431" y2="287" />
  <line x1="313" y1="264" x2="424" y2="310" />
  <line x1="313" y1="264" x2="413" y2="330" />
  <line x1="313" y1="264" x2="398" y2="349" />
  <line x1="313" y1="264" x2="380" y2="364" />
  <line x1="313" y1="264" x2="359" y2="375" />
  <line x1="313" y1="264" x2="337" y2="381" />
  <line x1="313" y1="264" x2="313" y2="384" />
  <line x1="313" y1="264" x2="290" y2="381" />
  <line x1="313" y1="264" x2="267" y2="375" />
  <line x1="313" y1="264" x2="247" y2="364" />
  <line x1="313" y1="264" x2="228" y2="349" />
  <line x1="313" y1="264" x2="213" y2="330" />
  <line x1="313" y1="264" x2="202" y2="310" />
  <line x1="313" y1="264" x2="196" y2="287" />
  <line x1="313" y1="264" x2="193" y2="264" />
  <line x1="313" y1="264" x2="196" y2="240" />
  <line x1="313" y1="264" x2="202" y2="218" />
  <line x1="313" y1="264" x2="213" y2="197" />
  <line x1="313" y1="264" x2="228" y2="179" />
  <line x1="313" y1="264" x2="247" y2="164" />
  <line x1="313" y1="264" x2="267" y2="153" />
  <line x1="313" y1="264" x2="290" y2="146" />
  <line x1="313" y1="264" x2="313" y2="144" />
  <line x1="313" y1="264" x2="337" y2="146" />
  <line x1="313" y1="264" x2="359" y2="153" />
  <line x1="313" y1="264" x2="380" y2="164" />
  <line x1="313" y1="264" x2="398" y2="179" />
  <line x1="313" y1="264" x2="413" y2="197" />
  <line x1="313" y1="264" x2="424" y2="218" />
  <line x1="313" y1="264" x2="431" y2="240" />
  <circle cx="265" cy="394" r="10"
          style="fill:red;" />
  <circle cx="43" cy="389" r="10"
          style="fill:red;" />
  <circle cx="161" cy="44" r="10"
          style="fill:red;" />
  <circle cx="39" cy="95" r="10"
          style="fill:red;" />
  <circle cx="294" cy="34" r="10"
          style="fill:red;" />
  <circle cx="323" cy="406" r="10"
          style="fill:red;" />
  <circle cx="386" cy="248" r="10"
          style="fill:red;" />
  <circle cx="594" cy="329" r="10"
          style="fill:red;" />
  <circle cx="643" cy="22" r="10"
          style="fill:red;" />
  <circle cx="66" cy="144" r="10"
          style="fill:red;" />
  <circle cx="551" cy="300" r="10"
          style="fill:red;" />
  <circle cx="614" cy="69" r="10"
          style="fill:red;" />
  <circle cx="487" cy="420" r="10"
          style="fill:red;" />
  <circle cx="654" cy="54" r="10"
          style="fill:red;" />
  <circle cx="452" cy="268" r="10"
          style="fill:red;" />
  <circle cx="206" cy="273" r="10"
          style="fill:red;" />
  <circle cx="410" cy="380" r="10"
          style="fill:red;" />
  <circle cx="595" cy="397" r="10"
          style="fill:red;" />
  <circle cx="365" cy="343" r="10"
          style="fill:red;" />
  <circle cx="645" cy="75" r="10"
          style="fill:red;" />
  <circle cx="180" cy="119" r="10"
          style="fill:red;" />
  <circle cx="366" cy="222" r="10"
          style="fill:red;" />
  <circle cx="248" cy="121" r="10"
          style="fill:red;" />
  <circle cx="198" cy="486" r="10"
          style="fill:red;" />
  <circle cx="446" cy="329" r="10"
          style="fill:red;" />
  <circle cx="383" cy="309" r="10"
          style="fill:green;" />
  <circle cx="434" cy="153" r="10"
          style="fill:green;" />
  <circle cx="655" cy="62" r="10"
          style="fill:green;" />
  <circle cx="466" cy="424" r="10"
          style="fill:green;" />
  <circle cx="444" cy="289" r="10"
          style="fill:green;" />
  <circle cx="303" cy="469" r="10"
          style="fill:green;" />
  <circle cx="524" cy="345" r="10"
          style="fill:green;" />
  <circle cx="500" cy="368" r="10"
          style="fill:green;" />
  <circle cx="98" cy="276" r="10"
          style="fill:green;" />
  <circle cx="630" cy="192" r="10"
          style="fill:green;" />
  <circle cx="514" cy="440" r="10"
          style="fill:green;" />
  <circle cx="645" cy="301" r="10"
          style="fill:green;" />
  <circle cx="154" cy="232" r="10"
          style="fill:green;" />
  <circle cx="271" cy="123" r="10"
          style="fill:green;" />
  <circle cx="164" cy="353" r="10"
          style="fill:green;" />
  <circle cx="430" cy="313" r="10"
          style="fill:green;" />
  <circle cx="396" cy="468" r="10"
          style="fill:green;" />
  <circle cx="581" cy="63" r="10"
          style="fill:green;" />
  <circle cx="111" cy="318" r="10"
          style="fill:green;" />
  <circle cx="597" cy="407" r="10"
          style="fill:green;" />
  <circle cx="519" cy="478" r="10"
          style="fill:green;" />
  <circle cx="504" cy="336" r="10"
          style="fill:green;" />
  <circle cx="58" cy="188" r="10"
          style="fill:green;" />
  <circle cx="196" cy="256" r="10"
          style="fill:green;" />
  <circle cx="638" cy="106" r="10"
          style="fill:orange;" />
  <circle cx="491" cy="329" r="10"
          style="fill:orange;" />
  <circle cx="572" cy="418" r="10"
          style="fill:orange;" />
  <circle cx="189" cy="223" r="10"
          style="fill:orange;" />
  <circle cx="658" cy="112" r="10"
          style="fill:orange;" />
  <circle cx="508" cy="281" r="10"
          style="fill:green;" />
  <circle cx="313" cy="264" r="10"
          style="fill:yellow;" />
  <text x="10" y="535" font-size="15">
   DTW        = 235.8
  </text>
  <text x="10" y="555" font-size="15">
   experience = 7
  </text>
  <text x="10" y="575" font-size="15">
   reward = 0.0
  </text>
  <text x="10" y="595" font-size="15">
   objects eaten => friend: 1
  </text>
 </g>
</svg>
