<?xml version="1.0"?>
<svg height="600" width="720" >
 <g style="fill-opacity:1.0; stroke:black;
  stroke-width:1;">
  <rect x="10" y="10" height="500"
        width="700" style="fill:none;" />
  <line x1="312" y1="263" x2="432" y2="263" />
  <line x1="312" y1="263" x2="430" y2="286" />
  <line x1="312" y1="263" x2="423" y2="309" />
  <line x1="312" y1="263" x2="412" y2="330" />
  <line x1="312" y1="263" x2="397" y2="348" />
  <line x1="312" y1="263" x2="379" y2="363" />
  <line x1="312" y1="263" x2="358" y2="374" />
  <line x1="312" y1="263" x2="335" y2="381" />
  <line x1="312" y1="263" x2="312" y2="383" />
  <line x1="312" y1="263" x2="289" y2="381" />
  <line x1="312" y1="263" x2="266" y2="374" />
  <line x1="312" y1="263" x2="245" y2="363" />
  <line x1="312" y1="263" x2="227" y2="348" />
  <line x1="312" y1="263" x2="212" y2="330" />
  <line x1="312" y1="263" x2="201" y2="309" />
  <line x1="312" y1="263" x2="194" y2="286" />
  <line x1="312" y1="263" x2="192" y2="263" />
  <line x1="312" y1="263" x2="194" y2="240" />
  <line x1="312" y1="263" x2="201" y2="217" />
  <line x1="312" y1="263" x2="212" y2="196" />
  <line x1="312" y1="263" x2="227" y2="178" />
  <line x1="312" y1="263" x2="245" y2="163" />
  <line x1="312" y1="263" x2="266" y2="152" />
  <line x1="312" y1="263" x2="289" y2="145" />
  <line x1="312" y1="263" x2="312" y2="143" />
  <line x1="312" y1="263" x2="335" y2="145" />
  <line x1="312" y1="263" x2="358" y2="152" />
  <line x1="312" y1="263" x2="379" y2="163" />
  <line x1="312" y1="263" x2="397" y2="178" />
  <line x1="312" y1="263" x2="412" y2="196" />
  <line x1="312" y1="263" x2="423" y2="217" />
  <line x1="312" y1="263" x2="430" y2="240" />
  <circle cx="265" cy="395" r="10"
          style="fill:red;" />
  <circle cx="43" cy="390" r="10"
          style="fill:red;" />
  <circle cx="162" cy="42" r="10"
          style="fill:red;" />
  <circle cx="39" cy="96" r="10"
          style="fill:red;" />
  <circle cx="295" cy="34" r="10"
          style="fill:red;" />
  <circle cx="322" cy="405" r="10"
          style="fill:red;" />
  <circle cx="386" cy="249" r="10"
          style="fill:red;" />
  <circle cx="594" cy="328" r="10"
          style="fill:red;" />
  <circle cx="643" cy="23" r="10"
          style="fill:red;" />
  <circle cx="65" cy="145" r="10"
          style="fill:red;" />
  <circle cx="551" cy="301" r="10"
          style="fill:red;" />
  <circle cx="615" cy="69" r="10"
          style="fill:red;" />
  <circle cx="486" cy="420" r="10"
          style="fill:red;" />
  <circle cx="652" cy="55" r="10"
          style="fill:red;" />
  <circle cx="452" cy="267" r="10"
          style="fill:red;" />
  <circle cx="205" cy="272" r="10"
          style="fill:red;" />
  <circle cx="409" cy="381" r="10"
          style="fill:red;" />
  <circle cx="596" cy="396" r="10"
          style="fill:red;" />
  <circle cx="366" cy="342" r="10"
          style="fill:red;" />
  <circle cx="645" cy="74" r="10"
          style="fill:red;" />
  <circle cx="180" cy="121" r="10"
          style="fill:red;" />
  <circle cx="365" cy="222" r="10"
          style="fill:red;" />
  <circle cx="246" cy="122" r="10"
          style="fill:red;" />
  <circle cx="197" cy="487" r="10"
          style="fill:red;" />
  <circle cx="446" cy="328" r="10"
          style="fill:red;" />
  <circle cx="383" cy="309" r="10"
          style="fill:green;" />
  <circle cx="433" cy="154" r="10"
          style="fill:green;" />
  <circle cx="656" cy="64" r="10"
          style="fill:green;" />
  <circle cx="467" cy="425" r="10"
          style="fill:green;" />
  <circle cx="443" cy="288" r="10"
          style="fill:green;" />
  <circle cx="302" cy="470" r="10"
          style="fill:green;" />
  <circle cx="522" cy="344" r="10"
          style="fill:green;" />
  <circle cx="501" cy="367" r="10"
          style="fill:green;" />
  <circle cx="98" cy="276" r="10"
          style="fill:green;" />
  <circle cx="629" cy="191" r="10"
          style="fill:green;" />
  <circle cx="514" cy="440" r="10"
          style="fill:green;" />
  <circle cx="646" cy="300" r="10"
          style="fill:green;" />
  <circle cx="154" cy="233" r="10"
          style="fill:green;" />
  <circle cx="272" cy="122" r="10"
          style="fill:green;" />
  <circle cx="165" cy="353" r="10"
          style="fill:green;" />
  <circle cx="431" cy="313" r="10"
          style="fill:green;" />
  <circle cx="395" cy="468" r="10"
          style="fill:green;" />
  <circle cx="580" cy="63" r="10"
          style="fill:green;" />
  <circle cx="111" cy="317" r="10"
          style="fill:green;" />
  <circle cx="598" cy="407" r="10"
          style="fill:green;" />
  <circle cx="518" cy="479" r="10"
          style="fill:green;" />
  <circle cx="505" cy="336" r="10"
          style="fill:green;" />
  <circle cx="57" cy="188" r="10"
          style="fill:green;" />
  <circle cx="196" cy="256" r="10"
          style="fill:green;" />
  <circle cx="637" cy="107" r="10"
          style="fill:orange;" />
  <circle cx="491" cy="328" r="10"
          style="fill:orange;" />
  <circle cx="573" cy="417" r="10"
          style="fill:orange;" />
  <circle cx="189" cy="223" r="10"
          style="fill:orange;" />
  <circle cx="660" cy="110" r="10"
          style="fill:orange;" />
  <circle cx="509" cy="280" r="10"
          style="fill:green;" />
  <circle cx="312" cy="263" r="10"
          style="fill:yellow;" />
  <text x="10" y="535" font-size="15">
   DTW        = 236.5
  </text>
  <text x="10" y="555" font-size="15">
   experience = 7
  </text>
  <text x="10" y="575" font-size="15">
   reward = 0.0
  </text>
  <text x="10" y="595" font-size="15">
   objects eaten => friend: 1
  </text>
 </g>
</svg>
