<?xml version="1.0"?>
<svg height="600" width="720" >
 <g style="fill-opacity:1.0; stroke:black;
  stroke-width:1;">
  <rect x="10" y="10" height="500"
        width="700" style="fill:none;" />
  <line x1="309" y1="261" x2="429" y2="261" />
  <line x1="309" y1="261" x2="426" y2="284" />
  <line x1="309" y1="261" x2="419" y2="307" />
  <line x1="309" y1="261" x2="408" y2="328" />
  <line x1="309" y1="261" x2="393" y2="346" />
  <line x1="309" y1="261" x2="375" y2="361" />
  <line x1="309" y1="261" x2="354" y2="372" />
  <line x1="309" y1="261" x2="332" y2="379" />
  <line x1="309" y1="261" x2="309" y2="381" />
  <line x1="309" y1="261" x2="285" y2="379" />
  <line x1="309" y1="261" x2="263" y2="372" />
  <line x1="309" y1="261" x2="242" y2="361" />
  <line x1="309" y1="261" x2="224" y2="346" />
  <line x1="309" y1="261" x2="209" y2="328" />
  <line x1="309" y1="261" x2="198" y2="307" />
  <line x1="309" y1="261" x2="191" y2="284" />
  <line x1="309" y1="261" x2="189" y2="261" />
  <line x1="309" y1="261" x2="191" y2="237" />
  <line x1="309" y1="261" x2="198" y2="215" />
  <line x1="309" y1="261" x2="209" y2="194" />
  <line x1="309" y1="261" x2="224" y2="176" />
  <line x1="309" y1="261" x2="242" y2="161" />
  <line x1="309" y1="261" x2="263" y2="150" />
  <line x1="309" y1="261" x2="285" y2="143" />
  <line x1="309" y1="261" x2="309" y2="141" />
  <line x1="309" y1="261" x2="332" y2="143" />
  <line x1="309" y1="261" x2="354" y2="150" />
  <line x1="309" y1="261" x2="375" y2="161" />
  <line x1="309" y1="261" x2="393" y2="176" />
  <line x1="309" y1="261" x2="408" y2="194" />
  <line x1="309" y1="261" x2="419" y2="215" />
  <line x1="309" y1="261" x2="426" y2="237" />
  <circle cx="265" cy="399" r="10"
          style="fill:red;" />
  <circle cx="44" cy="394" r="10"
          style="fill:red;" />
  <circle cx="163" cy="38" r="10"
          style="fill:red;" />
  <circle cx="37" cy="97" r="10"
          style="fill:red;" />
  <circle cx="299" cy="36" r="10"
          style="fill:red;" />
  <circle cx="320" cy="404" r="10"
          style="fill:red;" />
  <circle cx="383" cy="250" r="10"
          style="fill:red;" />
  <circle cx="592" cy="325" r="10"
          style="fill:red;" />
  <circle cx="645" cy="24" r="10"
          style="fill:red;" />
  <circle cx="61" cy="149" r="10"
          style="fill:red;" />
  <circle cx="552" cy="306" r="10"
          style="fill:red;" />
  <circle cx="617" cy="70" r="10"
          style="fill:red;" />
  <circle cx="484" cy="419" r="10"
          style="fill:red;" />
  <circle cx="649" cy="57" r="10"
          style="fill:red;" />
  <circle cx="451" cy="267" r="10"
          style="fill:red;" />
  <circle cx="203" cy="269" r="10"
          style="fill:red;" />
  <circle cx="408" cy="385" r="10"
          style="fill:red;" />
  <circle cx="597" cy="393" r="10"
          style="fill:red;" />
  <circle cx="370" cy="339" r="10"
          style="fill:red;" />
  <circle cx="642" cy="71" r="10"
          style="fill:red;" />
  <circle cx="180" cy="125" r="10"
          style="fill:red;" />
  <circle cx="362" cy="224" r="10"
          style="fill:red;" />
  <circle cx="243" cy="126" r="10"
          style="fill:red;" />
  <circle cx="194" cy="491" r="10"
          style="fill:red;" />
  <circle cx="447" cy="323" r="10"
          style="fill:red;" />
  <circle cx="386" cy="306" r="10"
          style="fill:green;" />
  <circle cx="432" cy="154" r="10"
          style="fill:green;" />
  <circle cx="659" cy="68" r="10"
          style="fill:green;" />
  <circle cx="467" cy="429" r="10"
          style="fill:green;" />
  <circle cx="439" cy="284" r="10"
          style="fill:green;" />
  <circle cx="300" cy="472" r="10"
          style="fill:green;" />
  <circle cx="518" cy="341" r="10"
          style="fill:green;" />
  <circle cx="504" cy="363" r="10"
          style="fill:green;" />
  <circle cx="96" cy="274" r="10"
          style="fill:green;" />
  <circle cx="625" cy="188" r="10"
          style="fill:green;" />
  <circle cx="513" cy="438" r="10"
          style="fill:green;" />
  <circle cx="650" cy="296" r="10"
          style="fill:green;" />
  <circle cx="155" cy="237" r="10"
          style="fill:green;" />
  <circle cx="277" cy="122" r="10"
          style="fill:green;" />
  <circle cx="167" cy="352" r="10"
          style="fill:green;" />
  <circle cx="434" cy="310" r="10"
          style="fill:green;" />
  <circle cx="391" cy="468" r="10"
          style="fill:green;" />
  <circle cx="575" cy="65" r="10"
          style="fill:green;" />
  <circle cx="113" cy="316" r="10"
          style="fill:green;" />
  <circle cx="601" cy="408" r="10"
          style="fill:green;" />
  <circle cx="515" cy="484" r="10"
          style="fill:green;" />
  <circle cx="509" cy="336" r="10"
          style="fill:green;" />
  <circle cx="53" cy="189" r="10"
          style="fill:green;" />
  <circle cx="193" cy="256" r="10"
          style="fill:green;" />
  <circle cx="636" cy="108" r="10"
          style="fill:orange;" />
  <circle cx="490" cy="324" r="10"
          style="fill:orange;" />
  <circle cx="576" cy="414" r="10"
          style="fill:orange;" />
  <circle cx="189" cy="222" r="10"
          style="fill:orange;" />
  <circle cx="664" cy="106" r="10"
          style="fill:orange;" />
  <circle cx="511" cy="277" r="10"
          style="fill:green;" />
  <circle cx="309" cy="261" r="10"
          style="fill:yellow;" />
  <text x="10" y="535" font-size="15">
   DTW        = 238.6
  </text>
  <text x="10" y="555" font-size="15">
   experience = 7
  </text>
  <text x="10" y="575" font-size="15">
   reward = 0.0
  </text>
  <text x="10" y="595" font-size="15">
   objects eaten => friend: 1
  </text>
 </g>
</svg>
