<?xml version="1.0"?>
<svg height="600" width="720" >
 <g style="fill-opacity:1.0; stroke:black;
  stroke-width:1;">
  <rect x="10" y="10" height="500"
        width="700" style="fill:none;" />
  <line x1="304" y1="249" x2="424" y2="249" />
  <line x1="304" y1="249" x2="422" y2="273" />
  <line x1="304" y1="249" x2="415" y2="295" />
  <line x1="304" y1="249" x2="404" y2="316" />
  <line x1="304" y1="249" x2="389" y2="334" />
  <line x1="304" y1="249" x2="371" y2="349" />
  <line x1="304" y1="249" x2="350" y2="360" />
  <line x1="304" y1="249" x2="327" y2="367" />
  <line x1="304" y1="249" x2="304" y2="369" />
  <line x1="304" y1="249" x2="281" y2="367" />
  <line x1="304" y1="249" x2="258" y2="360" />
  <line x1="304" y1="249" x2="237" y2="349" />
  <line x1="304" y1="249" x2="219" y2="334" />
  <line x1="304" y1="249" x2="204" y2="316" />
  <line x1="304" y1="249" x2="193" y2="295" />
  <line x1="304" y1="249" x2="186" y2="273" />
  <line x1="304" y1="249" x2="184" y2="249" />
  <line x1="304" y1="249" x2="186" y2="226" />
  <line x1="304" y1="249" x2="193" y2="204" />
  <line x1="304" y1="249" x2="204" y2="183" />
  <line x1="304" y1="249" x2="219" y2="165" />
  <line x1="304" y1="249" x2="237" y2="150" />
  <line x1="304" y1="249" x2="258" y2="139" />
  <line x1="304" y1="249" x2="281" y2="132" />
  <line x1="304" y1="249" x2="304" y2="129" />
  <line x1="304" y1="249" x2="327" y2="132" />
  <line x1="304" y1="249" x2="350" y2="139" />
  <line x1="304" y1="249" x2="371" y2="150" />
  <line x1="304" y1="249" x2="389" y2="165" />
  <line x1="304" y1="249" x2="404" y2="183" />
  <line x1="304" y1="249" x2="415" y2="204" />
  <line x1="304" y1="249" x2="422" y2="226" />
  <circle cx="264" cy="405" r="10"
          style="fill:red;" />
  <circle cx="45" cy="400" r="10"
          style="fill:red;" />
  <circle cx="165" cy="30" r="10"
          style="fill:red;" />
  <circle cx="34" cy="99" r="10"
          style="fill:red;" />
  <circle cx="305" cy="39" r="10"
          style="fill:red;" />
  <circle cx="317" cy="402" r="10"
          style="fill:red;" />
  <circle cx="379" cy="253" r="10"
          style="fill:red;" />
  <circle cx="588" cy="319" r="10"
          style="fill:red;" />
  <circle cx="647" cy="27" r="10"
          style="fill:red;" />
  <circle cx="55" cy="155" r="10"
          style="fill:red;" />
  <circle cx="553" cy="313" r="10"
          style="fill:red;" />
  <circle cx="620" cy="72" r="10"
          style="fill:red;" />
  <circle cx="479" cy="417" r="10"
          style="fill:red;" />
  <circle cx="642" cy="61" r="10"
          style="fill:red;" />
  <circle cx="451" cy="267" r="10"
          style="fill:red;" />
  <circle cx="200" cy="265" r="10"
          style="fill:red;" />
  <circle cx="406" cy="392" r="10"
          style="fill:red;" />
  <circle cx="600" cy="387" r="10"
          style="fill:red;" />
  <circle cx="378" cy="334" r="10"
          style="fill:red;" />
  <circle cx="638" cy="65" r="10"
          style="fill:red;" />
  <circle cx="179" cy="132" r="10"
          style="fill:red;" />
  <circle cx="357" cy="228" r="10"
          style="fill:red;" />
  <circle cx="237" cy="131" r="10"
          style="fill:red;" />
  <circle cx="188" cy="496" r="10"
          style="fill:red;" />
  <circle cx="449" cy="316" r="10"
          style="fill:red;" />
  <circle cx="389" cy="301" r="10"
          style="fill:green;" />
  <circle cx="430" cy="155" r="10"
          style="fill:green;" />
  <circle cx="664" cy="75" r="10"
          style="fill:green;" />
  <circle cx="468" cy="437" r="10"
          style="fill:green;" />
  <circle cx="433" cy="277" r="10"
          style="fill:green;" />
  <circle cx="295" cy="477" r="10"
          style="fill:green;" />
  <circle cx="511" cy="335" r="10"
          style="fill:green;" />
  <circle cx="510" cy="356" r="10"
          style="fill:green;" />
  <circle cx="93" cy="271" r="10"
          style="fill:green;" />
  <circle cx="618" cy="183" r="10"
          style="fill:green;" />
  <circle cx="512" cy="434" r="10"
          style="fill:green;" />
  <circle cx="657" cy="290" r="10"
          style="fill:green;" />
  <circle cx="156" cy="243" r="10"
          style="fill:green;" />
  <circle cx="284" cy="120" r="10"
          style="fill:green;" />
  <circle cx="170" cy="351" r="10"
          style="fill:green;" />
  <circle cx="439" cy="305" r="10"
          style="fill:green;" />
  <circle cx="385" cy="468" r="10"
          style="fill:green;" />
  <circle cx="568" cy="68" r="10"
          style="fill:green;" />
  <circle cx="116" cy="313" r="10"
          style="fill:green;" />
  <circle cx="605" cy="410" r="10"
          style="fill:green;" />
  <circle cx="510" cy="491" r="10"
          style="fill:green;" />
  <circle cx="515" cy="336" r="10"
          style="fill:green;" />
  <circle cx="47" cy="189" r="10"
          style="fill:green;" />
  <circle cx="189" cy="257" r="10"
          style="fill:green;" />
  <circle cx="634" cy="111" r="10"
          style="fill:orange;" />
  <circle cx="488" cy="317" r="10"
          style="fill:orange;" />
  <circle cx="582" cy="409" r="10"
          style="fill:orange;" />
  <circle cx="189" cy="220" r="10"
          style="fill:orange;" />
  <circle cx="671" cy="99" r="10"
          style="fill:orange;" />
  <circle cx="514" cy="272" r="10"
          style="fill:green;" />
  <circle cx="304" cy="249" r="10"
          style="fill:yellow;" />
  <text x="10" y="535" font-size="15">
   DTW        = 230.0
  </text>
  <text x="10" y="555" font-size="15">
   experience = 7
  </text>
  <text x="10" y="575" font-size="15">
   reward = 0.0
  </text>
  <text x="10" y="595" font-size="15">
   objects eaten => friend: 1
  </text>
 </g>
</svg>
