<?xml version="1.0"?>
<svg height="600" width="720" >
 <g style="fill-opacity:1.0; stroke:black;
  stroke-width:1;">
  <rect x="10" y="10" height="500"
        width="700" style="fill:none;" />
  <line x1="302" y1="243" x2="422" y2="243" />
  <line x1="302" y1="243" x2="420" y2="267" />
  <line x1="302" y1="243" x2="413" y2="289" />
  <line x1="302" y1="243" x2="402" y2="310" />
  <line x1="302" y1="243" x2="387" y2="328" />
  <line x1="302" y1="243" x2="369" y2="343" />
  <line x1="302" y1="243" x2="348" y2="354" />
  <line x1="302" y1="243" x2="326" y2="361" />
  <line x1="302" y1="243" x2="302" y2="363" />
  <line x1="302" y1="243" x2="279" y2="361" />
  <line x1="302" y1="243" x2="257" y2="354" />
  <line x1="302" y1="243" x2="236" y2="343" />
  <line x1="302" y1="243" x2="218" y2="328" />
  <line x1="302" y1="243" x2="203" y2="310" />
  <line x1="302" y1="243" x2="192" y2="289" />
  <line x1="302" y1="243" x2="185" y2="267" />
  <line x1="302" y1="243" x2="182" y2="243" />
  <line x1="302" y1="243" x2="185" y2="220" />
  <line x1="302" y1="243" x2="192" y2="197" />
  <line x1="302" y1="243" x2="203" y2="176" />
  <line x1="302" y1="243" x2="218" y2="158" />
  <line x1="302" y1="243" x2="236" y2="143" />
  <line x1="302" y1="243" x2="257" y2="132" />
  <line x1="302" y1="243" x2="279" y2="125" />
  <line x1="302" y1="243" x2="302" y2="123" />
  <line x1="302" y1="243" x2="326" y2="125" />
  <line x1="302" y1="243" x2="348" y2="132" />
  <line x1="302" y1="243" x2="369" y2="143" />
  <line x1="302" y1="243" x2="387" y2="158" />
  <line x1="302" y1="243" x2="402" y2="176" />
  <line x1="302" y1="243" x2="413" y2="197" />
  <line x1="302" y1="243" x2="420" y2="220" />
  <circle cx="264" cy="408" r="10"
          style="fill:red;" />
  <circle cx="46" cy="402" r="10"
          style="fill:red;" />
  <circle cx="166" cy="27" r="10"
          style="fill:red;" />
  <circle cx="33" cy="100" r="10"
          style="fill:red;" />
  <circle cx="308" cy="40" r="10"
          style="fill:red;" />
  <circle cx="316" cy="401" r="10"
          style="fill:red;" />
  <circle cx="377" cy="254" r="10"
          style="fill:red;" />
  <circle cx="587" cy="317" r="10"
          style="fill:red;" />
  <circle cx="648" cy="28" r="10"
          style="fill:red;" />
  <circle cx="52" cy="158" r="10"
          style="fill:red;" />
  <circle cx="553" cy="316" r="10"
          style="fill:red;" />
  <circle cx="621" cy="72" r="10"
          style="fill:red;" />
  <circle cx="477" cy="416" r="10"
          style="fill:red;" />
  <circle cx="640" cy="63" r="10"
          style="fill:red;" />
  <circle cx="451" cy="267" r="10"
          style="fill:red;" />
  <circle cx="199" cy="263" r="10"
          style="fill:red;" />
  <circle cx="405" cy="394" r="10"
          style="fill:red;" />
  <circle cx="601" cy="385" r="10"
          style="fill:red;" />
  <circle cx="381" cy="332" r="10"
          style="fill:red;" />
  <circle cx="636" cy="63" r="10"
          style="fill:red;" />
  <circle cx="179" cy="135" r="10"
          style="fill:red;" />
  <circle cx="355" cy="229" r="10"
          style="fill:red;" />
  <circle cx="234" cy="134" r="10"
          style="fill:red;" />
  <circle cx="185" cy="499" r="10"
          style="fill:red;" />
  <circle cx="450" cy="313" r="10"
          style="fill:red;" />
  <circle cx="391" cy="299" r="10"
          style="fill:green;" />
  <circle cx="429" cy="155" r="10"
          style="fill:green;" />
  <circle cx="666" cy="78" r="10"
          style="fill:green;" />
  <circle cx="468" cy="439" r="10"
          style="fill:green;" />
  <circle cx="430" cy="275" r="10"
          style="fill:green;" />
  <circle cx="293" cy="478" r="10"
          style="fill:green;" />
  <circle cx="508" cy="333" r="10"
          style="fill:green;" />
  <circle cx="512" cy="354" r="10"
          style="fill:green;" />
  <circle cx="92" cy="270" r="10"
          style="fill:green;" />
  <circle cx="616" cy="181" r="10"
          style="fill:green;" />
  <circle cx="512" cy="433" r="10"
          style="fill:green;" />
  <circle cx="660" cy="287" r="10"
          style="fill:green;" />
  <circle cx="156" cy="245" r="10"
          style="fill:green;" />
  <circle cx="286" cy="120" r="10"
          style="fill:green;" />
  <circle cx="172" cy="350" r="10"
          style="fill:green;" />
  <circle cx="441" cy="303" r="10"
          style="fill:green;" />
  <circle cx="383" cy="468" r="10"
          style="fill:green;" />
  <circle cx="566" cy="69" r="10"
          style="fill:green;" />
  <circle cx="117" cy="311" r="10"
          style="fill:green;" />
  <circle cx="607" cy="411" r="10"
          style="fill:green;" />
  <circle cx="508" cy="494" r="10"
          style="fill:green;" />
  <circle cx="517" cy="335" r="10"
          style="fill:green;" />
  <circle cx="44" cy="190" r="10"
          style="fill:green;" />
  <circle cx="188" cy="258" r="10"
          style="fill:green;" />
  <circle cx="633" cy="111" r="10"
          style="fill:orange;" />
  <circle cx="487" cy="314" r="10"
          style="fill:orange;" />
  <circle cx="585" cy="407" r="10"
          style="fill:orange;" />
  <circle cx="189" cy="219" r="10"
          style="fill:orange;" />
  <circle cx="674" cy="96" r="10"
          style="fill:orange;" />
  <circle cx="515" cy="271" r="10"
          style="fill:green;" />
  <circle cx="302" cy="243" r="10"
          style="fill:yellow;" />
  <text x="10" y="535" font-size="15">
   DTW        = 223.6
  </text>
  <text x="10" y="555" font-size="15">
   experience = 7
  </text>
  <text x="10" y="575" font-size="15">
   reward = 0.0
  </text>
  <text x="10" y="595" font-size="15">
   objects eaten => friend: 1
  </text>
 </g>
</svg>
