<?xml version="1.0"?>
<svg height="600" width="720" >
 <g style="fill-opacity:1.0; stroke:black;
  stroke-width:1;">
  <rect x="10" y="10" height="500"
        width="700" style="fill:none;" />
  <line x1="306" y1="226" x2="426" y2="226" />
  <line x1="306" y1="226" x2="424" y2="250" />
  <line x1="306" y1="226" x2="417" y2="272" />
  <line x1="306" y1="226" x2="406" y2="293" />
  <line x1="306" y1="226" x2="391" y2="311" />
  <line x1="306" y1="226" x2="373" y2="326" />
  <line x1="306" y1="226" x2="352" y2="337" />
  <line x1="306" y1="226" x2="329" y2="344" />
  <line x1="306" y1="226" x2="306" y2="346" />
  <line x1="306" y1="226" x2="283" y2="344" />
  <line x1="306" y1="226" x2="260" y2="337" />
  <line x1="306" y1="226" x2="239" y2="326" />
  <line x1="306" y1="226" x2="221" y2="311" />
  <line x1="306" y1="226" x2="206" y2="293" />
  <line x1="306" y1="226" x2="195" y2="272" />
  <line x1="306" y1="226" x2="188" y2="250" />
  <line x1="306" y1="226" x2="186" y2="226" />
  <line x1="306" y1="226" x2="188" y2="203" />
  <line x1="306" y1="226" x2="195" y2="180" />
  <line x1="306" y1="226" x2="206" y2="160" />
  <line x1="306" y1="226" x2="221" y2="142" />
  <line x1="306" y1="226" x2="239" y2="127" />
  <line x1="306" y1="226" x2="260" y2="116" />
  <line x1="306" y1="226" x2="283" y2="109" />
  <line x1="306" y1="226" x2="306" y2="106" />
  <line x1="306" y1="226" x2="329" y2="109" />
  <line x1="306" y1="226" x2="352" y2="116" />
  <line x1="306" y1="226" x2="373" y2="127" />
  <line x1="306" y1="226" x2="391" y2="142" />
  <line x1="306" y1="226" x2="406" y2="160" />
  <line x1="306" y1="226" x2="417" y2="180" />
  <line x1="306" y1="226" x2="424" y2="203" />
  <circle cx="264" cy="415" r="10"
          style="fill:red;" />
  <circle cx="47" cy="409" r="10"
          style="fill:red;" />
  <circle cx="169" cy="19" r="10"
          style="fill:red;" />
  <circle cx="29" cy="103" r="10"
          style="fill:red;" />
  <circle cx="315" cy="43" r="10"
          style="fill:red;" />
  <circle cx="312" cy="399" r="10"
          style="fill:red;" />
  <circle cx="372" cy="257" r="10"
          style="fill:red;" />
  <circle cx="583" cy="310" r="10"
          style="fill:red;" />
  <circle cx="652" cy="31" r="10"
          style="fill:red;" />
  <circle cx="44" cy="166" r="10"
          style="fill:red;" />
  <circle cx="554" cy="324" r="10"
          style="fill:red;" />
  <circle cx="625" cy="74" r="10"
          style="fill:red;" />
  <circle cx="472" cy="414" r="10"
          style="fill:red;" />
  <circle cx="632" cy="67" r="10"
          style="fill:red;" />
  <circle cx="450" cy="266" r="10"
          style="fill:red;" />
  <circle cx="195" cy="257" r="10"
          style="fill:red;" />
  <circle cx="402" cy="402" r="10"
          style="fill:red;" />
  <circle cx="604" cy="378" r="10"
          style="fill:red;" />
  <circle cx="390" cy="326" r="10"
          style="fill:red;" />
  <circle cx="632" cy="56" r="10"
          style="fill:red;" />
  <circle cx="179" cy="143" r="10"
          style="fill:red;" />
  <circle cx="348" cy="233" r="10"
          style="fill:red;" />
  <circle cx="227" cy="140" r="10"
          style="fill:red;" />
  <circle cx="178" cy="492" r="10"
          style="fill:red;" />
  <circle cx="453" cy="305" r="10"
          style="fill:red;" />
  <circle cx="395" cy="294" r="10"
          style="fill:green;" />
  <circle cx="427" cy="157" r="10"
          style="fill:green;" />
  <circle cx="673" cy="86" r="10"
          style="fill:green;" />
  <circle cx="469" cy="448" r="10"
          style="fill:green;" />
  <circle cx="423" cy="267" r="10"
          style="fill:green;" />
  <circle cx="288" cy="483" r="10"
          style="fill:green;" />
  <circle cx="500" cy="326" r="10"
          style="fill:green;" />
  <circle cx="519" cy="346" r="10"
          style="fill:green;" />
  <circle cx="88" cy="266" r="10"
          style="fill:green;" />
  <circle cx="608" cy="175" r="10"
          style="fill:green;" />
  <circle cx="511" cy="428" r="10"
          style="fill:green;" />
  <circle cx="669" cy="280" r="10"
          style="fill:green;" />
  <circle cx="157" cy="253" r="10"
          style="fill:green;" />
  <circle cx="295" cy="118" r="10"
          style="fill:green;" />
  <circle cx="176" cy="348" r="10"
          style="fill:green;" />
  <circle cx="447" cy="297" r="10"
          style="fill:green;" />
  <circle cx="375" cy="467" r="10"
          style="fill:green;" />
  <circle cx="557" cy="73" r="10"
          style="fill:green;" />
  <circle cx="121" cy="308" r="10"
          style="fill:green;" />
  <circle cx="612" cy="414" r="10"
          style="fill:green;" />
  <circle cx="503" cy="494" r="10"
          style="fill:green;" />
  <circle cx="524" cy="335" r="10"
          style="fill:green;" />
  <circle cx="37" cy="191" r="10"
          style="fill:green;" />
  <circle cx="183" cy="259" r="10"
          style="fill:green;" />
  <circle cx="631" cy="114" r="10"
          style="fill:orange;" />
  <circle cx="486" cy="306" r="10"
          style="fill:orange;" />
  <circle cx="591" cy="401" r="10"
          style="fill:orange;" />
  <circle cx="189" cy="217" r="10"
          style="fill:orange;" />
  <circle cx="683" cy="87" r="10"
          style="fill:orange;" />
  <circle cx="519" cy="265" r="10"
          style="fill:green;" />
  <circle cx="306" cy="226" r="10"
          style="fill:yellow;" />
  <text x="10" y="535" font-size="15">
   DTW        = 206.9
  </text>
  <text x="10" y="555" font-size="15">
   experience = 8
  </text>
  <text x="10" y="575" font-size="15">
   reward = 0.0
  </text>
  <text x="10" y="595" font-size="15">
   objects eaten => friend: 1
  </text>
 </g>
</svg>
