<?xml version="1.0"?>
<svg height="600" width="720" >
 <g style="fill-opacity:1.0; stroke:black;
  stroke-width:1;">
  <rect x="10" y="10" height="500"
        width="700" style="fill:none;" />
  <line x1="307" y1="223" x2="427" y2="223" />
  <line x1="307" y1="223" x2="424" y2="246" />
  <line x1="307" y1="223" x2="418" y2="269" />
  <line x1="307" y1="223" x2="406" y2="290" />
  <line x1="307" y1="223" x2="392" y2="308" />
  <line x1="307" y1="223" x2="373" y2="323" />
  <line x1="307" y1="223" x2="353" y2="334" />
  <line x1="307" y1="223" x2="330" y2="341" />
  <line x1="307" y1="223" x2="307" y2="343" />
  <line x1="307" y1="223" x2="283" y2="341" />
  <line x1="307" y1="223" x2="261" y2="334" />
  <line x1="307" y1="223" x2="240" y2="323" />
  <line x1="307" y1="223" x2="222" y2="308" />
  <line x1="307" y1="223" x2="207" y2="290" />
  <line x1="307" y1="223" x2="196" y2="269" />
  <line x1="307" y1="223" x2="189" y2="246" />
  <line x1="307" y1="223" x2="187" y2="223" />
  <line x1="307" y1="223" x2="189" y2="199" />
  <line x1="307" y1="223" x2="196" y2="177" />
  <line x1="307" y1="223" x2="207" y2="156" />
  <line x1="307" y1="223" x2="222" y2="138" />
  <line x1="307" y1="223" x2="240" y2="123" />
  <line x1="307" y1="223" x2="261" y2="112" />
  <line x1="307" y1="223" x2="283" y2="105" />
  <line x1="307" y1="223" x2="307" y2="103" />
  <line x1="307" y1="223" x2="330" y2="105" />
  <line x1="307" y1="223" x2="353" y2="112" />
  <line x1="307" y1="223" x2="373" y2="123" />
  <line x1="307" y1="223" x2="392" y2="138" />
  <line x1="307" y1="223" x2="406" y2="156" />
  <line x1="307" y1="223" x2="418" y2="177" />
  <line x1="307" y1="223" x2="424" y2="199" />
  <circle cx="264" cy="416" r="10"
          style="fill:red;" />
  <circle cx="47" cy="410" r="10"
          style="fill:red;" />
  <circle cx="169" cy="20" r="10"
          style="fill:red;" />
  <circle cx="29" cy="103" r="10"
          style="fill:red;" />
  <circle cx="316" cy="44" r="10"
          style="fill:red;" />
  <circle cx="311" cy="398" r="10"
          style="fill:red;" />
  <circle cx="371" cy="257" r="10"
          style="fill:red;" />
  <circle cx="582" cy="309" r="10"
          style="fill:red;" />
  <circle cx="652" cy="32" r="10"
          style="fill:red;" />
  <circle cx="43" cy="167" r="10"
          style="fill:red;" />
  <circle cx="555" cy="326" r="10"
          style="fill:red;" />
  <circle cx="625" cy="75" r="10"
          style="fill:red;" />
  <circle cx="471" cy="414" r="10"
          style="fill:red;" />
  <circle cx="630" cy="68" r="10"
          style="fill:red;" />
  <circle cx="450" cy="266" r="10"
          style="fill:red;" />
  <circle cx="195" cy="256" r="10"
          style="fill:red;" />
  <circle cx="401" cy="403" r="10"
          style="fill:red;" />
  <circle cx="605" cy="377" r="10"
          style="fill:red;" />
  <circle cx="391" cy="325" r="10"
          style="fill:red;" />
  <circle cx="631" cy="55" r="10"
          style="fill:red;" />
  <circle cx="179" cy="145" r="10"
          style="fill:red;" />
  <circle cx="347" cy="234" r="10"
          style="fill:red;" />
  <circle cx="226" cy="142" r="10"
          style="fill:red;" />
  <circle cx="177" cy="491" r="10"
          style="fill:red;" />
  <circle cx="453" cy="303" r="10"
          style="fill:red;" />
  <circle cx="396" cy="293" r="10"
          style="fill:green;" />
  <circle cx="426" cy="157" r="10"
          style="fill:green;" />
  <circle cx="674" cy="87" r="10"
          style="fill:green;" />
  <circle cx="469" cy="449" r="10"
          style="fill:green;" />
  <circle cx="422" cy="265" r="10"
          style="fill:green;" />
  <circle cx="287" cy="484" r="10"
          style="fill:green;" />
  <circle cx="498" cy="325" r="10"
          style="fill:green;" />
  <circle cx="520" cy="345" r="10"
          style="fill:green;" />
  <circle cx="88" cy="266" r="10"
          style="fill:green;" />
  <circle cx="607" cy="174" r="10"
          style="fill:green;" />
  <circle cx="511" cy="428" r="10"
          style="fill:green;" />
  <circle cx="670" cy="279" r="10"
          style="fill:green;" />
  <circle cx="157" cy="254" r="10"
          style="fill:green;" />
  <circle cx="296" cy="118" r="10"
          style="fill:green;" />
  <circle cx="176" cy="348" r="10"
          style="fill:green;" />
  <circle cx="448" cy="296" r="10"
          style="fill:green;" />
  <circle cx="374" cy="467" r="10"
          style="fill:green;" />
  <circle cx="556" cy="73" r="10"
          style="fill:green;" />
  <circle cx="121" cy="307" r="10"
          style="fill:green;" />
  <circle cx="613" cy="414" r="10"
          style="fill:green;" />
  <circle cx="502" cy="493" r="10"
          style="fill:green;" />
  <circle cx="525" cy="335" r="10"
          style="fill:green;" />
  <circle cx="36" cy="191" r="10"
          style="fill:green;" />
  <circle cx="182" cy="259" r="10"
          style="fill:green;" />
  <circle cx="631" cy="115" r="10"
          style="fill:orange;" />
  <circle cx="485" cy="305" r="10"
          style="fill:orange;" />
  <circle cx="593" cy="400" r="10"
          style="fill:orange;" />
  <circle cx="189" cy="216" r="10"
          style="fill:orange;" />
  <circle cx="684" cy="86" r="10"
          style="fill:orange;" />
  <circle cx="520" cy="264" r="10"
          style="fill:green;" />
  <circle cx="307" cy="223" r="10"
          style="fill:yellow;" />
  <text x="10" y="535" font-size="15">
   DTW        = 203.4
  </text>
  <text x="10" y="555" font-size="15">
   experience = 8
  </text>
  <text x="10" y="575" font-size="15">
   reward = 0.0
  </text>
  <text x="10" y="595" font-size="15">
   objects eaten => friend: 1
  </text>
 </g>
</svg>
